<svg width="100" height="782" fill="none" xmlns="http://www.w3.org/2000/svg"><path opacity=".1" d="m71.68 772.648.683.73.005-.004-.688-.726ZM28 778.992l.374-.928-.005-.001-.369.929Zm-11.856-7.696.715-.7-.008-.007-.707.707ZM8.76 759.648l-.938.346.938-.346Zm-1.768-22.984.982.191.002-.013.002-.014-.986-.164Zm1.56-6.552.949.316.005-.016.005-.016-.959-.284Zm3.224-7.384.336-.942-.758-.27-.426.682.848.53Zm13.104 4.68.883.469.543-1.022-1.09-.389-.336.942Zm-3.016 7.8.962.275.001-.006-.963-.269Zm0 17.368-.946.324.003.009.943-.333Zm4.056 6.344-.707.707.707-.707Zm27.04 4.992.232.973.013-.003.014-.004-.259-.966Zm7.384-3.536.608.794.009-.007.008-.006-.625-.781Zm4.992-6.448.904.428.004-.01.005-.01-.913-.408Zm1.352-15.912-.99.147.99-.147Zm-.936-4.992.973-.232-.005-.021-.007-.022-.961.275Zm-1.352-3.848.916-.401-.916.401Zm-1.352-3.016-.325-.946-1.047.36.464 1.005.908-.419Zm13-4.472.855-.518-.418-.69-.762.262.325.946Zm3.744 9.672.966-.258-.966.258Zm.664 14.456c0 11.531-3.202 20.177-9.463 26.106l1.375 1.452c6.772-6.412 10.088-15.654 10.088-27.558h-2Zm-9.46 26.102c-6.275 5.875-15.254 8.882-27.084 8.882v2c12.16 0 21.693-3.095 28.451-9.422l-1.366-1.46ZM43.913 780.8c-5.858 0-11.032-.92-15.538-2.736l-.748 1.856c4.785 1.928 10.22 2.88 16.286 2.88v-2Zm-15.543-2.737c-4.6-1.827-8.43-4.318-11.51-7.466l-1.43 1.398c3.298 3.37 7.372 6.009 12.202 7.926l.738-1.858Zm-11.518-7.474c-3.152-3.152-5.537-6.91-7.153-11.287l-1.876.692c1.712 4.637 4.25 8.644 7.615 12.009l1.414-1.414Zm-7.153-11.287c-1.62-4.386-2.434-9.155-2.434-14.318h-2c0 5.376.85 10.383 2.558 15.01l1.876-.692Zm-2.434-14.318c0-2.999.239-5.707.71-8.129l-1.964-.382c-.5 2.57-.746 5.409-.746 8.511h2Zm.714-8.156c.41-2.458.92-4.589 1.523-6.4l-1.898-.632c-.644 1.933-1.175 4.17-1.597 6.704l1.972.328Zm1.533-6.432c.544-1.836 1.114-3.337 1.703-4.517l-1.788-.894c-.659 1.316-1.268 2.935-1.833 4.843l1.918.568Zm1.703-4.517c.622-1.244 1.09-2.109 1.41-2.621l-1.696-1.06c-.373.597-.876 1.535-1.502 2.787l1.788.894Zm.226-2.209 13.104 4.68.672-1.884-13.104-4.68-.672 1.884Zm12.557 3.269c-1.22 2.295-2.25 4.965-3.096 8l1.926.538c.817-2.927 1.798-5.458 2.936-7.6l-1.766-.938Zm-3.095 7.994c-.862 3.02-1.286 6.443-1.286 10.259h2c0-3.672.408-6.905 1.21-9.709l-1.924-.55Zm-1.286 10.259c0 2.609.435 5.18 1.302 7.708l1.892-.648a21.63 21.63 0 0 1-1.194-7.06h-2Zm1.305 7.717c.885 2.506 2.32 4.747 4.292 6.718l1.414-1.414c-1.773-1.773-3.04-3.762-3.82-5.97l-1.886.666Zm4.292 6.718c1.922 1.922 4.408 3.447 7.423 4.595l.712-1.868c-2.809-1.071-5.037-2.458-6.72-4.141l-1.415 1.414Zm7.423 4.595c3.057 1.165 6.72 1.73 10.964 1.73v-2c-4.077 0-7.485-.544-10.252-1.598l-.712 1.868Zm10.964 1.73c3.397 0 6.596-.354 9.592-1.067l-.464-1.946c-2.828.674-5.87 1.013-9.128 1.013v2Zm9.62-1.074c2.953-.793 5.536-2.025 7.732-3.708l-1.216-1.588c-1.964 1.506-4.303 2.631-7.035 3.364l.518 1.932Zm7.749-3.721c2.21-1.768 3.964-4.042 5.27-6.801l-1.807-.856c-1.189 2.51-2.762 4.535-4.713 6.095l1.25 1.562Zm5.28-6.821c1.25-2.795 1.855-6.131 1.855-9.976h-2c0 3.643-.574 6.686-1.68 9.16l1.825.816Zm1.855-9.976c0-2.395-.14-4.56-.427-6.491l-1.978.294c.268 1.813.405 3.877.405 6.197h2Zm-.427-6.491a60.288 60.288 0 0 0-.952-5.077l-1.946.464c.339 1.421.646 3.056.92 4.907l1.978-.294Zm-.964-5.12c-.425-1.489-.89-2.815-1.397-3.974l-1.832.802c.463 1.06.9 2.299 1.306 3.722l1.923-.55Zm-1.397-3.974c-.487-1.114-.94-2.126-1.36-3.034l-1.816.838c.413.894.86 1.893 1.344 2.998l1.832-.802Zm-1.943-1.669 13-4.472-.65-1.892-13 4.472.65 1.892Zm11.82-4.9c1.317 2.173 2.535 5.295 3.633 9.412l1.932-.516c-1.12-4.203-2.398-7.529-3.855-9.932l-1.71 1.036Zm3.633 9.412c1.082 4.056 1.63 8.785 1.63 14.198h2c0-5.542-.56-10.45-1.698-14.714l-1.932.516Zm-38.45-17.701-.383.924.008.003.375-.927Zm-9.152-5.928-.707.707.707-.707Zm-5.512-8.32-.931.365.003.007.928-.372Zm5.304-28.184.686.728.005-.005-.691-.723Zm23.92-6.656.066-.998h-.004l-.062.998Zm2.808.208h1v-.92l-.917-.076-.083.996Zm0 35.152h-1v1.115l1.108-.121-.108-.994Zm7.592-4.472.815.579-.815-.579Zm2.08-18.928.984-.176-.002-.01-.001-.01-.981.196Zm-1.976-6.76-.163-.986-1.271.21.519 1.179.915-.403Zm12.584-2.08.894-.447-.33-.66-.727.121.163.986Zm1.248 3.328-.958.288.958-.288Zm1.04 4.68-.987.158.003.023.005.023.979-.204Zm.832 5.408.994-.106-.994.106Zm-1.872 18.72.927.375.003-.006-.93-.369Zm-5.928 9.048.677.737.01-.01.01-.01-.697-.717Zm-9.048 5.304.305.953.008-.003.009-.003-.322-.947Zm-17.16-34.736h1v-1.054l-1.053.056.053.998Zm-3.848.728.268.964.024-.007.024-.008-.316-.949Zm-3.328 1.768.618.787.017-.014.016-.013-.651-.76Zm-2.392 3.016.884.468.005-.01.005-.011-.894-.447Zm0 8.944.914-.406-.01-.021-.01-.02-.894.447Zm5.72 5.096-.346.939.015.005.015.005.316-.949Zm3.848.936-.156.988 1.156.183v-1.171h-1Zm5.928 14.912c-4.756 0-8.853-.713-12.313-2.111l-.75 1.854c3.75 1.515 8.112 2.257 13.063 2.257v-2Zm-12.305-2.107c-3.572-1.483-6.508-3.391-8.828-5.712l-1.414 1.414c2.533 2.533 5.699 4.577 9.476 6.145l.766-1.847Zm-8.828-5.712c-2.333-2.333-4.094-4.993-5.29-7.984l-1.857.743c1.299 3.248 3.213 6.135 5.733 8.655l1.414-1.414Zm-5.288-7.977c-1.204-3.077-1.803-6.212-1.803-9.412h-2c0 3.457.649 6.839 1.94 10.141l1.863-.729Zm-1.803-9.412c0-7.544 2.315-13.396 6.862-17.68l-1.372-1.456c-5.02 4.73-7.49 11.15-7.49 19.136h2Zm6.867-17.685c4.463-4.266 11.142-6.483 20.213-6.483v-2c-9.372 0-16.63 2.291-21.595 7.037l1.382 1.446Zm20.213-6.483a48 48 0 0 1 2.954.102l.124-1.996a50.011 50.011 0 0 0-3.078-.106v2Zm2.95.102c1.035.069 1.966.138 2.791.207l.166-1.993c-.839-.07-1.78-.14-2.825-.21l-.133 1.996Zm1.874-.79v35.152h2v-35.152h-2Zm1.108 36.146c3.476-.377 6.263-2.021 8.3-4.887l-1.631-1.158c-1.708 2.404-3.982 3.742-6.885 4.057l.216 1.988Zm8.3-4.887c2.029-2.856 2.992-6.617 2.992-11.187h-2c0 4.306-.909 7.616-2.623 10.029l1.63 1.158Zm2.992-11.187a48 48 0 0 0-.744-8.496l-1.968.353a46.01 46.01 0 0 1 .712 8.143h2Zm-.747-8.516c-.563-2.813-1.24-5.143-2.042-6.966l-1.83.805c.723 1.643 1.364 3.82 1.91 6.553l1.962-.392Zm-2.794-5.577 12.584-2.08-.326-1.973-12.584 2.08.326 1.973Zm11.527-2.62c.38.761.777 1.81 1.184 3.169l1.916-.575c-.425-1.415-.86-2.585-1.312-3.488l-1.788.894Zm1.184 3.169c.401 1.336.739 2.852 1.01 4.55l1.975-.316c-.283-1.768-.638-3.372-1.07-4.809l-1.915.575Zm1.019 4.596c.34 1.628.612 3.397.817 5.311l1.988-.213a56.642 56.642 0 0 0-.847-5.506l-1.958.408Zm.817 5.311c.204 1.906.306 3.812.306 5.717h2c0-1.977-.106-3.954-.318-5.93l-1.988.213Zm.306 5.717c0 4.827-.714 8.995-2.114 12.528l1.86.737c1.512-3.817 2.254-8.246 2.254-13.265h-2Zm-2.111 12.522c-1.41 3.491-3.313 6.386-5.698 8.705l1.394 1.434c2.607-2.534 4.656-5.671 6.158-9.39l-1.854-.749Zm-5.678 8.686c-2.457 2.258-5.351 3.957-8.693 5.093l.644 1.894c3.591-1.221 6.73-3.058 9.403-5.514l-1.354-1.473Zm-8.676 5.088c-3.358 1.075-6.998 1.616-10.927 1.616v2c4.114 0 7.962-.567 11.537-1.711l-.61-1.905Zm-16.908-34.782a15.506 15.506 0 0 0-4.111.778l.632 1.897a13.483 13.483 0 0 1 3.585-.678l-.106-1.997Zm-4.063.763a9.567 9.567 0 0 0-3.71 1.972l1.3 1.519a7.57 7.57 0 0 1 2.946-1.564l-.536-1.927Zm-3.678 1.945c-1.1.865-1.987 1.992-2.668 3.355l1.788.894c.567-1.133 1.275-2.016 2.116-2.676l-1.236-1.573Zm-2.658 3.334c-.722 1.365-1.052 3.029-1.052 4.94h2c0-1.694.294-3.011.82-4.004l-1.768-.936Zm-1.052 4.94c0 1.852.333 3.503 1.042 4.919l1.788-.894c-.54-1.08-.83-2.41-.83-4.025h-2Zm1.022 4.878c.611 1.375 1.46 2.538 2.551 3.474l1.302-1.519c-.85-.729-1.527-1.645-2.025-2.767l-1.828.812Zm2.551 3.474c1.07.916 2.32 1.632 3.737 2.155l.692-1.877c-1.217-.448-2.255-1.05-3.127-1.797l-1.302 1.519Zm3.767 2.165c1.3.434 2.637.759 4.008.975l.312-1.976a22.947 22.947 0 0 1-3.688-.896l-.632 1.897Zm5.164-.013v-20.488h-2v20.488h2Zm-9.112-80.39.97.242.254-1.014-1.025-.208-.199.98Zm-1.04 4.888.976.217.004-.018.003-.017-.983-.182Zm-.312 9.568.995-.105-.003-.022-.003-.021-.989.148Zm.52 3.016-.958.287.214.713h.744v-1Zm41.808 0h1v-1h-1v1Zm0 15.496v1h1v-1h-1Zm-51.792 0-.944.33.235.67h.709v-1Zm-2.704-9.776.976-.217-.003-.013-.973.23Zm-1.144-15.704.993.117.004-.029.001-.029-.998-.059Zm.416-3.536.985.174.005-.029.003-.028-.993-.117Zm.624-3.536.973.229.007-.028.005-.027-.985-.174Zm.832-3.016.2-.98-.807-.164-.316.759.923.385Zm11.822 2.357A83.062 83.062 0 0 0 37 624.505l1.966.364a81.146 81.146 0 0 1 1.027-4.828l-1.94-.485Zm-1.046 4.914c-.434 1.951-.648 4.035-.648 6.249h2c0-2.085.202-4.022.6-5.815l-1.952-.434Zm-.648 6.249c0 1.037.11 2.268.323 3.684l1.978-.296c-.204-1.358-.301-2.484-.301-3.388h-2Zm.318 3.641c.14 1.337.321 2.415.556 3.198l1.916-.574c-.181-.604-.347-1.536-.483-2.834l-1.99.21Zm1.514 3.911H80v-2H38.192v2Zm40.808-1v15.496h2v-15.496h-2Zm1 14.496H28.208v2H80v-2Zm-50.848.67c-.955-2.727-1.846-5.947-2.672-9.663l-1.952.434c.838 3.771 1.75 7.07 2.736 9.889l1.888-.66Zm-2.675-9.676c-.88-3.726-1.325-7.876-1.325-12.458h-2c0 4.709.457 9.017 1.379 12.918l1.946-.46Zm-1.325-12.458c0-.781.065-1.745.201-2.899l-1.986-.234c-.142 1.203-.215 2.249-.215 3.133h2Zm.206-2.957c.067-1.14.201-2.28.403-3.421l-1.97-.348a31.715 31.715 0 0 0-.43 3.651l1.997.118Zm.411-3.478a30.64 30.64 0 0 1 .604-3.424l-1.946-.458a32.472 32.472 0 0 0-.644 3.648l1.986.234Zm.616-3.479c.199-1.129.46-2.059.77-2.806l-1.846-.769c-.383.918-.677 1.998-.894 3.227l1.97.348Zm-.352-2.21 12.792 2.6.398-1.96-12.792-2.6-.398 1.96Zm43.047-33.544.999-.049-.999.049Zm-.312-3.328.986-.164-.139-.836h-.847v1Zm-11.752 0v-1h-.802l-.174.784.976.216Zm-.312 10.401.994-.111-.003-.023-.003-.022-.988.156Zm.936 3.327.894-.447-.894.447Zm10.192.729.854.519.013-.021.012-.022-.879-.476Zm-37.96-24.233.68.733.007-.006.007-.007-.694-.72Zm7.072-3.952-.265-.964.265.964Zm41.496-1.143.977-.214-.172-.786h-.805v1Zm1.664 9.255-.988.156.002.009.001.008.985-.173Zm.104 24.025.977.214v-.005l-.977-.209Zm-3.016 7.384.82.573.006-.009.006-.01-.832-.554Zm-5.616 4.784-.436-.9.436.9Zm-16.536-.208-.51.859.01.006.01.006.49-.871Zm-5.304-5.201.853-.522-.853.522Zm-2.808-7.384.98-.196-.002-.011-.002-.012-.976.219Zm-.624-13.935.99.135.004-.025.002-.024-.996-.086Zm.624-3.849.962.275.364-1.275h-1.326v1ZM37.36 599.82l.991-.134-.002-.014-.002-.013-.987.161Zm1.56 6.655.156.988 1.206-.191-.424-1.144-.938.347Zm-12.48 1.976-.956.295.255.829.857-.136-.156-.988Zm-.832-3.327.979-.207-.004-.018-.005-.018-.97.243Zm-.832-4.472.992-.13-.003-.021-.004-.021-.985.172Zm-.624-4.992.997-.08-.002-.018-.002-.017-.993.115Zm46.032-6.657c0-1.54-.035-3.013-.105-4.417l-1.998.099c.069 1.369.103 2.808.103 4.318h2Zm-.105-4.417c-.07-1.404-.177-2.557-.325-3.443l-1.972.329c.13.778.23 1.844.3 3.213l1.997-.099Zm-1.311-4.279H57.016v2h11.752v-2Zm-12.728.784c-.15.678-.294 1.657-.434 2.914l1.988.221c.138-1.239.272-2.132.398-2.702l-1.952-.433Zm-.434 2.914a32.285 32.285 0 0 0-.214 3.543h2c0-.997.066-2.104.202-3.322l-1.988-.221Zm-.214 3.543c0 1.503.107 2.942.324 4.315l1.976-.311a25.67 25.67 0 0 1-.3-4.004h-2Zm.318 4.27c.15 1.347.49 2.573 1.036 3.665l1.788-.895c-.425-.85-.709-1.842-.836-2.991l-1.988.221Zm1.036 3.665c.556 1.112 1.326 2.013 2.315 2.673l1.11-1.665c-.675-.45-1.222-1.074-1.637-1.903l-1.788.895Zm2.315 2.673c1.033.688 2.279 1 3.675 1v-2c-1.1 0-1.934-.244-2.565-.665l-1.11 1.665Zm3.675 1c2.657 0 4.744-.891 5.95-2.873l-1.708-1.039c-.735 1.207-2.045 1.912-4.242 1.912v2Zm5.975-2.916c1.01-1.866 1.473-4.304 1.473-7.237h-2c0 2.754-.44 4.822-1.231 6.284l1.758.953Zm-43.871-5.989c0-4.508.513-8.204 1.506-11.117l-1.893-.645c-1.086 3.188-1.613 7.119-1.613 11.762h2Zm1.506-11.117c.999-2.928 2.41-5.202 4.206-6.87l-1.36-1.465c-2.087 1.937-3.657 4.516-4.739 7.69l1.893.645Zm4.22-6.883c1.813-1.748 4.02-2.986 6.643-3.707l-.53-1.929c-2.924.804-5.432 2.201-7.501 4.197l1.388 1.439Zm6.643-3.707c2.673-.735 5.667-1.108 8.991-1.108v-2c-3.471 0-6.648.389-9.521 1.179l.53 1.929Zm8.991-1.108h32.24v-2H46.2v2Zm31.263-.787c.48 2.191 1.03 5.254 1.653 9.198l1.976-.311c-.625-3.96-1.184-7.067-1.675-9.314l-1.954.427Zm1.656 9.215c.68 3.878 1.025 8.6 1.025 14.18h2c0-5.653-.349-10.499-1.055-14.525l-1.97.345Zm1.025 14.18c0 3.478-.307 6.63-.914 9.462l1.956.419c.641-2.992.958-6.288.958-9.881h-2Zm-.913 9.457c-.601 2.741-1.564 5.083-2.871 7.044l1.664 1.109c1.466-2.199 2.514-4.78 3.16-7.724l-1.953-.429Zm-2.858 7.025a13.432 13.432 0 0 1-5.233 4.458l.872 1.799a15.423 15.423 0 0 0 6-5.11l-1.64-1.147Zm-5.233 4.458c-2.117 1.026-4.766 1.564-7.988 1.564v2c3.434 0 6.401-.572 8.86-1.765l-.872-1.799Zm-7.988 1.564c-3.06 0-5.586-.599-7.622-1.744l-.98 1.743c2.401 1.351 5.284 2.001 8.602 2.001v-2Zm-7.602-1.732c-2.082-1.237-3.731-2.856-4.961-4.863l-1.706 1.045c1.405 2.291 3.291 4.139 5.646 5.537l1.021-1.719Zm-4.961-4.863c-1.25-2.037-2.146-4.386-2.68-7.058l-1.962.393c.575 2.874 1.55 5.449 2.936 7.71l1.706-1.045Zm-2.685-7.081a38.208 38.208 0 0 1-.912-8.412h-2c0 3.051.32 6.002.96 8.851l1.952-.439Zm-.912-8.412c0-1.979.102-3.7.303-5.169l-1.982-.271c-.216 1.582-.321 3.396-.321 5.44h2Zm.308-5.218c.136-1.563.337-2.775.59-3.66l-1.923-.549c-.303 1.057-.518 2.41-.66 4.036l1.993.173Zm-.372-4.935h-1.456v2h1.456v-2Zm-1.456 0c-2.852 0-5.237.872-7.051 2.685l1.414 1.415c1.376-1.376 3.22-2.1 5.637-2.1v-2Zm-7.051 2.685c-1.882 1.882-2.685 4.995-2.685 9.028h2c0-3.872.791-6.305 2.1-7.613l-1.415-1.415Zm-2.685 9.028c0 2.687.212 5.341.637 7.96l1.974-.321a47.639 47.639 0 0 1-.611-7.639h-2Zm.633 7.933c.354 2.618.888 4.912 1.613 6.87l1.876-.695c-.662-1.786-1.167-3.93-1.507-6.442l-1.982.267Zm2.395 5.535-12.48 1.976.312 1.975 12.48-1.976-.312-1.975Zm-11.368 2.669c-.266-.863-.536-1.94-.81-3.24l-1.956.413c.28 1.335.565 2.476.854 3.416l1.912-.589Zm-.818-3.276a38.571 38.571 0 0 1-.81-4.359l-1.984.259a40.54 40.54 0 0 0 .854 4.585l1.94-.485Zm-.817-4.401a53.489 53.489 0 0 1-.612-4.9l-1.994.159c.141 1.762.353 3.457.636 5.084l1.97-.343Zm-.616-4.935a46.152 46.152 0 0 1-.305-5.294h-2c0 1.842.106 3.683.319 5.523l1.986-.229Zm15.231-71.202.515.858.01-.007.01-.006-.535-.845Zm-2.912 9.568.998-.066-.002-.033-.005-.033-.991.132Zm.312 3.016-.99.142.123.858h.867v-1Zm42.224 0h1v-1h-1v1Zm0 15.496v1h1v-1h-1Zm-52.832 0-.967.255.196.745h.771v-1Zm-1.04-4.576.98-.196-.002-.014-.004-.015-.974.225Zm-1.04-5.616.99-.141-.002-.015-.003-.014-.985.17Zm-.728-6.136.998-.066-.001-.017-.002-.016-.995.099Zm1.248-15.704.92.394.006-.016.006-.015-.932-.363Zm3.536-6.136.755.656.519-.597-.462-.643-.812.584Zm-3.744-7.592-.955.296.002.006.953-.302Zm.52-18.72.912.41.006-.013.006-.014-.924-.383Zm5.096-6.76-.6-.8.6.8ZM80 476.815h1v-1h-1v1Zm0 15.496v1h1v-1h-1Zm-39.624 1.976.515.858.01-.007.01-.006-.535-.845Zm-2.496 10.088-.965.263.004.012.961-.275Zm1.56 3.64-.841.541.409.636.723-.22-.291-.957Zm5.096-.936.077.997h.003l-.08-.997ZM80 506.871h1v-1h-1v1Zm0 15.496v1h1v-1h-1Zm-29.016-1c-5.022 0-8.808.652-11.143 2.131l1.07 1.69c1.825-1.156 5.111-1.821 10.073-1.821v-2Zm-11.123 2.119c-2.468 1.481-3.605 4.053-3.605 7.409h2c0-2.884.943-4.679 2.635-5.694l-1.03-1.715Zm-3.605 7.409c0 1.018.073 2.068.217 3.148l1.982-.264c-.133-1-.199-1.961-.199-2.884h-2Zm.21 3.083c.071 1.063.178 2.094.32 3.091l1.98-.283a39.303 39.303 0 0 1-.304-2.941l-1.996.133Zm1.31 3.949H80v-2H37.776v2Zm41.224-1v15.496h2v-15.496h-2Zm1 14.496H27.168v2H80v-2Zm-51.865.746a78.425 78.425 0 0 1-1.026-4.518l-1.962.392c.35 1.748.7 3.293 1.054 4.635l1.934-.509Zm-1.033-4.547a66.211 66.211 0 0 1-1.024-5.532l-1.98.283a68.33 68.33 0 0 0 1.056 5.699l1.948-.45Zm-1.029-5.561a58.26 58.26 0 0 1-.715-6.032l-1.996.133c.141 2.114.388 4.193.74 6.239l1.971-.34Zm-.718-6.065a60.68 60.68 0 0 1-.307-6.037h-2c0 2.045.106 4.124.317 6.236l1.99-.199Zm-.307-6.037c0-3.878.512-6.918 1.48-9.174l-1.84-.788c-1.112 2.597-1.64 5.936-1.64 9.962h2Zm1.492-9.205c.94-2.416 2.065-4.355 3.359-5.843l-1.51-1.312c-1.479 1.701-2.711 3.854-3.713 6.43l1.864.725Zm3.416-7.083c-1.528-2.125-2.73-4.559-3.603-7.31l-1.906.604c.93 2.935 2.223 5.562 3.885 7.874l1.624-1.168Zm-3.6-7.304c-.88-2.839-1.308-5.407-1.308-7.712h-2c0 2.549.473 5.319 1.397 8.304l1.91-.592Zm-1.308-7.712c0-4.283.614-7.701 1.784-10.302l-1.824-.82c-1.326 2.946-1.96 6.67-1.96 11.122h2Zm1.796-10.329c1.117-2.696 2.712-4.798 4.772-6.343l-1.2-1.6c-2.377 1.783-4.18 4.188-5.42 7.177l1.848.766Zm4.772-6.343c2.087-1.565 4.58-2.654 7.504-3.252l-.4-1.96c-3.178.65-5.953 1.849-8.304 3.612l1.2 1.6Zm7.504-3.252c2.974-.608 6.302-.916 9.992-.916v-2c-3.798 0-7.264.317-10.392.956l.4 1.96Zm9.992-.916H80v-2H49.112v2Zm29.888-1v15.496h2v-15.496h-2Zm1 14.496H50.984v2H80v-2Zm-29.016 0c-5.022 0-8.808.652-11.143 2.131l1.07 1.69c1.825-1.156 5.111-1.821 10.073-1.821v-2Zm-11.123 2.119c-2.468 1.481-3.605 4.053-3.605 7.409h2c0-2.884.943-4.679 2.635-5.694l-1.03-1.715Zm-3.605 7.409c0 .968.237 2.25.66 3.799l1.929-.526c-.41-1.502-.589-2.577-.589-3.273h-2Zm.663 3.811c.434 1.522.99 2.832 1.68 3.906l1.682-1.082c-.557-.867-1.042-1.984-1.44-3.374l-1.922.55Zm2.812 4.322a22.691 22.691 0 0 1 4.882-.896l-.154-1.994a24.73 24.73 0 0 0-5.31.976l.582 1.914Zm4.885-.896a69.785 69.785 0 0 1 5.536-.205v-2c-2.033 0-3.932.07-5.696.211l.16 1.994Zm5.536-.205H80v-2H50.152v2Zm28.848-1v15.496h2v-15.496h-2Zm1 14.496H50.984v2H80v-2Zm0-74.12h1v-1h-1v1Zm0 15.496v1h1v-1h-1Zm-54.704 0h-1v1h1v-1Zm0-15.496v-1h-1v1h1Zm-9.048 1.352.749-.662-.002-.002-.747.664Zm0 13 .735.679.013-.015.013-.015-.761-.649Zm-13.416 0 .749-.662-.002-.002-.747.664Zm0-13 .735.679.013-.015.013-.015-.761-.649ZM79 447.247v15.496h2v-15.496h-2Zm1 14.496H25.296v2H80v-2Zm-53.704 1v-15.496h-2v15.496h2Zm-1-14.496H80v-2H25.296v2Zm-15.808-1.456c2.6 0 4.565.844 6.013 2.473l1.494-1.329c-1.88-2.115-4.422-3.144-7.507-3.144v2Zm6.011 2.471c1.426 1.613 2.141 3.524 2.141 5.785h2c0-2.73-.88-5.117-2.643-7.11l-1.498 1.325Zm2.141 5.785c0 2.263-.715 4.216-2.153 5.904l1.522 1.297c1.752-2.056 2.631-4.471 2.631-7.201h-2Zm-2.127 5.874c-1.444 1.565-3.413 2.382-6.025 2.382v2c3.073 0 5.61-.984 7.495-3.025l-1.47-1.357Zm-6.025 2.382c-2.613 0-4.537-.817-5.907-2.366l-1.498 1.325c1.82 2.056 4.333 3.041 7.405 3.041v-2Zm-5.909-2.368c-1.502-1.69-2.243-3.637-2.243-5.888h-2c0 2.742.923 5.162 2.749 7.217l1.494-1.329Zm-2.243-5.888c0-2.249.74-4.155 2.23-5.769l-1.469-1.357c-1.838 1.991-2.761 4.384-2.761 7.126h2Zm2.257-5.799c1.374-1.613 3.295-2.457 5.895-2.457v-2c-3.085 0-5.602 1.029-7.417 3.16l1.522 1.297Zm37.927-15.839-.35.937.011.004.339-.941Zm-9.152-5.616.687-.727-.01-.009-.677.736Zm-6.24-8.84.915-.403-.915.403Zm-1.456-19.864.975.223.003-.014.003-.013-.981-.196Zm2.184-7.072.252-.968-.835-.217-.338.794.921.391Zm12.376 3.224.934.356.398-1.043-1.08-.281-.252.968Zm-1.456 4.784.972.233-.972-.233Zm3.64 16.12-.627.779.006.005.006.004.615-.788Zm22.672.208.61.793.006-.005.006-.005-.622-.783Zm3.536-17.16.987-.159-.987.159Zm-1.664-5.928-.17-.986-1.242.214.491 1.162.921-.39Zm12.688-2.184.921-.39-.309-.73-.782.134.17.986Zm1.976 6.76-.98.201.98-.201Zm-1.352 21.84.921.39.003-.008.003-.008-.927-.374Zm-6.136 8.944.666.746.005-.005.006-.005-.677-.736Zm-9.048 5.096.282.959.011-.003.012-.004-.305-.952Zm-11.44.56c-3.845 0-7.439-.607-10.79-1.813l-.677 1.882c3.583 1.29 7.408 1.931 11.467 1.931v-2Zm-10.779-1.809c-3.419-1.274-6.352-3.077-8.814-5.406l-1.374 1.453c2.67 2.525 5.837 4.466 9.49 5.827l.698-1.874Zm-8.824-5.415c-2.527-2.328-4.529-5.159-6.002-8.507l-1.83.806c1.577 3.585 3.736 6.647 6.477 9.172l1.355-1.471Zm-6.002-8.507c-1.46-3.32-2.203-7.131-2.203-11.453h-2c0 4.552.783 8.645 2.373 12.259l1.83-.806Zm-2.203-11.453c0-2.849.271-5.443.807-7.785l-1.95-.446c-.574 2.511-.857 5.256-.857 8.231h2Zm.813-7.812a35.284 35.284 0 0 1 2.124-6.878l-1.842-.781a37.291 37.291 0 0 0-2.244 7.267l1.962.392Zm.95-6.3 12.377 3.224.504-1.936-12.376-3.224-.504 1.936Zm11.694 1.9a40 40 0 0 0-1.493 4.907l1.944.466c.408-1.697.881-3.25 1.419-4.661l-1.87-.712Zm-1.493 4.907c-.438 1.823-.652 3.845-.652 6.057h2c0-2.086.202-3.948.596-5.591l-1.944-.466Zm-.652 6.057c0 4.795 1.5 8.55 4.637 11.075l1.254-1.558c-2.548-2.051-3.891-5.16-3.891-9.517h-2Zm4.649 11.084c3.063 2.391 7.044 3.54 11.847 3.54v-2c-4.487 0-7.995-1.07-10.617-3.116l-1.23 1.576Zm11.847 3.54c5.049 0 9.108-1.065 12.05-3.327l-1.22-1.586c-2.466 1.898-6.033 2.913-10.83 2.913v2Zm12.062-3.337c3.047-2.422 4.434-6.5 4.434-11.911h-2c0 5.128-1.317 8.468-3.678 10.345l1.244 1.566Zm4.434-11.911c0-1.933-.179-3.998-.533-6.191l-1.974.318c.34 2.105.507 4.062.507 5.873h2Zm-.533-6.191c-.358-2.22-.933-4.274-1.73-6.159l-1.842.78c.728 1.721 1.263 3.618 1.598 5.697l1.974-.318Zm-2.481-4.784 12.688-2.184-.34-1.971-12.688 2.184.34 1.971Zm11.597-2.779c.729 1.722 1.371 3.908 1.917 6.571l1.96-.402c-.563-2.745-1.239-5.066-2.035-6.949l-1.842.78Zm1.917 6.571c.54 2.627.812 5.54.812 8.743h2c0-3.315-.282-6.364-.852-9.145l-1.96.402Zm.812 8.743c0 4.898-.715 9.064-2.111 12.521l1.854.749c1.516-3.752 2.257-8.185 2.257-13.27h-2Zm-2.105 12.506c-1.477 3.49-3.444 6.348-5.892 8.598l1.354 1.472c2.683-2.465 4.806-5.57 6.38-9.29l-1.842-.78Zm-5.88 8.588c-2.455 2.189-5.347 3.82-8.688 4.89l.61 1.904c3.592-1.149 6.733-2.915 9.409-5.302l-1.332-1.492Zm-8.665 4.883c-3.435 1.01-7.152 1.519-11.158 1.519v2c4.176 0 8.085-.531 11.722-1.601l-.564-1.918ZM41.52 356.425l-.35.937.011.003.339-.94Zm-9.152-5.616.687-.727-.01-.009-.677.736Zm-6.24-8.84.915-.403-.915.403Zm-1.456-19.864.975.222.003-.013.003-.013-.981-.196Zm2.184-7.072.252-.968-.835-.218-.338.795.921.391Zm12.376 3.224.934.356.398-1.043-1.08-.281-.252.968Zm-1.456 4.784.972.233-.972-.233Zm3.64 16.12-.627.779.006.004.006.005.615-.788Zm22.672.208.61.792.006-.005.006-.005-.622-.782Zm3.536-17.16.987-.16-.987.16Zm-1.664-5.928-.17-.986-1.242.214.491 1.161.921-.389Zm12.688-2.184.921-.39-.309-.73-.782.134.17.986Zm1.976 6.76-.98.2.98-.2Zm-1.352 21.84.921.389.003-.007.003-.008-.927-.374Zm-6.136 8.944.666.746.005-.005.006-.005-.677-.736Zm-9.048 5.096.282.959.011-.003.012-.004-.305-.952Zm-11.44.56c-3.845 0-7.439-.607-10.79-1.813l-.677 1.881c3.583 1.29 7.408 1.932 11.467 1.932v-2Zm-10.779-1.81c-3.419-1.273-6.352-3.077-8.814-5.405l-1.374 1.453c2.67 2.525 5.837 4.466 9.49 5.827l.698-1.875Zm-8.824-5.414c-2.527-2.328-4.529-5.159-6.002-8.507l-1.83.805c1.577 3.586 3.736 6.648 6.477 9.173l1.355-1.471Zm-6.002-8.507c-1.46-3.32-2.203-7.131-2.203-11.453h-2c0 4.552.783 8.645 2.373 12.258l1.83-.805Zm-2.203-11.453c0-2.85.271-5.443.807-7.786l-1.95-.445c-.574 2.511-.857 5.256-.857 8.231h2Zm.813-7.812a35.284 35.284 0 0 1 2.124-6.878l-1.842-.781a37.282 37.282 0 0 0-2.244 7.266l1.962.393Zm.95-6.301 12.377 3.224.504-1.935-12.376-3.224-.504 1.935Zm11.694 1.901a40.037 40.037 0 0 0-1.493 4.906l1.944.467a37.99 37.99 0 0 1 1.419-4.661l-1.87-.712Zm-1.493 4.906c-.438 1.824-.652 3.845-.652 6.058h2c0-2.087.202-3.948.596-5.591l-1.944-.467Zm-.652 6.058c0 4.794 1.5 8.55 4.637 11.075l1.254-1.558c-2.548-2.051-3.891-5.16-3.891-9.517h-2Zm4.649 11.084c3.063 2.391 7.044 3.54 11.847 3.54v-2c-4.487 0-7.995-1.07-10.617-3.117l-1.23 1.577Zm11.847 3.54c5.049 0 9.108-1.065 12.05-3.328l-1.22-1.585c-2.466 1.897-6.033 2.913-10.83 2.913v2Zm12.062-3.338c3.047-2.421 4.434-6.499 4.434-11.91h-2c0 5.127-1.317 8.468-3.678 10.345l1.244 1.565Zm4.434-11.91c0-1.934-.179-3.998-.533-6.192l-1.974.319c.34 2.105.507 4.062.507 5.873h2Zm-.533-6.192c-.358-2.219-.933-4.274-1.73-6.158l-1.842.779c.728 1.721 1.263 3.619 1.598 5.698l1.974-.319Zm-2.481-4.783 12.688-2.184-.34-1.971-12.688 2.184.34 1.971Zm11.597-2.78c.729 1.723 1.371 3.908 1.917 6.571l1.96-.401c-.563-2.745-1.239-5.067-2.035-6.949l-1.842.779Zm1.917 6.571c.54 2.628.812 5.541.812 8.744h2c0-3.315-.282-6.365-.852-9.145l-1.96.401Zm.812 8.744c0 4.898-.715 9.063-2.111 12.521l1.854.749c1.516-3.753 2.257-8.185 2.257-13.27h-2Zm-2.105 12.506c-1.477 3.49-3.444 6.348-5.892 8.597l1.354 1.473c2.683-2.466 4.806-5.57 6.38-9.291l-1.842-.779Zm-5.88 8.587c-2.455 2.19-5.347 3.821-8.688 4.89l.61 1.905c3.592-1.149 6.733-2.916 9.409-5.302l-1.332-1.493Zm-8.665 4.883c-3.435 1.01-7.152 1.52-11.158 1.52v2c4.176 0 8.085-.531 11.722-1.601l-.564-1.919Zm.594-98.736.333-.943-.006-.002-.327.945Zm9.152 5.408.687-.727-.01-.009-.677.736Zm5.824 8.528-.923.385.003.007.92-.392Zm0 22.048.92.392.003-.007-.923-.385Zm-5.824 8.424.677.737.01-.01-.687-.727Zm-9.152 5.512.343.939.006-.002-.349-.937Zm-23.608 0-.365.931.008.003.008.003.349-.937Zm-9.048-5.616-.697.717.005.005.005.005.687-.727Zm-5.824-8.528-.923.385.003.007.92-.392Zm0-21.632.92.392.003-.007-.923-.385Zm5.824-8.528.687.727-.687-.727Zm9.048-5.512.35.937-.35-.937Zm.52 16.744.56.829.011-.008.012-.008-.583-.813Zm0 16.328.583-.812-.01-.007-.573.819Zm22.672 0 .564.826.01-.007-.574-.819Zm0-16.328-.564.826.005.003.559-.829Zm-11.44-17.72c4.201 0 8.041.61 11.529 1.817l.654-1.89c-3.723-1.289-7.787-1.927-12.183-1.927v2Zm11.523 1.815c3.419 1.207 6.35 2.942 8.808 5.201l1.354-1.472c-2.673-2.456-5.843-4.325-9.496-5.615l-.666 1.886Zm8.798 5.192c2.39 2.256 4.252 4.981 5.588 8.186l1.846-.769c-1.438-3.451-3.457-6.412-6.06-8.871l-1.374 1.454Zm5.59 8.193c1.327 3.117 2.001 6.655 2.001 10.632h2c0-4.204-.713-8.015-2.16-11.415l-1.84.783Zm2.001 10.632c0 3.905-.673 7.447-2.003 10.64l1.846.769c1.443-3.463 2.157-7.271 2.157-11.409h-2Zm-2 10.633c-1.335 3.136-3.198 5.828-5.59 8.088l1.373 1.454c2.599-2.455 4.618-5.378 6.057-8.759l-1.84-.783Zm-5.58 8.079c-2.463 2.263-5.4 4.035-8.825 5.311l.698 1.874c3.647-1.358 6.812-3.261 9.48-5.712l-1.354-1.473Zm-8.82 5.309c-3.482 1.273-7.316 1.915-11.512 1.915v2c4.402 0 8.472-.675 12.2-2.037l-.687-1.878Zm-11.512 1.915c-4.196 0-7.993-.643-11.403-1.913l-.698 1.874c3.662 1.365 7.7 2.039 12.101 2.039v-2Zm-11.387-1.907c-3.43-1.345-6.333-3.151-8.726-5.412l-1.374 1.454c2.599 2.454 5.727 4.392 9.37 5.82l.73-1.862Zm-8.716-5.402c-2.399-2.332-4.265-5.064-5.6-8.202l-1.841.783c1.438 3.378 3.454 6.332 6.047 8.853l1.394-1.434Zm-5.598-8.195c-1.332-3.197-2.003-6.671-2.003-10.432h-2c0 4.005.716 7.742 2.157 11.201l1.846-.769Zm-2.003-10.432c0-3.833.672-7.303 2-10.424l-1.84-.783c-1.445 3.396-2.16 7.136-2.16 11.207h2Zm2.003-10.431c1.336-3.205 3.199-5.93 5.588-8.186l-1.374-1.454c-2.603 2.459-4.622 5.42-6.06 8.871l1.846.769Zm5.588-8.186c2.39-2.256 5.287-4.026 8.71-5.302l-.698-1.874c-3.649 1.36-6.783 3.264-9.386 5.722l1.374 1.454Zm8.71-5.302c3.41-1.27 7.207-1.913 11.403-1.913v-2c-4.401 0-8.439.675-12.101 2.039l.698 1.874Zm11.403 11.895c-4.905 0-8.881.994-11.815 3.1l1.166 1.625c2.474-1.777 5.986-2.725 10.649-2.725v-2Zm-11.791 3.083c-3.067 2.07-4.601 5.095-4.601 8.941h2c0-3.226 1.24-5.609 3.72-7.283l-1.12-1.658Zm-4.601 8.941c0 3.845 1.532 6.897 4.587 9.035l1.147-1.638c-2.493-1.745-3.734-4.17-3.734-7.397h-2Zm4.577 9.029c2.934 2.106 6.91 3.099 11.815 3.099v-2c-4.663 0-8.174-.948-10.649-2.724l-1.166 1.625Zm11.815 3.099c4.91 0 8.942-.995 12.004-3.086l-1.128-1.652c-2.623 1.792-6.217 2.738-10.876 2.738v2Zm12.014-3.093c3.054-2.138 4.586-5.19 4.586-9.035h-2c0 3.227-1.241 5.652-3.734 7.397l1.148 1.638Zm4.586-9.035c0-3.846-1.534-6.871-4.6-8.941l-1.12 1.658c2.48 1.674 3.72 4.057 3.72 7.283h2Zm-4.596-8.938c-3.062-2.091-7.095-3.086-12.004-3.086v2c4.659 0 8.253.947 10.876 2.738l1.128-1.652Zm4.532-55.17.999-.05-.999.05Zm-.312-3.328.986-.164-.139-.836h-.847v1Zm-11.752 0v-1h-.802l-.174.783.976.217Zm-.312 10.4.994-.11-.003-.023-.003-.023-.988.156Zm.936 3.328.894-.447-.894.447Zm10.192.728.854.52.013-.021.012-.022-.879-.477Zm-37.96-24.232.68.733.007-.006.007-.007-.694-.72Zm7.072-3.952-.265-.964.265.964Zm41.496-1.144.977-.213-.172-.787h-.805v1Zm1.664 9.256-.988.156.002.009.001.008.985-.173Zm.104 24.024.977.215v-.005l-.977-.21Zm-3.016 7.384.82.574.006-.01.006-.009-.832-.555Zm-5.616 4.784-.436-.899.436.899Zm-16.536-.208-.51.86.01.006.01.006.49-.872Zm-5.304-5.2.853-.522-.853.522Zm-2.808-7.384.98-.196-.002-.012-.002-.011-.976.219Zm-.624-13.936.99.135.004-.024.002-.024-.996-.087Zm.624-3.848.962.275.364-1.275h-1.326v1Zm-9.568 18.512.991-.134-.002-.013-.002-.013-.987.16Zm1.56 6.656.156.988 1.206-.191-.424-1.144-.938.347Zm-12.48 1.976-.956.294.255.83.857-.136-.156-.988Zm-.832-3.328.979-.206-.004-.018-.005-.018-.97.242Zm-.832-4.472.992-.129-.003-.021-.004-.021-.985.171Zm-.624-4.992.997-.079-.002-.018-.002-.017-.993.114Zm46.032-6.656c0-1.54-.035-3.013-.105-4.418l-1.998.1c.069 1.369.103 2.808.103 4.318h2Zm-.105-4.418c-.07-1.404-.177-2.556-.325-3.442l-1.972.329c.13.778.23 1.844.3 3.213l1.997-.1Zm-1.311-4.278H57.016v2h11.752v-2Zm-12.728.783c-.15.679-.294 1.658-.434 2.915l1.988.221c.138-1.24.272-2.132.398-2.702l-1.952-.434Zm-.434 2.915a32.267 32.267 0 0 0-.214 3.542h2c0-.996.066-2.103.202-3.321l-1.988-.221Zm-.214 3.542c0 1.504.107 2.943.324 4.316l1.976-.312c-.2-1.261-.3-2.595-.3-4.004h-2Zm.318 4.271c.15 1.347.49 2.573 1.036 3.665l1.788-.895c-.425-.85-.709-1.842-.836-2.991l-1.988.221Zm1.036 3.665c.556 1.112 1.326 2.013 2.315 2.672l1.11-1.664c-.675-.45-1.222-1.074-1.637-1.903l-1.788.895Zm2.315 2.672c1.033.689 2.279 1 3.675 1v-2c-1.1 0-1.934-.243-2.565-.664l-1.11 1.664Zm3.675 1c2.657 0 4.744-.89 5.95-2.872l-1.708-1.04c-.735 1.208-2.045 1.912-4.242 1.912v2Zm5.975-2.915c1.01-1.866 1.473-4.305 1.473-7.237h-2c0 2.754-.44 4.822-1.231 6.284l1.758.953Zm-43.871-5.989c0-4.508.513-8.204 1.506-11.117l-1.893-.645c-1.086 3.188-1.613 7.119-1.613 11.762h2Zm1.506-11.117c.999-2.928 2.41-5.202 4.206-6.87l-1.36-1.465c-2.087 1.937-3.657 4.516-4.739 7.69l1.893.645Zm4.22-6.883c1.813-1.748 4.02-2.986 6.643-3.707l-.53-1.929c-2.924.804-5.432 2.201-7.501 4.196l1.388 1.44Zm6.643-3.707c2.673-.736 5.668-1.109 8.991-1.109v-2c-3.471 0-6.648.39-9.521 1.18l.53 1.929Zm8.991-1.109h32.24v-2H46.2v2Zm31.263-.786c.48 2.19 1.03 5.253 1.653 9.198l1.976-.312c-.625-3.959-1.184-7.066-1.675-9.313l-1.954.427Zm1.656 9.215c.68 3.878 1.025 8.6 1.025 14.179h2c0-5.653-.349-10.498-1.055-14.525l-1.97.346Zm1.025 14.179c0 3.479-.307 6.631-.914 9.463l1.956.419c.641-2.992.958-6.288.958-9.882h-2Zm-.913 9.458c-.601 2.741-1.564 5.083-2.871 7.044l1.664 1.109c1.466-2.199 2.514-4.78 3.16-7.724l-1.953-.429Zm-2.858 7.025a13.44 13.44 0 0 1-5.233 4.458l.872 1.799a15.423 15.423 0 0 0 6-5.11l-1.64-1.147Zm-5.233 4.458c-2.117 1.026-4.766 1.563-7.988 1.563v2c3.434 0 6.401-.571 8.86-1.764l-.872-1.799Zm-7.988 1.563c-3.06 0-5.586-.598-7.622-1.743l-.98 1.743c2.401 1.351 5.284 2 8.602 2v-2Zm-7.602-1.732c-2.082-1.236-3.731-2.855-4.961-4.862l-1.706 1.045c1.405 2.291 3.291 4.139 5.646 5.537l1.021-1.72Zm-4.961-4.862c-1.25-2.038-2.146-4.386-2.68-7.058l-1.962.392c.575 2.875 1.55 5.45 2.936 7.711l1.706-1.045Zm-2.685-7.081a38.217 38.217 0 0 1-.912-8.413h-2c0 3.052.32 6.003.96 8.852l1.952-.439Zm-.912-8.413c0-1.978.102-3.699.303-5.169l-1.982-.27c-.216 1.581-.321 3.396-.321 5.439h2Zm.308-5.217c.136-1.563.337-2.776.59-3.66l-1.923-.549c-.303 1.057-.518 2.41-.66 4.036l1.993.173Zm-.372-4.935h-1.456v2h1.456v-2Zm-1.456 0c-2.852 0-5.237.871-7.051 2.685l1.414 1.414c1.376-1.375 3.22-2.099 5.637-2.099v-2Zm-7.051 2.685c-1.882 1.882-2.685 4.995-2.685 9.027h2c0-3.871.791-6.305 2.1-7.613l-1.415-1.414Zm-2.685 9.027c0 2.688.212 5.341.637 7.96l1.974-.32a47.642 47.642 0 0 1-.611-7.64h-2Zm.633 7.934c.354 2.618.888 4.912 1.613 6.87l1.876-.695c-.662-1.786-1.167-3.93-1.507-6.443l-1.982.268Zm2.395 5.535-12.48 1.976.312 1.975 12.48-1.976-.312-1.975Zm-11.368 2.669c-.266-.863-.536-1.941-.81-3.24l-1.956.412c.28 1.336.565 2.477.854 3.416l1.912-.588Zm-.818-3.276a38.548 38.548 0 0 1-.81-4.359l-1.984.259a40.54 40.54 0 0 0 .854 4.585l1.94-.485Zm-.817-4.401a53.533 53.533 0 0 1-.612-4.9l-1.994.159a55.56 55.56 0 0 0 .636 5.084l1.97-.343Zm-.616-4.935a46.165 46.165 0 0 1-.305-5.294h-2c0 1.842.106 3.682.319 5.523l1.986-.229Zm-13.473-42.602-.987.159.135.841h.852v-1Zm-2.496-15.496v-1H8.002l.187 1.159.987-.159Zm16.12 0v1h1v-1h-1Zm0-18.616v-1h-1v1h1Zm12.896 0h1v-1h-1v1Zm0 18.616h-1v1h1v-1Zm27.04-1.664.496.868.012-.006.011-.007-.519-.855Zm2.496-12.064.987-.158-.002-.016-.003-.015-.982.189Zm-1.352-4.888-.178-.984-1.185.214.428 1.126.935-.356Zm12.064-2.184.926-.377-.306-.752-.798.145.178.984Zm1.976 6.24-.972.236.972-.236Zm-.832 18.928.92.391.004-.01.005-.01-.929-.371Zm-4.784 6.656.625.781.006-.005.007-.006-.638-.77Zm-7.488 3.536.21.978.01-.003.012-.002-.232-.973Zm-54.653.777-2.496-15.496-1.974.318 2.496 15.496 1.974-.318Zm-3.483-14.337h16.12v-2H9.176v2Zm17.12-1v-18.616h-2v18.616h2Zm-1-17.616h12.896v-2H25.296v2Zm11.896-1v18.616h2v-18.616h-2Zm1 19.616h19.24v-2h-19.24v2Zm19.24 0c3.358 0 6.15-.57 8.296-1.796l-.992-1.736c-1.737.992-4.145 1.532-7.304 1.532v2Zm8.319-1.809c2.376-1.443 3.393-4.204 3.393-7.823h-2c0 3.314-.925 5.199-2.431 6.113l1.038 1.71Zm3.393-7.823c0-1.72-.143-3.471-.429-5.254l-1.974.316a31.28 31.28 0 0 1 .403 4.938h2Zm-.434-5.285c-.356-1.85-.82-3.536-1.4-5.055l-1.868.712c.53 1.393.966 2.965 1.304 4.721l1.964-.378Zm-2.156-3.715 12.064-2.184-.356-1.968-12.064 2.184.356 1.968Zm10.96-2.791c.741 1.819 1.385 3.851 1.93 6.099l1.944-.472c-.565-2.328-1.238-4.457-2.022-6.381l-1.852.754Zm1.93 6.099c.53 2.186.804 4.909.804 8.188h2c0-3.378-.28-6.27-.86-8.66l-1.944.472Zm.804 8.188c0 4.151-.546 7.516-1.593 10.133l1.858.742c1.171-2.929 1.735-6.567 1.735-10.875h-2Zm-1.584 10.113c-1.126 2.649-2.632 4.729-4.502 6.277l1.276 1.54c2.151-1.78 3.835-4.137 5.066-7.035l-1.84-.782Zm-4.489 6.266c-1.95 1.561-4.308 2.681-7.095 3.344l.464 1.946c3.037-.724 5.672-1.961 7.88-3.728l-1.249-1.562Zm-7.072 3.339c-2.832.607-5.985.914-9.463.914v2c3.594 0 6.89-.317 9.882-.958l-.42-1.956Zm-9.463.914H11.672v2H57.64v-2ZM80 123.974h1v-1h-1v1Zm0 15.496v1h1v-1h-1Zm-54.704 0h-1v1h1v-1Zm0-15.496v-1h-1v1h1Zm-9.048 1.352.749-.663-.002-.001-.747.664Zm0 13 .735.678.013-.014.013-.016-.761-.648Zm-13.416 0 .749-.663-.002-.001-.747.664Zm0-13 .735.678.013-.014.013-.016-.761-.648ZM79 123.974v15.496h2v-15.496h-2Zm1 14.496H25.296v2H80v-2Zm-53.704 1v-15.496h-2v15.496h2Zm-1-14.496H80v-2H25.296v2Zm-15.808-1.456c2.6 0 4.565.844 6.013 2.472l1.494-1.328c-1.88-2.116-4.422-3.144-7.507-3.144v2Zm6.011 2.471c1.426 1.612 2.141 3.523 2.141 5.785h2c0-2.73-.88-5.118-2.643-7.111l-1.498 1.326Zm2.141 5.785c0 2.262-.715 4.215-2.153 5.904l1.522 1.296c1.752-2.055 2.631-4.47 2.631-7.2h-2Zm-2.127 5.874c-1.444 1.564-3.413 2.382-6.025 2.382v2c3.073 0 5.61-.985 7.495-3.026l-1.47-1.356Zm-6.025 2.382c-2.613 0-4.537-.818-5.907-2.367l-1.498 1.326c1.82 2.056 4.333 3.041 7.405 3.041v-2Zm-5.909-2.368c-1.502-1.69-2.243-3.638-2.243-5.888h-2c0 2.742.923 5.162 2.749 7.216l1.494-1.328Zm-2.243-5.888c0-2.249.74-4.155 2.23-5.77l-1.469-1.356c-1.838 1.991-2.761 4.383-2.761 7.126h2Zm2.257-5.8c1.374-1.612 3.295-2.456 5.895-2.456v-2c-3.085 0-5.602 1.029-7.417 3.16l1.522 1.296Zm23.575-16.567-.96.279.208.721h.752v-1Zm-2.08-10.191.989-.149-.001-.008-.002-.008-.986.165Zm.832-24.648.926.378.005-.012.005-.013-.936-.354Zm5.096-7.385.63.777-.63-.776Zm7.904-3.848.242.97-.242-.97ZM80 62.192h1v-1h-1v1Zm0 15.496v1h1v-1h-1Zm-39.624 1.977.535.844-.535-.844Zm-2.912 10.92.998-.056-.001-.028-.003-.027-.994.11Zm.312 3.328-.99.14.123.86h.867v-1Zm42.224 0h1v-1h-1v1Zm0 15.495v1h1v-1h-1Zm-51.871-.278c-.746-2.576-1.432-5.925-2.052-10.062l-1.978.297c.628 4.183 1.329 7.628 2.108 10.322l1.922-.557Zm-2.055-10.078c-.683-4.101-1.026-8.414-1.026-12.94h-2c0 4.627.35 9.05 1.054 13.269l1.972-.329Zm-1.026-12.94c0-4.564.614-8.273 1.798-11.165l-1.852-.757c-1.312 3.21-1.946 7.197-1.946 11.923h2Zm1.808-11.19c1.126-2.983 2.73-5.288 4.79-6.961l-1.26-1.553c-2.378 1.932-4.17 4.55-5.401 7.807l1.87.707Zm4.79-6.961c2.095-1.702 4.593-2.924 7.517-3.654l-.485-1.94c-3.179.794-5.95 2.138-8.293 4.041l1.262 1.553Zm7.517-3.654c2.958-.74 6.272-1.114 9.949-1.114v-2c-3.81 0-7.291.388-10.434 1.173l.485 1.94Zm9.949-1.114H80v-2H49.112v2Zm29.888-1v15.495h2V62.193h-2Zm1 14.495H50.984v2H80v-2Zm-29.016 0c-5.022 0-8.808.653-11.143 2.132l1.07 1.69c1.825-1.156 5.111-1.822 10.073-1.822v-2ZM39.841 78.82c-2.49 1.576-3.585 4.452-3.585 8.228h2c0-3.434.985-5.48 2.655-6.539l-1.07-1.69Zm-3.585 8.228c0 1.151.072 2.367.214 3.647l1.988-.22a31.102 31.102 0 0 1-.202-3.427h-2Zm.21 3.592c.07 1.27.176 2.408.32 3.414l1.98-.283a38.094 38.094 0 0 1-.303-3.242l-1.998.111Zm1.31 4.273H80v-2H37.776v2Zm41.224-1v15.495h2V93.912h-2Zm1 14.495H27.168v2H80v-2ZM63.256 19.981l-.958.288.958-.288ZM61.8 16.445l.868-.496-.288-.504h-.58v1Zm-24.752 0v-1h-.835l-.149.821.984.18Zm-.312 2.704.991.133.005-.033.002-.033-.998-.067Zm3.848 12.792-.597.803.597-.803ZM93 7.813l-.729.685.005.006.006.005.718-.696Zm5.616 30.992-.983-.184-.002.01-.001.01.986.164Zm-2.288 9.256-.204.98.865.18.285-.836-.946-.324Zm-13-2.704-.928-.371-.444 1.107 1.168.243.204-.979Zm2.288-7.592.979.206v-.005l-.979-.2Zm-2.08-18.512-.694.72.007.007.007.006.68-.733Zm-9.464-2.808v-1h-1.558l.649 1.417.909-.417Zm1.768 5.2.98-.196-.002-.014-.004-.014-.974.224Zm-6.136 23.088.666.747.005-.006-.671-.74Zm-29.744 4.16.358-.934-.007-.002-.351.936Zm-8.528-5.408-.717.697.005.005.005.005.707-.707Zm-5.408-8.84.94-.338-.002-.009-.003-.008-.935.355ZM24.36 17.173l.994.107.002-.019.002-.019-.998-.069Zm1.664-11.44.972.234.006-.022.004-.023-.982-.189ZM27.168.95v-1h-.744l-.214.713.958.287ZM50.88 35.957c4.442 0 7.959-.893 10.378-2.848 2.461-1.988 3.622-4.937 3.622-8.656h-2c0 3.284-1.006 5.587-2.879 7.1-1.913 1.547-4.896 2.404-9.121 2.404v2Zm14-11.504c0-1.682-.22-3.27-.666-4.759l-1.916.575c.386 1.284.582 2.677.582 4.184h2Zm-.666-4.759c-.432-1.44-.944-2.692-1.546-3.745l-1.736.993c.508.888.966 1.993 1.366 3.327l1.916-.575ZM61.8 15.445H37.048v2H61.8v-2Zm-25.736.821a25.46 25.46 0 0 0-.326 2.817l1.996.133c.067-1.014.168-1.877.298-2.592l-1.968-.358Zm-.32 2.751c-.145 1.095-.216 2.355-.216 3.772h2c0-1.355.068-2.523.2-3.508l-1.983-.264Zm-.216 3.772c0 4.331 1.446 7.714 4.46 9.955l1.193-1.605c-2.395-1.781-3.653-4.5-3.653-8.35h-2Zm4.46 9.955c2.913 2.166 6.568 3.213 10.892 3.213v-2c-3.996 0-7.205-.963-9.7-2.818l-1.193 1.605ZM73.135 1.949c8.787 0 15.094 2.247 19.135 6.549l1.458-1.37C89.173 2.279 82.237-.05 73.136-.05v2Zm19.146 6.56c4.113 4.244 6.27 10.943 6.27 20.312h2c0-9.627-2.21-16.934-6.834-21.704L92.282 8.51Zm6.27 20.312c0 3.265-.306 6.532-.919 9.8l1.966.369c.635-3.388.953-6.778.953-10.169h-2Zm-.922 9.82c-.547 3.28-1.297 6.312-2.248 9.097l1.892.647c.99-2.9 1.766-6.04 2.328-9.415l-1.972-.33Zm-1.098 8.441-13-2.704-.408 1.958 13 2.704.408-1.958ZM84.257 45.73a46.811 46.811 0 0 0 2.338-7.758l-1.957-.412a44.817 44.817 0 0 1-2.239 7.427l1.858.743Zm2.339-7.763c.57-2.783.852-5.903.852-9.353h-2c0 3.345-.273 6.327-.812 8.951l1.96.402Zm.852-9.353c0-4.536-.984-8.006-3.231-10.093l-1.361 1.466c1.635 1.519 2.592 4.289 2.592 8.627h2Zm-3.218-10.08c-2.153-2.075-4.91-3.088-8.182-3.088v2c2.829 0 5.064.86 6.794 2.528l1.388-1.44Zm-8.182-3.088h-1.976v2h1.976v-2Zm-2.885 1.417a26.034 26.034 0 0 1 1.703 5.008l1.948-.45a28.041 28.041 0 0 0-1.833-5.391l-1.818.833Zm1.696 4.98c.332 1.658.501 3.498.501 5.523h2c0-2.134-.178-4.108-.54-5.916l-1.96.392Zm.501 5.523c0 7.354-2.152 12.843-6.328 16.627l1.344 1.482c4.698-4.258 6.984-10.348 6.984-18.109h-2Zm-6.322 16.622c-4.27 3.81-10.278 5.778-18.158 5.778v2c8.206 0 14.746-2.053 19.49-6.286l-1.332-1.492ZM50.88 49.765c-3.918 0-7.434-.607-10.562-1.806l-.716 1.868c3.39 1.298 7.153 1.938 11.278 1.938v-2Zm-10.569-1.808c-3.203-1.201-5.922-2.929-8.172-5.179l-1.414 1.414c2.465 2.465 5.431 4.343 8.884 5.638l.702-1.873Zm-8.162-5.169c-2.25-2.315-3.98-5.137-5.184-8.481l-1.882.677c1.292 3.588 3.167 6.66 5.632 9.198l1.434-1.394Zm-5.19-8.498c-1.267-3.335-1.911-7.129-1.911-11.397h-2c0 4.469.674 8.51 2.041 12.108l1.87-.71Zm-1.911-11.397c0-1.835.102-3.706.306-5.613l-1.988-.213a54.683 54.683 0 0 0-.318 5.826h2Zm.31-5.65c.137-1.988.342-3.94.616-5.856l-1.98-.283a82.596 82.596 0 0 0-.632 6l1.996.138Zm.616-5.856c.273-1.914.614-3.72 1.022-5.42L25.052 5.5a61.002 61.002 0 0 0-1.058 5.604l1.98.283Zm1.032-5.465c.342-1.778.716-3.338 1.12-4.685L26.21.662c-.428 1.426-.817 3.055-1.168 4.882l1.964.378Zm.162-3.973h45.968v-2H27.168v2Z" fill="#fff"/></svg>