<svg width="114" height="238" fill="none" xmlns="http://www.w3.org/2000/svg"><path opacity=".5" fill-rule="evenodd" clip-rule="evenodd" d="M195.852 66.465a4 4 0 1 1-6.928-4 4 4 0 0 1 6.928 4Zm-83.138-48a4 4 0 1 1-6.928-4 4 4 0 0 1 6.928 4Zm-20.785-12a4 4 0 1 1-6.929-4 4 4 0 0 1 6.928 4Zm36.104 25.464a4 4 0 1 0 4-6.929 4 4 0 0 0-4 6.929Zm26.249 10.536a4 4 0 1 1-6.928-4 4 4 0 0 1 6.928 4Zm15.321 13.464a4 4 0 1 0 4-6.928 4 4 0 0 0-4 6.928Zm41.568 24a4.001 4.001 0 1 0 4-6.93 4.001 4.001 0 0 0-4 6.93Zm26.25 10.536a4 4 0 1 1-6.928-4 4 4 0 0 1 6.928 4ZM74.464 28.713a4 4 0 1 0 4-6.929 4 4 0 0 0-4 6.929Zm26.25 10.536a4 4 0 1 1-6.929-4.001 4 4 0 0 1 6.929 4Zm15.319 13.464a4 4 0 1 0 4-6.929 4 4 0 0 0-4 6.929Zm26.249 10.536a4 4 0 1 1-6.928-4 4 4 0 0 1 6.928 4Zm15.321 13.464a4 4 0 1 0 4-6.928 4 4 0 0 0-4 6.928Zm26.249 10.536a4 4 0 1 1-6.928-4 4 4 0 0 1 6.928 4Zm15.319 13.464a4 4 0 1 0 4.001-6.928 4 4 0 0 0-4.001 6.928Zm26.25 10.536a4 4 0 1 1-6.929-4.002 4 4 0 0 1 6.929 4.002ZM62.464 49.498a4 4 0 1 0 4-6.928 4 4 0 0 0-4 6.928Zm26.25 10.536a4 4 0 1 1-6.928-4 4 4 0 0 1 6.928 4Zm15.319 13.464a4 4 0 1 0 4-6.928 4 4 0 0 0-4 6.928Zm26.249 10.536a4 4 0 1 1-6.928-4 4 4 0 0 1 6.928 4Zm15.321 13.464a4 4 0 1 0 4-6.928 4 4 0 0 0-4 6.928Zm26.249 10.536a4 4 0 1 1-6.928-3.999 4 4 0 0 1 6.928 3.999Zm15.319 13.464a4 4 0 1 0 4-6.93 4 4 0 0 0-4 6.93Zm26.25 10.536a4 4 0 1 1-6.928-4 4 4 0 0 1 6.928 4ZM50.464 70.282a4 4 0 1 0 4-6.928 4 4 0 0 0-4 6.928Zm26.25 10.536a4 4 0 1 1-6.928-4 4 4 0 0 1 6.928 4Zm15.319 13.464a4 4 0 1 0 4-6.928 4 4 0 0 0-4 6.928Zm26.249 10.536a4 4 0 1 1-6.928-4 4 4 0 0 1 6.928 4Zm15.321 13.464a4 4 0 1 0 4-6.927 4 4 0 0 0-4 6.927Zm26.249 10.536a4 4 0 1 1-6.928-3.999 4 4 0 0 1 6.928 3.999Zm15.319 13.464a4 4 0 1 0 4-6.93 4 4 0 0 0-4 6.93Zm26.25 10.536a4 4 0 1 1-6.928-4 4 4 0 0 1 6.928 4ZM38.464 91.068a4 4 0 1 0 4-6.929 4 4 0 0 0-4 6.928Zm26.25 10.535a4 4 0 1 1-6.928-4 4 4 0 0 1 6.928 4Zm15.319 13.464a4 4 0 1 0 4-6.927 4 4 0 0 0-4 6.927Zm26.249 10.536a4 4 0 1 1-6.928-4 4 4 0 0 1 6.928 4Zm15.321 13.464a4 4 0 1 0 4-6.927 4 4 0 0 0-4 6.927Zm26.249 10.536a4 4 0 1 1-6.928-3.999 4 4 0 0 1 6.928 3.999Zm15.319 13.464a4 4 0 1 0 4-6.93 4 4 0 0 0-4 6.93Zm26.25 10.536a4 4 0 1 1-6.928-4 4 4 0 0 1 6.928 4ZM26.464 111.852a4 4 0 1 0 4-6.929 4 4 0 0 0-4 6.929Zm26.25 10.535a4 4 0 1 1-6.93-3.999 4 4 0 0 1 6.93 3.999Zm15.319 13.465a4 4 0 1 0 3.999-6.929 4 4 0 0 0-4 6.929Zm26.25 10.535a4 4 0 1 1-6.93-3.999 4 4 0 0 1 6.93 3.999Zm15.32 13.465a4 4 0 1 0 4-6.928 4 4 0 0 0-4 6.928Zm26.249 10.535a4 4 0 1 1-6.929-3.998 4 4 0 0 1 6.929 3.998Zm15.319 13.465a4.001 4.001 0 1 0 4-6.93 4.001 4.001 0 0 0-4 6.93Zm26.25 10.535a4 4 0 1 1-6.929-3.999 4 4 0 0 1 6.929 3.999Zm-162.957-61.75a4 4 0 1 0 4-6.93 4 4 0 0 0-4 6.93Zm26.25 10.536a4 4 0 1 1-6.929-4.002 4 4 0 0 1 6.929 4.002Zm15.319 13.464a4 4 0 1 0 4-6.93 4 4 0 0 0-4 6.93Zm26.25 10.536a4 4 0 1 1-6.93-4.002 4 4 0 0 1 6.93 4.002Zm15.32 13.464a4 4 0 1 0 4-6.929 4 4 0 0 0-4 6.929Zm26.249 10.536a4 4 0 1 1-6.928-4.001 4 4 0 0 1 6.928 4.001Zm15.319 13.464a4.002 4.002 0 0 0 4-6.929 4 4 0 0 0-4 6.929Zm26.25 10.536a4 4 0 1 1-6.929-4.002 4 4 0 0 1 6.929 4.002ZM2.464 153.421a4 4 0 1 0 4-6.93 4 4 0 0 0-4 6.93Zm26.25 10.536a4 4 0 1 1-6.929-4.002 4 4 0 0 1 6.929 4.002Zm15.319 13.464a4 4 0 1 0 4-6.93 4 4 0 0 0-4 6.93Zm26.25 10.536a4 4 0 1 1-6.93-4.002 4 4 0 0 1 6.93 4.002Zm15.32 13.464a4 4 0 1 0 4-6.93 4 4 0 0 0-4 6.93Zm26.249 10.536a4 4 0 1 1-6.928-4.001 4 4 0 0 1 6.928 4.001Zm15.319 13.464a4 4 0 1 0 4.002-6.927 4 4 0 0 0-4.002 6.927Zm26.25 10.536a4 4 0 1 1-6.929-4.002 4 4 0 0 1 6.929 4.002Z" fill="url(#a)"/><defs><linearGradient id="a" x1="-1" y1="151.421" x2="239.421" y2="87.001" gradientUnits="userSpaceOnUse"><stop stop-color="#E5E5E5"/><stop offset="1" stop-color="#E5E5E5" stop-opacity="0"/></linearGradient></defs></svg>