<svg width="176" height="176" fill="none" xmlns="http://www.w3.org/2000/svg"><path fill-rule="evenodd" clip-rule="evenodd" d="M8 4a4 4 0 1 1-8 0 4 4 0 0 1 8 0Zm24 0a4 4 0 1 1-8 0 4 4 0 0 1 8 0Zm20 4a4 4 0 1 0 0-8 4 4 0 0 0 0 8Zm28-4a4 4 0 1 1-8 0 4 4 0 0 1 8 0Zm20 4a4 4 0 1 0 0-8 4 4 0 0 0 0 8Zm28-4a4 4 0 1 1-8 0 4 4 0 0 1 8 0Zm20 4a4 4 0 1 0 0-8 4 4 0 0 0 0 8Zm28-4a4 4 0 1 1-8 0 4 4 0 0 1 8 0ZM4 32a4 4 0 1 0 0-8 4 4 0 0 0 0 8Zm28-4a4 4 0 1 1-8 0 4 4 0 0 1 8 0Zm20 4a4 4 0 1 0 0-8 4 4 0 0 0 0 8Zm28-4a4 4 0 1 1-8 0 4 4 0 0 1 8 0Zm20 4a4 4 0 1 0 0-8 4 4 0 0 0 0 8Zm28-4a4 4 0 1 1-8 0 4 4 0 0 1 8 0Zm20 4a4 4 0 1 0 0-8 4 4 0 0 0 0 8Zm28-4a4 4 0 1 1-8 0 4 4 0 0 1 8 0ZM4 56a4 4 0 1 0 0-8 4 4 0 0 0 0 8Zm28-4a4 4 0 1 1-8 0 4 4 0 0 1 8 0Zm20 4a4 4 0 1 0 0-8 4 4 0 0 0 0 8Zm28-4a4 4 0 1 1-8 0 4 4 0 0 1 8 0Zm20 4a4 4 0 1 0 0-8 4 4 0 0 0 0 8Zm28-4a4 4 0 1 1-8 0 4 4 0 0 1 8 0Zm20 4a4 4 0 1 0 0-8 4 4 0 0 0 0 8Zm28-4a4 4 0 1 1-8 0 4 4 0 0 1 8 0ZM4 80a4 4 0 1 0 0-8 4 4 0 0 0 0 8Zm28-4a4 4 0 1 1-8 0 4 4 0 0 1 8 0Zm20 4a4 4 0 1 0 0-8 4 4 0 0 0 0 8Zm28-4a4 4 0 1 1-8 0 4 4 0 0 1 8 0Zm20 4a4 4 0 1 0 0-8 4 4 0 0 0 0 8Zm28-4a4 4 0 1 1-8 0 4 4 0 0 1 8 0Zm20 4a4 4 0 1 0 0-8 4 4 0 0 0 0 8Zm28-4a4 4 0 1 1-8 0 4 4 0 0 1 8 0ZM4 104a4 4 0 1 0 0-8 4 4 0 0 0 0 8Zm28-4a4 4 0 1 1-8 0 4 4 0 0 1 8 0Zm20 4a4 4 0 1 0 0-8 4 4 0 0 0 0 8Zm28-4a4 4 0 1 1-8 0 4 4 0 0 1 8 0Zm20 4a4 4 0 1 0 0-8 4 4 0 0 0 0 8Zm28-4a4 4 0 1 1-8 0 4 4 0 0 1 8 0Zm20 4a4 4 0 1 0 0-8 4 4 0 0 0 0 8Zm28-4a4 4 0 1 1-8 0 4 4 0 0 1 8 0ZM4 128a4 4 0 1 0 0-8 4 4 0 0 0 0 8Zm28-4a4 4 0 1 1-8 0 4 4 0 0 1 8 0Zm20 4a4 4 0 1 0 0-8 4 4 0 0 0 0 8Zm28-4a4 4 0 1 1-8 0 4 4 0 0 1 8 0Zm20 4a4 4 0 1 0 0-8 4 4 0 0 0 0 8Zm28-4a4 4 0 1 1-8 0 4 4 0 0 1 8 0Zm20 4a4 4 0 1 0 0-8 4 4 0 0 0 0 8Zm28-4a4 4 0 1 1-8 0 4 4 0 0 1 8 0ZM4 152a4 4 0 1 0 0-8 4 4 0 0 0 0 8Zm28-4a4 4 0 1 1-8 0 4 4 0 0 1 8 0Zm20 4a4 4 0 1 0 0-8 4 4 0 0 0 0 8Zm28-4a4 4 0 1 1-8 0 4 4 0 0 1 8 0Zm20 4a4 4 0 1 0 0-8 4 4 0 0 0 0 8Zm28-4a4 4 0 1 1-8 0 4 4 0 0 1 8 0Zm20 4a4 4 0 1 0 0-8 4 4 0 0 0 0 8Zm28-4a4 4 0 1 1-8 0 4 4 0 0 1 8 0ZM4 176a4 4 0 1 0 0-8 4 4 0 0 0 0 8Zm28-4a4 4 0 1 1-8 0 4 4 0 0 1 8 0Zm20 4a4 4 0 1 0 0-8 4 4 0 0 0 0 8Zm28-4a4 4 0 1 1-8 0 4 4 0 0 1 8 0Zm20 4a4 4 0 1 0 0-8 4 4 0 0 0 0 8Zm28-4a4 4 0 1 1-8 0 4 4 0 0 1 8 0Zm20 4a4 4 0 1 0 0-8 4 4 0 0 0 0 8Zm28-4a4 4 0 1 1-8 0 4 4 0 0 1 8 0Z" fill="#000"/></svg>