<svg width="162" height="323" fill="none" xmlns="http://www.w3.org/2000/svg"><path opacity=".5" fill-rule="evenodd" clip-rule="evenodd" d="M46.327 202.462a5.256 5.256 0 0 1 7.434 0 5.256 5.256 0 0 1 0 7.434 5.256 5.256 0 0 1-7.434 0 5.256 5.256 0 0 1 0-7.434Zm89.219 89.219a5.258 5.258 0 1 1 7.435 7.436 5.258 5.258 0 0 1-7.435-7.436Zm22.306 22.305a5.258 5.258 0 1 1 7.435 7.436 5.258 5.258 0 0 1-7.435-7.436Zm-37.174-44.609a5.258 5.258 0 1 0-7.435 7.436 5.258 5.258 0 0 0 7.435-7.436Zm-29.74-22.305a5.257 5.257 0 1 1 7.435 7.435 5.257 5.257 0 0 1-7.435-7.435Zm-14.87-22.305a5.257 5.257 0 1 0-7.435 7.435 5.257 5.257 0 0 0 7.434-7.435Zm-44.61-44.61a5.258 5.258 0 1 0-7.435 7.436 5.258 5.258 0 0 0 7.435-7.436Zm-29.74-22.305a5.258 5.258 0 1 1 7.435 7.436 5.258 5.258 0 0 1-7.435-7.436Zm185.874 133.83a5.258 5.258 0 1 0-7.435 7.436 5.258 5.258 0 0 0 7.435-7.436Zm-29.741-22.305a5.258 5.258 0 1 1 7.435 7.436 5.258 5.258 0 0 1-7.435-7.436Zm-14.868-22.305a5.258 5.258 0 1 0-7.435 7.436 5.258 5.258 0 0 0 7.435-7.436Zm-29.741-22.305a5.258 5.258 0 1 1 7.435 7.436 5.258 5.258 0 0 1-7.435-7.436Zm-14.87-22.305a5.258 5.258 0 1 0-7.435 7.436 5.258 5.258 0 0 0 7.435-7.436Zm-29.74-22.305a5.258 5.258 0 1 1 7.434 7.436 5.258 5.258 0 0 1-7.435-7.436Zm-14.869-22.304a5.257 5.257 0 1 0-7.435 7.435 5.257 5.257 0 0 0 7.435-7.435Zm-29.74-22.305a5.258 5.258 0 1 1 7.435 7.436 5.258 5.258 0 0 1-7.435-7.436Zm185.874 133.828a5.258 5.258 0 1 0-7.435 7.436 5.258 5.258 0 0 0 7.435-7.436Zm-29.741-22.305a5.258 5.258 0 1 1 7.435 7.436 5.258 5.258 0 0 1-7.435-7.436Zm-14.868-22.304a5.258 5.258 0 1 0-7.435 7.436 5.258 5.258 0 0 0 7.435-7.436Zm-29.74-22.305a5.256 5.256 0 0 1 7.434 0 5.256 5.256 0 0 1 0 7.435 5.256 5.256 0 0 1-7.434 0 5.256 5.256 0 0 1 0-7.435Zm-14.871-22.305a5.258 5.258 0 1 0-7.435 7.436 5.258 5.258 0 0 0 7.435-7.436Zm-29.74-22.305a5.258 5.258 0 1 1 7.433 7.435 5.258 5.258 0 0 1-7.434-7.435Zm-14.869-22.305a5.257 5.257 0 1 0-7.435 7.435 5.257 5.257 0 0 0 7.435-7.435Zm-29.74-22.305a5.257 5.257 0 1 1 7.435 7.435 5.257 5.257 0 0 1-7.435-7.435ZM232.2 247.072a5.258 5.258 0 1 0-7.435 7.436 5.258 5.258 0 0 0 7.435-7.436Zm-29.74-22.305a5.258 5.258 0 1 1 7.435 7.436 5.258 5.258 0 0 1-7.435-7.436Zm-14.868-22.305a5.258 5.258 0 1 0-7.435 7.436 5.258 5.258 0 0 0 7.435-7.436Zm-29.741-22.305a5.258 5.258 0 1 1 7.435 7.436 5.258 5.258 0 0 1-7.435-7.436Zm-14.87-22.305a5.258 5.258 0 1 0-7.435 7.436 5.258 5.258 0 0 0 7.435-7.436Zm-29.741-22.305a5.258 5.258 0 1 1 7.435 7.436 5.258 5.258 0 0 1-7.435-7.436Zm-14.868-22.304a5.257 5.257 0 1 0-7.435 7.435 5.257 5.257 0 0 0 7.435-7.435Zm-29.74-22.305a5.257 5.257 0 1 1 7.434 7.435 5.257 5.257 0 0 1-7.435-7.435Zm185.873 133.828a5.256 5.256 0 0 0-7.434 0 5.256 5.256 0 0 0 0 7.435 5.256 5.256 0 0 0 7.434 0 5.256 5.256 0 0 0 0-7.435Zm-29.74-22.305a5.258 5.258 0 1 1 7.435 7.436 5.258 5.258 0 0 1-7.435-7.436Zm-14.868-22.304a5.258 5.258 0 1 0-7.435 7.436 5.258 5.258 0 0 0 7.435-7.436Zm-29.741-22.305a5.258 5.258 0 1 1 7.435 7.436 5.258 5.258 0 0 1-7.435-7.436Zm-14.87-22.305a5.258 5.258 0 1 0-7.435 7.436 5.258 5.258 0 0 0 7.435-7.436Zm-29.741-22.305a5.258 5.258 0 1 1 7.435 7.436 5.258 5.258 0 0 1-7.435-7.436Zm-14.868-22.305a5.257 5.257 0 1 0-7.435 7.435 5.257 5.257 0 0 0 7.435-7.435Zm-29.74-22.305a5.257 5.257 0 1 1 7.434 7.435 5.257 5.257 0 0 1-7.434-7.435Zm185.873 133.83a5.258 5.258 0 1 0-7.435 7.436 5.258 5.258 0 0 0 7.435-7.436Zm-29.74-22.305a5.258 5.258 0 1 1 7.435 7.436 5.258 5.258 0 0 1-7.435-7.436Zm-14.868-22.304a5.256 5.256 0 0 0-7.435 0 5.255 5.255 0 0 0 0 7.434 5.256 5.256 0 0 0 7.435 0 5.256 5.256 0 0 0 0-7.434Zm-29.741-22.306a5.258 5.258 0 1 1 7.435 7.436 5.258 5.258 0 0 1-7.435-7.436Zm-14.871-22.305a5.258 5.258 0 1 0-7.435 7.436 5.258 5.258 0 0 0 7.435-7.436Zm-29.74-22.305a5.257 5.257 0 1 1 7.435 7.435 5.257 5.257 0 0 1-7.435-7.435Zm-14.868-22.304a5.257 5.257 0 1 0-7.435 7.435 5.257 5.257 0 0 0 7.435-7.435Zm-29.741-22.305a5.257 5.257 0 1 1 7.435 7.435 5.257 5.257 0 0 1-7.435-7.435Zm185.874 133.828a5.258 5.258 0 1 0-7.435 7.436 5.258 5.258 0 0 0 7.435-7.436Zm-29.74-22.305a5.258 5.258 0 1 1 7.435 7.436 5.258 5.258 0 0 1-7.435-7.436Zm-14.868-22.304a5.258 5.258 0 1 0-7.435 7.436 5.258 5.258 0 0 0 7.435-7.436Zm-29.741-22.305a5.258 5.258 0 1 1 7.435 7.436 5.258 5.258 0 0 1-7.435-7.436Zm-14.871-22.305a5.257 5.257 0 1 0-7.435 7.435 5.257 5.257 0 0 0 7.435-7.435Zm-29.74-22.305a5.257 5.257 0 1 1 7.435 7.435 5.257 5.257 0 0 1-7.435-7.435Zm-14.868-22.305a5.257 5.257 0 1 0-7.435 7.435 5.257 5.257 0 0 0 7.435-7.435Zm-29.741-22.305a5.257 5.257 0 1 1 7.435 7.435 5.257 5.257 0 0 1-7.435-7.435Zm185.874 133.83a5.258 5.258 0 1 0-7.435 7.436 5.258 5.258 0 0 0 7.435-7.436Zm-29.741-22.305a5.258 5.258 0 1 1 7.435 7.436 5.258 5.258 0 0 1-7.435-7.436Zm-14.868-22.304a5.258 5.258 0 1 0-7.435 7.436 5.258 5.258 0 0 0 7.435-7.436Zm-29.74-22.305a5.257 5.257 0 1 1 7.435 7.435 5.257 5.257 0 0 1-7.435-7.435ZM232.2 68.632a5.257 5.257 0 1 0-7.435 7.436 5.257 5.257 0 0 0 7.435-7.436Zm-29.74-22.305a5.257 5.257 0 1 1 7.435 7.435 5.257 5.257 0 0 1-7.435-7.435Zm-14.868-22.304a5.257 5.257 0 1 0-7.435 7.435 5.257 5.257 0 0 0 7.435-7.435Zm-29.74-22.305a5.257 5.257 0 1 1 7.435 7.435 5.257 5.257 0 0 1-7.435-7.435Z" fill="url(#a)"/><defs><linearGradient id="a" x1="325.139" y1="161.569" x2="-2" y2="161.569" gradientUnits="userSpaceOnUse"><stop stop-color="#E5E5E5"/><stop offset="1" stop-color="#E5E5E5" stop-opacity="0"/></linearGradient></defs></svg>