<svg width="151" height="151" fill="none" xmlns="http://www.w3.org/2000/svg"><path fill-rule="evenodd" clip-rule="evenodd" d="M6.864 3.432a3.432 3.432 0 1 1-6.864 0 3.432 3.432 0 0 1 6.864 0Zm20.591 0a3.432 3.432 0 1 1-6.863 0 3.432 3.432 0 0 1 6.863 0Zm17.159 3.432a3.432 3.432 0 1 0 0-6.864 3.432 3.432 0 0 0 0 6.864Zm24.023-3.432a3.432 3.432 0 1 1-6.864 0 3.432 3.432 0 0 1 6.864 0Zm17.158 3.432a3.432 3.432 0 1 0 0-6.864 3.432 3.432 0 0 0 0 6.864Zm24.024-3.432a3.432 3.432 0 1 1-6.864 0 3.432 3.432 0 0 1 6.864 0Zm17.158 3.432a3.432 3.432 0 1 0 0-6.865 3.432 3.432 0 0 0 0 6.865ZM151 3.432a3.431 3.431 0 1 1-6.863 0 3.431 3.431 0 0 1 6.863 0ZM3.432 27.455a3.432 3.432 0 1 0 0-6.864 3.432 3.432 0 0 0 0 6.863Zm24.023-3.432a3.432 3.432 0 1 1-6.863 0 3.432 3.432 0 0 1 6.863 0Zm17.159 3.431a3.432 3.432 0 1 0 0-6.863 3.432 3.432 0 0 0 0 6.863Zm24.023-3.431a3.432 3.432 0 1 1-6.864 0 3.432 3.432 0 0 1 6.864 0Zm17.158 3.431a3.432 3.432 0 1 0 0-6.863 3.432 3.432 0 0 0 0 6.863Zm24.024-3.431a3.432 3.432 0 1 1-6.864-.001 3.432 3.432 0 0 1 6.864 0ZM3.432 48.045a3.432 3.432 0 1 0 0-6.863 3.432 3.432 0 0 0 0 6.863Zm24.023-3.431a3.432 3.432 0 1 1-6.863 0 3.432 3.432 0 0 1 6.863 0Zm17.159 3.431a3.432 3.432 0 1 0 0-6.863 3.432 3.432 0 0 0 0 6.863Zm24.023-3.431a3.432 3.432 0 1 1-6.864 0 3.432 3.432 0 0 1 6.864 0Zm17.158 3.431a3.432 3.432 0 1 0 0-6.863 3.432 3.432 0 0 0 0 6.863ZM6.864 65.205a3.432 3.432 0 1 1-6.864 0 3.432 3.432 0 0 1 6.864 0Zm17.16 3.432a3.432 3.432 0 1 0 0-6.864 3.432 3.432 0 0 0 0 6.864Zm24.021-3.432a3.432 3.432 0 1 1-6.863 0 3.432 3.432 0 0 1 6.863 0Zm17.16 3.432a3.432 3.432 0 1 0 0-6.864 3.432 3.432 0 0 0 0 6.864ZM6.864 85.796a3.432 3.432 0 1 1-6.864 0 3.432 3.432 0 0 1 6.864 0Zm17.16 3.431a3.432 3.432 0 1 0 0-6.863 3.432 3.432 0 0 0 0 6.863Zm24.021-3.431a3.432 3.432 0 1 1-6.863 0 3.432 3.432 0 0 1 6.863 0ZM3.432 109.818a3.432 3.432 0 1 0 0-6.863 3.432 3.432 0 0 0 0 6.863Zm24.023-3.432a3.431 3.431 0 1 1-6.863.001 3.431 3.431 0 0 1 6.863-.001ZM3.432 130.409a3.432 3.432 0 1 0 0-6.863 3.432 3.432 0 0 0 0 6.863Zm3.432 17.159a3.432 3.432 0 1 1-6.865 0 3.432 3.432 0 0 1 6.865 0Z" fill="#F2C938"/></svg>