<svg width="33" height="33" fill="none" xmlns="http://www.w3.org/2000/svg"><path d="M21.422 16.5c0 2.722-2.2 4.922-4.922 4.922a4.918 4.918 0 0 1-4.922-4.922c0-2.723 2.2-4.923 4.922-4.923 2.723 0 4.922 2.2 4.922 4.923Z" stroke="#fff" stroke-width="1.5" stroke-linecap="round" stroke-linejoin="round"/><path d="M16.5 27.871c4.854 0 9.378-2.86 12.526-7.81 1.238-1.939 1.238-5.197 0-7.136-3.148-4.95-7.672-7.81-12.526-7.81s-9.377 2.86-12.526 7.81c-1.238 1.939-1.238 5.197 0 7.136 3.149 4.95 7.672 7.81 12.526 7.81Z" stroke="#fff" stroke-width="1.5" stroke-linecap="round" stroke-linejoin="round"/></svg>