<svg width="60" height="61" fill="none" xmlns="http://www.w3.org/2000/svg"><path opacity=".4" d="m45.82 14.425-29.35 29.35a2.52 2.52 0 0 1-3.85-.35C9.52 38.9 7.695 33.55 7.695 28.05V17.075c0-2.05 1.55-4.375 3.45-5.15l13.925-5.7a12.8 12.8 0 0 1 9.8 0l10.1 4.125c1.675.675 2.1 2.825.85 4.075Z" fill="#F2C938"/><path d="M48.175 17.855c1.625-1.375 4.1-.2 4.1 1.925v8.275c0 12.225-8.875 23.675-21 27.025a4.996 4.996 0 0 1-2.575 0 28.25 28.25 0 0 1-9.675-4.875 2.513 2.513 0 0 1-.275-3.75c5.45-5.575 21.4-21.825 29.425-28.6Z" fill="#F2C938"/></svg>