<svg width="60" height="61" fill="none" xmlns="http://www.w3.org/2000/svg"><path opacity=".4" d="M30 42.75v5.95c0 4.675-1.875 6.55-6.575 6.55H11.55C6.875 55.25 5 53.375 5 48.7V36.825c0-4.7 1.875-6.575 6.55-6.575h5.95v5.925c0 4.7 1.875 6.575 6.55 6.575H30Z" fill="#F2C938"/><path opacity=".6" d="M42.5 30.25v5.925c0 4.7-1.875 6.575-6.575 6.575H24.05c-4.675 0-6.55-1.875-6.55-6.575V24.3c0-4.675 1.875-6.55 6.55-6.55H30v5.925c0 4.7 1.875 6.575 6.55 6.575h5.95Z" fill="#F2C938"/><path d="M55 11.8v11.875c0 4.7-1.875 6.575-6.575 6.575H36.55c-4.675 0-6.55-1.875-6.55-6.575V11.8c0-4.675 1.875-6.55 6.55-6.55h11.875c4.7 0 6.575 1.875 6.575 6.55Z" fill="#F2C938"/></svg>