<svg width="60" height="61" fill="none" xmlns="http://www.w3.org/2000/svg"><path opacity=".4" d="M14.35 40.25c.275-1.225-.225-2.975-1.1-3.85l-6.075-6.075c-1.9-1.9-2.65-3.925-2.1-5.675.575-1.75 2.35-2.95 5-3.4l7.8-1.3c1.125-.2 2.5-1.2 3.025-2.225L25.2 9.1c1.25-2.475 2.95-3.85 4.8-3.85 1.85 0 3.55 1.375 4.8 3.85l4.3 8.625c.325.65 1 1.275 1.725 1.7L13.9 46.35c-.35.35-.95.025-.85-.475l1.3-5.625Z" fill="#F2C938"/><path d="M46.75 36.405c-.9.9-1.4 2.625-1.1 3.85l1.725 7.525c.725 3.125.275 5.475-1.275 6.6a3.75 3.75 0 0 1-2.25.675c-1.275 0-2.775-.475-4.425-1.45l-7.325-4.35c-1.15-.675-3.05-.675-4.2 0l-7.325 4.35c-2.775 1.625-5.15 1.9-6.675.775-.575-.425-1-1-1.275-1.75l30.4-30.4c1.15-1.15 2.775-1.675 4.35-1.4l2.525.425c2.65.45 4.425 1.65 5 3.4.55 1.75-.2 3.775-2.1 5.675l-6.05 6.075Z" fill="#F2C938"/></svg>