<svg width="66" height="640" fill="none" xmlns="http://www.w3.org/2000/svg"><path opacity=".1" d="m10.382 602.342.834.552.004-.007-.838-.545Zm29.797.083.837-.548-.005-.007-.832.555Zm4.565 23.987h-1v1h1v-1Zm19.256 0h1v-1h-1v1Zm0 12.948v1h1v-1h-1Zm-56.689 0-.981.192.158.808h.823v-1Zm9.628-15.272-.998.059v.003l.998-.062Zm.166 2.324-.997.083.077.917h.92v-1Zm16.6 0v1h1v-1h-1Zm-1.826-14.193-.881.473.881-.473Zm-10.79-2.49.466.885.018-.009.017-.011-.501-.865Zm-2.49 2.49.846.534.016-.026.014-.026-.876-.482Zm-1.328 3.901.984.176.004-.017.002-.018-.99-.141Zm-10.454 5.976c0-8.481 1.509-14.84 4.399-19.202l-1.668-1.104c-3.196 4.824-4.731 11.634-4.731 20.306h2Zm4.403-19.209c2.756-4.236 7.316-6.434 13.936-6.434v-2c-7.102 0-12.392 2.395-15.612 7.344l1.676 1.09Zm13.936-6.434c6.673 0 11.323 2.225 14.191 6.527l1.664-1.11c-3.33-4.994-8.695-7.417-15.855-7.417v2Zm14.186 6.52c2.893 4.418 4.402 10.835 4.402 19.372h2c0-8.727-1.535-15.59-4.728-20.468l-1.674 1.096Zm4.402 19.372v4.067h2v-4.067h-2Zm1 5.067H64v-2H44.744v2Zm18.256-1v12.948h2v-12.948h-2Zm1 11.948H7.311v2H64v-2Zm-55.708.808a72.257 72.257 0 0 1-1.145-8.842l-1.996.14c.224 3.191.617 6.22 1.179 9.086l1.962-.384Zm-1.145-8.842c-.22-3.138-.33-5.88-.33-8.23h-2c0 2.409.112 5.2.334 8.37l1.996-.14Zm8.709-9.06c0 .96.028 1.921.085 2.881l1.996-.118a47.022 47.022 0 0 1-.081-2.763h-2Zm.085 2.884c.056.891.111 1.672.167 2.345l1.994-.166c-.055-.655-.11-1.423-.165-2.303l-1.996.124Zm1.164 3.262h16.6v-2h-16.6v2Zm17.6-1v-4.067h-2v4.067h2Zm0-4.067c0-4.541-.611-8.114-1.945-10.599l-1.762.946c1.101 2.052 1.707 5.23 1.707 9.653h2Zm-1.945-10.599c-1.443-2.69-4.123-3.93-7.687-3.93v2c3.076 0 4.934 1.029 5.925 2.876l1.762-.946Zm-7.687-3.93c-1.726 0-3.24.327-4.485 1.048l1.002 1.73c.858-.496 2-.778 3.483-.778v-2Zm-4.45 1.028c-1.236.651-2.203 1.626-2.9 2.893l1.752.964c.52-.946 1.213-1.631 2.08-2.087l-.932-1.77Zm-2.87 2.841c-.756 1.197-1.236 2.64-1.472 4.294l1.98.282c.206-1.444.612-2.602 1.184-3.508l-1.692-1.068Zm-1.466 4.259c-.29 1.617-.431 3.393-.431 5.322h2c0-1.833.135-3.489.4-4.97l-1.97-.352Zm38.998-47.717.999-.05-.999.05Zm-.249-2.656.986-.164-.139-.836h-.847v1Zm-9.379 0v-1h-.802l-.174.783.976.217Zm-.249 8.3.994-.11-.003-.023-.003-.023-.988.156Zm.747 2.656.894-.447-.894.447Zm8.134.581.854.52.013-.022.012-.022-.879-.476Zm-30.295-19.339.68.733.007-.007.007-.006-.694-.72Zm5.644-3.154-.265-.964.265.964Zm33.117-.913.977-.214-.172-.786h-.805v1Zm1.328 7.387-.988.156.002.008.001.009.985-.173Zm.083 19.173.977.214v-.004l-.977-.21Zm-2.407 5.893.82.574.006-.01.006-.009-.832-.555Zm-4.482 3.818-.436-.9.436.9Zm-13.197-.166-.51.86.01.006.01.006.49-.872Zm-4.233-4.15.853-.523-.853.523Zm-2.241-5.893.98-.196-.002-.012-.002-.011-.976.219Zm-.498-11.122.99.135.004-.024.002-.024-.996-.087Zm.498-3.071.962.275.364-1.275h-1.326v1Zm-7.636 14.774.991-.134-.002-.013-.002-.013-.987.16Zm1.245 5.312.156.988 1.206-.191-.424-1.144-.938.347Zm-9.96 1.577-.956.294.255.829.857-.135-.156-.988Zm-.664-2.656.979-.206-.004-.018-.005-.018-.97.242Zm-.664-3.569.992-.129-.003-.021-.004-.021-.985.171Zm-.498-3.984.997-.08-.002-.017-.002-.018-.993.115Zm36.939-5.312c0-1.232-.028-2.411-.084-3.536l-1.998.1a68.81 68.81 0 0 1 .082 3.436h2Zm-.084-3.536c-.056-1.124-.142-2.052-.262-2.77l-1.972.328c.101.61.182 1.453.236 2.542l1.998-.1Zm-1.248-3.606h-9.379v2h9.379v-2Zm-10.355.783c-.123.552-.238 1.343-.35 2.348l1.988.22c.11-.987.216-1.69.314-2.134l-1.952-.434Zm-.35 2.348a25.953 25.953 0 0 0-.172 2.849h2c0-.786.053-1.662.16-2.629l-1.988-.22Zm-.172 2.849c0 1.21.086 2.369.261 3.476l1.976-.312a20.267 20.267 0 0 1-.237-3.164h-2Zm.255 3.43c.122 1.096.399 2.098.847 2.993l1.788-.894c-.327-.654-.547-1.423-.647-2.319l-1.988.22Zm.847 2.993c.458.917 1.095 1.664 1.916 2.211l1.11-1.664c-.507-.338-.921-.808-1.238-1.441l-1.788.894Zm1.916 2.211c.865.577 1.9.832 3.045.832v-2c-.848 0-1.472-.187-1.935-.496l-1.11 1.664Zm3.045.832c2.167 0 3.91-.729 4.921-2.389l-1.708-1.04c-.54.885-1.506 1.429-3.213 1.429v2Zm4.946-2.433c.829-1.529 1.2-3.513 1.2-5.871h-2c0 2.179-.348 3.792-.958 4.919l1.758.952Zm-34.988-4.875c0-3.584.408-6.51 1.192-8.807l-1.893-.646c-.877 2.573-1.299 5.734-1.299 9.453h2Zm1.192-8.807c.788-2.312 1.898-4.096 3.302-5.4l-1.36-1.466c-1.695 1.573-2.964 3.663-3.835 6.22l1.893.646Zm3.316-5.413c1.421-1.37 3.152-2.342 5.215-2.91l-.53-1.928c-2.364.65-4.396 1.78-6.073 3.398l1.388 1.44Zm5.215-2.91c2.113-.581 4.485-.877 7.122-.877v-2c-2.785 0-5.338.313-7.652.949l.53 1.928Zm7.122-.877h25.73v-2h-25.73v2Zm24.753-.786c.381 1.742.82 4.182 1.317 7.329l1.976-.312c-.5-3.161-.946-5.646-1.34-7.445l-1.953.428Zm1.32 7.346c.54 3.079.815 6.836.815 11.281h2c0-4.519-.279-8.398-.845-11.627l-1.97.346Zm.815 11.281c0 2.764-.244 5.266-.725 7.51l1.956.419c.515-2.405.769-5.049.769-7.929h-2Zm-.724 7.505c-.475 2.167-1.235 4.011-2.262 5.552l1.664 1.11c1.186-1.779 2.031-3.863 2.552-6.234l-1.954-.428Zm-2.25 5.534a10.516 10.516 0 0 1-4.098 3.491l.872 1.8a12.526 12.526 0 0 0 4.865-4.144l-1.638-1.147Zm-4.098 3.491c-1.655.803-3.737 1.228-6.287 1.228v2c2.762 0 5.162-.46 7.16-1.428l-.873-1.8Zm-6.287 1.228c-2.416 0-4.396-.472-5.984-1.366l-.98 1.744c1.953 1.099 4.29 1.622 6.964 1.622v-2Zm-5.964-1.354c-1.634-.97-2.926-2.239-3.89-3.813l-1.706 1.046c1.139 1.857 2.669 3.355 4.575 4.487l1.021-1.72Zm-3.89-3.813c-.983-1.603-1.691-3.454-2.113-5.566l-1.962.392c.463 2.315 1.25 4.392 2.37 6.22l1.705-1.046Zm-2.118-5.589a30.3 30.3 0 0 1-.723-6.67h-2c0 2.45.256 4.82.771 7.109l1.952-.439Zm-.723-6.67c0-1.572.081-2.936.24-4.098l-1.982-.27c-.173 1.273-.258 2.731-.258 4.368h2Zm.245-4.146c.108-1.242.267-2.195.464-2.883l-1.923-.55c-.247.861-.42 1.955-.533 3.259l1.992.174Zm-.498-4.158h-1.162v2h1.162v-2Zm-1.162 0c-2.32 0-4.278.71-5.77 2.202l1.414 1.414c1.054-1.053 2.47-1.616 4.356-1.616v-2Zm-5.77 2.202c-1.56 1.559-2.202 4.112-2.202 7.347h2c0-3.073.63-4.947 1.616-5.933l-1.414-1.414Zm-2.202 7.347c0 2.156.17 4.284.51 6.385l1.975-.32a37.828 37.828 0 0 1-.485-6.065h-2Zm.507 6.359c.284 2.1.713 3.946 1.298 5.525l1.876-.694c-.522-1.408-.922-3.104-1.192-5.099l-1.982.268Zm2.08 4.19-9.96 1.577.312 1.976 9.96-1.577-.312-1.976Zm-8.848 2.271a29.783 29.783 0 0 1-.641-2.568l-1.957.412c.225 1.07.453 1.986.686 2.744l1.912-.588Zm-.65-2.604a30.627 30.627 0 0 1-.642-3.456l-1.984.258c.17 1.307.399 2.534.686 3.683l1.94-.485Zm-.649-3.498a42.504 42.504 0 0 1-.486-3.893l-1.994.16c.113 1.412.283 2.77.51 4.075l1.97-.342Zm-.49-3.928a36.616 36.616 0 0 1-.242-4.201h-2c0 1.477.085 2.954.256 4.431l1.986-.23ZM64 530.152h1v-1h-1v1Zm0 12.367v1h1v-1h-1Zm-43.658 0h-1v1h1v-1Zm0-12.367v-1h-1v1h1Zm-7.221 1.079.749-.662-.002-.002-.747.664Zm0 10.375.735.678.013-.014.013-.015-.761-.649Zm-10.707 0 .749-.662-.002-.002-.747.664Zm0-10.375.735.678.013-.014.013-.015-.761-.649ZM63 530.152v12.367h2v-12.367h-2Zm1 11.367H20.342v2H64v-2Zm-42.658 1v-12.367h-2v12.367h2Zm-1-11.367H64v-2H20.342v2ZM7.726 529.99c2.026 0 3.536.655 4.648 1.905l1.494-1.328c-1.544-1.738-3.63-2.577-6.142-2.577v2Zm4.646 1.904c1.104 1.248 1.658 2.725 1.658 4.483h2c0-2.226-.72-4.18-2.16-5.808l-1.498 1.325Zm1.658 4.483c0 1.758-.554 3.271-1.67 4.581l1.522 1.297c1.43-1.678 2.148-3.652 2.148-5.878h-2Zm-1.644 4.551c-1.108 1.2-2.622 1.836-4.66 1.836v2c2.5 0 4.582-.803 6.13-2.48l-1.47-1.356Zm-4.66 1.836c-2.04 0-3.515-.636-4.563-1.82l-1.498 1.325c1.497 1.692 3.563 2.495 6.061 2.495v-2Zm-4.565-1.822c-1.165-1.312-1.739-2.819-1.739-4.565h-2c0 2.238.755 4.217 2.245 5.893l1.494-1.328Zm-1.739-4.565c0-1.745.573-3.217 1.727-4.468l-1.47-1.356c-1.502 1.627-2.257 3.586-2.257 5.824h2Zm1.753-4.497c1.052-1.235 2.525-1.89 4.551-1.89v-2c-2.51 0-4.58.84-6.073 2.593l1.522 1.297Zm18.661-13.353-.96.278.208.722h.752v-1Zm-1.66-8.134.989-.148-.001-.008-.002-.008-.986.164Zm.664-19.671.925.379.006-.013.005-.013-.936-.353Zm4.067-5.893.63.776-.63-.776Zm6.308-3.071.242.97-.242-.97ZM64 480.845h1v-1h-1v1Zm0 12.367v1h1v-1h-1Zm-31.623 1.577.535.845-.535-.845Zm-2.324 8.715.998-.056-.001-.027-.003-.028-.994.111Zm.249 2.656-.99.141.123.859h.867v-1Zm33.698 0h1v-1h-1v1Zm0 12.367v1h1v-1h-1Zm-41.203-.278c-.592-2.044-1.138-4.708-1.632-8.004l-1.978.296c.502 3.344 1.063 6.103 1.688 8.264l1.922-.556Zm-1.635-8.02c-.543-3.262-.816-6.693-.816-10.294h-2c0 3.702.28 7.244.844 10.622l1.972-.328Zm-.816-10.294c0-3.627.488-6.558 1.42-8.834l-1.851-.758c-1.061 2.594-1.569 5.804-1.569 9.592h2Zm1.43-8.86c.888-2.352 2.15-4.16 3.762-5.47l-1.262-1.552c-1.929 1.567-3.379 3.688-4.372 6.316l1.872.706Zm3.762-5.47c1.646-1.337 3.613-2.3 5.92-2.877l-.485-1.94c-2.563.64-4.801 1.725-6.697 3.265l1.262 1.552Zm5.92-2.877c2.342-.585 4.97-.883 7.891-.883v-2c-3.055 0-5.85.311-8.376.943l.485 1.94Zm7.891-.883H64v-2H39.349v2Zm23.651-1v12.367h2v-12.367h-2Zm1 11.367H40.843v2H64v-2Zm-23.157 0c-4.014 0-7.086.519-9.001 1.732l1.07 1.69c1.405-.89 3.977-1.422 7.931-1.422v-2Zm-9.001 1.732c-2.07 1.311-2.955 3.69-2.955 6.738h2c0-2.706.775-4.256 2.025-5.048l-1.07-1.69Zm-2.955 6.738c0 .927.058 1.904.172 2.932l1.988-.221a24.61 24.61 0 0 1-.16-2.711h-2Zm.168 2.877a32.17 32.17 0 0 0 .257 2.742l1.98-.283a30.195 30.195 0 0 1-.24-2.57l-1.997.111Zm1.247 3.601H64v-2H30.302v2Zm32.698-1v12.367h2V506.16h-2Zm1 11.367H21.836v2H64v-2ZM9.469 470.066l-.987.159.135.841h.852v-1Zm-1.992-12.367v-1H6.303l.187 1.159.987-.159Zm12.865 0v1h1v-1h-1Zm0-14.857v-1h-1v1h1Zm10.292 0h1v-1h-1v1Zm0 14.857h-1v1h1v-1Zm21.58-1.328.496.868.012-.006.011-.007-.519-.855Zm1.992-9.628.987-.158-.002-.016-.003-.015-.982.189Zm-1.079-3.901-.178-.984-1.185.214.428 1.126.935-.356Zm9.628-1.743.926-.377-.306-.752-.798.145.178.984Zm1.577 4.98-.972.236.972-.236Zm-.664 15.106.92.391.005-.01.004-.01-.929-.371Zm-3.818 5.312.625.781.006-.005.007-.006-.638-.77Zm-5.976 2.822.21.978.01-.003.012-.002-.232-.973Zm-43.418.588L8.464 457.54l-1.974.318 1.992 12.367 1.974-.318Zm-2.979-11.208h12.865v-2H7.477v2Zm13.865-1v-14.857h-2v14.857h2Zm-1-13.857h10.292v-2H20.342v2Zm9.292-1v14.857h2v-14.857h-2Zm1 15.857h15.355v-2H30.634v2Zm15.355 0c2.7 0 4.967-.457 6.721-1.46l-.992-1.736c-1.345.768-3.228 1.196-5.729 1.196v2Zm6.744-1.473c1.985-1.205 2.805-3.497 2.805-6.416h-2c0 2.614-.729 4.03-1.843 4.706l1.038 1.71Zm2.805-6.416a26.63 26.63 0 0 0-.345-4.225l-1.974.316c.213 1.334.319 2.637.319 3.909h2Zm-.35-4.256c-.286-1.486-.66-2.843-1.127-4.068l-1.868.712c.418 1.099.763 2.342 1.031 3.734l1.964-.378Zm-1.883-2.728 9.628-1.743-.356-1.968-9.628 1.743.356 1.968Zm8.524-2.35c.587 1.441 1.098 3.053 1.531 4.839l1.944-.472c-.453-1.866-.993-3.575-1.623-5.121l-1.852.754Zm1.531 4.839c.418 1.724.636 3.88.636 6.487h2c0-2.706-.225-5.031-.692-6.959l-1.944.472Zm.636 6.487c0 3.297-.434 5.955-1.257 8.012l1.858.742c.947-2.369 1.399-5.3 1.399-8.754h-2Zm-1.248 7.992c-.888 2.089-2.072 3.721-3.536 4.933l1.276 1.54c1.745-1.444 3.107-3.353 4.1-5.691l-1.84-.782Zm-3.523 4.922c-1.53 1.225-3.384 2.107-5.583 2.63l.464 1.946c2.45-.584 4.58-1.583 6.369-3.014l-1.25-1.562Zm-5.56 2.625c-2.244.481-4.746.725-7.51.725v2c2.88 0 5.524-.254 7.928-.769l-.419-1.956Zm-7.51.725H9.469v2h36.686v-2Zm-35.773-94.082.834.552.004-.007-.838-.545Zm29.797.083.837-.548-.005-.007-.832.555Zm4.565 23.987h-1v1h1v-1Zm19.256 0h1v-1h-1v1Zm0 12.948v1h1v-1h-1Zm-56.689 0-.981.192.158.808h.823v-1Zm9.628-15.272-.998.058v.004l.998-.062Zm.166 2.324-.997.083.077.917h.92v-1Zm16.6 0v1h1v-1h-1Zm-1.826-14.193-.881.472.881-.472Zm-10.79-2.49.466.885.018-.01.017-.01-.501-.865Zm-2.49 2.49.846.534.016-.026.014-.026-.876-.482Zm-1.328 3.901.984.175.004-.017.002-.017-.99-.141Zm-10.454 5.976c0-8.482 1.509-14.841 4.399-19.202l-1.668-1.105c-3.196 4.824-4.731 11.635-4.731 20.307h2Zm4.403-19.209c2.756-4.236 7.316-6.434 13.936-6.434v-2c-7.102 0-12.392 2.394-15.612 7.343l1.676 1.091Zm13.936-6.434c6.673 0 11.323 2.224 14.191 6.526l1.664-1.109c-3.33-4.994-8.695-7.417-15.855-7.417v2Zm14.186 6.519c2.893 4.419 4.402 10.836 4.402 19.373h2c0-8.727-1.535-15.59-4.728-20.468l-1.674 1.095Zm4.402 19.373v4.067h2v-4.067h-2Zm1 5.067H64v-2H44.744v2Zm18.256-1v12.948h2v-12.948h-2Zm1 11.948H7.311v2H64v-2Zm-55.708.807a72.24 72.24 0 0 1-1.145-8.841l-1.996.14c.224 3.191.617 6.22 1.179 9.086l1.962-.385Zm-1.145-8.841c-.22-3.138-.33-5.881-.33-8.23h-2c0 2.408.112 5.199.334 8.37l1.996-.14Zm8.709-9.06c0 .96.028 1.92.085 2.88l1.996-.117a47.022 47.022 0 0 1-.081-2.763h-2Zm.085 2.884c.056.89.111 1.672.167 2.345l1.994-.166c-.055-.656-.11-1.423-.165-2.304l-1.996.125Zm1.164 3.262h16.6v-2h-16.6v2Zm17.6-1v-4.067h-2v4.067h2Zm0-4.067c0-4.542-.611-8.114-1.945-10.599l-1.762.945c1.101 2.053 1.707 5.231 1.707 9.654h2Zm-1.945-10.599c-1.443-2.69-4.123-3.93-7.687-3.93v2c3.076 0 4.934 1.028 5.925 2.875l1.762-.945Zm-7.687-3.93c-1.726 0-3.24.326-4.485 1.047l1.002 1.731c.858-.497 2-.778 3.483-.778v-2Zm-4.45 1.028c-1.236.65-2.203 1.626-2.9 2.893l1.752.964c.52-.947 1.213-1.631 2.08-2.087l-.932-1.77Zm-2.87 2.841c-.756 1.197-1.236 2.639-1.472 4.293l1.98.283c.206-1.445.612-2.603 1.184-3.508l-1.692-1.068Zm-1.466 4.259c-.29 1.617-.431 3.392-.431 5.322h2c0-1.834.135-3.489.4-4.971l-1.97-.351Zm15.011-55.48.97.242.254-1.014-1.025-.208-.199.98Zm-.83 3.901.976.216.004-.017.003-.017-.983-.182Zm-.249 7.636.994-.105-.002-.022-.003-.022-.989.149Zm.415 2.407-.958.287.214.713h.744v-1Zm33.366 0h1v-1h-1v1Zm0 12.367v1h1v-1h-1Zm-41.334 0-.944.33.234.67h.71v-1Zm-2.158-7.802.976-.217-.003-.013-.973.23Zm-.913-12.533.993.116.004-.029.001-.029-.998-.058Zm.332-2.822.985.173.005-.028.003-.029-.993-.116Zm.498-2.822.973.229.007-.028.005-.028-.985-.173Zm.664-2.407.2-.98-.807-.164-.316.759.923.385Zm9.239 1.832a66.452 66.452 0 0 0-.843 3.961l1.966.365c.274-1.48.547-2.76.817-3.841l-1.94-.485Zm-.836 3.927c-.35 1.573-.522 3.251-.522 5.031h2c0-1.651.16-3.183.474-4.598l-1.952-.433Zm-.522 5.031c0 .84.09 1.834.26 2.97l1.978-.297c-.162-1.077-.238-1.965-.238-2.673h-2Zm.255 2.926c.112 1.072.258 1.947.451 2.59l1.916-.575c-.14-.463-.27-1.193-.378-2.224l-1.99.209Zm1.409 3.303H64v-2H30.634v2Zm32.366-1v12.367h2V347.05h-2Zm1 11.367H22.666v2H64v-2Zm-40.39.669c-.759-2.167-1.468-4.728-2.126-7.688l-1.952.433c.67 3.016 1.4 5.656 2.19 7.916l1.888-.661Zm-2.129-7.701c-.698-2.956-1.052-6.253-1.052-9.896h-2c0 3.77.366 7.225 1.106 10.356l1.946-.46Zm-1.052-9.896c0-.613.051-1.374.16-2.291l-1.987-.233a22.05 22.05 0 0 0-.173 2.524h2Zm.164-2.349c.053-.901.16-1.804.319-2.707l-1.97-.347a25.515 25.515 0 0 0-.345 2.937l1.996.117Zm.327-2.764c.106-.902.266-1.805.478-2.709l-1.946-.458c-.23.976-.403 1.955-.518 2.934l1.986.233Zm.49-2.765c.157-.89.361-1.618.602-2.196l-1.846-.769c-.313.75-.55 1.627-.726 2.618l1.97.347Zm-.52-1.6 10.209 2.075.398-1.96-10.209-2.075-.398 1.96Zm30.66-46.142.333-.943-.006-.001-.327.944Zm7.304 4.316.687-.727-.01-.009-.677.736Zm4.648 6.806-.923.385.003.007.92-.392Zm0 17.596.92.392.003-.007-.923-.385Zm-4.648 6.723.677.737.01-.009-.687-.728Zm-7.304 4.399.343.94.006-.002-.349-.938Zm-18.841 0-.365.931.008.004.008.003.349-.938Zm-7.221-4.482-.697.717.005.006.005.004.687-.727Zm-4.648-6.806-.923.385.003.007.92-.392Zm0-17.264.92.392.003-.007-.923-.385Zm4.648-6.806.687.727-.687-.727Zm7.221-4.399.35.938-.35-.938Zm.415 13.363.56.829.012-.008.011-.008-.583-.813Zm0 13.031.583-.812-.01-.007-.573.819Zm18.094 0 .564.826.01-.006-.574-.82Zm0-13.031-.564.826.004.003.56-.829Zm-9.13-13.94c3.333 0 6.375.484 9.135 1.439l.654-1.889c-2.995-1.037-6.26-1.55-9.789-1.55v2Zm9.13 1.437c2.704.955 5.019 2.327 6.96 4.11l1.353-1.473c-2.155-1.979-4.709-3.485-7.648-4.523l-.666 1.886Zm6.95 4.101c1.884 1.78 3.355 3.93 4.41 6.463l1.847-.769c-1.158-2.779-2.785-5.166-4.884-7.149l-1.374 1.455Zm4.414 6.47c1.046 2.459 1.58 5.256 1.58 8.406h2c0-3.378-.573-6.447-1.74-9.189l-1.84.783Zm1.58 8.406c0 3.093-.533 5.893-1.583 8.414l1.846.769c1.163-2.791 1.737-5.856 1.737-9.183h-2Zm-1.58 8.407c-1.055 2.478-2.526 4.604-4.415 6.387l1.374 1.455c2.095-1.979 3.722-4.336 4.881-7.059l-1.84-.783Zm-4.405 6.378c-1.944 1.787-4.265 3.188-6.976 4.198l.698 1.875c2.933-1.093 5.481-2.624 7.632-4.6l-1.354-1.473Zm-6.97 4.196c-2.755 1.007-5.791 1.516-9.119 1.516v2c3.534 0 6.806-.541 9.805-1.637l-.686-1.879Zm-9.119 1.516c-3.328 0-6.334-.509-9.03-1.514l-.698 1.875c2.948 1.098 6.195 1.639 9.728 1.639v-2Zm-9.014-1.507c-2.715-1.065-5.01-2.494-6.9-4.279l-1.373 1.454c2.095 1.979 4.614 3.538 7.543 4.686l.73-1.861Zm-6.889-4.269a19.674 19.674 0 0 1-4.425-6.48l-1.84.783a21.673 21.673 0 0 0 4.87 7.131l1.395-1.434Zm-4.422-6.473c-1.052-2.525-1.583-5.271-1.583-8.248h-2c0 3.221.576 6.23 1.737 9.017l1.846-.769Zm-1.583-8.248c0-3.035.532-5.777 1.58-8.24l-1.84-.783c-1.165 2.738-1.74 5.751-1.74 9.023h2Zm1.583-8.247c1.056-2.533 2.527-4.683 4.412-6.464l-1.374-1.454c-2.099 1.983-3.726 4.37-4.884 7.149l1.846.769Zm4.412-6.464c1.885-1.78 4.174-3.179 6.883-4.188l-.698-1.875c-2.935 1.094-5.46 2.627-7.559 4.609l1.374 1.454Zm6.883-4.188c2.696-1.005 5.702-1.515 9.03-1.515v-2c-3.533 0-6.78.542-9.728 1.64l.698 1.875Zm9.03 9.101c-3.94 0-7.16.798-9.547 2.512l1.166 1.625c1.928-1.385 4.684-2.137 8.381-2.137v-2Zm-9.523 2.496c-2.507 1.692-3.761 4.171-3.761 7.302h2c0-2.512.96-4.349 2.88-5.645l-1.12-1.657Zm-3.761 7.302c0 3.132 1.252 5.631 3.747 7.377l1.146-1.639c-1.932-1.352-2.893-3.225-2.893-5.738h-2Zm3.737 7.37c2.388 1.714 5.608 2.511 9.547 2.511v-2c-3.697 0-6.453-.751-8.38-2.136l-1.167 1.625Zm9.547 2.511c3.943 0 7.206-.799 9.694-2.498l-1.128-1.651c-2.05 1.399-4.873 2.149-8.566 2.149v2Zm9.703-2.504c2.495-1.746 3.747-4.245 3.747-7.377h-2c0 2.513-.961 4.386-2.893 5.738l1.146 1.639Zm3.747-7.377c0-3.131-1.254-5.61-3.76-7.302l-1.12 1.657c1.92 1.296 2.88 3.133 2.88 5.645h2Zm-3.756-7.299c-2.488-1.7-5.75-2.499-9.694-2.499v2c3.693 0 6.517.751 8.566 2.15l1.128-1.651ZM9.469 275.21l-.987.16.135.84h.852v-1Zm-1.992-12.367v-1H6.303l.187 1.16.987-.16Zm12.865 0v1h1v-1h-1Zm0-14.857v-1h-1v1h1Zm10.292 0h1v-1h-1v1Zm0 14.857h-1v1h1v-1Zm21.58-1.328.496.869.012-.007.011-.007-.519-.855Zm1.992-9.628.987-.158-.002-.015-.003-.015-.982.188Zm-1.079-3.901-.178-.984-1.185.215.428 1.125.935-.356Zm9.628-1.743.926-.377-.306-.751-.798.144.178.984Zm1.577 4.98-.972.236.972-.236Zm-.664 15.106.92.392.005-.01.004-.01-.929-.372Zm-3.818 5.312.625.781.006-.005.007-.005-.638-.771Zm-5.976 2.822.21.978.01-.002.012-.003-.232-.973Zm-43.418.588-1.992-12.367-1.974.319 1.992 12.367 1.974-.319Zm-2.979-11.208h12.865v-2H7.477v2Zm13.865-1v-14.857h-2v14.857h2Zm-1-13.857h10.292v-2H20.342v2Zm9.292-1v14.857h2v-14.857h-2Zm1 15.857h15.355v-2H30.634v2Zm15.355 0c2.7 0 4.967-.457 6.721-1.459l-.992-1.737c-1.345.769-3.228 1.196-5.729 1.196v2Zm6.744-1.473c1.985-1.205 2.805-3.496 2.805-6.416h-2c0 2.614-.729 4.03-1.843 4.707l1.038 1.709Zm2.805-6.416a26.64 26.64 0 0 0-.345-4.225l-1.974.316c.213 1.334.319 2.637.319 3.909h2Zm-.35-4.255c-.286-1.486-.66-2.844-1.127-4.069l-1.868.712c.418 1.1.763 2.343 1.031 3.734l1.964-.377Zm-1.883-2.729 9.628-1.743-.356-1.968-9.628 1.743.356 1.968Zm8.524-2.349c.587 1.441 1.098 3.053 1.531 4.838l1.944-.471c-.453-1.867-.993-3.575-1.623-5.122l-1.852.755Zm1.531 4.838c.418 1.725.636 3.881.636 6.487h2c0-2.705-.225-5.031-.692-6.958l-1.944.471Zm.636 6.487c0 3.297-.434 5.955-1.257 8.012l1.858.743c.947-2.37 1.399-5.301 1.399-8.755h-2Zm-1.248 7.992c-.888 2.089-2.072 3.722-3.536 4.933l1.276 1.541c1.745-1.445 3.107-3.354 4.1-5.691l-1.84-.783Zm-3.523 4.923c-1.53 1.225-3.384 2.106-5.583 2.63l.464 1.945c2.45-.583 4.58-1.583 6.369-3.014l-1.25-1.561Zm-5.56 2.625c-2.244.48-4.746.724-7.51.724v2c2.88 0 5.524-.254 7.928-.769l-.419-1.955Zm-7.51.724H9.469v2h36.686v-2Zm-13.778-34.341-.383.923.008.004.375-.927Zm-7.304-4.731-.707.707.707-.707Zm-4.399-6.64-.931.364.003.007.928-.371Zm4.233-22.493.686.728.005-.005-.691-.723Zm19.09-5.312.066-.998h-.004l-.062.998Zm2.241.166h1v-.92l-.917-.077-.083.997Zm0 28.054h-1v1.114l1.108-.12-.108-.994Zm6.059-3.569.815.579-.815-.579Zm1.66-15.106.984-.177-.002-.01-.001-.009-.981.196Zm-1.577-5.395-.163-.987-1.271.21.519 1.179.915-.402Zm10.043-1.66.894-.448-.33-.659-.727.12.163.987Zm.996 2.656-.958.287.958-.287Zm.83 3.735-.987.158.003.023.005.023.979-.204Zm.664 4.316.994-.107-.994.107Zm-1.494 14.94.927.374.003-.006-.93-.368Zm-4.731 7.221.677.736.01-.01.01-.009-.697-.717Zm-7.221 4.233.305.952.008-.003.009-.003-.322-.946Zm-13.695-27.722h1v-1.054l-1.053.055.053.999Zm-3.071.581.268.963.024-.007.024-.008-.316-.948Zm-2.656 1.411.618.786.017-.013.016-.014-.651-.759Zm-1.909 2.407.884.468.005-.011.005-.01-.894-.447Zm0 7.138.914-.406-.01-.021-.01-.021-.894.448Zm4.565 4.067-.346.938.015.005.015.005.316-.948Zm3.071.747-.156.987 1.156.183v-1.17h-1Zm4.731 11.699c-3.776 0-7.019-.567-9.752-1.671l-.748 1.855c3.021 1.22 6.53 1.816 10.5 1.816v-2Zm-9.743-1.667c-2.83-1.175-5.15-2.684-6.98-4.514l-1.414 1.414c2.043 2.043 4.593 3.688 7.628 4.947l.766-1.847Zm-6.98-4.514a18.607 18.607 0 0 1-4.178-6.305l-1.857.743a20.624 20.624 0 0 0 4.62 6.976l1.415-1.414Zm-4.175-6.298c-.952-2.432-1.425-4.91-1.425-7.437h-2c0 2.784.523 5.508 1.563 8.166l1.862-.729Zm-1.425-7.437c0-5.976 1.832-10.59 5.413-13.963l-1.372-1.456c-4.055 3.82-6.041 9-6.041 15.419h2Zm5.418-13.968c3.511-3.357 8.783-5.118 15.992-5.118v-2c-7.51 0-13.36 1.835-17.374 5.672l1.382 1.446Zm15.992-5.118c.694 0 1.475.026 2.345.081l.124-1.996a39.391 39.391 0 0 0-2.469-.085v2Zm2.34.08c.826.056 1.568.11 2.225.165l.166-1.993c-.67-.056-1.423-.111-2.258-.167l-.133 1.995Zm1.308-.831v28.054h2v-28.054h-2Zm1.108 29.048c2.832-.308 5.108-1.65 6.766-3.984l-1.63-1.159c-1.33 1.872-3.093 2.909-5.352 3.155l.216 1.988Zm6.766-3.984c1.652-2.325 2.426-5.372 2.426-9.045h-2c0 3.409-.72 6.006-2.056 7.886l1.63 1.159Zm2.426-9.045a38.52 38.52 0 0 0-.597-6.817l-1.968.353c.376 2.098.565 4.252.565 6.464h2Zm-.6-6.836c-.451-2.254-.994-4.129-1.643-5.602l-1.83.805c.569 1.294 1.077 3.015 1.511 5.189l1.962-.392Zm-2.395-4.213 10.043-1.66-.326-1.973-10.043 1.66.326 1.973Zm8.986-2.199c.296.592.609 1.418.932 2.496l1.916-.575c-.34-1.135-.692-2.08-1.06-2.816l-1.788.895Zm.932 2.496c.317 1.056.585 2.257.8 3.606l1.975-.316a29.972 29.972 0 0 0-.86-3.865l-1.915.575Zm.809 3.652c.27 1.291.486 2.697.649 4.218l1.988-.213a45.383 45.383 0 0 0-.679-4.413l-1.958.408Zm.649 4.218a42.66 42.66 0 0 1 .243 4.542h2c0-1.585-.085-3.17-.255-4.755l-1.988.213Zm.243 4.542c0 3.832-.567 7.133-1.673 9.923l1.86.737c1.218-3.075 1.813-6.635 1.813-10.66h-2Zm-1.67 9.917c-1.116 2.764-2.62 5.05-4.501 6.879l1.394 1.434c2.103-2.045 3.753-4.573 4.961-7.564l-1.854-.749Zm-4.48 6.859c-1.94 1.783-4.225 3.125-6.867 4.023l.644 1.893c2.891-.983 5.42-2.463 7.576-4.443l-1.354-1.473Zm-6.85 4.017c-2.658.851-5.542 1.281-8.659 1.281v2c3.302 0 6.394-.456 9.269-1.376l-.61-1.905ZM37.72 211.563c-1.14.06-2.253.27-3.334.631l.632 1.897a10.63 10.63 0 0 1 2.808-.531l-.106-1.997Zm-3.286.616a7.861 7.861 0 0 0-3.039 1.615l1.302 1.519a5.851 5.851 0 0 1 2.273-1.207l-.536-1.927Zm-3.006 1.588c-.905.711-1.63 1.636-2.185 2.746l1.788.895c.441-.881.989-1.562 1.633-2.068l-1.236-1.573Zm-2.175 2.726c-.596 1.126-.863 2.49-.863 4.037h2c0-1.331.231-2.347.63-3.101l-1.767-.936Zm-.863 4.037c0 1.501.27 2.851.853 4.016l1.788-.895c-.413-.827-.641-1.856-.641-3.121h-2Zm.833 3.975c.499 1.122 1.194 2.076 2.09 2.843l1.3-1.519c-.653-.56-1.176-1.267-1.562-2.136l-1.828.812Zm2.09 2.843c.873.749 1.891 1.332 3.043 1.756l.692-1.877c-.951-.35-1.758-.818-2.434-1.398l-1.302 1.519Zm3.073 1.766a20.04 20.04 0 0 0 3.231.786l.312-1.975a18.217 18.217 0 0 1-2.91-.708l-.633 1.897Zm4.387-.201v-16.351h-2v16.351h2Zm-5.482-37.266-.35.937.011.004.339-.941Zm-7.304-4.482.687-.727-.01-.009-.677.736Zm-4.98-7.055.915-.403-.915.403Zm-1.162-15.853.975.223.003-.014.003-.013-.981-.196Zm1.743-5.644.252-.968-.835-.217-.338.794.921.391Zm9.877 2.573.934.356.398-1.043-1.08-.281-.252.968Zm-1.162 3.818.972.233-.972-.233Zm2.905 12.865-.627.779.006.005.006.004.615-.788Zm18.094.166.61.793.006-.005.006-.005-.622-.783Zm2.822-13.695.987-.159-.987.159Zm-1.328-4.731-.17-.986-1.242.214.491 1.162.921-.39Zm10.126-1.743.921-.39-.309-.73-.782.134.17.986Zm1.577 5.395-.98.201.98-.201Zm-1.079 17.43.921.39.003-.008.003-.008-.927-.374Zm-4.897 7.138.666.746.005-.005.006-.005-.677-.736Zm-7.221 4.067.282.959.011-.003.012-.004-.305-.952Zm-9.13.245c-3.047 0-5.892-.481-8.542-1.435l-.678 1.882c2.883 1.038 5.959 1.553 9.22 1.553v-2Zm-8.532-1.431c-2.705-1.008-5.022-2.433-6.966-4.271l-1.374 1.452c2.151 2.035 4.703 3.598 7.642 4.693l.698-1.874Zm-6.976-4.281c-1.995-1.838-3.577-4.074-4.742-6.722l-1.83.806c1.27 2.885 3.008 5.352 5.217 7.388l1.355-1.472Zm-4.742-6.722c-1.152-2.62-1.741-5.633-1.741-9.059h-2c0 3.656.629 6.951 1.91 9.865l1.831-.806Zm-1.741-9.059c0-2.261.215-4.316.639-6.168l-1.95-.446c-.462 2.021-.689 4.227-.689 6.614h2Zm.645-6.195c.373-1.87.934-3.686 1.683-5.449l-1.842-.782a29.972 29.972 0 0 0-1.803 5.839l1.962.392Zm.51-4.872 9.877 2.573.504-1.936-9.877-2.573-.504 1.936Zm9.194 1.249a32.115 32.115 0 0 0-1.2 3.941l1.945.466a30.211 30.211 0 0 1 1.124-3.695l-1.869-.712Zm-1.2 3.941c-.353 1.473-.525 3.103-.525 4.881h2c0-1.652.16-3.121.47-4.415l-1.944-.466Zm-.525 4.881c0 3.871 1.213 6.933 3.776 8.996l1.254-1.558c-1.974-1.589-3.03-4.005-3.03-7.438h-2Zm3.788 9.005c2.49 1.943 5.714 2.868 9.579 2.868v-2c-3.55 0-6.3-.846-8.349-2.444l-1.23 1.576Zm9.579 2.868c4.055 0 7.344-.855 9.74-2.697l-1.22-1.586c-1.92 1.478-4.717 2.283-8.52 2.283v2Zm9.752-2.707c2.5-1.988 3.615-5.317 3.615-9.664h-2c0 4.064-1.044 6.655-2.86 8.098l1.245 1.566Zm3.615-9.664c0-1.555-.144-3.214-.428-4.973l-1.974.318c.27 1.671.402 3.222.402 4.655h2Zm-.428-4.973c-.288-1.786-.75-3.441-1.394-4.962l-1.842.78c.574 1.357.996 2.855 1.262 4.5l1.974-.318Zm-2.145-3.587 10.126-1.743-.34-1.971-10.126 1.743.34 1.971ZM62 158.256c.575 1.358 1.084 3.089 1.518 5.206l1.96-.402c-.451-2.199-.994-4.065-1.636-5.584l-1.842.78Zm1.518 5.206c.427 2.081.644 4.392.644 6.937h2c0-2.656-.226-5.104-.684-7.339l-1.96.402Zm.644 6.937c0 3.89-.568 7.188-1.67 9.917l1.854.749c1.222-3.024 1.816-6.589 1.816-10.666h-2Zm-1.664 9.902c-1.168 2.762-2.723 5.018-4.653 6.792l1.354 1.472c2.165-1.989 3.875-4.492 5.141-7.484l-1.842-.78Zm-4.642 6.782c-1.936 1.727-4.218 3.015-6.86 3.861l.61 1.904c2.892-.925 5.424-2.348 7.582-4.273l-1.332-1.492Zm-6.837 3.854c-2.721.8-5.669 1.204-8.848 1.204v2c3.35 0 6.49-.426 9.412-1.286l-.564-1.918Zm-41.55-40.956-.987.159.135.841h.852v-1Zm-1.992-12.367v-1H6.303l.187 1.159.987-.159Zm12.865 0v1h1v-1h-1Zm0-14.857v-1h-1v1h1Zm10.292 0h1v-1h-1v1Zm0 14.857h-1v1h1v-1Zm21.58-1.328.496.868.012-.006.011-.007-.519-.855Zm1.992-9.628.987-.158-.002-.016-.003-.015-.982.189Zm-1.079-3.901-.178-.984-1.185.214.428 1.126.935-.356Zm9.628-1.743.926-.377-.306-.752-.798.145.178.984Zm1.577 4.98-.972.236.972-.236Zm-.664 15.106.92.391.005-.01.004-.01-.929-.371Zm-3.818 5.312.625.781.006-.005.007-.006-.638-.77Zm-5.976 2.822.21.978.01-.003.012-.002-.232-.973Zm-43.418.588-1.992-12.367-1.974.318 1.992 12.367 1.974-.318Zm-2.979-11.208h12.865v-2H7.477v2Zm13.865-1v-14.857h-2v14.857h2Zm-1-13.857h10.292v-2H20.342v2Zm9.292-1v14.857h2v-14.857h-2Zm1 15.857h15.355v-2H30.634v2Zm15.355 0c2.7 0 4.967-.457 6.721-1.46l-.992-1.736c-1.345.768-3.228 1.196-5.729 1.196v2Zm6.744-1.473c1.985-1.205 2.805-3.497 2.805-6.416h-2c0 2.614-.729 4.03-1.843 4.706l1.038 1.71Zm2.805-6.416a26.63 26.63 0 0 0-.345-4.225l-1.974.316c.213 1.334.319 2.637.319 3.909h2Zm-.35-4.256c-.286-1.486-.66-2.843-1.127-4.068l-1.868.712c.418 1.099.763 2.342 1.031 3.734l1.964-.378Zm-1.883-2.728 9.628-1.743-.356-1.968-9.628 1.743.356 1.968Zm8.524-2.35c.587 1.441 1.098 3.053 1.531 4.839l1.944-.472c-.453-1.866-.993-3.575-1.623-5.121l-1.852.754Zm1.531 4.839c.418 1.724.636 3.881.636 6.487h2c0-2.706-.225-5.031-.692-6.959l-1.944.472Zm.636 6.487c0 3.297-.434 5.955-1.257 8.012l1.858.742c.947-2.369 1.399-5.3 1.399-8.754h-2Zm-1.248 7.992c-.888 2.089-2.072 3.721-3.536 4.933l1.276 1.54c1.745-1.444 3.107-3.353 4.1-5.691l-1.84-.782Zm-3.523 4.922c-1.53 1.225-3.384 2.107-5.583 2.63l.464 1.946c2.45-.583 4.58-1.583 6.369-3.014l-1.25-1.562Zm-5.56 2.625c-2.244.481-4.746.725-7.51.725v2c2.88 0 5.524-.254 7.928-.769l-.419-1.956Zm-7.51.725H9.469v2h36.686v-2ZM64 100.319h1v-1h-1v1Zm0 12.367v1h1v-1h-1Zm-43.658 0h-1v1h1v-1Zm0-12.367v-1h-1v1h1Zm-7.221 1.079.749-.662-.002-.002-.747.664Zm0 10.375.735.678.013-.014.013-.015-.761-.649Zm-10.707 0 .749-.662-.002-.002-.747.664Zm0-10.375.735.678.013-.014.013-.015-.761-.649ZM63 100.319v12.367h2v-12.367h-2Zm1 11.367H20.342v2H64v-2Zm-42.658 1v-12.367h-2v12.367h2Zm-1-11.367H64v-2H20.342v2Zm-12.616-1.162c2.026 0 3.536.655 4.648 1.905l1.494-1.328c-1.544-1.738-3.63-2.577-6.142-2.577v2Zm4.646 1.904c1.104 1.248 1.658 2.725 1.658 4.483h2c0-2.226-.72-4.18-2.16-5.808l-1.498 1.325Zm1.658 4.483c0 1.758-.554 3.271-1.67 4.581l1.522 1.297c1.43-1.678 2.148-3.652 2.148-5.878h-2Zm-1.644 4.551c-1.108 1.2-2.622 1.836-4.66 1.836v2c2.5 0 4.582-.803 6.13-2.48l-1.47-1.356Zm-4.66 1.836c-2.04 0-3.515-.636-4.563-1.82l-1.498 1.325c1.497 1.692 3.563 2.495 6.061 2.495v-2Zm-4.565-1.822c-1.165-1.312-1.739-2.819-1.739-4.565h-2c0 2.238.755 4.217 2.245 5.893l1.494-1.328Zm-1.739-4.565c0-1.745.573-3.217 1.727-4.468l-1.47-1.356c-1.502 1.627-2.257 3.586-2.257 5.824h2Zm1.753-4.497c1.052-1.235 2.525-1.89 4.551-1.89v-2c-2.51 0-4.58.84-6.073 2.593l1.522 1.297ZM51.55 49.352l.333-.943-.006-.002-.327.945Zm7.304 4.316.687-.727-.01-.01-.677.737Zm4.648 6.806-.923.385.003.006.92-.391Zm0 17.596.92.392.003-.008-.923-.384Zm-4.648 6.723.677.736.01-.01-.687-.726Zm-7.304 4.399.343.94.006-.003-.349-.937Zm-18.841 0-.365.93.008.004.008.003.349-.937Zm-7.221-4.482-.697.717.005.005.005.005.687-.727Zm-4.648-6.806-.923.385.003.007.92-.392Zm0-17.264.92.392.003-.007-.923-.385Zm4.648-6.806.687.727-.687-.727Zm7.221-4.4.35.938-.35-.937Zm.415 13.364.56.829.012-.008.011-.009-.583-.812Zm0 13.03.583-.812-.01-.006-.573.819Zm18.094 0 .564.827.01-.007-.574-.82Zm0-13.03-.564.826.004.003.56-.83Zm-9.13-13.94c3.333 0 6.375.484 9.135 1.439l.654-1.89c-2.995-1.037-6.26-1.55-9.789-1.55v2Zm9.13 1.437c2.704.954 5.019 2.326 6.96 4.11l1.353-1.473c-2.155-1.98-4.709-3.486-7.648-4.523l-.666 1.886Zm6.95 4.1c1.884 1.78 3.355 3.93 4.41 6.463l1.847-.769c-1.158-2.779-2.785-5.166-4.884-7.148l-1.374 1.454Zm4.414 6.47c1.046 2.46 1.58 5.256 1.58 8.407h2c0-3.379-.573-6.448-1.74-9.19l-1.84.783Zm1.58 8.407c0 3.092-.533 5.892-1.583 8.413l1.846.77c1.163-2.792 1.737-5.857 1.737-9.183h-2Zm-1.58 8.406c-1.055 2.478-2.526 4.604-4.415 6.388l1.374 1.454c2.095-1.979 3.722-4.335 4.881-7.058l-1.84-.784Zm-4.405 6.379c-1.944 1.786-4.265 3.188-6.976 4.198l.698 1.874c2.933-1.093 5.481-2.624 7.632-4.6l-1.354-1.472Zm-6.97 4.196c-2.755 1.006-5.791 1.516-9.119 1.516v2c3.534 0 6.806-.542 9.805-1.638l-.686-1.878Zm-9.119 1.516c-3.328 0-6.334-.51-9.03-1.514l-.698 1.874c2.948 1.098 6.195 1.64 9.728 1.64v-2Zm-9.014-1.508c-2.715-1.065-5.01-2.494-6.9-4.278l-1.373 1.454c2.095 1.978 4.614 3.537 7.543 4.686l.73-1.862Zm-6.889-4.268a19.69 19.69 0 0 1-4.425-6.48l-1.84.782a21.687 21.687 0 0 0 4.87 7.132l1.395-1.434Zm-4.422-6.474c-1.052-2.525-1.583-5.27-1.583-8.247h-2c0 3.22.576 6.23 1.737 9.016l1.846-.769Zm-1.583-8.247c0-3.035.532-5.777 1.58-8.24l-1.84-.784c-1.165 2.739-1.74 5.751-1.74 9.024h2Zm1.583-8.248c1.056-2.533 2.527-4.683 4.412-6.463L24.8 53.107c-2.099 1.982-3.726 4.37-4.884 7.148l1.846.77Zm4.412-6.463c1.885-1.78 4.174-3.18 6.883-4.189l-.698-1.874c-2.935 1.093-5.46 2.627-7.559 4.609l1.374 1.454Zm6.883-4.189c2.696-1.004 5.702-1.514 9.03-1.514v-2c-3.533 0-6.78.542-9.728 1.64l.698 1.874Zm9.03 9.102c-3.94 0-7.16.797-9.547 2.512l1.166 1.624c1.928-1.384 4.684-2.136 8.381-2.136v-2Zm-9.523 2.495c-2.507 1.692-3.761 4.171-3.761 7.303h2c0-2.512.96-4.35 2.88-5.645l-1.12-1.658Zm-3.761 7.303c0 3.131 1.252 5.63 3.747 7.376l1.146-1.638c-1.932-1.353-2.893-3.225-2.893-5.738h-2Zm3.737 7.37c2.388 1.714 5.608 2.51 9.547 2.51v-2c-3.697 0-6.453-.751-8.38-2.135L32.54 76.64Zm9.547 2.51c3.943 0 7.206-.798 9.694-2.497l-1.128-1.652c-2.05 1.4-4.873 2.15-8.566 2.15v2Zm9.703-2.504c2.495-1.746 3.747-4.245 3.747-7.376h-2c0 2.513-.961 4.385-2.893 5.738l1.146 1.638Zm3.747-7.376c0-3.132-1.254-5.61-3.76-7.303l-1.12 1.658c1.92 1.296 2.88 3.133 2.88 5.645h2Zm-3.756-7.3c-2.488-1.7-5.75-2.498-9.694-2.498v2c3.693 0 6.517.75 8.566 2.15l1.128-1.652ZM21.836 38.278l-.96.278.208.722h.752v-1Zm-1.66-8.134.989-.148-.001-.008-.002-.008-.986.164Zm.664-19.671.926.378.005-.012.005-.013-.936-.353Zm4.067-5.893.63.776-.63-.776Zm6.308-3.071.242.97-.242-.97ZM64 .596h1v-1h-1v1Zm0 12.367v1h1v-1h-1ZM32.377 14.54l.535.845-.535-.845Zm-2.324 8.715.998-.056-.001-.027-.003-.027-.994.11Zm.249 2.656-.99.141.123.859h.867v-1Zm33.698 0h1v-1h-1v1Zm0 12.367v1h1v-1h-1ZM22.797 38c-.592-2.044-1.138-4.708-1.632-8.005l-1.978.297c.502 3.344 1.063 6.103 1.688 8.264L22.797 38Zm-1.635-8.02c-.543-3.262-.816-6.693-.816-10.294h-2c0 3.702.28 7.244.844 10.622l1.972-.328Zm-.816-10.294c0-3.627.488-6.558 1.42-8.835l-1.851-.757c-1.061 2.594-1.569 5.804-1.569 9.592h2Zm1.43-8.86c.888-2.352 2.15-4.16 3.762-5.47l-1.262-1.552c-1.929 1.567-3.379 3.688-4.372 6.316l1.872.706Zm3.762-5.47c1.646-1.337 3.613-2.3 5.92-2.877l-.485-1.94c-2.563.64-4.801 1.725-6.697 3.265l1.262 1.552Zm5.92-2.877c2.342-.585 4.97-.883 7.891-.883v-2c-3.055 0-5.85.31-8.376.943l.485 1.94Zm7.891-.883H64v-2H39.349v2ZM63 .596v12.367h2V.596h-2Zm1 11.367H40.843v2H64v-2Zm-23.157 0c-4.014 0-7.086.519-9.001 1.732l1.07 1.69c1.405-.89 3.977-1.422 7.931-1.422v-2Zm-9.001 1.732c-2.07 1.31-2.955 3.69-2.955 6.738h2c0-2.706.775-4.256 2.025-5.048l-1.07-1.69Zm-2.955 6.738c0 .927.058 1.904.172 2.932l1.988-.22a24.622 24.622 0 0 1-.16-2.712h-2Zm.168 2.877c.056 1.018.141 1.933.257 2.742l1.98-.282a30.197 30.197 0 0 1-.24-2.57l-1.997.11Zm1.247 3.6H64v-2H30.302v2Zm32.698-1v12.368h2V25.91h-2Zm1 11.368H21.836v2H64v-2Z" fill="#fff"/></svg>