<svg width="37" height="38" fill="none" xmlns="http://www.w3.org/2000/svg"><path d="M30.612 17.353h3.036c0-7.788-5.88-13.661-13.678-13.661v3.036c6.167 0 10.642 4.468 10.642 10.625Z" fill="#F2C938"/><path d="M19.985 12.8c3.193 0 4.555 1.363 4.555 4.555h3.036c0-4.896-2.695-7.59-7.59-7.59V12.8Zm5.195 8.264a1.52 1.52 0 0 0-2.111.065l-3.633 3.736c-.874-.167-2.632-.715-4.442-2.52-1.81-1.811-2.357-3.574-2.52-4.442l3.733-3.634a1.518 1.518 0 0 0 .065-2.112L10.663 5.99a1.518 1.518 0 0 0-2.112-.132L5.257 8.682a1.521 1.521 0 0 0-.44.986c-.023.38-.457 9.37 6.514 16.343 6.081 6.08 13.7 6.525 15.797 6.525.307 0 .495-.01.545-.012.371-.021.722-.178.984-.442l2.823-3.296a1.518 1.518 0 0 0-.13-2.112l-6.17-5.61Z" fill="#F2C938"/></svg>