<svg width="27" height="27" fill="none" xmlns="http://www.w3.org/2000/svg"><g fill="#fff"><path d="M22.074 12.395h2.207c0-5.661-4.275-9.932-9.944-9.932v2.208c4.483 0 7.737 3.248 7.737 7.724Z"/><path d="M14.348 9.086c2.32 0 3.31.99 3.31 3.31h2.208c0-3.558-1.959-5.518-5.518-5.518v2.208Zm3.777 6.007a1.104 1.104 0 0 0-1.535.048l-2.642 2.716c-.635-.122-1.913-.52-3.229-1.832-1.316-1.317-1.714-2.598-1.832-3.23l2.714-2.642a1.103 1.103 0 0 0 .047-1.535L7.57 4.134a1.104 1.104 0 0 0-1.535-.096L3.64 6.092c-.19.191-.305.446-.32.716-.017.276-.332 6.812 4.736 11.882 4.421 4.42 9.96 4.744 11.485 4.744.223 0 .36-.007.396-.01.27-.014.524-.129.715-.32l2.053-2.396a1.104 1.104 0 0 0-.095-1.536l-4.485-4.079Z"/></g></svg>