<svg width="108" height="808" fill="none" xmlns="http://www.w3.org/2000/svg"><path opacity=".1" d="m21.816 736.45-.28-.959-.72.21v.749h1Zm12.648-3.536.26.966.011-.003.011-.003-.282-.96Zm14.416-4.216.28.961.007-.003.008-.002-.295-.956Zm14.96-4.624.295.956-.295-.956Zm13.872-4.488.322.947 3.186-1.085-3.261-.831-.247.969Zm-15.096-3.536-.227.974.008.002.007.002.212-.978Zm-16.864-3.536-.184.983.184-.983Zm-17.272-3.128-.184.983.012.002.172-.985Zm-16.728-2.992h-1v.845l.833.141.167-.986Zm0-22.032.197-.98-1.197-.241v1.221h1Zm48.008 11.016-.249.969.005.001.244-.97ZM106 708.706h1v-.723l-.687-.227-.313.95Zm0 19.448.343.94.657-.24v-.7h-1Zm-27.336 9.248.297.955.003-.001-.3-.954Zm-28.832 8.84-.289-.957-3.171.957 3.171.958.289-.958Zm28.832 8.704.291-.956-.002-.001-.289.957ZM106 764.058h1v-.699l-.657-.24-.343.939Zm0 19.448.313.95.687-.226v-.724h-1ZM59.76 796.97l.244.97.005-.001-.249-.969Zm-48.008 10.88h-1v1.221l1.197-.24-.197-.981Zm0-22.984-.167-.986-.833.142v.844h1Zm16.728-2.992.184.983h.003l-.187-.983Zm17.272-3.4-.2-.98.2.98Zm16.864-3.536.212.978.008-.002.007-.002-.227-.974Zm15.096-3.808.265.965 3.01-.827-2.93-1.076-.345.938Zm-43.52-13.192-.265.965.01.002.008.002.247-.969Zm-12.376-3.4h-1v.762l.735.203.265-.965Zm.28-17.128a613.26 613.26 0 0 1 12.628-3.53l-.52-1.931a603.432 603.432 0 0 0-12.669 3.542l.562 1.919Zm12.65-3.536a4845.37 4845.37 0 0 1 14.413-4.215l-.558-1.921a5207.169 5207.169 0 0 0-14.42 4.217l.565 1.919Zm14.43-4.22 14.96-4.624-.591-1.911-14.96 4.624.59 1.911Zm14.96-4.624a519.15 519.15 0 0 0 13.898-4.497l-.644-1.893a516.33 516.33 0 0 1-13.845 4.479l.59 1.911Zm13.823-6.413a431.617 431.617 0 0 0-15.131-3.544l-.424 1.955a428.453 428.453 0 0 1 15.061 3.527l.494-1.938Zm-15.116-3.541a395.84 395.84 0 0 0-16.907-3.545l-.368 1.966a392.43 392.43 0 0 1 16.82 3.527l.455-1.948Zm-16.907-3.545a1419.883 1419.883 0 0 0-17.284-3.13l-.344 1.97c5.708.997 11.461 2.039 17.26 3.126l.368-1.966Zm-17.272-3.128a978.458 978.458 0 0 0-16.745-2.995l-.334 1.972a977.976 977.976 0 0 1 16.71 2.989l.37-1.966Zm-15.912-2.009v-22.032h-2v22.032h2Zm-1.197-21.051c15.758 3.169 31.743 6.837 47.956 11.004l.498-1.937a929.832 929.832 0 0 0-48.06-11.028l-.394 1.961Zm47.961 11.005c16.208 4.075 31.599 8.511 46.171 13.308l.626-1.9c-14.622-4.813-30.059-9.262-46.31-13.348l-.487 1.94ZM105 708.706v19.448h2v-19.448h-2Zm.657 18.509a639.314 639.314 0 0 1-27.293 9.233l.6 1.908a641.35 641.35 0 0 0 27.379-9.262l-.686-1.879Zm-27.29 9.233a3522.182 3522.182 0 0 1-28.824 8.837l.578 1.915c9.613-2.903 19.227-5.85 28.84-8.843l-.594-1.909ZM49.543 747.2l.056.017.057.017.056.017.056.017.057.017.056.017.056.017.056.017.057.017.056.017.056.017.057.017.056.017.056.017.057.017.056.017.056.017.057.017.056.017.056.017.057.017.056.017.056.017.056.017.057.017.056.017.056.017.057.017.056.017.056.017.057.017.056.017.056.017.057.017.056.017.056.017.057.017.056.017.056.017.056.017.057.017.056.017.056.017.057.017.056.017.056.017.057.017.056.017.056.017.057.017.056.017.056.017.057.017.056.017.056.017.056.017.057.017.056.017.056.017.057.017.056.017.056.017.057.017.056.017.056.017.057.017.056.017.056.017.057.017.056.017.056.017.056.017.057.017.056.017.056.017.057.017.056.017.056.017.057.017.056.017.056.017.057.017.056.017.056.017.057.017.056.017.056.017.056.017.057.017.056.017.056.017.057.017.056.017.056.017.057.017.056.017.056.017.057.017.056.017.056.017.057.017.056.017.056.017.056.017.057.017.056.017.056.017.057.017.056.017.056.017.057.017.056.017.056.017.057.017.056.017.056.017.057.017.056.017.056.017.056.017.057.017.056.017.056.017.057.017.056.017.056.017.057.017.056.017.056.017.057.017.056.017.056.017.057.017.056.017.056.017.056.017.057.017.056.017.056.017.057.017.056.017.056.017.057.017.056.017.056.017.057.017.056.017.056.017.057.017.056.017.056.017.056.017.057.017.056.017.056.017.057.017.056.017.056.017.057.017.056.017.056.017.057.017.056.017.056.017.057.017.056.017.056.017.056.017.057.017.056.017.056.017.057.017.056.017.056.017.057.017.056.017.056.017.057.017.056.017.056.017.057.017.056.017.056.017.056.017.057.017.056.017.056.017.057.017.056.017.056.017.057.017.056.017.056.017.057.017.056.017.056.017.057.017.056.017.056.017.056.017.057.017.056.017.056.017.057.017.056.017.056.017.057.017.056.017.056.017.057.017.056.017.056.017.057.017.056.017.056.017.056.017.057.017.056.017.056.017.057.017.056.017.056.017.057.017.056.017.056.017.057.017.056.017.056.017.057.017.056.017.056.017.056.017.057.017.056.017.056.017.057.017.056.017.056.017.057.017.056.017.056.017.057.017.056.017.056.017.057.017.056.017.056.017.056.017.057.017.056.017.056.017.057.017.056.017.056.017.057.017.056.017.056.017.057.017.056.017.056.017.057.017.056.017.056.017.056.017.057.017.056.017.056.017.057.017.056.017.056.017.057.017.056.017.056.017.057.017.056.017.056.017.057.017.056.017.056.017.056.017.057.017.056.017.056.017.057.017.056.017.056.017.057.017.056.017.056.017.057.017.056.017.056.017.057.017.056.017.056.017.056.017.057.017.056.017.056.017.057.017.056.017.056.017.057.017.056.017.056.017.057.017.056.017.056.017.057.017.056.017.056.017.056.017.057.017.056.017.056.017.057.017.056.017.056.017.057.017.056.017.056.017.057.017.056.017.056.017.057.017.056.017.056.017.056.017.057.017.056.017.056.017.057.017.056.017.056.017.057.017.056.017.056.017.057.017.056.017.056.017.057.017.056.017.056.017.056.017.057.017.056.017.056.017.057.017.056.017.056.017.057.017.056.017.056.017.057.017.056.017.056.017.057.017.056.017.056.017.056.017.057.017.056.017.056.017.057.017.056.017.056.017.057.017.056.017.056.017.057.017.056.017.056.017.057.017.056.017.056.017.056.017.057.017.056.017.056.017.057.017.056.017.056.017.057.017.056.017.056.017.057.017.056.017.056.017.057.017.056.017.056.017.056.017.057.017.056.017.056.017.057.017.056.017.056.017.057.017.056.017.056.017.057.017.056.017.056.017.057.017.056.017.056.017.056.017.057.017.056.017.056.017.057.017.056.017.056.017.057.017.056.017.056.017.057.017.056.017.056.017.057.017.056.017.056.017.056.017.057.017.056.017.056.017.057.017.056.017.056.017.057.017.056.017.056.017.057.017.056.017.056.017.057.017.056.017.056.017.056.017.057.017.056.017.056.017.057.017.056.017.056.017.057.017.056.017.056.017.057.017.056.017.056.017.057.017.056.017.056.017.056.017.057.017.056.017.056.017.057.017.056.017.056.017.057.017.056.017.056.017.057.017.056.017.056.017.057.017.056.017.056.017.056.017.057.017.056.017.056.017.057.017.056.017.056.017.057.017.056.017.056.017.057.017.056.017.056.017.057.017.056.017.056.017.056.017.057.017.056.017.056.017.057.017.056.017.056.017.057.017.056.017.056.017.057.017.056.017.056.017.057.017.056.017.056.017.056.017.057.017.056.017.056.017.057.017.056.017.056.017.057.017.056.017.578-1.915-.056-.017-.057-.017-.056-.017-.056-.017-.057-.017-.056-.017-.056-.017-.056-.017-.057-.017-.056-.017-.056-.017-.057-.017-.056-.017-.056-.017-.057-.017-.056-.017-.056-.017-.057-.017-.056-.017-.056-.017-.057-.017-.056-.017-.056-.017-.056-.017-.057-.017-.056-.017-.056-.017-.057-.017-.056-.017-.056-.017-.057-.017-.056-.017-.056-.017-.057-.017-.056-.017-.056-.017-.057-.017-.056-.017-.056-.017-.056-.017-.057-.017-.056-.017-.056-.017-.057-.017-.056-.017-.056-.017-.057-.017-.056-.017-.056-.017-.057-.017-.056-.017-.056-.017-.057-.017-.056-.017-.056-.017-.056-.017-.057-.017-.056-.017-.056-.017-.057-.017-.056-.017-.056-.017-.057-.017-.056-.017-.056-.017-.057-.017-.056-.017-.056-.017-.057-.017-.056-.017-.056-.017-.056-.017-.057-.017-.056-.017-.056-.017-.057-.017-.056-.017-.056-.017-.057-.017-.056-.017-.056-.017-.057-.017-.056-.017-.056-.017-.057-.017-.056-.017-.056-.017-.056-.017-.057-.017-.056-.017-.056-.017-.057-.017-.056-.017-.056-.017-.057-.017-.056-.017-.056-.017-.057-.017-.056-.017-.056-.017-.057-.017-.056-.017-.056-.017-.056-.017-.057-.017-.056-.017-.056-.017-.057-.017-.056-.017-.056-.017-.057-.017-.056-.017-.056-.017-.057-.017-.056-.017-.056-.017-.057-.017-.056-.017-.056-.017-.056-.017-.057-.017-.056-.017-.056-.017-.057-.017-.056-.017-.056-.017-.057-.017-.056-.017-.056-.017-.057-.017-.056-.017-.056-.017-.057-.017-.056-.017-.056-.017-.056-.017-.057-.017-.056-.017-.056-.017-.057-.017-.056-.017-.056-.017-.057-.017-.056-.017-.056-.017-.057-.017-.056-.017-.056-.017-.057-.017-.056-.017-.056-.017-.056-.017-.057-.017-.056-.017-.056-.017-.057-.017-.056-.017-.056-.017-.057-.017-.056-.017-.056-.017-.057-.017-.056-.017-.056-.017-.057-.017-.056-.017-.056-.017-.056-.017-.057-.017-.056-.017-.056-.017-.057-.017-.056-.017-.056-.017-.057-.017-.056-.017-.056-.017-.057-.017-.056-.017-.056-.017-.057-.017-.056-.017-.056-.017-.056-.017-.057-.017-.056-.017-.056-.017-.057-.017-.056-.017-.056-.017-.057-.017-.056-.017-.056-.017-.057-.017-.056-.017-.056-.017-.057-.017-.056-.017-.056-.017-.056-.017-.057-.017-.056-.017-.056-.017-.057-.017-.056-.017-.056-.017-.057-.017-.056-.017-.056-.017-.057-.017-.056-.017-.056-.017-.057-.017-.056-.017-.056-.017-.056-.017-.057-.017-.056-.017-.056-.017-.057-.017-.056-.017-.056-.017-.057-.017-.056-.017-.056-.017-.057-.017-.056-.017-.056-.017-.057-.017-.056-.017-.056-.017-.056-.017-.057-.017-.056-.017-.056-.017-.057-.017-.056-.017-.056-.017-.057-.017-.056-.017-.056-.017-.057-.017-.056-.017-.056-.017-.057-.017-.056-.017-.056-.017-.056-.017-.057-.017-.056-.017-.056-.017-.057-.017-.056-.017-.056-.017-.057-.017-.056-.017-.056-.017-.057-.017-.056-.017-.056-.017-.057-.017-.056-.017-.056-.017-.056-.017-.057-.017-.056-.017-.056-.017-.057-.017-.056-.017-.056-.017-.057-.017-.056-.017-.056-.017-.057-.017-.056-.017-.056-.017-.057-.017-.056-.017-.056-.017-.056-.017-.057-.017-.056-.017-.056-.017-.057-.017-.056-.017-.056-.017-.057-.017-.056-.017-.056-.017-.057-.017-.056-.017-.056-.017-.057-.017-.056-.017-.056-.017-.056-.017-.057-.017-.056-.017-.056-.017-.057-.017-.056-.017-.056-.017-.057-.017-.056-.017-.056-.017-.057-.017-.056-.017-.056-.017-.057-.017-.056-.017-.056-.017-.056-.017-.057-.017-.056-.017-.056-.017-.057-.017-.056-.017-.056-.017-.057-.017-.056-.017-.056-.017-.057-.017-.056-.017-.056-.017-.057-.017-.056-.017-.056-.017-.056-.017-.057-.017-.056-.017-.056-.017-.057-.017-.056-.017-.056-.017-.057-.017-.056-.017-.056-.017-.057-.017-.056-.017-.056-.017-.057-.017-.056-.017-.056-.017-.056-.017-.057-.017-.056-.017-.056-.017-.057-.017-.056-.017-.056-.017-.057-.017-.056-.017-.056-.017-.057-.017-.056-.017-.056-.017-.057-.017-.056-.017-.056-.017-.056-.017-.057-.017-.056-.017-.056-.017-.057-.017-.056-.017-.056-.017-.057-.017-.056-.017-.056-.017-.057-.017-.056-.017-.056-.017-.057-.017-.056-.017-.056-.017-.056-.017-.057-.017-.056-.017-.056-.017-.057-.017-.056-.017-.056-.017-.057-.017-.056-.017-.056-.017-.057-.017-.056-.017-.056-.017-.057-.017-.056-.017-.056-.017-.056-.017-.057-.017-.056-.017-.056-.017-.057-.017-.056-.017-.056-.017-.057-.017-.056-.017-.056-.017-.057-.017-.056-.017-.056-.017-.057-.017-.056-.017-.056-.017-.056-.017-.057-.017-.056-.017-.056-.017-.057-.017-.056-.017-.056-.017-.057-.017-.056-.017-.056-.017-.057-.017-.056-.017-.056-.017-.057-.017-.056-.017-.056-.017-.056-.017-.057-.017-.056-.017-.056-.017-.057-.017-.056-.017-.056-.017-.057-.017-.056-.017-.056-.017-.057-.017-.056-.017-.056-.017-.057-.017-.056-.017-.056-.017-.056-.017-.057-.017-.056-.017-.056-.017-.057-.017-.056-.017-.056-.017-.057-.017-.056-.017-.056-.017-.057-.017-.056-.017-.056-.017-.057-.017-.056-.017-.056-.017-.056-.017-.057-.017-.056-.017-.056-.017-.057-.017-.056-.017-.056-.017-.057-.017-.056-.017-.056-.017-.057-.017-.056-.017-.056-.017-.057-.017-.056-.017-.056-.017-.056-.017-.057-.017-.056-.017-.056-.017-.057-.017-.056-.017-.056-.017-.057-.017-.056-.017-.056-.017-.057-.017-.056-.017-.056-.017-.057-.017-.056-.017-.056-.017-.057-.017-.056-.017-.056-.017-.056-.017-.057-.017-.056-.017-.056-.017-.057-.017-.056-.017-.056-.017-.057-.017-.056-.017-.056-.017-.057-.017-.056-.017-.056-.017-.056-.017-.057-.017-.056-.017-.056-.017-.057-.017-.056-.017-.056-.017-.057-.017-.056-.017-.578 1.915Zm28.83 8.703c9.504 2.896 18.599 5.928 27.284 9.095l.686-1.879c-8.722-3.18-17.852-6.223-27.388-9.129l-.582 1.913ZM105 764.058v19.448h2v-19.448h-2Zm.687 18.498c-14.574 4.798-29.966 9.28-46.176 13.446l.498 1.937c16.249-4.176 31.683-8.67 46.304-13.483l-.626-1.9ZM59.517 796a1028.22 1028.22 0 0 1-47.962 10.87l.394 1.961a1031.433 1031.433 0 0 0 48.055-10.891l-.488-1.94Zm-46.765 11.85v-22.984h-2v22.984h2Zm-.833-21.998a968.78 968.78 0 0 0 16.745-2.995l-.368-1.966a968.268 968.268 0 0 1-16.711 2.989l.334 1.972Zm16.748-2.995a1440.574 1440.574 0 0 0 17.284-3.403l-.398-1.96a1437.695 1437.695 0 0 1-17.26 3.398l.374 1.965Zm17.284-3.403a1333.75 1333.75 0 0 0 16.877-3.538l-.424-1.955a1325.603 1325.603 0 0 1-16.851 3.533l.398 1.96Zm16.892-3.542a406.15 406.15 0 0 0 15.134-3.817l-.53-1.929a402.484 402.484 0 0 1-15.058 3.798l.454 1.948Zm15.214-5.72a286.595 286.595 0 0 0-14.194-4.777l-.59 1.911a284.738 284.738 0 0 1 14.094 4.743l.69-1.877Zm-14.194-4.777a934.317 934.317 0 0 0-14.976-4.493l-.558 1.921a931.228 931.228 0 0 1 14.944 4.483l.59-1.911Zm-14.976-4.493a449.837 449.837 0 0 0-14.448-3.953l-.494 1.938a446.052 446.052 0 0 1 14.384 3.936l.558-1.921Zm-14.43-3.948c-4.624-1.269-8.75-2.403-12.376-3.4l-.53 1.929 12.376 3.4.53-1.929Zm-11.641-2.436V736.45h-2v18.088h2ZM106 651.825h1v-1h-1v1Zm0 20.264v1h1v-1h-1Zm-71.536 0h-1v1h1v-1Zm0-20.264v-1h-1v1h1Zm-11.832 1.768.749-.662-.002-.002-.747.664Zm0 17 .735.679.013-.015.013-.015-.761-.649Zm-17.544 0 .749-.662-.002-.002-.747.664Zm0-17 .735.679.013-.015.013-.015-.761-.649ZM105 651.825v20.264h2v-20.264h-2Zm1 19.264H34.464v2H106v-2Zm-70.536 1v-20.264h-2v20.264h2Zm-1-19.264H106v-2H34.464v2Zm-20.672-1.904c3.475 0 6.133 1.132 8.093 3.337l1.494-1.329c-2.392-2.691-5.627-4.008-9.587-4.008v2Zm8.091 3.335c1.917 2.167 2.877 4.74 2.877 7.769h2c0-3.498-1.126-6.547-3.379-9.094l-1.498 1.325Zm2.877 7.769c0 3.031-.96 5.656-2.89 7.92l1.523 1.297c2.242-2.632 3.367-5.719 3.367-9.217h-2Zm-2.863 7.89c-1.956 2.119-4.618 3.214-8.105 3.214v2c3.948 0 7.179-1.262 9.575-3.857l-1.47-1.357Zm-8.105 3.214c-3.488 0-6.094-1.095-7.955-3.198l-1.498 1.325c2.31 2.611 5.506 3.873 9.453 3.873v-2Zm-7.957-3.2c-2.014-2.266-3.011-4.885-3.011-7.904h-2c0 3.51 1.179 6.602 3.517 9.233l1.494-1.329Zm-3.011-7.904c0-3.017.997-5.584 2.999-7.753l-1.47-1.357c-2.35 2.546-3.529 5.6-3.529 9.11h2Zm3.025-7.783c1.865-2.189 4.468-3.321 7.943-3.321v-2c-3.96 0-7.16 1.317-9.465 4.024l1.522 1.297Zm31.063-21.465-.96.278.208.722h.752v-1Zm-2.72-13.328.989-.148-.001-.009-.002-.008-.986.165Zm1.088-32.232.925.379.006-.013.005-.013-.936-.353Zm6.664-9.656.63.776-.63-.776Zm10.336-5.032.242.97-.242-.97Zm53.72-1.496h1v-1h-1v1Zm0 20.264v1h1v-1h-1Zm-51.816 2.584.535.845-.535-.845Zm-3.808 14.28.998-.056-.001-.027-.003-.028-.994.111Zm.408 4.352-.99.141.123.859h.867v-1Zm55.216 0h1v-1h-1v1Zm0 20.264v1h1v-1h-1Zm-68.127-.278c-.98-3.387-1.88-7.782-2.692-13.198l-1.978.296c.82 5.464 1.734 9.954 2.748 13.458l1.922-.556Zm-2.695-13.215c-.896-5.381-1.346-11.038-1.346-16.971h-2c0 6.034.457 11.802 1.374 17.3l1.972-.329Zm-1.346-16.971c0-5.994.806-10.887 2.373-14.717l-1.85-.758c-1.697 4.148-2.523 9.32-2.523 15.475h2Zm2.383-14.743c1.49-3.942 3.617-7.005 6.36-9.233l-1.262-1.552c-3.06 2.486-5.375 5.861-6.969 10.078l1.871.707Zm6.36-9.233c2.776-2.256 6.086-3.873 9.947-4.838l-.484-1.94c-4.117 1.029-7.699 2.767-10.725 5.226l1.262 1.552Zm9.947-4.838c3.897-.974 8.257-1.466 13.086-1.466v-2c-4.963 0-9.489.505-13.57 1.526l.485 1.94Zm13.086-1.466H106v-2H65.608v2Zm39.392-1v20.264h2v-20.264h-2Zm1 19.264H68.056v2H106v-2Zm-37.944 0c-6.558 0-11.432.855-14.407 2.739l1.07 1.69c2.465-1.561 6.84-2.429 13.337-2.429v-2Zm-14.407 2.739c-3.13 1.982-4.545 5.615-4.545 10.501h2c0-4.544 1.305-7.348 3.615-8.811l-1.07-1.69Zm-4.545 10.501c0 1.492.093 3.07.278 4.734l1.988-.221a40.962 40.962 0 0 1-.266-4.513h-2Zm.273 4.679c.092 1.654.23 3.134.417 4.438l1.98-.283a50.069 50.069 0 0 1-.4-4.266l-1.997.111Zm1.407 5.297H106v-2H50.784v2Zm54.216-1v20.264h2v-20.264h-2Zm1 19.264H36.912v2H106v-2ZM84.784 531.203l-.594-.805.594.805Zm5.576-17.544.998-.059-.001-.029-.004-.029-.993.117Zm-.544-3.808.984-.179-.15-.821h-.834v1Zm-36.856 0v-1h-.546l-.295.459.841.541Zm-2.04 5.032.965.263.003-.011-.968-.252Zm52.768-25.296.958-.287-.214-.713h-.744v1Zm1.632 6.256.982-.189-.003-.018-.005-.018-.974.225Zm1.224 7.48-.991.137.001.004.99-.141Zm.816 7.888-.998.066.001.019.002.018.995-.103Zm-9.52 35.088.697.717.01-.01-.707-.707Zm-11.696 7.344.333.943.011-.004.011-.004-.355-.935ZM55 553.915l.3-.954-.006-.002-.294.956Zm-11.968-6.256-.64.768.64-.768Zm-7.48-9.928-.918.396.003.008.915-.404Zm-1.768-21.08.97.242.002-.009-.972-.233Zm2.312-6.8.915.403.617-1.403h-1.532v1Zm-32.368 0-.987.159.135.841h.852v-1ZM.464 489.587v-1H-.71l.187 1.159.987-.159Zm69.224 46.832c6.401 0 11.662-1.439 15.69-4.411l-1.188-1.61c-3.588 2.649-8.391 4.021-14.502 4.021v2Zm15.69-4.411c4.109-3.033 6.118-7.53 6.118-13.317h-2c0 5.274-1.798 9.119-5.306 11.707l1.188 1.61Zm6.118-13.317c0-1.83-.046-3.527-.138-5.091l-1.996.118c.09 1.518.134 3.176.134 4.973h2Zm-.143-5.149a64.505 64.505 0 0 0-.553-3.87l-1.968.358c.176.969.355 2.216.535 3.746l1.986-.234Zm-1.537-4.691H52.96v2h36.856v-2Zm-37.697.459c-.892 1.387-1.606 3.173-2.167 5.321l1.936.504c.527-2.023 1.173-3.592 1.913-4.743l-1.682-1.082Zm-2.164 5.31a24.15 24.15 0 0 0-.851 6.383h2c0-1.997.26-3.949.78-5.857l-1.929-.526Zm-.851 6.383c0 5.056 1.734 8.99 5.303 11.617 3.512 2.586 8.66 3.799 15.281 3.799v-2c-6.435 0-11.08-1.189-14.095-3.409-2.959-2.178-4.489-5.453-4.489-10.007h-2Zm53.626-31.129c.537 1.788 1.075 3.852 1.616 6.194l1.948-.45a101.975 101.975 0 0 0-1.648-6.318l-1.916.574Zm1.608 6.158c.45 2.338.855 4.814 1.215 7.428l1.982-.274a144.573 144.573 0 0 0-1.233-7.532l-1.964.378Zm1.216 7.432c.359 2.513.628 5.117.808 7.813l1.996-.133a106.614 106.614 0 0 0-.824-7.962l-1.98.282Zm.811 7.85c.269 2.598.403 5.102.403 7.513h2c0-2.485-.138-5.058-.413-7.719l-1.99.206Zm.403 7.513c0 5.797-.847 10.934-2.521 15.427l1.874.698c1.772-4.755 2.647-10.135 2.647-16.125h-2Zm-2.521 15.427c-1.678 4.503-4.052 8.276-7.114 11.338l1.414 1.414c3.285-3.284 5.806-7.309 7.574-12.054l-1.874-.698Zm-7.104 11.328c-3.16 3.072-6.94 5.449-11.354 7.126l.71 1.87c4.653-1.768 8.67-4.287 12.038-7.562l-1.394-1.434ZM85.81 552.7c-4.5 1.589-9.554 2.391-15.171 2.391v2c5.807 0 11.09-.83 15.837-2.505l-.666-1.886Zm-15.171 2.391c-5.72 0-10.83-.715-15.34-2.13l-.6 1.908c4.738 1.486 10.055 2.222 15.94 2.222v-2Zm-15.346-2.132c-4.608-1.418-8.475-3.446-11.622-6.068l-1.28 1.536c3.38 2.818 7.493 4.96 12.314 6.444l.588-1.912Zm-11.622-6.068a25.91 25.91 0 0 1-7.205-9.564l-1.83.808a27.91 27.91 0 0 0 7.755 10.292l1.28-1.536Zm-7.202-9.556c-1.66-3.845-2.502-8.24-2.502-13.204h-2c0 5.191.88 9.863 2.666 13.996l1.836-.792Zm-2.502-13.204c0-2.749.266-5.158.786-7.238l-1.94-.485c-.568 2.273-.846 4.85-.846 7.723h2Zm.788-7.247a39.116 39.116 0 0 1 2.255-6.63l-1.83-.806a41.12 41.12 0 0 0-2.37 6.97l1.945.466Zm1.34-8.033H3.728v2h32.368v-2Zm-31.38.841L1.45 489.428l-1.974.318L2.74 510.01l1.974-.318ZM.463 490.587h103.224v-2H.464v2ZM85.6 406.149l.333-.943-.006-.002-.327.945Zm11.968 7.072.687-.727-.01-.01-.677.737Zm7.616 11.152-.923.384.003.007.92-.391Zm0 28.832.92.391.003-.007-.923-.384Zm-7.616 11.016.677.736.01-.009-.687-.727ZM85.6 471.429l.343.939.006-.002-.349-.937Zm-30.872 0-.365.931.008.003.008.003.349-.937Zm-11.832-7.344-.697.717.005.005.005.005.687-.727Zm-7.616-11.152-.923.384.003.007.92-.391Zm0-28.288.92.391.003-.007-.923-.384Zm7.616-11.152.687.727-.687-.727Zm11.832-7.208.35.937-.35-.937Zm.68 21.896.56.829.011-.008.012-.009-.583-.812Zm0 21.352.583-.813-.01-.006-.573.819Zm29.648 0 .564.826.01-.007-.574-.819Zm0-21.352-.564.826.004.003.56-.829Zm-14.96-23.48c5.524 0 10.58.802 15.177 2.393l.654-1.89c-4.832-1.673-10.112-2.503-15.831-2.503v2Zm15.171 2.391c4.507 1.59 8.377 3.881 11.624 6.865l1.354-1.473c-3.462-3.18-7.57-5.605-12.312-7.278l-.666 1.886Zm11.614 6.856c3.157 2.981 5.618 6.58 7.38 10.809l1.846-.769c-1.864-4.475-4.481-8.31-7.852-11.494l-1.374 1.454Zm7.383 10.816c1.753 4.12 2.64 8.789 2.64 14.025h2c0-5.463-.926-10.405-2.8-14.808l-1.84.783Zm2.64 14.025c0 5.142-.886 9.814-2.643 14.031l1.846.769c1.87-4.487 2.797-9.425 2.797-14.8h-2Zm-2.64 14.024c-1.761 4.139-4.222 7.696-7.383 10.681l1.374 1.454c3.367-3.18 5.984-6.968 7.849-11.352l-1.84-.783Zm-7.373 10.671c-3.252 2.989-7.127 5.326-11.64 7.008l.698 1.874c4.735-1.764 8.838-4.232 12.296-7.409l-1.354-1.473Zm-11.634 7.006c-4.593 1.678-9.643 2.523-15.161 2.523v2c5.724 0 11.01-.878 15.847-2.645l-.686-1.878Zm-15.161 2.523c-5.519 0-10.521-.846-15.019-2.521l-.698 1.874c4.75 1.77 9.993 2.647 15.717 2.647v-2Zm-15.003-2.515c-4.517-1.772-8.349-4.154-11.51-7.14l-1.374 1.454c3.367 3.179 7.423 5.693 12.154 7.548l.73-1.862Zm-11.5-7.13c-3.167-3.079-5.63-6.685-7.393-10.827l-1.84.783c1.864 4.382 4.478 8.21 7.839 11.478l1.394-1.434Zm-7.39-10.82c-1.759-4.221-2.643-8.804-2.643-13.759h-2c0 5.199.929 10.045 2.797 14.528l1.846-.769Zm-2.643-13.759c0-5.049.885-9.629 2.64-13.753l-1.84-.783c-1.872 4.399-2.8 9.249-2.8 14.536h2Zm2.643-13.76c1.762-4.229 4.223-7.828 7.38-10.809l-1.374-1.454c-3.37 3.184-5.988 7.019-7.852 11.494l1.846.769Zm7.38-10.809c3.157-2.982 6.983-5.318 11.494-6.998l-.698-1.874c-4.737 1.764-8.8 4.234-12.17 7.418l1.374 1.454Zm11.494-6.998c4.498-1.676 9.5-2.521 15.019-2.521v-2c-5.724 0-10.967.877-15.717 2.647l.698 1.874Zm15.019 16.151c-6.377 0-11.506 1.292-15.271 3.996l1.166 1.624c3.306-2.374 7.97-3.62 14.105-3.62v-2Zm-15.248 3.979c-3.92 2.646-5.88 6.503-5.88 11.437h2c0-4.314 1.666-7.529 5-9.779l-1.12-1.658Zm-5.88 11.437c0 4.933 1.959 8.828 5.866 11.563l1.147-1.638c-3.345-2.342-5.013-5.61-5.013-9.925h-2Zm5.857 11.556c3.765 2.704 8.894 3.996 15.271 3.996v-2c-6.135 0-10.799-1.247-14.105-3.621l-1.166 1.625Zm15.271 3.996c6.381 0 11.587-1.294 15.524-3.982l-1.128-1.652c-3.498 2.389-8.265 3.634-14.396 3.634v2Zm15.533-3.989c3.908-2.735 5.867-6.63 5.867-11.563h-2c0 4.315-1.668 7.583-5.013 9.925l1.146 1.638Zm5.867-11.563c0-4.934-1.96-8.791-5.88-11.437l-1.12 1.658c3.334 2.25 5 5.465 5 9.779h2Zm-5.876-11.434c-3.937-2.689-9.143-3.982-15.524-3.982v2c6.13 0 10.898 1.245 14.396 3.634l1.128-1.652Zm-20.692-81.278-.254-.967-3.675.967 3.675.967.254-.967Zm20.536 5.848-.293.956.011.004.282-.96ZM106 358.317h1v-.724l-.688-.226-.312.95Zm0 15.776.394.919.606-.259v-.66h-1Zm-13.6 5.304-.34-.94.34.94Zm-17.136 5.984.304.953.008-.003.008-.003-.32-.947Zm-19.72 6.256.286.958.008-.002.007-.002-.301-.954Zm-21.08 6.12h-1v1.321l1.272-.358-.272-.963Zm0-21.352-.217-.976-.783.174v.802h1Zm10.744-2.312.205.979.013-.003.014-.003-.232-.973Zm11.832-2.72.217.976.01-.002.01-.002-.237-.972Zm12.376-2.992.233.973.012-.003.013-.004-.258-.966Zm11.832-3.264.275.962 3.309-.946-3.3-.975-.284.959Zm-12.24-3.4-.272.963.01.002.01.003.252-.968Zm-12.24-3.264-.258.966.008.002.008.002.242-.97Zm-11.696-2.992-.253.968.008.002.008.002.237-.972Zm-10.608-2.584h-1v.802l.783.174.217-.976Zm0-14.688-.217-.976-.783.174v.802h1Zm10.608-2.448.232.973.005-.001-.237-.972Zm11.696-2.856.237.972.005-.002-.242-.97Zm12.24-3.128-.252-.967.252.967Zm12.24-3.4.283.959 3.3-.975-3.308-.945-.275.961Zm-11.832-3.264.258-.966-.006-.001-.252.967Zm-12.376-2.992-.237.972.01.002.01.002.217-.976Zm-11.832-2.72-.227.974.009.002.008.002.21-.978Zm-10.744-2.448h-1v.802l.783.174.217-.976Zm0-21.08.272-.962-1.272-.359v1.321h1Zm21.08 6.256-.298.955.008.002.29-.957Zm19.72 6.256-.316.949.008.003.308-.952Zm17.136 5.984-.355.935.007.003.008.002.34-.94Zm13.6 5.304h1v-.659l-.606-.26-.394.919Zm0 15.776.312.95.688-.226v-.724h-1Zm-20.536 6.664.305.953-.305-.953Zm-20.79 6.951a530.453 530.453 0 0 1 20.497 5.837l.586-1.912a532.62 532.62 0 0 0-20.575-5.859l-.508 1.934Zm20.508 5.841a661.357 661.357 0 0 1 20.506 6.382l.624-1.9a660.811 660.811 0 0 0-20.566-6.401l-.563 1.919ZM105 358.317v15.776h2v-15.776h-2Zm.606 14.857c-3.785 1.622-8.3 3.383-13.546 5.283l.68 1.88c5.271-1.908 9.823-3.683 13.654-5.325l-.788-1.838Zm-13.546 5.283a862.955 862.955 0 0 1-17.116 5.977l.64 1.894a856.334 856.334 0 0 0 17.156-5.991l-.68-1.88Zm-17.1 5.971a7326.838 7326.838 0 0 1-19.717 6.256l.602 1.907a7373.3 7373.3 0 0 0 19.723-6.257l-.608-1.906Zm-19.702 6.251a1435.247 1435.247 0 0 1-21.066 6.116l.544 1.925a1428.053 1428.053 0 0 0 21.094-6.125l-.572-1.916Zm-19.794 7.078v-21.352h-2v21.352h2Zm-.783-20.376a894.29 894.29 0 0 1 10.732-2.309l-.41-1.958a909.76 909.76 0 0 0-10.756 2.315l.434 1.952Zm10.759-2.315a815.171 815.171 0 0 1 11.817-2.717l-.434-1.952a809.921 809.921 0 0 0-11.847 2.723l.464 1.946Zm11.838-2.721c4.078-.997 8.202-1.994 12.37-2.991l-.465-1.945c-4.172.997-8.299 1.995-12.38 2.993l.475 1.943Zm12.396-2.998a697.99 697.99 0 0 0 11.849-3.268l-.55-1.923a699.662 699.662 0 0 1-11.815 3.259l.516 1.932Zm11.857-5.189c-4-1.182-8.09-2.318-12.27-3.408l-.505 1.935a395.28 395.28 0 0 1 12.209 3.391l.566-1.918Zm-12.251-3.403a418.461 418.461 0 0 0-12.27-3.272l-.484 1.94c3.978.995 8.049 2.08 12.21 3.257l.544-1.925Zm-12.254-3.268a561.434 561.434 0 0 0-11.717-2.997l-.474 1.943c3.71.905 7.602 1.9 11.675 2.986l.516-1.932Zm-11.7-2.993c-3.819-1-7.367-1.865-10.645-2.593l-.434 1.952c3.25.723 6.774 1.581 10.572 2.576l.506-1.935Zm-9.862-1.617v-14.688h-2v14.688h2Zm-.783-13.712a714.07 714.07 0 0 0 10.623-2.451l-.464-1.946a720.001 720.001 0 0 1-10.593 2.445l.434 1.952Zm10.628-2.452 11.697-2.856-.475-1.943-11.696 2.856.474 1.943Zm11.702-2.858c3.992-.998 8.076-2.041 12.25-3.13l-.505-1.935a1229.745 1229.745 0 0 1-12.23 3.125l.484 1.94Zm12.25-3.13a397.316 397.316 0 0 0 12.27-3.409l-.566-1.918a395.264 395.264 0 0 1-12.21 3.392l.505 1.935Zm12.262-5.329a688.622 688.622 0 0 0-11.85-3.269l-.515 1.932a690.195 690.195 0 0 1 11.815 3.26l.55-1.923Zm-11.855-3.27a348.862 348.862 0 0 0-12.411-3.001l-.434 1.952c4.068.904 8.181 1.899 12.34 2.984l.505-1.935Zm-12.39-2.996c-4.09-1-8.042-1.908-11.86-2.727l-.42 1.956c3.798.814 7.733 1.718 11.805 2.714l.475-1.943Zm-11.843-2.723a1135.27 1135.27 0 0 0-10.754-2.45l-.434 1.952c3.26.725 6.838 1.54 10.734 2.446l.453-1.948Zm-9.971-1.474v-21.08h-2v21.08h2Zm-1.271-20.117a806.486 806.486 0 0 1 21.053 6.248l.596-1.91a810.714 810.714 0 0 0-21.106-6.263l-.543 1.925Zm21.061 6.25a742.946 742.946 0 0 1 19.694 6.248l.632-1.897a743.062 743.062 0 0 0-19.746-6.265l-.58 1.914Zm19.702 6.251c6.152 1.99 11.848 3.979 17.09 5.967l.709-1.87c-5.277-2.001-11.004-4.001-17.183-6l-.616 1.903Zm17.104 5.972c5.246 1.9 9.761 3.661 13.546 5.283l.788-1.838c-3.831-1.642-8.383-3.417-13.654-5.325l-.68 1.88Zm12.94 4.364v15.776h2v-15.776h-2Zm.688 14.826a2658.48 2658.48 0 0 1-20.529 6.662l.61 1.905c6.802-2.177 13.65-4.399 20.543-6.667l-.624-1.9Zm-20.529 6.662a408.174 408.174 0 0 1-20.486 5.969l.51 1.934a409.888 409.888 0 0 0 20.586-5.998l-.61-1.905ZM11.752 179.013v-1h-1v1h1Zm18.088 0h1v-1h-1v1Zm0 28.424h-1v1h1v-1Zm76.16 0h1v-1h-1v1Zm0 21.216v1h1v-1h-1Zm-76.16 0v-1h-1v1h1Zm0 28.424v1h1v-1h-1Zm-18.088 0h-1v1h1v-1Zm0-77.064H29.84v-2H11.752v2Zm17.088-1v28.424h2v-28.424h-2Zm1 29.424H106v-2H29.84v2Zm75.16-1v21.216h2v-21.216h-2Zm1 20.216H29.84v2H106v-2Zm-77.16 1v28.424h2v-28.424h-2Zm1 27.424H11.752v2H29.84v-2Zm-17.088 1v-78.064h-2v78.064h2ZM106 146.474h1v-1h-1v1Zm0 20.264v1h1v-1h-1Zm-71.536 0h-1v1h1v-1Zm0-20.264v-1h-1v1h1Zm-11.832 1.768.749-.663-.002-.002-.747.665Zm0 17 .735.678.013-.015.013-.015-.761-.648Zm-17.544 0 .749-.663-.002-.002-.747.665Zm0-17 .735.678.013-.015.013-.015-.761-.648ZM105 146.474v20.264h2v-20.264h-2Zm1 19.264H34.464v2H106v-2Zm-70.536 1v-20.264h-2v20.264h2Zm-1-19.264H106v-2H34.464v2Zm-20.672-1.904c3.475 0 6.133 1.132 8.093 3.336l1.494-1.329c-2.392-2.691-5.627-4.007-9.587-4.007v2Zm8.091 3.334c1.917 2.168 2.877 4.74 2.877 7.77h2c0-3.498-1.126-6.547-3.379-9.095l-1.498 1.325Zm2.877 7.77c0 3.03-.96 5.655-2.89 7.919l1.523 1.297c2.242-2.632 3.367-5.718 3.367-9.216h-2Zm-2.863 7.89c-1.956 2.119-4.618 3.214-8.105 3.214v2c3.948 0 7.179-1.262 9.575-3.858l-1.47-1.356Zm-8.105 3.214c-3.488 0-6.094-1.095-7.955-3.199l-1.498 1.325c2.31 2.612 5.506 3.874 9.453 3.874v-2Zm-7.957-3.201c-2.014-2.265-3.011-4.885-3.011-7.903h-2c0 3.51 1.179 6.602 3.517 9.232l1.494-1.329Zm-3.011-7.903c0-3.018.997-5.585 2.999-7.754l-1.47-1.356c-2.35 2.545-3.529 5.599-3.529 9.11h2Zm3.025-7.784c1.865-2.189 4.468-3.32 7.943-3.32v-2c-3.96 0-7.16 1.316-9.465 4.023l1.522 1.297Zm31.063-21.465-.96.278.208.722h.752v-1Zm-2.72-13.328.989-.148-.001-.008-.002-.008-.986.164Zm1.088-32.232.925.379.006-.013.005-.012-.936-.354Zm6.664-9.656.63.776-.63-.776Zm10.336-5.032.242.97-.242-.97ZM106 65.681h1v-1h-1v1Zm0 20.264v1h1v-1h-1ZM54.184 88.53l.535.845-.535-.845Zm-3.808 14.28.998-.055-.001-.028-.003-.027-.994.11Zm.408 4.352-.99.142.123.858h.867v-1Zm55.216 0h1v-1h-1v1Zm0 20.264v1h1v-1h-1Zm-68.127-.278c-.98-3.386-1.88-7.781-2.692-13.198l-1.978.297c.82 5.463 1.734 9.953 2.748 13.457l1.922-.556Zm-2.695-13.214c-.896-5.381-1.346-11.038-1.346-16.972h-2c0 6.035.457 11.802 1.374 17.301l1.972-.329Zm-1.346-16.972c0-5.994.806-10.886 2.373-14.717l-1.85-.757c-1.697 4.148-2.523 9.319-2.523 15.474h2Zm2.383-14.742c1.49-3.943 3.617-7.005 6.36-9.234l-1.262-1.552c-3.06 2.486-5.375 5.861-6.969 10.079l1.871.707Zm6.36-9.234c2.776-2.256 6.086-3.872 9.947-4.838l-.484-1.94c-4.117 1.03-7.699 2.768-10.725 5.226l1.262 1.552Zm9.947-4.838c3.897-.974 8.257-1.466 13.086-1.466v-2c-4.963 0-9.489.506-13.57 1.526l.485 1.94Zm13.086-1.466H106v-2H65.608v2Zm39.392-1v20.264h2V65.681h-2Zm1 19.264H68.056v2H106v-2Zm-37.944 0c-6.558 0-11.431.855-14.407 2.74l1.07 1.69c2.465-1.562 6.84-2.43 13.337-2.43v-2Zm-14.407 2.74c-3.13 1.982-4.545 5.615-4.545 10.5h2c0-4.543 1.305-7.348 3.615-8.81l-1.07-1.69Zm-4.545 10.5c0 1.492.093 3.071.278 4.735l1.988-.221a40.968 40.968 0 0 1-.266-4.514h-2Zm.273 4.68a51.95 51.95 0 0 0 .417 4.438l1.98-.283a50.108 50.108 0 0 1-.4-4.266l-1.997.111Zm1.407 5.296H106v-2H50.784v2Zm54.216-1v20.264h2v-20.264h-2Zm1 19.264H36.912v2H106v-2ZM16.648 48.019l-.987.16.135.84h.852v-1Zm-3.264-20.264v-1H12.21l.187 1.16.987-.16Zm21.08 0v1h1v-1h-1Zm0-24.344v-1h-1v1h1Zm16.864 0h1v-1h-1v1Zm0 24.344h-1v1h1v-1Zm35.36-2.176.496.869.012-.007.011-.007-.519-.855Zm3.264-15.776.987-.158-.002-.015-.003-.016-.982.19Zm-1.768-6.392-.178-.984-1.185.215.428 1.125.935-.356ZM103.96.555l.926-.377-.306-.751-.798.144.178.984Zm2.584 8.16-.972.236.972-.236Zm-1.088 24.752.92.392.005-.01.003-.01-.928-.372ZM99.2 42.171l.625.781.006-.005.007-.005-.638-.77Zm-9.792 4.624.21.978.01-.002.012-.003-.232-.973ZM17.635 47.86l-3.264-20.264-1.974.318 3.264 20.264 1.974-.318Zm-4.251-19.105h21.08v-2h-21.08v2Zm22.08-1V3.411h-2v24.344h2Zm-1-23.344h16.864v-2H34.464v2Zm15.864-1v24.344h2V3.411h-2Zm1 25.344h25.16v-2h-25.16v2Zm25.16 0c4.36 0 7.953-.74 10.696-2.307l-.992-1.737c-2.334 1.334-5.542 2.044-9.704 2.044v2Zm10.719-2.32c2.974-1.806 4.289-5.282 4.289-9.968h-2c0 4.381-1.223 6.98-3.327 8.258l1.038 1.71Zm4.289-9.968a43.14 43.14 0 0 0-.557-6.822l-1.974.316c.354 2.218.531 4.386.531 6.506h2Zm-.562-6.852c-.462-2.405-1.066-4.593-1.816-6.56l-1.868.712c.7 1.842 1.276 3.915 1.72 6.225l1.964-.378Zm-2.572-5.22 15.776-2.856-.356-1.968-15.776 2.856.356 1.968ZM103.034.933c.976 2.395 1.823 5.067 2.538 8.018l1.944-.471c-.735-3.033-1.611-5.801-2.63-8.302l-1.852.755Zm2.538 8.018c.701 2.89 1.06 6.478 1.06 10.78h2c0-4.401-.366-8.158-1.116-11.251l-1.944.471Zm1.06 10.78c0 5.453-.716 9.895-2.104 13.365l1.856.743c1.514-3.783 2.248-8.499 2.248-14.108h-2Zm-2.096 13.345c-1.489 3.503-3.485 6.266-5.974 8.325l1.276 1.54c2.77-2.292 4.944-5.331 6.538-9.083l-1.84-.782Zm-5.96 8.315c-2.592 2.073-5.717 3.555-9.4 4.432l.464 1.945c3.933-.936 7.336-2.537 10.185-4.816l-1.25-1.561Zm-9.377 4.427c-3.728.798-7.873 1.201-12.439 1.201v2c4.682 0 8.97-.413 12.858-1.246l-.42-1.955ZM76.76 47.019H16.648v2H76.76v-2Z" fill="#fff"/></svg>