<svg width="100" height="782" viewBox="0 0 100 782" fill="none" xmlns="http://www.w3.org/2000/svg">
<path opacity="0.1" d="M71.68 772.648L72.3634 773.378L72.3675 773.374L71.68 772.648ZM28 778.992L28.3738 778.064L28.369 778.063L28 778.992ZM16.144 771.296L16.8587 770.596L16.8511 770.589L16.144 771.296ZM8.75999 759.648L7.8219 759.994L8.75999 759.648ZM6.992 736.664L7.97361 736.855L7.97618 736.842L7.97839 736.828L6.992 736.664ZM8.552 730.112L9.50068 730.428L9.50601 730.412L9.51079 730.396L8.552 730.112ZM11.776 722.728L12.1123 721.786L11.3545 721.516L10.928 722.198L11.776 722.728ZM24.88 727.408L25.7631 727.877L26.3059 726.855L25.2163 726.466L24.88 727.408ZM21.864 735.208L22.8255 735.483L22.8272 735.477L21.864 735.208ZM21.864 752.576L20.918 752.9L20.921 752.909L21.864 752.576ZM25.92 758.92L25.2129 759.627L25.92 758.92ZM52.96 763.912L53.1916 764.885L53.2054 764.882L53.2191 764.878L52.96 763.912ZM60.344 760.376L60.9524 761.17L60.9606 761.163L60.9687 761.157L60.344 760.376ZM65.336 753.928L66.2397 754.356L66.2444 754.346L66.2488 754.336L65.336 753.928ZM66.688 738.016L65.6988 738.163L66.688 738.016ZM65.752 733.024L66.7248 732.792L66.7196 732.771L66.7135 732.749L65.752 733.024ZM64.4 729.176L65.3162 728.775L65.3162 728.775L64.4 729.176ZM63.048 726.16L62.7227 725.214L61.6763 725.574L62.14 726.579L63.048 726.16ZM76.048 721.688L76.9032 721.17L76.4852 720.48L75.7227 720.742L76.048 721.688ZM79.792 731.36L80.7582 731.102L79.792 731.36ZM80.456 745.816C80.456 757.347 77.2543 765.993 70.9925 771.922L72.3675 773.374C79.1404 766.962 82.456 757.72 82.456 745.816L80.456 745.816ZM70.9966 771.918C64.7206 777.793 55.7418 780.8 43.912 780.8L43.912 782.8C56.0715 782.8 65.6047 779.705 72.3634 773.378L70.9966 771.918ZM43.912 780.8C38.0535 780.8 32.88 779.88 28.3738 778.064L27.6262 779.92C32.4107 781.848 37.8452 782.8 43.912 782.8L43.912 780.8ZM28.369 778.063C23.7697 776.236 19.9397 773.745 16.8587 770.597L15.4293 771.995C18.727 775.365 22.801 778.004 27.631 779.921L28.369 778.063ZM16.8511 770.589C13.6989 767.437 11.3142 763.679 9.69809 759.302L7.8219 759.994C9.53376 764.631 12.0717 768.638 15.4369 772.003L16.8511 770.589ZM9.69809 759.302C8.07882 754.916 7.26399 750.147 7.26399 744.984L5.26399 744.984C5.26399 750.36 6.11317 755.367 7.8219 759.994L9.69809 759.302ZM7.26399 744.984C7.26399 741.985 7.50264 739.277 7.97361 736.855L6.01038 736.473C5.51069 739.043 5.26399 741.882 5.26399 744.984L7.26399 744.984ZM7.97839 736.828C8.38807 734.37 8.89705 732.239 9.50068 730.428L7.60331 729.796C6.95895 731.729 6.42792 733.966 6.0056 736.5L7.97839 736.828ZM9.51079 730.396C10.0549 728.56 10.6247 727.059 11.2144 725.879L9.42557 724.985C8.76734 726.301 8.15847 727.92 7.5932 729.828L9.51079 730.396ZM11.2144 725.879C11.8364 724.635 12.3041 723.77 12.624 723.258L10.928 722.198C10.5546 722.795 10.0516 723.733 9.42557 724.985L11.2144 725.879ZM11.4397 723.67L24.5437 728.35L25.2163 726.466L12.1123 721.786L11.4397 723.67ZM23.9969 726.939C22.7776 729.234 21.7479 731.904 20.9008 734.939L22.8272 735.477C23.6441 732.55 24.625 730.019 25.7631 727.877L23.9969 726.939ZM20.9025 734.933C20.0398 737.953 19.616 741.376 19.616 745.192L21.616 745.192C21.616 741.52 22.0242 738.287 22.8255 735.483L20.9025 734.933ZM19.616 745.192C19.616 747.801 20.0513 750.372 20.9181 752.9L22.8099 752.252C22.0127 749.926 21.616 747.575 21.616 745.192L19.616 745.192ZM20.921 752.909C21.8056 755.415 23.2417 757.656 25.2129 759.627L26.6271 758.213C24.8543 756.44 23.5864 754.451 22.807 752.243L20.921 752.909ZM25.2129 759.627C27.1348 761.549 29.6209 763.074 32.636 764.222L33.348 762.354C30.5391 761.283 28.3105 759.896 26.6271 758.213L25.2129 759.627ZM32.636 764.222C35.6927 765.387 39.3567 765.952 43.6 765.952L43.6 763.952C39.5233 763.952 36.1153 763.408 33.348 762.354L32.636 764.222ZM43.6 765.952C46.9974 765.952 50.1958 765.598 53.1916 764.885L52.7284 762.939C49.9002 763.613 46.8586 763.952 43.6 763.952L43.6 765.952ZM53.2191 764.878C56.1729 764.085 58.7564 762.853 60.9524 761.17L59.7356 759.582C57.7716 761.088 55.4325 762.213 52.7009 762.946L53.2191 764.878ZM60.9687 761.157C63.1782 759.389 64.933 757.115 66.2397 754.356L64.4323 753.5C63.243 756.01 61.6698 758.035 59.7193 759.595L60.9687 761.157ZM66.2488 754.336C67.4993 751.541 68.104 748.205 68.104 744.36L66.104 744.36C66.104 748.003 65.53 751.046 64.4232 753.52L66.2488 754.336ZM68.104 744.36C68.104 741.965 67.9632 739.8 67.6772 737.869L65.6988 738.163C65.9674 739.976 66.104 742.04 66.104 744.36L68.104 744.36ZM67.6772 737.869C67.3967 735.976 67.0796 734.283 66.7248 732.792L64.7792 733.256C65.1177 734.677 65.4247 736.312 65.6988 738.163L67.6772 737.869ZM66.7135 732.749C66.2881 731.26 65.8232 729.934 65.3162 728.775L63.4838 729.577C63.9475 730.637 64.3839 731.876 64.7905 733.299L66.7135 732.749ZM65.3162 728.775C64.8287 727.661 64.3753 726.649 63.956 725.741L62.14 726.579C62.5527 727.473 63.0006 728.472 63.4838 729.577L65.3162 728.775ZM63.3733 727.106L76.3733 722.634L75.7227 720.742L62.7227 725.214L63.3733 727.106ZM75.1928 722.206C76.5097 724.379 77.7279 727.501 78.8258 731.618L80.7582 731.102C79.6374 726.899 78.3597 723.573 76.9032 721.17L75.1928 722.206ZM78.8258 731.618C79.9076 735.674 80.456 740.403 80.456 745.816L82.456 745.816C82.456 740.274 81.8951 735.366 80.7582 731.102L78.8258 731.618ZM40.376 713.917L39.9926 714.841L40.0015 714.844L40.376 713.917ZM31.224 707.989L30.5169 708.696L31.224 707.989ZM25.712 699.669L24.7807 700.034L24.7835 700.041L25.712 699.669ZM31.016 671.485L31.7017 672.213L31.707 672.208L31.016 671.485ZM54.936 664.829L55.0025 663.831L54.9984 663.831L54.936 664.829ZM57.744 665.037L58.744 665.037L58.744 664.117L57.827 664.041L57.744 665.037ZM57.744 700.189L56.744 700.189L56.744 701.304L57.8521 701.183L57.744 700.189ZM65.336 695.717L66.1512 696.296L65.336 695.717ZM67.416 676.789L68.4003 676.613L68.3985 676.603L68.3966 676.593L67.416 676.789ZM65.44 670.029L65.2769 669.043L64.0058 669.253L64.5247 670.432L65.44 670.029ZM78.024 667.949L78.9184 667.502L78.5886 666.842L77.8609 666.963L78.024 667.949ZM79.272 671.277L78.3142 671.565L79.272 671.277ZM80.312 675.957L79.3246 676.115L79.3283 676.138L79.333 676.161L80.312 675.957ZM81.144 681.365L82.1383 681.259L81.144 681.365ZM79.272 700.085L80.1993 700.46L80.2017 700.454L79.272 700.085ZM73.344 709.133L74.0206 709.87L74.031 709.86L74.0411 709.85L73.344 709.133ZM64.296 714.437L64.6008 715.39L64.6094 715.387L64.6179 715.384L64.296 714.437ZM47.136 679.701L48.136 679.701L48.136 678.647L47.0834 678.703L47.136 679.701ZM43.288 680.429L43.5556 681.393L43.5801 681.386L43.6042 681.378L43.288 680.429ZM39.96 682.197L40.5778 682.984L40.5946 682.97L40.6108 682.957L39.96 682.197ZM37.568 685.213L38.4518 685.681L38.4572 685.671L38.4624 685.66L37.568 685.213ZM37.568 694.157L38.4818 693.751L38.4726 693.73L38.4624 693.71L37.568 694.157ZM43.288 699.253L42.9423 700.192L42.957 700.197L42.9718 700.202L43.288 699.253ZM47.136 700.189L46.98 701.177L48.136 701.36L48.136 700.189L47.136 700.189ZM53.064 715.101C48.3083 715.101 44.2113 714.388 40.7505 712.99L40.0015 714.844C43.7514 716.359 48.1131 717.101 53.064 717.101L53.064 715.101ZM40.7594 712.994C37.1867 711.511 34.2515 709.603 31.9311 707.282L30.5169 708.696C33.0498 711.229 36.216 713.273 39.9926 714.841L40.7594 712.994ZM31.9311 707.282C29.5981 704.949 27.8371 702.289 26.6405 699.298L24.7835 700.041C26.0829 703.289 27.9966 706.176 30.5169 708.696L31.9311 707.282ZM26.6432 699.305C25.4393 696.228 24.84 693.093 24.84 689.893L22.84 689.893C22.84 693.35 23.4887 696.732 24.7808 700.034L26.6432 699.305ZM24.84 689.893C24.84 682.349 27.1547 676.497 31.7017 672.213L30.3303 670.757C25.3093 675.487 22.84 681.907 22.84 689.893L24.84 689.893ZM31.707 672.208C36.1704 667.942 42.8491 665.725 51.92 665.725L51.92 663.725C42.5482 663.725 35.2909 666.016 30.325 670.762L31.707 672.208ZM51.92 665.725C52.7964 665.725 53.7805 665.759 54.8736 665.827L54.9984 663.831C53.8728 663.761 52.8463 663.725 51.92 663.725L51.92 665.725ZM54.8695 665.827C55.9053 665.896 56.8356 665.965 57.661 666.034L57.827 664.041C56.9884 663.971 56.0467 663.901 55.0025 663.831L54.8695 665.827ZM56.744 665.037L56.744 700.189L58.744 700.189L58.744 665.037L56.744 665.037ZM57.8521 701.183C61.328 700.806 64.115 699.162 66.1512 696.296L64.5208 695.138C62.813 697.542 60.5387 698.88 57.6359 699.195L57.8521 701.183ZM66.1512 696.296C68.1808 693.44 69.144 689.679 69.144 685.109L67.144 685.109C67.144 689.415 66.2352 692.725 64.5208 695.138L66.1512 696.296ZM69.144 685.109C69.144 682.209 68.8964 679.377 68.4003 676.613L66.4317 676.966C66.9062 679.61 67.144 682.324 67.144 685.109L69.144 685.109ZM68.3966 676.593C67.8339 673.78 67.1577 671.45 66.3553 669.627L64.5247 670.432C65.2477 672.075 65.8887 674.252 66.4354 676.985L68.3966 676.593ZM65.6031 671.016L78.1871 668.936L77.8609 666.963L65.2769 669.043L65.6031 671.016ZM77.1296 668.396C77.5099 669.157 77.9067 670.206 78.3142 671.565L80.2298 670.99C79.8053 669.575 79.3701 668.405 78.9184 667.502L77.1296 668.396ZM78.3142 671.565C78.7151 672.901 79.0528 674.417 79.3246 676.115L81.2994 675.799C81.0165 674.031 80.6609 672.427 80.2298 670.99L78.3142 671.565ZM79.333 676.161C79.6721 677.789 79.9447 679.558 80.1497 681.472L82.1383 681.259C81.9273 679.289 81.6453 677.454 81.291 675.753L79.333 676.161ZM80.1497 681.472C80.3539 683.378 80.456 685.284 80.456 687.189L82.456 687.189C82.456 685.212 82.3501 683.235 82.1383 681.259L80.1497 681.472ZM80.456 687.189C80.456 692.016 79.742 696.184 78.3423 699.717L80.2017 700.454C81.714 696.637 82.456 692.208 82.456 687.189L80.456 687.189ZM78.3448 699.711C76.9347 703.202 75.0322 706.097 72.6469 708.416L74.0411 709.85C76.6478 707.316 78.6973 704.179 80.1992 700.46L78.3448 699.711ZM72.6674 708.397C70.2096 710.655 67.316 712.354 63.9741 713.49L64.6179 715.384C68.2093 714.163 71.3478 712.326 74.0206 709.87L72.6674 708.397ZM63.9912 713.485C60.6328 714.56 56.9926 715.101 53.064 715.101L53.064 717.101C57.178 717.101 61.0258 716.534 64.6008 715.39L63.9912 713.485ZM47.0834 678.703C45.6766 678.777 44.3053 679.036 42.9718 679.481L43.6042 681.378C44.7667 680.99 45.9607 680.764 47.1886 680.7L47.0834 678.703ZM43.0204 679.466C41.6331 679.851 40.3926 680.509 39.3092 681.438L40.6108 682.957C41.4687 682.221 42.4469 681.701 43.5556 681.393L43.0204 679.466ZM39.3422 681.411C38.2411 682.276 37.355 683.403 36.6736 684.766L38.4624 685.66C39.029 684.527 39.7375 683.644 40.5778 682.984L39.3422 681.411ZM36.6842 684.745C35.9618 686.11 35.632 687.774 35.632 689.685L37.632 689.685C37.632 687.991 37.9262 686.674 38.4518 685.681L36.6842 684.745ZM35.632 689.685C35.632 691.537 35.9654 693.188 36.6736 694.604L38.4624 693.71C37.9226 692.63 37.632 691.3 37.632 689.685L35.632 689.685ZM36.6542 694.563C37.265 695.938 38.1141 697.101 39.2052 698.037L40.5068 696.518C39.6565 695.789 38.9803 694.873 38.4818 693.751L36.6542 694.563ZM39.2052 698.037C40.2746 698.953 41.5244 699.669 42.9423 700.192L43.6337 698.315C42.417 697.867 41.3788 697.265 40.5068 696.518L39.2052 698.037ZM42.9718 700.202C44.2727 700.636 45.609 700.961 46.98 701.177L47.292 699.201C46.0283 699.002 44.7993 698.703 43.6042 698.305L42.9718 700.202ZM48.136 700.189L48.136 679.701L46.136 679.701L46.136 700.189L48.136 700.189ZM39.024 619.799L39.9941 620.041L40.2477 619.027L39.2232 618.819L39.024 619.799ZM37.984 624.687L38.9602 624.904L38.964 624.886L38.9673 624.869L37.984 624.687ZM37.672 634.255L38.6665 634.15L38.6642 634.128L38.6609 634.107L37.672 634.255ZM38.192 637.271L37.2342 637.558L37.448 638.271L38.192 638.271L38.192 637.271ZM80 637.271L81 637.271L81 636.271L80 636.271L80 637.271ZM80 652.767L80 653.767L81 653.767L81 652.767L80 652.767ZM28.208 652.767L27.2641 653.097L27.4985 653.767L28.208 653.767L28.208 652.767ZM25.504 642.991L26.4803 642.774L26.4772 642.761L25.504 642.991ZM24.36 627.287L25.3532 627.404L25.3566 627.375L25.3583 627.346L24.36 627.287ZM24.776 623.751L25.7608 623.925L25.7658 623.896L25.7692 623.868L24.776 623.751ZM25.4 620.215L26.3734 620.444L26.3799 620.416L26.3848 620.389L25.4 620.215ZM26.232 617.199L26.4312 616.219L25.6252 616.055L25.3089 616.814L26.232 617.199ZM38.0539 619.556C37.7009 620.968 37.35 622.619 37.0007 624.505L38.9673 624.869C39.3113 623.011 39.6538 621.403 39.9941 620.041L38.0539 619.556ZM37.0078 624.47C36.5742 626.421 36.36 628.505 36.36 630.719L38.36 630.719C38.36 628.634 38.5618 626.697 38.9602 624.904L37.0078 624.47ZM36.36 630.719C36.36 631.756 36.4706 632.987 36.6831 634.403L38.6609 634.107C38.4574 632.749 38.36 631.623 38.36 630.719L36.36 630.719ZM36.6775 634.36C36.8183 635.697 36.9993 636.775 37.2342 637.558L39.1498 636.984C38.9687 636.38 38.8031 635.448 38.6665 634.15L36.6775 634.36ZM38.192 638.271L80 638.271L80 636.271L38.192 636.271L38.192 638.271ZM79 637.271L79 652.767L81 652.767L81 637.271L79 637.271ZM80 651.767L28.208 651.767L28.208 653.767L80 653.767L80 651.767ZM29.1519 652.437C28.1974 649.71 27.3061 646.49 26.4802 642.774L24.5278 643.208C25.3659 646.979 26.2773 650.278 27.2641 653.097L29.1519 652.437ZM26.4772 642.761C25.5966 639.035 25.152 634.885 25.152 630.303L23.152 630.303C23.152 635.012 23.6087 639.32 24.5308 643.221L26.4772 642.761ZM25.152 630.303C25.152 629.522 25.2173 628.558 25.3532 627.404L23.3668 627.17C23.2254 628.373 23.152 629.419 23.152 630.303L25.152 630.303ZM25.3583 627.346C25.4253 626.206 25.5594 625.066 25.7608 623.925L23.7912 623.577C23.5766 624.793 23.4334 626.01 23.3617 627.228L25.3583 627.346ZM25.7692 623.868C25.9033 622.728 26.1046 621.586 26.3734 620.444L24.4266 619.986C24.1407 621.201 23.926 622.417 23.7829 623.634L25.7692 623.868ZM26.3848 620.389C26.5839 619.26 26.8441 618.33 27.1551 617.583L25.3089 616.814C24.9265 617.732 24.6321 618.812 24.4152 620.041L26.3848 620.389ZM26.0328 618.179L38.8248 620.779L39.2232 618.819L26.4312 616.219L26.0328 618.179ZM69.08 584.635L70.0788 584.586L69.08 584.635ZM68.768 581.307L69.7544 581.143L69.6151 580.307L68.768 580.307L68.768 581.307ZM57.016 581.307L57.016 580.307L56.2138 580.307L56.0398 581.091L57.016 581.307ZM56.704 591.708L57.6979 591.597L57.6953 591.574L57.6918 591.552L56.704 591.708ZM57.64 595.035L58.5344 594.588L57.64 595.035ZM67.832 595.764L68.6862 596.283L68.6993 596.262L68.7113 596.24L67.832 595.764ZM29.872 571.531L30.5525 572.264L30.5594 572.258L30.5661 572.251L29.872 571.531ZM36.944 567.579L36.6788 566.615L36.944 567.579ZM78.44 566.436L79.4169 566.222L79.2449 565.436L78.44 565.436L78.44 566.436ZM80.104 575.691L79.1162 575.847L79.1176 575.856L79.119 575.864L80.104 575.691ZM80.208 599.716L81.1848 599.93L81.1858 599.925L80.208 599.716ZM77.192 607.1L78.0112 607.673L78.0177 607.664L78.024 607.654L77.192 607.1ZM71.576 611.884L71.1397 610.984L71.576 611.884ZM55.04 611.676L54.5295 612.535L54.5395 612.541L54.5497 612.547L55.04 611.676ZM49.736 606.475L50.5886 605.953L49.736 606.475ZM46.928 599.091L47.9086 598.895L47.9062 598.884L47.9036 598.872L46.928 599.091ZM46.304 585.156L47.2948 585.291L47.2981 585.266L47.3002 585.242L46.304 585.156ZM46.928 581.307L47.8895 581.582L48.2537 580.307L46.928 580.307L46.928 581.307ZM37.36 599.82L38.351 599.686L38.3492 599.672L38.3471 599.659L37.36 599.82ZM38.92 606.475L39.0764 607.463L40.2815 607.272L39.8577 606.128L38.92 606.475ZM26.44 608.451L25.4842 608.746L25.7394 609.575L26.5964 609.439L26.44 608.451ZM25.608 605.124L26.5866 604.917L26.5827 604.899L26.5781 604.881L25.608 605.124ZM24.776 600.652L25.7676 600.522L25.7649 600.501L25.7612 600.48L24.776 600.652ZM24.152 595.66L25.1488 595.58L25.1474 595.562L25.1454 595.545L24.152 595.66ZM70.184 589.003C70.184 587.463 70.149 585.99 70.0788 584.586L68.0812 584.685C68.1497 586.054 68.184 587.493 68.184 589.003L70.184 589.003ZM70.0788 584.586C70.0086 583.182 69.9021 582.029 69.7544 581.143L67.7816 581.472C67.9112 582.25 68.0128 583.316 68.0812 584.685L70.0788 584.586ZM68.768 580.307L57.016 580.307L57.016 582.307L68.768 582.307L68.768 580.307ZM56.0398 581.091C55.8891 581.769 55.7457 582.748 55.6061 584.005L57.5939 584.226C57.7316 582.987 57.8656 582.094 57.9922 581.524L56.0398 581.091ZM55.6061 584.005C55.4642 585.283 55.392 586.464 55.392 587.548L57.392 587.548C57.392 586.551 57.4585 585.444 57.5939 584.226L55.6061 584.005ZM55.392 587.548C55.392 589.051 55.4994 590.49 55.7162 591.863L57.6918 591.552C57.4926 590.29 57.392 588.956 57.392 587.548L55.392 587.548ZM55.7101 591.818C55.8598 593.165 56.1999 594.391 56.7456 595.483L58.5344 594.588C58.1094 593.738 57.8255 592.746 57.6979 591.597L55.7101 591.818ZM56.7456 595.483C57.3019 596.595 58.0723 597.496 59.0613 598.156L60.1707 596.491C59.4957 596.041 58.9488 595.417 58.5344 594.588L56.7456 595.483ZM59.0613 598.156C60.0941 598.844 61.3397 599.156 62.736 599.156L62.736 597.156C61.6363 597.156 60.8019 596.912 60.1707 596.491L59.0613 598.156ZM62.736 599.156C65.3926 599.156 67.4797 598.265 68.6862 596.283L66.9778 595.244C66.2429 596.451 64.9327 597.156 62.736 597.156L62.736 599.156ZM68.7113 596.24C69.7218 594.374 70.184 591.936 70.184 589.003L68.184 589.003C68.184 591.757 67.7449 593.825 66.9527 595.287L68.7113 596.24ZM24.84 590.251C24.84 585.743 25.3534 582.047 26.3465 579.134L24.4535 578.489C23.3666 581.677 22.84 585.608 22.84 590.251L24.84 590.251ZM26.3465 579.134C27.3446 576.206 28.756 573.932 30.5525 572.264L29.1915 570.799C27.1054 572.736 25.5354 575.315 24.4535 578.489L26.3465 579.134ZM30.5661 572.251C32.3792 570.503 34.5859 569.265 37.2092 568.544L36.6788 566.615C33.7554 567.419 31.2475 568.816 29.1779 570.812L30.5661 572.251ZM37.2092 568.544C39.8822 567.809 42.8765 567.436 46.2 567.436L46.2 565.436C42.7288 565.436 39.5525 565.825 36.6788 566.615L37.2092 568.544ZM46.2 567.436L78.44 567.436L78.44 565.436L46.2 565.436L46.2 567.436ZM77.4631 566.649C77.9423 568.84 78.4934 571.903 79.1162 575.847L81.0918 575.536C80.4666 571.576 79.9084 568.469 79.4169 566.222L77.4631 566.649ZM79.119 575.864C79.7993 579.742 80.144 584.464 80.144 590.044L82.144 590.044C82.144 584.391 81.7954 579.545 81.089 575.519L79.119 575.864ZM80.144 590.044C80.144 593.522 79.837 596.674 79.2302 599.506L81.1858 599.925C81.827 596.933 82.144 593.637 82.144 590.044L80.144 590.044ZM79.2313 599.501C78.6296 602.242 77.6673 604.584 76.3599 606.545L78.024 607.654C79.49 605.455 80.5384 602.874 81.1847 599.93L79.2313 599.501ZM76.3728 606.526C75.0147 608.466 73.2746 609.949 71.1397 610.984L72.0123 612.783C74.4534 611.6 76.4573 609.893 78.0112 607.673L76.3728 606.526ZM71.1397 610.984C69.023 612.01 66.3737 612.548 63.152 612.548L63.152 614.548C66.5863 614.548 69.553 613.976 72.0123 612.783L71.1397 610.984ZM63.152 612.548C60.0916 612.548 57.5659 611.949 55.5303 610.804L54.5497 612.547C56.9514 613.898 59.8337 614.548 63.152 614.548L63.152 612.548ZM55.5505 610.816C53.4682 609.579 51.819 607.96 50.5886 605.953L48.8834 606.998C50.2877 609.289 52.1745 611.137 54.5295 612.535L55.5505 610.816ZM50.5886 605.953C49.3399 603.916 48.4429 601.567 47.9086 598.895L45.9474 599.288C46.5224 602.162 47.4975 604.737 48.8834 606.998L50.5886 605.953ZM47.9036 598.872C47.2966 596.174 46.992 593.371 46.992 590.46L44.992 590.46C44.992 593.511 45.3114 596.462 45.9524 599.311L47.9036 598.872ZM46.992 590.46C46.992 588.481 47.0945 586.76 47.2948 585.291L45.3132 585.02C45.0975 586.602 44.992 588.416 44.992 590.46L46.992 590.46ZM47.3002 585.242C47.4362 583.679 47.6368 582.467 47.8895 581.582L45.9665 581.033C45.6645 582.09 45.4492 583.443 45.3078 585.069L47.3002 585.242ZM46.928 580.307L45.472 580.307L45.472 582.307L46.928 582.307L46.928 580.307ZM45.472 580.307C42.6203 580.307 40.2346 581.179 38.4209 582.992L39.8351 584.407C41.2107 583.031 43.0544 582.307 45.472 582.307L45.472 580.307ZM38.4209 582.992C36.5395 584.874 35.736 587.987 35.736 592.02L37.736 592.02C37.736 588.148 38.5272 585.715 39.8351 584.407L38.4209 582.992ZM35.736 592.02C35.736 594.707 35.9482 597.361 36.3729 599.98L38.3471 599.659C37.9398 597.148 37.736 594.601 37.736 592.02L35.736 592.02ZM36.369 599.953C36.7228 602.571 37.2571 604.865 37.9823 606.823L39.8577 606.128C39.1962 604.342 38.6905 602.198 38.351 599.686L36.369 599.953ZM38.7636 605.488L26.2836 607.464L26.5964 609.439L39.0764 607.463L38.7636 605.488ZM27.3958 608.157C27.1302 607.294 26.86 606.217 26.5866 604.917L24.6295 605.33C24.9106 606.665 25.1951 607.806 25.4842 608.746L27.3958 608.157ZM26.5781 604.881C26.2419 603.536 25.9712 602.083 25.7676 600.522L23.7844 600.781C23.9968 602.409 24.2808 603.938 24.6379 605.366L26.5781 604.881ZM25.7612 600.48C25.4895 598.918 25.2852 597.285 25.1488 595.58L23.1552 595.739C23.2961 597.501 23.5078 599.196 23.7908 600.823L25.7612 600.48ZM25.1454 595.545C24.9418 593.78 24.84 592.016 24.84 590.251L22.84 590.251C22.84 592.093 22.9462 593.934 23.1586 595.774L25.1454 595.545ZM40.376 524.343L40.8905 525.201L40.9009 525.194L40.9111 525.188L40.376 524.343ZM37.464 533.911L38.4618 533.845L38.4596 533.812L38.4552 533.779L37.464 533.911ZM37.776 536.927L36.7861 537.069L36.9087 537.927L37.776 537.927L37.776 536.927ZM80 536.927L81 536.927L81 535.927L80 535.927L80 536.927ZM80 552.423L80 553.423L81 553.423L81 552.423L80 552.423ZM27.168 552.423L26.2009 552.678L26.3971 553.423L27.168 553.423L27.168 552.423ZM26.128 547.847L27.1086 547.651L27.1057 547.637L27.1024 547.622L26.128 547.847ZM25.088 542.231L26.078 542.09L26.0759 542.075L26.0735 542.061L25.088 542.231ZM24.36 536.095L25.3578 536.029L25.3567 536.012L25.355 535.996L24.36 536.095ZM25.608 520.391L26.5271 520.785L26.5338 520.769L26.54 520.754L25.608 520.391ZM29.144 514.255L29.8986 514.911L30.4179 514.314L29.956 513.671L29.144 514.255ZM25.4 506.663L24.4447 506.959L24.4468 506.965L25.4 506.663ZM25.92 487.943L26.8319 488.353L26.838 488.34L26.8437 488.326L25.92 487.943ZM31.016 481.183L30.416 480.383L30.416 480.383L31.016 481.183ZM80 476.815L81 476.815L81 475.815L80 475.815L80 476.815ZM80 492.311L80 493.311L81 493.311L81 492.311L80 492.311ZM40.376 494.287L40.8905 495.145L40.9009 495.138L40.9111 495.132L40.376 494.287ZM37.88 504.375L36.9152 504.638L36.9185 504.65L37.88 504.375ZM39.44 508.015L38.5988 508.556L39.0077 509.192L39.7312 508.972L39.44 508.015ZM44.536 507.079L44.6127 508.076L44.6157 508.076L44.536 507.079ZM80 506.871L81 506.871L81 505.871L80 505.871L80 506.871ZM80 522.367L80 523.367L81 523.367L81 522.367L80 522.367ZM50.984 521.367C45.9616 521.367 42.1764 522.019 39.8409 523.498L40.9111 525.188C42.7356 524.032 46.0224 523.367 50.984 523.367L50.984 521.367ZM39.8615 523.486C37.3932 524.967 36.256 527.539 36.256 530.895L38.256 530.895C38.256 528.011 39.1988 526.216 40.8905 525.201L39.8615 523.486ZM36.256 530.895C36.256 531.913 36.3287 532.963 36.4728 534.043L38.4552 533.779C38.3219 532.779 38.256 531.818 38.256 530.895L36.256 530.895ZM36.4662 533.978C36.5371 535.041 36.6436 536.072 36.7861 537.069L38.766 536.786C38.631 535.841 38.5296 534.861 38.4618 533.845L36.4662 533.978ZM37.776 537.927L80 537.927L80 535.927L37.776 535.927L37.776 537.927ZM79 536.927L79 552.423L81 552.423L81 536.927L79 536.927ZM80 551.423L27.168 551.423L27.168 553.423L80 553.423L80 551.423ZM28.1351 552.169C27.7947 550.875 27.4524 549.37 27.1086 547.651L25.1474 548.043C25.4969 549.791 25.8479 551.336 26.2009 552.678L28.1351 552.169ZM27.1024 547.622C26.6931 545.849 26.3515 544.005 26.078 542.09L24.0981 542.373C24.3791 544.34 24.7309 546.24 25.1536 548.072L27.1024 547.622ZM26.0735 542.061C25.7328 540.086 25.4942 538.075 25.3578 536.029L23.3622 536.162C23.5031 538.276 23.7498 540.355 24.1025 542.401L26.0735 542.061ZM25.355 535.996C25.1502 533.947 25.048 531.935 25.048 529.959L23.048 529.959C23.048 532.004 23.1538 534.083 23.365 536.195L25.355 535.996ZM25.048 529.959C25.048 526.081 25.5602 523.041 26.5271 520.785L24.6889 519.997C23.5758 522.594 23.048 525.933 23.048 529.959L25.048 529.959ZM26.54 520.754C27.4796 518.338 28.6047 516.399 29.8986 514.911L28.3894 513.599C26.91 515.3 25.6778 517.453 24.676 520.029L26.54 520.754ZM29.956 513.671C28.4284 511.546 27.2256 509.112 26.3532 506.361L24.4468 506.965C25.3771 509.9 26.6703 512.527 28.332 514.839L29.956 513.671ZM26.3553 506.367C25.4764 503.528 25.048 500.96 25.048 498.655L23.048 498.655C23.048 501.204 23.521 503.974 24.4447 506.959L26.3553 506.367ZM25.048 498.655C25.048 494.372 25.6615 490.954 26.8319 488.353L25.0081 487.533C23.6824 490.479 23.048 494.203 23.048 498.655L25.048 498.655ZM26.8437 488.326C27.9615 485.63 29.556 483.528 31.616 481.983L30.416 480.383C28.0387 482.166 26.2358 484.571 24.9963 487.56L26.8437 488.326ZM31.616 481.983C33.7026 480.418 36.1967 479.329 39.1204 478.731L38.7196 476.771C35.542 477.421 32.7667 478.62 30.416 480.383L31.616 481.983ZM39.1204 478.731C42.0935 478.123 45.4223 477.815 49.112 477.815L49.112 475.815C45.3137 475.815 41.8479 476.132 38.7196 476.771L39.1204 478.731ZM49.112 477.815L80 477.815L80 475.815L49.112 475.815L49.112 477.815ZM79 476.815L79 492.311L81 492.311L81 476.815L79 476.815ZM80 491.311L50.984 491.311L50.984 493.311L80 493.311L80 491.311ZM50.984 491.311C45.9616 491.311 42.1764 491.963 39.8409 493.442L40.9111 495.132C42.7356 493.976 46.0224 493.311 50.984 493.311L50.984 491.311ZM39.8615 493.43C37.3932 494.911 36.256 497.483 36.256 500.839L38.256 500.839C38.256 497.955 39.1988 496.16 40.8905 495.145L39.8615 493.43ZM36.256 500.839C36.256 501.807 36.4928 503.089 36.9152 504.638L38.8448 504.112C38.4352 502.61 38.256 501.535 38.256 500.839L36.256 500.839ZM36.9185 504.65C37.3535 506.172 37.9084 507.482 38.5988 508.556L40.2812 507.474C39.7236 506.607 39.2385 505.49 38.8415 504.1L36.9185 504.65ZM39.7312 508.972C41.2504 508.509 42.8767 508.21 44.6127 508.076L44.4593 506.082C42.59 506.226 40.8189 506.55 39.1488 507.058L39.7312 508.972ZM44.6157 508.076C46.3188 507.94 48.1639 507.871 50.152 507.871L50.152 505.871C48.1187 505.871 46.2198 505.941 44.4563 506.082L44.6157 508.076ZM50.152 507.871L80 507.871L80 505.871L50.152 505.871L50.152 507.871ZM79 506.871L79 522.367L81 522.367L81 506.871L79 506.871ZM80 521.367L50.984 521.367L50.984 523.367L80 523.367L80 521.367ZM80 447.247L81 447.247L81 446.247L80 446.247L80 447.247ZM80 462.743L80 463.743L81 463.743L81 462.743L80 462.743ZM25.296 462.743L24.296 462.743L24.296 463.743L25.296 463.743L25.296 462.743ZM25.296 447.247L25.296 446.247L24.296 446.247L24.296 447.247L25.296 447.247ZM16.248 448.599L16.997 447.937L16.9954 447.935L16.248 448.599ZM16.248 461.599L16.9828 462.278L16.9963 462.263L17.0092 462.248L16.248 461.599ZM2.832 461.599L3.581 460.937L3.57941 460.935L2.832 461.599ZM2.832 448.599L3.5668 449.278L3.58032 449.263L3.59324 449.248L2.832 448.599ZM79 447.247L79 462.743L81 462.743L81 447.247L79 447.247ZM80 461.743L25.296 461.743L25.296 463.743L80 463.743L80 461.743ZM26.296 462.743L26.296 447.247L24.296 447.247L24.296 462.743L26.296 462.743ZM25.296 448.247L80 448.247L80 446.247L25.296 446.247L25.296 448.247ZM9.488 446.791C12.0878 446.791 14.053 447.635 15.5006 449.264L16.9954 447.935C15.115 445.82 12.5735 444.791 9.488 444.791L9.488 446.791ZM15.499 449.262C16.9255 450.875 17.64 452.786 17.64 455.047L19.64 455.047C19.64 452.317 18.7598 449.93 16.997 447.937L15.499 449.262ZM17.64 455.047C17.64 457.31 16.9248 459.263 15.4868 460.951L17.0092 462.248C18.7605 460.192 19.64 457.777 19.64 455.047L17.64 455.047ZM15.5132 460.921C14.0691 462.486 12.1001 463.303 9.488 463.303L9.488 465.303C12.5612 465.303 15.0989 464.319 16.9828 462.278L15.5132 460.921ZM9.488 463.303C6.87487 463.303 4.95114 462.486 3.581 460.937L2.083 462.262C3.9022 464.318 6.4158 465.303 9.488 465.303L9.488 463.303ZM3.57941 460.935C2.0775 459.245 1.336 457.298 1.336 455.047L-0.663999 455.047C-0.663999 457.789 0.258503 460.209 2.08459 462.264L3.57941 460.935ZM1.336 455.047C1.336 452.798 2.07658 450.892 3.5668 449.278L2.09719 447.921C0.259421 449.912 -0.663999 452.305 -0.663999 455.047L1.336 455.047ZM3.59324 449.248C4.96727 447.635 6.88752 446.791 9.488 446.791L9.488 444.791C6.40315 444.791 3.88607 445.82 2.07076 447.951L3.59324 449.248ZM41.52 433.409L41.1709 434.346L41.1813 434.35L41.52 433.409ZM32.368 427.793L33.0553 427.066L33.0455 427.057L32.368 427.793ZM26.128 418.953L27.0433 418.55L26.128 418.953ZM24.672 399.089L25.6469 399.312L25.6499 399.298L25.6526 399.285L24.672 399.089ZM26.856 392.017L27.1081 391.049L26.2726 390.832L25.9354 391.626L26.856 392.017ZM39.232 395.241L40.1665 395.597L40.5636 394.554L39.4841 394.273L39.232 395.241ZM37.776 400.025L38.7484 400.258L37.776 400.025ZM41.416 416.145L40.789 416.924L40.7948 416.929L40.8007 416.933L41.416 416.145ZM64.088 416.353L64.6977 417.146L64.704 417.141L64.7102 417.136L64.088 416.353ZM67.624 399.193L68.6112 399.034L67.624 399.193ZM65.96 393.265L65.7904 392.279L64.5477 392.493L65.039 393.655L65.96 393.265ZM78.648 391.081L79.569 390.691L79.26 389.961L78.4784 390.095L78.648 391.081ZM80.624 397.841L79.6444 398.042L80.624 397.841ZM79.272 419.681L80.193 420.071L80.1962 420.063L80.1992 420.055L79.272 419.681ZM73.136 428.625L73.8016 429.371L73.8072 429.366L73.8126 429.361L73.136 428.625ZM64.088 433.721L64.3702 434.68L64.3815 434.677L64.3928 434.673L64.088 433.721ZM52.648 434.281C48.8031 434.281 45.2091 433.674 41.8587 432.468L41.1813 434.35C44.7642 435.64 48.5889 436.281 52.648 436.281L52.648 434.281ZM41.8691 432.472C38.4501 431.198 35.5166 429.395 33.0552 427.066L31.6808 428.519C34.3501 431.044 37.5179 432.985 41.1709 434.346L41.8691 432.472ZM33.0455 427.057C30.5179 424.729 28.5164 421.898 27.0433 418.55L25.2127 419.356C26.7903 422.941 28.9487 426.003 31.6905 428.528L33.0455 427.057ZM27.0433 418.55C25.5826 415.23 24.84 411.419 24.84 407.097L22.84 407.097C22.84 411.649 23.6228 415.742 25.2127 419.356L27.0433 418.55ZM24.84 407.097C24.84 404.248 25.1114 401.654 25.6469 399.312L23.6971 398.866C23.1232 401.377 22.84 404.122 22.84 407.097L24.84 407.097ZM25.6526 399.285C26.1245 396.925 26.8324 394.633 27.7766 392.407L25.9354 391.626C24.9383 393.977 24.1901 396.399 23.6914 398.893L25.6526 399.285ZM26.6039 392.985L38.9799 396.209L39.4841 394.273L27.1081 391.049L26.6039 392.985ZM38.2975 394.885C37.7256 396.386 37.2282 398.022 36.8036 399.792L38.7484 400.258C39.1558 398.561 39.6291 397.008 40.1665 395.597L38.2975 394.885ZM36.8036 399.792C36.366 401.615 36.152 403.637 36.152 405.849L38.152 405.849C38.152 403.763 38.354 401.901 38.7484 400.258L36.8036 399.792ZM36.152 405.849C36.152 410.644 37.6519 414.399 40.789 416.924L42.043 415.366C39.4947 413.315 38.152 410.206 38.152 405.849L36.152 405.849ZM40.8007 416.933C43.8643 419.324 47.8446 420.473 52.648 420.473L52.648 418.473C48.1607 418.473 44.6531 417.403 42.0313 415.357L40.8007 416.933ZM52.648 420.473C57.6967 420.473 61.7564 419.408 64.6977 417.146L63.4783 415.56C61.0116 417.458 57.4447 418.473 52.648 418.473L52.648 420.473ZM64.7102 417.136C67.7567 414.714 69.144 410.636 69.144 405.225L67.144 405.225C67.144 410.353 65.8273 413.693 63.4658 415.57L64.7102 417.136ZM69.144 405.225C69.144 403.292 68.9651 401.227 68.6112 399.034L66.6368 399.352C66.9763 401.457 67.144 403.414 67.144 405.225L69.144 405.225ZM68.6112 399.034C68.2532 396.814 67.6782 394.76 66.881 392.875L65.039 393.655C65.7672 395.376 66.3015 397.273 66.6368 399.352L68.6112 399.034ZM66.1296 394.25L78.8176 392.066L78.4784 390.095L65.7904 392.279L66.1296 394.25ZM77.727 391.471C78.4559 393.193 79.0981 395.379 79.6444 398.042L81.6036 397.64C81.0406 394.895 80.3654 392.574 79.569 390.691L77.727 391.471ZM79.6444 398.042C80.1833 400.669 80.456 403.582 80.456 406.785L82.456 406.785C82.456 403.47 82.174 400.421 81.6036 397.64L79.6444 398.042ZM80.456 406.785C80.456 411.683 79.7412 415.849 78.3448 419.306L80.1992 420.055C81.7148 416.303 82.456 411.87 82.456 406.785L80.456 406.785ZM78.351 419.291C76.8745 422.781 74.9071 425.639 72.4594 427.889L73.8126 429.361C76.4956 426.896 78.6188 423.791 80.193 420.071L78.351 419.291ZM72.4704 427.879C70.0157 430.068 67.1245 431.699 63.7832 432.769L64.3928 434.673C67.9848 433.524 71.1257 431.758 73.8016 429.371L72.4704 427.879ZM63.8058 432.762C60.3709 433.772 56.6535 434.281 52.648 434.281L52.648 436.281C56.8238 436.281 60.7331 435.75 64.3702 434.68L63.8058 432.762ZM41.52 356.425L41.1709 357.362L41.1813 357.365L41.52 356.425ZM32.368 350.809L33.0553 350.082L33.0455 350.073L32.368 350.809ZM26.128 341.969L27.0433 341.566L26.128 341.969ZM24.672 322.105L25.6469 322.327L25.6499 322.314L25.6526 322.301L24.672 322.105ZM26.856 315.033L27.1081 314.065L26.2726 313.847L25.9354 314.642L26.856 315.033ZM39.232 318.257L40.1665 318.613L40.5636 317.57L39.4841 317.289L39.232 318.257ZM37.776 323.041L38.7484 323.274L37.776 323.041ZM41.416 339.161L40.789 339.94L40.7948 339.944L40.8007 339.949L41.416 339.161ZM64.088 339.369L64.6977 340.161L64.704 340.156L64.7102 340.151L64.088 339.369ZM67.624 322.209L68.6112 322.049L67.624 322.209ZM65.96 316.281L65.7904 315.295L64.5477 315.509L65.039 316.67L65.96 316.281ZM78.648 314.097L79.569 313.707L79.26 312.977L78.4784 313.111L78.648 314.097ZM80.624 320.857L79.6444 321.057L80.624 320.857ZM79.272 342.697L80.193 343.086L80.1962 343.079L80.1992 343.071L79.272 342.697ZM73.136 351.641L73.8016 352.387L73.8072 352.382L73.8126 352.377L73.136 351.641ZM64.088 356.737L64.3702 357.696L64.3815 357.693L64.3928 357.689L64.088 356.737ZM52.648 357.297C48.8031 357.297 45.2091 356.69 41.8587 355.484L41.1813 357.365C44.7642 358.655 48.5889 359.297 52.648 359.297L52.648 357.297ZM41.8691 355.487C38.4501 354.214 35.5166 352.41 33.0552 350.082L31.6808 351.535C34.3501 354.06 37.5179 356.001 41.1709 357.362L41.8691 355.487ZM33.0455 350.073C30.5179 347.745 28.5164 344.914 27.0433 341.566L25.2127 342.371C26.7903 345.957 28.9487 349.019 31.6905 351.544L33.0455 350.073ZM27.0433 341.566C25.5826 338.246 24.84 334.435 24.84 330.113L22.84 330.113C22.84 334.665 23.6228 338.758 25.2127 342.371L27.0433 341.566ZM24.84 330.113C24.84 327.263 25.1114 324.67 25.6469 322.327L23.6971 321.882C23.1232 324.393 22.84 327.138 22.84 330.113L24.84 330.113ZM25.6526 322.301C26.1245 319.941 26.8324 317.649 27.7766 315.423L25.9354 314.642C24.9383 316.992 24.1901 319.415 23.6914 321.908L25.6526 322.301ZM26.6039 316L38.9799 319.224L39.4841 317.289L27.1081 314.065L26.6039 316ZM38.2975 317.901C37.7256 319.402 37.2282 321.038 36.8036 322.807L38.7484 323.274C39.1558 321.576 39.6291 320.023 40.1665 318.613L38.2975 317.901ZM36.8036 322.807C36.366 324.631 36.152 326.652 36.152 328.865L38.152 328.865C38.152 326.778 38.354 324.917 38.7484 323.274L36.8036 322.807ZM36.152 328.865C36.152 333.659 37.6519 337.415 40.789 339.94L42.043 338.382C39.4947 336.331 38.152 333.222 38.152 328.865L36.152 328.865ZM40.8007 339.949C43.8643 342.34 47.8446 343.489 52.648 343.489L52.648 341.489C48.1607 341.489 44.6531 340.419 42.0313 338.372L40.8007 339.949ZM52.648 343.489C57.6967 343.489 61.7564 342.424 64.6977 340.161L63.4783 338.576C61.0116 340.473 57.4447 341.489 52.648 341.489L52.648 343.489ZM64.7102 340.151C67.7567 337.73 69.144 333.652 69.144 328.241L67.144 328.241C67.144 333.368 65.8273 336.709 63.4658 338.586L64.7102 340.151ZM69.144 328.241C69.144 326.307 68.9651 324.243 68.6112 322.049L66.6368 322.368C66.9763 324.473 67.144 326.43 67.144 328.241L69.144 328.241ZM68.6112 322.049C68.2532 319.83 67.6782 317.775 66.881 315.891L65.039 316.67C65.7672 318.391 66.3015 320.289 66.6368 322.368L68.6112 322.049ZM66.1296 317.266L78.8176 315.082L78.4784 313.111L65.7904 315.295L66.1296 317.266ZM77.727 314.486C78.4559 316.209 79.0981 318.394 79.6444 321.057L81.6036 320.656C81.0406 317.911 80.3654 315.589 79.569 313.707L77.727 314.486ZM79.6444 321.057C80.1833 323.685 80.456 326.598 80.456 329.801L82.456 329.801C82.456 326.486 82.174 323.436 81.6036 320.656L79.6444 321.057ZM80.456 329.801C80.456 334.699 79.7412 338.864 78.3448 342.322L80.1992 343.071C81.7148 339.318 82.456 334.886 82.456 329.801L80.456 329.801ZM78.351 342.307C76.8745 345.797 74.9071 348.655 72.4594 350.904L73.8126 352.377C76.4956 349.911 78.6188 346.807 80.193 343.086L78.351 342.307ZM72.4704 350.894C70.0157 353.084 67.1245 354.715 63.7832 355.784L64.3928 357.689C67.9848 356.54 71.1257 354.773 73.8016 352.387L72.4704 350.894ZM63.8058 355.777C60.3709 356.787 56.6535 357.297 52.648 357.297L52.648 359.297C56.8238 359.297 60.7331 358.766 64.3702 357.696L63.8058 355.777ZM64.4 257.041L64.7328 256.098L64.7271 256.096L64.4 257.041ZM73.552 262.449L74.2387 261.722L74.2286 261.713L73.552 262.449ZM79.376 270.977L78.4529 271.362L78.4559 271.369L79.376 270.977ZM79.376 293.025L80.2962 293.417L80.2991 293.41L79.376 293.025ZM73.552 301.449L74.2287 302.186L74.2386 302.176L73.552 301.449ZM64.4 306.961L64.7432 307.9L64.7491 307.898L64.4 306.961ZM40.792 306.961L40.4269 307.892L40.4349 307.895L40.4429 307.898L40.792 306.961ZM31.744 301.345L31.0469 302.062L31.0521 302.067L31.0574 302.072L31.744 301.345ZM25.92 292.817L24.9969 293.202L24.9998 293.209L25.92 292.817ZM25.92 271.185L26.8402 271.577L26.8431 271.57L25.92 271.185ZM31.744 262.657L32.4306 263.384L31.744 262.657ZM40.792 257.145L41.1411 258.082L40.792 257.145ZM41.312 273.889L41.8715 274.718L41.8835 274.71L41.8952 274.702L41.312 273.889ZM41.312 290.217L41.8953 289.405L41.8855 289.398L41.312 290.217ZM63.984 290.217L64.548 291.043L64.5575 291.036L63.984 290.217ZM63.984 273.889L63.42 274.715L63.4245 274.718L63.984 273.889ZM52.544 256.169C56.7453 256.169 60.5852 256.779 64.0729 257.986L64.7271 256.096C61.0041 254.807 56.9401 254.169 52.544 254.169L52.544 256.169ZM64.0672 257.984C67.4856 259.191 70.4169 260.926 72.8754 263.185L74.2286 261.713C71.5564 259.257 68.3864 257.388 64.7328 256.098L64.0672 257.984ZM72.8654 263.176C75.2543 265.432 77.1174 268.157 78.4529 271.362L80.2991 270.593C78.8612 267.142 76.8417 264.181 74.2386 261.722L72.8654 263.176ZM78.4559 271.369C79.7823 274.486 80.456 278.024 80.456 282.001L82.456 282.001C82.456 277.797 81.7431 273.986 80.2962 270.586L78.4559 271.369ZM80.456 282.001C80.456 285.906 79.7833 289.448 78.4529 292.641L80.2991 293.41C81.7421 289.947 82.456 286.139 82.456 282.001L80.456 282.001ZM78.4559 292.634C77.1214 295.77 75.2581 298.462 72.8654 300.722L74.2386 302.176C76.8379 299.721 78.8573 296.798 80.2962 293.417L78.4559 292.634ZM72.8754 300.713C70.4129 302.976 67.4759 304.748 64.0509 306.024L64.7491 307.898C68.3961 306.54 71.5605 304.637 74.2286 302.186L72.8754 300.713ZM64.0568 306.022C60.5738 307.295 56.7395 307.937 52.544 307.937L52.544 309.937C56.9458 309.937 61.0155 309.262 64.7432 307.9L64.0568 306.022ZM52.544 307.937C48.3481 307.937 44.551 307.294 41.1411 306.024L40.4429 307.898C44.105 309.263 48.1426 309.937 52.544 309.937L52.544 307.937ZM41.1571 306.03C37.7277 304.685 34.8241 302.879 32.4306 300.618L31.0574 302.072C33.6559 304.526 36.7843 306.464 40.4269 307.892L41.1571 306.03ZM32.4411 300.628C30.042 298.296 28.1757 295.564 26.8402 292.426L24.9998 293.209C26.4376 296.587 28.454 299.541 31.0469 302.062L32.4411 300.628ZM26.8431 292.433C25.511 289.236 24.84 285.762 24.84 282.001L22.84 282.001C22.84 286.006 23.5557 289.743 24.9969 293.202L26.8431 292.433ZM24.84 282.001C24.84 278.168 25.512 274.698 26.8402 271.577L24.9998 270.794C23.5547 274.19 22.84 277.93 22.84 282.001L24.84 282.001ZM26.8431 271.57C28.1786 268.365 30.0417 265.64 32.4306 263.384L31.0574 261.93C28.4543 264.389 26.4348 267.35 24.9969 270.801L26.8431 271.57ZM32.4306 263.384C34.8201 261.128 37.7181 259.358 41.1411 258.082L40.4429 256.208C36.794 257.568 33.6599 259.472 31.0574 261.93L32.4306 263.384ZM41.1411 258.082C44.551 256.812 48.3481 256.169 52.544 256.169L52.544 254.169C48.1426 254.169 44.105 254.844 40.4429 256.208L41.1411 258.082ZM52.544 269.977C47.6387 269.977 43.6625 270.971 40.7288 273.077L41.8952 274.702C44.3695 272.925 47.8813 271.977 52.544 271.977L52.544 269.977ZM40.7525 273.06C37.6856 275.13 36.152 278.155 36.152 282.001L38.152 282.001C38.152 278.775 39.3917 276.392 41.8715 274.718L40.7525 273.06ZM36.152 282.001C36.152 285.846 37.6841 288.898 40.7385 291.036L41.8855 289.398C39.3933 287.653 38.152 285.228 38.152 282.001L36.152 282.001ZM40.7288 291.03C43.6625 293.136 47.6387 294.129 52.544 294.129L52.544 292.129C47.8813 292.129 44.3695 291.181 41.8952 289.405L40.7288 291.03ZM52.544 294.129C57.4533 294.129 61.4859 293.134 64.548 291.043L63.42 289.391C60.7968 291.183 57.2027 292.129 52.544 292.129L52.544 294.129ZM64.5575 291.036C67.6119 288.898 69.144 285.846 69.144 282.001L67.144 282.001C67.144 285.228 65.9027 287.653 63.4105 289.398L64.5575 291.036ZM69.144 282.001C69.144 278.155 67.6104 275.13 64.5435 273.06L63.4245 274.718C65.9043 276.392 67.144 278.775 67.144 282.001L69.144 282.001ZM64.548 273.063C61.4859 270.972 57.4533 269.977 52.544 269.977L52.544 271.977C57.2027 271.977 60.7968 272.924 63.42 274.715L64.548 273.063ZM69.08 217.893L70.0788 217.843L69.08 217.893ZM68.768 214.565L69.7544 214.401L69.6151 213.565L68.768 213.565L68.768 214.565ZM57.016 214.565L57.016 213.565L56.2138 213.565L56.0398 214.348L57.016 214.565ZM56.704 224.965L57.6979 224.855L57.6953 224.832L57.6918 224.809L56.704 224.965ZM57.64 228.293L58.5344 227.846L57.64 228.293ZM67.832 229.021L68.6862 229.541L68.6993 229.52L68.7113 229.498L67.832 229.021ZM29.872 204.789L30.5525 205.522L30.5594 205.516L30.5661 205.509L29.872 204.789ZM36.944 200.837L36.6788 199.873L36.944 200.837ZM78.44 199.693L79.4169 199.48L79.2449 198.693L78.44 198.693L78.44 199.693ZM80.104 208.949L79.1162 209.105L79.1176 209.114L79.119 209.122L80.104 208.949ZM80.208 232.973L81.1848 233.188L81.1858 233.183L80.208 232.973ZM77.192 240.357L78.0112 240.931L78.0178 240.921L78.0241 240.912L77.192 240.357ZM71.576 245.141L71.1397 244.242L71.576 245.141ZM55.04 244.933L54.5295 245.793L54.5395 245.799L54.5497 245.805L55.04 244.933ZM49.736 239.733L50.5886 239.211L49.736 239.733ZM46.928 232.349L47.9086 232.153L47.9062 232.141L47.9036 232.13L46.928 232.349ZM46.304 218.413L47.2948 218.548L47.2981 218.524L47.3002 218.5L46.304 218.413ZM46.928 214.565L47.8895 214.84L48.2537 213.565L46.928 213.565L46.928 214.565ZM37.36 233.077L38.351 232.943L38.3492 232.93L38.3471 232.917L37.36 233.077ZM38.92 239.733L39.0764 240.721L40.2815 240.53L39.8578 239.386L38.92 239.733ZM26.44 241.709L25.4842 242.003L25.7394 242.833L26.5964 242.697L26.44 241.709ZM25.608 238.381L26.5866 238.175L26.5827 238.157L26.5782 238.139L25.608 238.381ZM24.776 233.909L25.7676 233.78L25.7649 233.759L25.7612 233.738L24.776 233.909ZM24.152 228.917L25.1488 228.838L25.1474 228.82L25.1454 228.803L24.152 228.917ZM70.184 222.261C70.184 220.721 70.149 219.248 70.0788 217.843L68.0813 217.943C68.1497 219.312 68.184 220.751 68.184 222.261L70.184 222.261ZM70.0788 217.843C70.0086 216.439 69.9021 215.287 69.7544 214.401L67.7816 214.73C67.9113 215.508 68.0128 216.574 68.0813 217.943L70.0788 217.843ZM68.768 213.565L57.016 213.565L57.016 215.565L68.768 215.565L68.768 213.565ZM56.0398 214.348C55.8891 215.027 55.7457 216.006 55.6061 217.263L57.5939 217.484C57.7316 216.244 57.8656 215.352 57.9922 214.782L56.0398 214.348ZM55.6061 217.263C55.4642 218.54 55.392 219.722 55.392 220.805L57.392 220.805C57.392 219.809 57.4585 218.702 57.5939 217.484L55.6061 217.263ZM55.392 220.805C55.392 222.309 55.4994 223.748 55.7162 225.121L57.6918 224.809C57.4926 223.548 57.392 222.214 57.392 220.805L55.392 220.805ZM55.7101 225.076C55.8598 226.423 56.1999 227.649 56.7456 228.741L58.5344 227.846C58.1094 226.996 57.8255 226.004 57.6979 224.855L55.7101 225.076ZM56.7456 228.741C57.3019 229.853 58.0723 230.754 59.0613 231.413L60.1707 229.749C59.4957 229.299 58.9488 228.675 58.5344 227.846L56.7456 228.741ZM59.0613 231.413C60.0941 232.102 61.3397 232.413 62.736 232.413L62.736 230.413C61.6363 230.413 60.8019 230.17 60.1707 229.749L59.0613 231.413ZM62.736 232.413C65.3926 232.413 67.4798 231.523 68.6862 229.541L66.9778 228.501C66.2429 229.709 64.9327 230.413 62.736 230.413L62.736 232.413ZM68.7113 229.498C69.7218 227.632 70.184 225.193 70.184 222.261L68.184 222.261C68.184 225.015 67.7449 227.083 66.9527 228.545L68.7113 229.498ZM24.84 223.509C24.84 219.001 25.3534 215.305 26.3465 212.392L24.4535 211.747C23.3666 214.935 22.84 218.866 22.84 223.509L24.84 223.509ZM26.3465 212.392C27.3446 209.464 28.756 207.19 30.5525 205.522L29.1916 204.057C27.1054 205.994 25.5354 208.573 24.4535 211.747L26.3465 212.392ZM30.5661 205.509C32.3792 203.761 34.5859 202.523 37.2092 201.802L36.6788 199.873C33.7554 200.677 31.2475 202.074 29.1779 204.069L30.5661 205.509ZM37.2092 201.802C39.8822 201.066 42.8766 200.693 46.2 200.693L46.2 198.693C42.7288 198.693 39.5525 199.083 36.6788 199.873L37.2092 201.802ZM46.2 200.693L78.44 200.693L78.44 198.693L46.2 198.693L46.2 200.693ZM77.4631 199.907C77.9423 202.097 78.4934 205.16 79.1162 209.105L81.0918 208.793C80.4666 204.834 79.9084 201.727 79.4169 199.48L77.4631 199.907ZM79.119 209.122C79.7993 213 80.144 217.722 80.144 223.301L82.144 223.301C82.144 217.648 81.7954 212.803 81.089 208.776L79.119 209.122ZM80.144 223.301C80.144 226.78 79.837 229.932 79.2302 232.764L81.1858 233.183C81.827 230.191 82.144 226.895 82.144 223.301L80.144 223.301ZM79.2313 232.759C78.6296 235.5 77.6673 237.842 76.36 239.803L78.0241 240.912C79.49 238.713 80.5384 236.132 81.1848 233.188L79.2313 232.759ZM76.3728 239.784C75.0147 241.724 73.2746 243.206 71.1397 244.242L72.0123 246.041C74.4534 244.858 76.4573 243.151 78.0112 240.931L76.3728 239.784ZM71.1397 244.242C69.023 245.268 66.3737 245.805 63.152 245.805L63.152 247.805C66.5863 247.805 69.553 247.234 72.0123 246.041L71.1397 244.242ZM63.152 245.805C60.0916 245.805 57.5659 245.207 55.5303 244.062L54.5497 245.805C56.9514 247.156 59.8337 247.805 63.152 247.805L63.152 245.805ZM55.5505 244.073C53.4682 242.837 51.819 241.218 50.5886 239.211L48.8834 240.256C50.2877 242.547 52.1745 244.395 54.5295 245.793L55.5505 244.073ZM50.5886 239.211C49.3399 237.173 48.4429 234.825 47.9086 232.153L45.9474 232.545C46.5224 235.42 47.4975 237.995 48.8834 240.256L50.5886 239.211ZM47.9036 232.13C47.2966 229.432 46.992 226.628 46.992 223.717L44.992 223.717C44.992 226.769 45.3114 229.72 45.9524 232.569L47.9036 232.13ZM46.992 223.717C46.992 221.739 47.0945 220.018 47.2948 218.548L45.3132 218.278C45.0975 219.859 44.992 221.674 44.992 223.717L46.992 223.717ZM47.3002 218.5C47.4362 216.937 47.6368 215.724 47.8895 214.84L45.9665 214.291C45.6645 215.348 45.4492 216.701 45.3078 218.327L47.3002 218.5ZM46.928 213.565L45.472 213.565L45.472 215.565L46.928 215.565L46.928 213.565ZM45.472 213.565C42.6203 213.565 40.2346 214.436 38.4209 216.25L39.8351 217.664C41.2107 216.289 43.0544 215.565 45.472 215.565L45.472 213.565ZM38.4209 216.25C36.5395 218.132 35.736 221.245 35.736 225.277L37.736 225.277C37.736 221.406 38.5272 218.972 39.8351 217.664L38.4209 216.25ZM35.736 225.277C35.736 227.965 35.9482 230.618 36.3729 233.237L38.3471 232.917C37.9398 230.406 37.736 227.859 37.736 225.277L35.736 225.277ZM36.369 233.211C36.7228 235.829 37.2572 238.123 37.9823 240.081L39.8578 239.386C39.1962 237.6 38.6905 235.456 38.351 232.943L36.369 233.211ZM38.7636 238.746L26.2836 240.722L26.5964 242.697L39.0764 240.721L38.7636 238.746ZM27.3958 241.415C27.1302 240.552 26.86 239.474 26.5866 238.175L24.6295 238.587C24.9106 239.923 25.1951 241.064 25.4842 242.003L27.3958 241.415ZM26.5782 238.139C26.2419 236.794 25.9712 235.341 25.7676 233.78L23.7844 234.039C23.9968 235.667 24.2808 237.196 24.6379 238.624L26.5782 238.139ZM25.7612 233.738C25.4895 232.176 25.2852 230.542 25.1488 228.838L23.1552 228.997C23.2961 230.759 23.5078 232.453 23.7908 234.081L25.7612 233.738ZM25.1454 228.803C24.9418 227.038 24.84 225.273 24.84 223.509L22.84 223.509C22.84 225.351 22.9462 227.191 23.1586 229.032L25.1454 228.803ZM11.672 186.201L10.6847 186.36L10.8202 187.201L11.672 187.201L11.672 186.201ZM9.176 170.705L9.176 169.705L8.00204 169.705L8.18873 170.864L9.176 170.705ZM25.296 170.705L25.296 171.705L26.296 171.705L26.296 170.705L25.296 170.705ZM25.296 152.089L25.296 151.089L24.296 151.089L24.296 152.089L25.296 152.089ZM38.192 152.089L39.192 152.089L39.192 151.089L38.192 151.089L38.192 152.089ZM38.192 170.705L37.192 170.705L37.192 171.705L38.192 171.705L38.192 170.705ZM65.232 169.041L65.7281 169.909L65.7397 169.903L65.751 169.896L65.232 169.041ZM67.728 156.977L68.7154 156.819L68.713 156.803L68.71 156.788L67.728 156.977ZM66.376 152.089L66.1979 151.105L65.0128 151.319L65.4415 152.445L66.376 152.089ZM78.44 149.905L79.3661 149.528L79.0601 148.776L78.2619 148.921L78.44 149.905ZM80.416 156.145L79.4442 156.381L80.416 156.145ZM79.584 175.073L80.5043 175.464L80.5085 175.454L80.5125 175.444L79.584 175.073ZM74.8 181.729L75.4247 182.51L75.4312 182.505L75.4376 182.499L74.8 181.729ZM67.312 185.265L67.5215 186.243L67.5326 186.24L67.5436 186.238L67.312 185.265ZM12.6593 186.042L10.1633 170.546L8.18873 170.864L10.6847 186.36L12.6593 186.042ZM9.176 171.705L25.296 171.705L25.296 169.705L9.176 169.705L9.176 171.705ZM26.296 170.705L26.296 152.089L24.296 152.089L24.296 170.705L26.296 170.705ZM25.296 153.089L38.192 153.089L38.192 151.089L25.296 151.089L25.296 153.089ZM37.192 152.089L37.192 170.705L39.192 170.705L39.192 152.089L37.192 152.089ZM38.192 171.705L57.432 171.705L57.432 169.705L38.192 169.705L38.192 171.705ZM57.432 171.705C60.7903 171.705 63.5821 171.135 65.7281 169.909L64.7359 168.173C62.9993 169.165 60.5911 169.705 57.432 169.705L57.432 171.705ZM65.751 169.896C68.1275 168.453 69.144 165.692 69.144 162.073L67.144 162.073C67.144 165.387 66.2192 167.272 64.713 168.186L65.751 169.896ZM69.144 162.073C69.144 160.353 69.0007 158.602 68.7154 156.819L66.7406 157.135C67.01 158.819 67.144 160.465 67.144 162.073L69.144 162.073ZM68.71 156.788C68.3543 154.938 67.8891 153.252 67.3105 151.733L65.4415 152.445C65.9723 153.838 66.4084 155.41 66.746 157.166L68.71 156.788ZM66.5541 153.073L78.6181 150.889L78.2619 148.921L66.1979 151.105L66.5541 153.073ZM77.5139 150.282C78.2551 152.101 78.8993 154.133 79.4442 156.381L81.3879 155.909C80.8233 153.581 80.1503 151.452 79.3661 149.528L77.5139 150.282ZM79.4442 156.381C79.9742 158.567 80.248 161.29 80.248 164.569L82.248 164.569C82.248 161.191 81.9671 158.299 81.3879 155.909L79.4442 156.381ZM80.248 164.569C80.248 168.72 79.7023 172.085 78.6555 174.702L80.5125 175.444C81.6843 172.515 82.248 168.877 82.248 164.569L80.248 164.569ZM78.6637 174.682C77.5379 177.331 76.0321 179.411 74.1624 180.959L75.4376 182.499C77.5893 180.719 79.2728 178.362 80.5043 175.464L78.6637 174.682ZM74.1753 180.948C72.2241 182.509 69.8667 183.629 67.0804 184.292L67.5436 186.238C70.5813 185.514 73.2159 184.277 75.4247 182.51L74.1753 180.948ZM67.1025 184.287C64.2707 184.894 61.1183 185.201 57.64 185.201L57.64 187.201C61.2337 187.201 64.5293 186.884 67.5215 186.243L67.1025 184.287ZM57.64 185.201L11.672 185.201L11.672 187.201L57.64 187.201L57.64 185.201ZM80 123.974L81 123.974L81 122.974L80 122.974L80 123.974ZM80 139.47L80 140.47L81 140.47L81 139.47L80 139.47ZM25.296 139.47L24.296 139.47L24.296 140.47L25.296 140.47L25.296 139.47ZM25.296 123.974L25.296 122.974L24.296 122.974L24.296 123.974L25.296 123.974ZM16.248 125.326L16.997 124.663L16.9954 124.662L16.248 125.326ZM16.248 138.326L16.9828 139.004L16.9963 138.99L17.0092 138.974L16.248 138.326ZM2.832 138.326L3.581 137.663L3.57941 137.662L2.832 138.326ZM2.832 125.326L3.56681 126.004L3.58032 125.99L3.59325 125.974L2.832 125.326ZM79 123.974L79 139.47L81 139.47L81 123.974L79 123.974ZM80 138.47L25.296 138.47L25.296 140.47L80 140.47L80 138.47ZM26.296 139.47L26.296 123.974L24.296 123.974L24.296 139.47L26.296 139.47ZM25.296 124.974L80 124.974L80 122.974L25.296 122.974L25.296 124.974ZM9.488 123.518C12.0878 123.518 14.053 124.362 15.5006 125.99L16.9954 124.662C15.115 122.546 12.5735 121.518 9.488 121.518L9.488 123.518ZM15.499 125.989C16.9255 127.601 17.64 129.512 17.64 131.774L19.64 131.774C19.64 129.044 18.7598 126.656 16.997 124.663L15.499 125.989ZM17.64 131.774C17.64 134.036 16.9248 135.989 15.4868 137.678L17.0092 138.974C18.7605 136.919 19.64 134.504 19.64 131.774L17.64 131.774ZM15.5132 137.648C14.0691 139.212 12.1001 140.03 9.488 140.03L9.488 142.03C12.5612 142.03 15.0989 141.045 16.9828 139.004L15.5132 137.648ZM9.488 140.03C6.87487 140.03 4.95114 139.212 3.581 137.663L2.08301 138.989C3.9022 141.045 6.4158 142.03 9.488 142.03L9.488 140.03ZM3.57941 137.662C2.0775 135.972 1.336 134.024 1.336 131.774L-0.663996 131.774C-0.663996 134.516 0.258507 136.936 2.08459 138.99L3.57941 137.662ZM1.336 131.774C1.336 129.525 2.07658 127.619 3.56681 126.004L2.0972 124.648C0.259424 126.639 -0.663996 129.031 -0.663996 131.774L1.336 131.774ZM3.59325 125.974C4.96727 124.362 6.88752 123.518 9.488 123.518L9.488 121.518C6.40315 121.518 3.88607 122.547 2.07076 124.678L3.59325 125.974ZM27.168 109.407L26.2074 109.686L26.4164 110.407L27.168 110.407L27.168 109.407ZM25.088 99.2155L26.0769 99.0671L26.0757 99.0591L26.0744 99.0511L25.088 99.2155ZM25.92 74.5675L26.8456 74.9461L26.8507 74.9336L26.8555 74.9209L25.92 74.5675ZM31.016 67.1835L31.6466 67.9596L31.016 67.1835ZM38.92 63.3355L39.1625 64.3057H39.1625L38.92 63.3355ZM80 62.1915L81 62.1915L81 61.1915L80 61.1915L80 62.1915ZM80 77.6875L80 78.6875L81 78.6875L81 77.6875L80 77.6875ZM40.376 79.6635L40.9111 80.5083H40.9111L40.376 79.6635ZM37.464 90.5835L38.4625 90.528L38.4609 90.5005L38.4579 90.4731L37.464 90.5835ZM37.776 93.9115L36.7861 94.0529L36.9087 94.9115L37.776 94.9115L37.776 93.9115ZM80 93.9115L81 93.9115L81 92.9115L80 92.9115L80 93.9115ZM80 109.407L80 110.407L81 110.407L81 109.407L80 109.407ZM28.1286 109.129C27.3829 106.553 26.6974 103.204 26.0769 99.0671L24.0991 99.3638C24.7266 103.547 25.4278 106.992 26.2074 109.686L28.1286 109.129ZM26.0744 99.0511C25.3908 94.9498 25.048 90.637 25.048 86.1115L23.048 86.1115C23.048 90.738 23.3985 95.1612 24.1016 99.3799L26.0744 99.0511ZM25.048 86.1115C25.048 81.5468 25.6624 77.8382 26.8456 74.9461L24.9945 74.1888C23.6816 77.3981 23.048 81.3856 23.048 86.1115L25.048 86.1115ZM26.8555 74.9209C27.9822 71.9384 29.5865 69.6334 31.6466 67.9596L30.3854 66.4074C28.0081 68.3389 26.2152 70.9566 24.9845 74.2141L26.8555 74.9209ZM31.6466 67.9596C33.7407 66.2581 36.2395 65.0364 39.1625 64.3057L38.6775 62.3654C35.4992 63.1599 32.7286 64.5035 30.3854 66.4074L31.6466 67.9596ZM39.1625 64.3057C42.1205 63.5662 45.4348 63.1915 49.112 63.1915L49.112 61.1915C45.3013 61.1915 41.8208 61.5795 38.6775 62.3654L39.1625 64.3057ZM49.112 63.1915L80 63.1915L80 61.1915L49.112 61.1915L49.112 63.1915ZM79 62.1915L79 77.6875L81 77.6875L81 62.1915L79 62.1915ZM80 76.6875L50.984 76.6875L50.984 78.6875L80 78.6875L80 76.6875ZM50.984 76.6875C45.9616 76.6875 42.1764 77.3395 39.841 78.8187L40.9111 80.5083C42.7356 79.3528 46.0224 78.6875 50.984 78.6875L50.984 76.6875ZM39.841 78.8187C37.3513 80.3954 36.256 83.2712 36.256 87.0475L38.256 87.0475C38.256 83.6131 39.2407 81.5662 40.9111 80.5083L39.841 78.8187ZM36.256 87.0475C36.256 88.1982 36.3279 89.4139 36.4701 90.6939L38.4579 90.4731C38.3228 89.257 38.256 88.1155 38.256 87.0475L36.256 87.0475ZM36.4655 90.639C36.5361 91.9083 36.6424 93.0472 36.7861 94.0529L38.766 93.7701C38.6323 92.8344 38.5306 91.7546 38.4625 90.528L36.4655 90.639ZM37.776 94.9115L80 94.9115L80 92.9115L37.776 92.9115L37.776 94.9115ZM79 93.9115L79 109.407L81 109.407L81 93.9115L79 93.9115ZM80 108.407L27.168 108.407L27.168 110.407L80 110.407L80 108.407ZM63.256 19.9813L62.2982 20.2687L63.256 19.9813ZM61.8 16.4453L62.6683 15.9492L62.3803 15.4453L61.8 15.4453L61.8 16.4453ZM37.048 16.4453L37.048 15.4453L36.2134 15.4453L36.0641 16.2664L37.048 16.4453ZM36.736 19.1493L37.7272 19.2815L37.7316 19.2488L37.7338 19.2158L36.736 19.1493ZM40.584 31.9413L39.9873 32.7438L40.584 31.9413ZM93 7.81329L92.2712 8.49799L92.2765 8.50366L92.2819 8.50928L93 7.81329ZM98.616 38.8053L97.6331 38.621L97.6313 38.6309L97.6296 38.6409L98.616 38.8053ZM96.328 48.0613L96.1244 49.0403L96.989 49.2202L97.2744 48.3845L96.328 48.0613ZM83.328 45.3573L82.3995 44.9859L81.9565 46.0934L83.1244 46.3364L83.328 45.3573ZM85.616 37.7653L86.5946 37.9713L86.5956 37.9662L85.616 37.7653ZM83.536 19.2533L82.8419 19.9731L82.8487 19.9797L82.8556 19.9861L83.536 19.2533ZM74.072 16.4453L74.072 15.4453L72.5136 15.4453L73.1629 16.8619L74.072 16.4453ZM75.84 21.6453L76.8206 21.4492L76.8177 21.4348L76.8144 21.4205L75.84 21.6453ZM69.704 44.7333L70.3698 45.4795L70.3755 45.4743L69.704 44.7333ZM39.96 48.8933L40.3177 47.9594L40.3111 47.957L39.96 48.8933ZM31.432 43.4853L30.7147 44.1821L30.7198 44.1873L30.7249 44.1924L31.432 43.4853ZM26.024 34.6453L26.9649 34.3066L26.9619 34.2983L26.9588 34.2901L26.024 34.6453ZM24.36 17.1733L25.3543 17.2798L25.3563 17.261L25.3576 17.2421L24.36 17.1733ZM26.024 5.73334L26.9964 5.96668L27.0017 5.94452L27.006 5.92218L26.024 5.73334ZM27.168 0.94928L27.168 -0.0507197L26.424 -0.0507197L26.2102 0.661988L27.168 0.94928ZM50.88 35.9573C55.3219 35.9573 58.8388 35.0643 61.2585 33.1091C63.719 31.121 64.88 28.1719 64.88 24.4533L62.88 24.4533C62.88 27.7374 61.8744 30.0402 60.0015 31.5535C58.0879 33.0997 55.1047 33.9573 50.88 33.9573L50.88 35.9573ZM64.88 24.4533C64.88 22.7711 64.6605 21.1828 64.2138 19.694L62.2982 20.2687C62.6835 21.5532 62.88 22.9462 62.88 24.4533L64.88 24.4533ZM64.2138 19.694C63.782 18.2546 63.2698 17.0018 62.6683 15.9492L60.9318 16.9415C61.4396 17.8301 61.898 18.9347 62.2982 20.2687L64.2138 19.694ZM61.8 15.4453L37.048 15.4453L37.048 17.4453L61.8 17.4453L61.8 15.4453ZM36.0641 16.2664C35.9169 17.0764 35.8093 18.017 35.7382 19.0828L37.7338 19.2158C37.8014 18.2016 37.9018 17.3395 38.0319 16.6242L36.0641 16.2664ZM35.7448 19.0172C35.5988 20.1123 35.528 21.3716 35.528 22.7893L37.528 22.7893C37.528 21.4337 37.5959 20.2664 37.7272 19.2815L35.7448 19.0172ZM35.528 22.7893C35.528 27.1203 36.9743 30.5033 39.9873 32.7438L41.1807 31.1389C38.7857 29.358 37.528 26.6396 37.528 22.7893L35.528 22.7893ZM39.9873 32.7438C42.9009 34.9103 46.5564 35.9573 50.88 35.9573L50.88 33.9573C46.8836 33.9573 43.6751 32.9937 41.1807 31.1389L39.9873 32.7438ZM73.136 1.94928C81.9233 1.94928 88.2301 4.19617 92.2712 8.49799L93.7289 7.12866C89.1726 2.27844 82.2367 -0.050719 73.136 -0.0507191L73.136 1.94928ZM92.2819 8.50928C96.395 12.7529 98.552 19.4517 98.552 28.8213L100.552 28.8213C100.552 19.1936 98.3411 11.8871 93.7181 7.11731L92.2819 8.50928ZM98.552 28.8213C98.552 32.0864 98.2459 35.3527 97.6331 38.621L99.5989 38.9896C100.234 35.6019 100.552 32.2122 100.552 28.8213L98.552 28.8213ZM97.6296 38.6409C97.0829 41.9214 96.3327 44.9531 95.3817 47.7382L97.2744 48.3845C98.2647 45.4842 99.0398 42.3452 99.6024 38.9697L97.6296 38.6409ZM96.5316 47.0823L83.5316 44.3783L83.1244 46.3364L96.1244 49.0403L96.5316 47.0823ZM84.2565 45.7287C85.2492 43.2469 86.0284 40.6608 86.5946 37.9713L84.6375 37.5593C84.0943 40.1392 83.3481 42.6144 82.3995 44.9859L84.2565 45.7287ZM86.5956 37.9662C87.1665 35.183 87.448 32.0634 87.448 28.6133L85.448 28.6133C85.448 31.9579 85.1748 34.9396 84.6364 37.5644L86.5956 37.9662ZM87.448 28.6133C87.448 24.077 86.4635 20.6071 84.2165 18.5205L82.8556 19.9861C84.4912 21.5049 85.448 24.275 85.448 28.6133L87.448 28.6133ZM84.2301 18.5334C82.0775 16.4577 79.3208 15.4453 76.048 15.4453L76.048 17.4453C78.8766 17.4453 81.1118 18.3049 82.8419 19.9731L84.2301 18.5334ZM76.048 15.4453L74.072 15.4453L74.072 17.4453L76.048 17.4453L76.048 15.4453ZM73.1629 16.8619C73.8971 18.4637 74.4647 20.1328 74.8656 21.8702L76.8144 21.4205C76.3833 19.5525 75.7723 17.7549 74.9811 16.0286L73.1629 16.8619ZM74.8594 21.8414C75.1912 23.5001 75.36 25.34 75.36 27.3653L77.36 27.3653C77.36 25.2307 77.1822 23.2573 76.8206 21.4492L74.8594 21.8414ZM75.36 27.3653C75.36 34.7195 73.2084 40.2079 69.0325 43.9923L70.3755 45.4743C75.0742 41.2161 77.36 35.1258 77.36 27.3653L75.36 27.3653ZM69.0382 43.9872C64.7683 47.7972 58.7599 49.7653 50.88 49.7653L50.88 51.7653C59.0855 51.7653 65.6263 49.7121 70.3698 45.4794L69.0382 43.9872ZM50.88 49.7653C46.9625 49.7653 43.4462 49.1576 40.3177 47.9595L39.6024 49.8271C42.9912 51.125 46.7548 51.7653 50.88 51.7653L50.88 49.7653ZM40.3111 47.957C37.1078 46.7557 34.3889 45.028 32.1391 42.7782L30.7249 44.1924C33.1898 46.6573 36.1562 48.5349 39.6089 49.8297L40.3111 47.957ZM32.1493 42.7885C29.8997 40.4728 28.169 37.6514 26.9649 34.3066L25.0831 34.984C26.375 38.5725 28.2497 41.6445 30.7147 44.1821L32.1493 42.7885ZM26.9588 34.2901C25.6915 30.9551 25.048 27.1611 25.048 22.8933L23.048 22.8933C23.048 27.3616 23.7218 31.4022 25.0892 35.0005L26.9588 34.2901ZM25.048 22.8933C25.048 21.0584 25.1499 19.1873 25.3543 17.2798L23.3657 17.0668C23.1541 19.042 23.048 20.9843 23.048 22.8933L25.048 22.8933ZM25.3576 17.2421C25.4947 15.2551 25.7002 13.3033 25.974 11.3867L23.9941 11.1039C23.7132 13.07 23.5027 15.0702 23.3624 17.1045L25.3576 17.2421ZM25.974 11.3867C26.2473 9.47327 26.5884 7.66681 26.9964 5.96668L25.0516 5.49994C24.6277 7.26648 24.2754 9.13464 23.9941 11.1039L25.974 11.3867ZM27.006 5.92218C27.3479 4.14441 27.7217 2.58368 28.1258 1.23663L26.2102 0.661988C25.7823 2.08826 25.3935 3.71692 25.042 5.54443L27.006 5.92218ZM27.168 1.94928L73.136 1.94928L73.136 -0.0507191L27.168 -0.0507197L27.168 1.94928Z" fill="white"/>
</svg>
