<svg width="66" height="640" viewBox="0 0 66 640" fill="none" xmlns="http://www.w3.org/2000/svg">
<path opacity="0.1" d="M10.382 602.342L11.2156 602.894L11.2202 602.887L10.382 602.342ZM40.179 602.425L41.0156 601.877L41.0111 601.87L40.179 602.425ZM44.744 626.412L43.744 626.412L43.744 627.412L44.744 627.412L44.744 626.412ZM64 626.412L65 626.412L65 625.412L64 625.412L64 626.412ZM64 639.36L64 640.36L65 640.36L65 639.36L64 639.36ZM7.311 639.36L6.32968 639.552L6.48803 640.36L7.311 640.36L7.311 639.36ZM16.939 624.088L15.9407 624.147L15.9409 624.15L16.939 624.088ZM17.105 626.412L16.1085 626.495L16.1849 627.412L17.105 627.412L17.105 626.412ZM33.705 626.412L33.705 627.412L34.705 627.412L34.705 626.412L33.705 626.412ZM31.879 612.219L30.9978 612.692L31.879 612.219ZM21.089 609.729L21.5547 610.614L21.5726 610.605L21.59 610.594L21.089 609.729ZM18.599 612.219L19.4445 612.753L19.4606 612.727L19.4752 612.701L18.599 612.219ZM17.271 616.12L18.2554 616.296L18.2585 616.279L18.2609 616.261L17.271 616.12ZM6.817 622.096C6.817 613.615 8.32566 607.256 11.2156 602.894L9.54841 601.79C6.35167 606.614 4.817 613.424 4.817 622.096L6.817 622.096ZM11.2202 602.887C13.9764 598.651 18.5359 596.453 25.156 596.453L25.156 594.453C18.0535 594.453 12.7636 596.848 9.54379 601.797L11.2202 602.887ZM25.156 596.453C31.8289 596.453 36.4789 598.678 39.347 602.98L41.0111 601.87C37.6818 596.876 32.3165 594.453 25.156 594.453L25.156 596.453ZM39.3424 602.973C42.2353 607.391 43.744 613.808 43.744 622.345L45.744 622.345C45.744 613.618 44.2094 606.755 41.0156 601.877L39.3424 602.973ZM43.744 622.345L43.744 626.412L45.744 626.412L45.744 622.345L43.744 622.345ZM44.744 627.412L64 627.412L64 625.412L44.744 625.412L44.744 627.412ZM63 626.412L63 639.36L65 639.36L65 626.412L63 626.412ZM64 638.36L7.311 638.36L7.311 640.36L64 640.36L64 638.36ZM8.29231 639.168C7.74764 636.39 7.36527 633.443 7.14655 630.326L5.15145 630.466C5.37539 633.657 5.76769 636.686 6.32968 639.552L8.29231 639.168ZM7.14655 630.326C6.92635 627.188 6.817 624.446 6.817 622.096L4.817 622.096C4.817 624.505 4.92898 627.296 5.15145 630.466L7.14655 630.326ZM15.856 621.266C15.856 622.226 15.8842 623.187 15.9407 624.147L17.9373 624.029C17.8831 623.108 17.856 622.187 17.856 621.266L15.856 621.266ZM15.9409 624.15C15.9966 625.041 16.0524 625.822 16.1085 626.495L18.1015 626.329C18.0469 625.674 17.9921 624.906 17.9371 624.026L15.9409 624.15ZM17.105 627.412L33.705 627.412L33.705 625.412L17.105 625.412L17.105 627.412ZM34.705 626.412L34.705 622.345L32.705 622.345L32.705 626.412L34.705 626.412ZM34.705 622.345C34.705 617.804 34.0936 614.231 32.7602 611.746L30.9978 612.692C32.099 614.744 32.705 617.922 32.705 622.345L34.705 622.345ZM32.7602 611.746C31.3167 609.056 28.6368 607.816 25.073 607.816L25.073 609.816C28.1492 609.816 30.0066 610.845 30.9978 612.692L32.7602 611.746ZM25.073 607.816C23.3472 607.816 21.8328 608.143 20.588 608.864L21.59 610.594C22.4478 610.098 23.5895 609.816 25.073 609.816L25.073 607.816ZM20.6233 608.844C19.3874 609.495 18.4196 610.47 17.7228 611.737L19.4752 612.701C19.9957 611.755 20.6879 611.07 21.5547 610.614L20.6233 608.844ZM17.7535 611.685C16.9974 612.882 16.5173 614.325 16.281 615.979L18.2609 616.261C18.4673 614.817 18.8726 613.659 19.4445 612.753L17.7535 611.685ZM16.2866 615.944C15.9978 617.561 15.856 619.337 15.856 621.266L17.856 621.266C17.856 619.433 17.9909 617.777 18.2554 616.296L16.2866 615.944ZM55.285 568.227L56.2838 568.177L55.285 568.227ZM55.036 565.571L56.0224 565.407L55.8831 564.571L55.036 564.571L55.036 565.571ZM45.657 565.571L45.657 564.571L44.8548 564.571L44.6808 565.354L45.657 565.571ZM45.408 573.871L46.4019 573.761L46.3993 573.738L46.3958 573.715L45.408 573.871ZM46.155 576.527L47.0494 576.08L46.155 576.527ZM54.289 577.108L55.1432 577.628L55.1563 577.606L55.1683 577.584L54.289 577.108ZM23.994 557.769L24.6745 558.502L24.6814 558.495L24.6881 558.489L23.994 557.769ZM29.638 554.615L29.3728 553.651L29.638 554.615ZM62.755 553.702L63.7319 553.488L63.5599 552.702L62.755 552.702L62.755 553.702ZM64.083 561.089L63.0952 561.245L63.0966 561.253L63.098 561.262L64.083 561.089ZM64.166 580.262L65.1428 580.476L65.1438 580.472L64.166 580.262ZM61.759 586.155L62.5782 586.729L62.5847 586.719L62.591 586.71L61.759 586.155ZM57.277 589.973L56.8407 589.073L57.277 589.973ZM44.08 589.807L43.5695 590.667L43.5795 590.673L43.5897 590.679L44.08 589.807ZM39.847 585.657L40.6996 585.134L39.847 585.657ZM37.606 579.764L38.5866 579.568L38.5842 579.556L38.5816 579.545L37.606 579.764ZM37.108 568.642L38.0988 568.777L38.1021 568.753L38.1042 568.729L37.108 568.642ZM37.606 565.571L38.5675 565.846L38.9317 564.571L37.606 564.571L37.606 565.571ZM29.97 580.345L30.961 580.211L30.9592 580.198L30.9571 580.185L29.97 580.345ZM31.215 585.657L31.3714 586.645L32.5765 586.454L32.1527 585.31L31.215 585.657ZM21.255 587.234L20.2992 587.528L20.5544 588.357L21.4114 588.222L21.255 587.234ZM20.591 584.578L21.5696 584.372L21.5657 584.354L21.5611 584.336L20.591 584.578ZM19.927 581.009L20.9186 580.88L20.9159 580.859L20.9122 580.838L19.927 581.009ZM19.429 577.025L20.4258 576.945L20.4244 576.928L20.4224 576.91L19.429 577.025ZM56.368 571.713C56.368 570.481 56.34 569.302 56.2838 568.177L54.2862 568.277C54.3407 569.365 54.368 570.511 54.368 571.713L56.368 571.713ZM56.2838 568.177C56.2276 567.053 56.1421 566.125 56.0224 565.407L54.0496 565.735C54.1512 566.345 54.2318 567.188 54.2862 568.277L56.2838 568.177ZM55.036 564.571L45.657 564.571L45.657 566.571L55.036 566.571L55.036 564.571ZM44.6808 565.354C44.5581 565.906 44.4427 566.697 44.3311 567.702L46.3189 567.922C46.4286 566.935 46.5346 566.232 46.6332 565.788L44.6808 565.354ZM44.3311 567.702C44.2172 568.727 44.159 569.678 44.159 570.551L46.159 570.551C46.159 569.765 46.2115 568.889 46.3189 567.922L44.3311 567.702ZM44.159 570.551C44.159 571.761 44.2454 572.92 44.4202 574.027L46.3958 573.715C46.2386 572.72 46.159 571.666 46.159 570.551L44.159 570.551ZM44.4141 573.981C44.5358 575.077 44.8129 576.079 45.2606 576.974L47.0494 576.08C46.7224 575.426 46.5015 574.657 46.4019 573.761L44.4141 573.981ZM45.2606 576.974C45.7189 577.891 46.3563 578.638 47.1773 579.185L48.2867 577.521C47.7797 577.183 47.3658 576.713 47.0494 576.08L45.2606 576.974ZM47.1773 579.185C48.0421 579.762 49.0777 580.017 50.222 580.017L50.222 578.017C49.3743 578.017 48.7499 577.83 48.2867 577.521L47.1773 579.185ZM50.222 580.017C52.3886 580.017 54.1327 579.288 55.1432 577.628L53.4348 576.588C52.8959 577.473 51.9287 578.017 50.222 578.017L50.222 580.017ZM55.1683 577.584C55.9968 576.055 56.368 574.071 56.368 571.713L54.368 571.713C54.368 573.892 54.0199 575.505 53.4097 576.632L55.1683 577.584ZM20.18 572.709C20.18 569.125 20.5884 566.199 21.3715 563.902L19.4785 563.256C18.6016 565.829 18.18 568.99 18.18 572.709L20.18 572.709ZM21.3715 563.902C22.1596 561.59 23.27 559.806 24.6745 558.502L23.3136 557.036C21.6194 558.609 20.3504 560.699 19.4785 563.256L21.3715 563.902ZM24.6881 558.489C26.1092 557.119 27.8399 556.147 29.9032 555.579L29.3728 553.651C27.0094 554.301 24.9775 555.431 23.2999 557.049L24.6881 558.489ZM29.9032 555.579C32.0162 554.998 34.3875 554.702 37.025 554.702L37.025 552.702C34.2398 552.702 31.6865 553.015 29.3728 553.651L29.9032 555.579ZM37.025 554.702L62.755 554.702L62.755 552.702L37.025 552.702L37.025 554.702ZM61.7781 553.916C62.1593 555.658 62.5984 558.098 63.0952 561.245L65.0708 560.933C64.5716 557.772 64.1254 555.287 63.7319 553.488L61.7781 553.916ZM63.098 561.262C63.6383 564.341 63.913 568.098 63.913 572.543L65.913 572.543C65.913 568.024 65.6344 564.145 65.068 560.916L63.098 561.262ZM63.913 572.543C63.913 575.307 63.669 577.809 63.1882 580.053L65.1438 580.472C65.659 578.067 65.913 575.423 65.913 572.543L63.913 572.543ZM63.1893 580.048C62.7136 582.215 61.9543 584.059 60.9269 585.6L62.591 586.71C63.777 584.931 64.6224 582.847 65.1427 580.476L63.1893 580.048ZM60.9398 585.582C59.8757 587.102 58.5136 588.262 56.8407 589.073L57.7133 590.873C59.6924 589.913 61.3183 588.528 62.5782 586.729L60.9398 585.582ZM56.8407 589.073C55.186 589.876 53.1037 590.301 50.554 590.301L50.554 592.301C53.3163 592.301 55.716 591.841 57.7133 590.873L56.8407 589.073ZM50.554 590.301C48.1376 590.301 46.1579 589.829 44.5703 588.935L43.5897 590.679C45.5434 591.778 47.8797 592.301 50.554 592.301L50.554 590.301ZM44.5905 588.947C42.9562 587.977 41.664 586.708 40.6996 585.134L38.9944 586.18C40.1327 588.037 41.6625 589.535 43.5695 590.667L44.5905 588.947ZM40.6996 585.134C39.7169 583.531 39.0089 581.68 38.5866 579.568L36.6254 579.96C37.0884 582.275 37.8745 584.352 38.9944 586.18L40.6996 585.134ZM38.5816 579.545C38.1006 577.407 37.859 575.184 37.859 572.875L35.859 572.875C35.859 575.325 36.1154 577.695 36.6304 579.984L38.5816 579.545ZM37.859 572.875C37.859 571.303 37.9405 569.939 38.0988 568.777L36.1172 568.507C35.9435 569.78 35.859 571.238 35.859 572.875L37.859 572.875ZM38.1042 568.729C38.2122 567.487 38.3708 566.534 38.5675 565.846L36.6445 565.296C36.3985 566.157 36.2252 567.251 36.1118 568.555L38.1042 568.729ZM37.606 564.571L36.444 564.571L36.444 566.571L37.606 566.571L37.606 564.571ZM36.444 564.571C34.1243 564.571 32.1656 565.281 30.6739 566.773L32.0881 568.187C33.1417 567.134 34.5584 566.571 36.444 566.571L36.444 564.571ZM30.6739 566.773C29.1145 568.332 28.472 570.885 28.472 574.12L30.472 574.12C30.472 571.047 31.1022 569.173 32.0881 568.187L30.6739 566.773ZM28.472 574.12C28.472 576.276 28.6422 578.404 28.9829 580.505L30.9571 580.185C30.6338 578.191 30.472 576.17 30.472 574.12L28.472 574.12ZM28.979 580.479C29.2628 582.579 29.6921 584.425 30.2773 586.004L32.1527 585.31C31.6312 583.902 31.2305 582.206 30.961 580.211L28.979 580.479ZM31.0586 584.669L21.0986 586.246L21.4114 588.222L31.3714 586.645L31.0586 584.669ZM22.2108 586.94C22.0012 586.259 21.787 585.405 21.5696 584.372L19.6125 584.784C19.8376 585.854 20.0661 586.77 20.2992 587.528L22.2108 586.94ZM21.5611 584.336C21.2949 583.27 21.0802 582.119 20.9186 580.88L18.9354 581.138C19.1058 582.445 19.3338 583.672 19.6209 584.821L21.5611 584.336ZM20.9122 580.838C20.6965 579.598 20.5342 578.3 20.4258 576.945L18.4322 577.105C18.5451 578.517 18.7148 579.875 18.9418 581.18L20.9122 580.838ZM20.4224 576.91C20.2608 575.51 20.18 574.109 20.18 572.709L18.18 572.709C18.18 574.186 18.2652 575.663 18.4356 577.14L20.4224 576.91ZM64 530.152L65 530.152L65 529.152L64 529.152L64 530.152ZM64 542.519L64 543.519L65 543.519L65 542.519L64 542.519ZM20.342 542.519L19.342 542.519L19.342 543.519L20.342 543.519L20.342 542.519ZM20.342 530.152L20.342 529.152L19.342 529.152L19.342 530.152L20.342 530.152ZM13.121 531.231L13.87 530.569L13.8684 530.567L13.121 531.231ZM13.121 541.606L13.8558 542.284L13.8693 542.27L13.8822 542.255L13.121 541.606ZM2.414 541.606L3.163 540.944L3.16141 540.942L2.414 541.606ZM2.414 531.231L3.1488 531.909L3.16232 531.895L3.17524 531.88L2.414 531.231ZM63 530.152L63 542.519L65 542.519L65 530.152L63 530.152ZM64 541.519L20.342 541.519L20.342 543.519L64 543.519L64 541.519ZM21.342 542.519L21.342 530.152L19.342 530.152L19.342 542.519L21.342 542.519ZM20.342 531.152L64 531.152L64 529.152L20.342 529.152L20.342 531.152ZM7.726 529.99C9.75181 529.99 11.262 530.645 12.3736 531.895L13.8684 530.567C12.324 528.829 10.2375 527.99 7.726 527.99L7.726 529.99ZM12.372 531.894C13.4765 533.142 14.03 534.619 14.03 536.377L16.03 536.377C16.03 534.151 15.3108 532.197 13.87 530.569L12.372 531.894ZM14.03 536.377C14.03 538.135 13.4758 539.648 12.3598 540.958L13.8822 542.255C15.3115 540.577 16.03 538.603 16.03 536.377L14.03 536.377ZM12.3862 540.928C11.2781 542.128 9.76412 542.764 7.726 542.764L7.726 544.764C10.2252 544.764 12.3079 543.961 13.8558 542.284L12.3862 540.928ZM7.726 542.764C5.68687 542.764 4.21114 542.128 3.16299 540.944L1.665 542.269C3.16219 543.961 5.2278 544.764 7.726 544.764L7.726 542.764ZM3.16141 540.942C1.9955 539.63 1.422 538.123 1.422 536.377L-0.578002 536.377C-0.578002 538.615 0.176501 540.594 1.66659 542.27L3.16141 540.942ZM1.422 536.377C1.422 534.632 1.99458 533.16 3.1488 531.909L1.67919 530.553C0.177418 532.18 -0.578002 534.139 -0.578002 536.377L1.422 536.377ZM3.17524 531.88C4.22726 530.645 5.69952 529.99 7.726 529.99L7.726 527.99C5.21514 527.99 3.14606 528.83 1.65275 530.583L3.17524 531.88ZM21.836 518.527L20.8754 518.805L21.0844 519.527L21.836 519.527L21.836 518.527ZM20.176 510.393L21.1649 510.245L21.1637 510.237L21.1624 510.229L20.176 510.393ZM20.84 490.722L21.7655 491.101L21.7707 491.088L21.7755 491.075L20.84 490.722ZM24.907 484.829L25.5376 485.605L24.907 484.829ZM31.215 481.758L31.4575 482.728L31.215 481.758ZM64 480.845L65 480.845L65 479.845L64 479.845L64 480.845ZM64 493.212L64 494.212L65 494.212L65 493.212L64 493.212ZM32.377 494.789L32.9121 495.634L32.377 494.789ZM30.053 503.504L31.0515 503.448L31.0499 503.421L31.0469 503.393L30.053 503.504ZM30.302 506.16L29.3121 506.301L29.4347 507.16L30.302 507.16L30.302 506.16ZM64 506.16L65 506.16L65 505.16L64 505.16L64 506.16ZM64 518.527L64 519.527L65 519.527L65 518.527L64 518.527ZM22.7966 518.249C22.2049 516.205 21.6594 513.541 21.1649 510.245L19.1871 510.541C19.6886 513.885 20.2498 516.644 20.8754 518.805L22.7966 518.249ZM21.1624 510.229C20.6188 506.967 20.346 503.536 20.346 499.935L18.346 499.935C18.346 503.637 18.6265 507.179 19.1896 510.557L21.1624 510.229ZM20.346 499.935C20.346 496.308 20.8344 493.377 21.7655 491.101L19.9145 490.343C18.8536 492.937 18.346 496.147 18.346 499.935L20.346 499.935ZM21.7755 491.075C22.6642 488.723 23.9255 486.915 25.5376 485.605L24.2764 484.053C22.3471 485.62 20.8971 487.741 19.9045 490.369L21.7755 491.075ZM25.5376 485.605C27.1837 484.268 29.1505 483.305 31.4575 482.728L30.9725 480.788C28.4102 481.428 26.1716 482.513 24.2764 484.053L25.5376 485.605ZM31.4575 482.728C33.7995 482.143 36.4277 481.845 39.349 481.845L39.349 479.845C36.2943 479.845 33.4998 480.156 30.9725 480.788L31.4575 482.728ZM39.349 481.845L64 481.845L64 479.845L39.349 479.845L39.349 481.845ZM63 480.845L63 493.212L65 493.212L65 480.845L63 480.845ZM64 492.212L40.843 492.212L40.843 494.212L64 494.212L64 492.212ZM40.843 492.212C36.8286 492.212 33.7574 492.731 31.8419 493.944L32.9121 495.634C34.3166 494.744 36.8894 494.212 40.843 494.212L40.843 492.212ZM31.8419 493.944C29.7723 495.255 28.887 497.634 28.887 500.682L30.887 500.682C30.887 497.976 31.6617 496.426 32.9121 495.634L31.8419 493.944ZM28.887 500.682C28.887 501.609 28.9449 502.586 29.0591 503.614L31.0469 503.393C30.9398 502.429 30.887 501.526 30.887 500.682L28.887 500.682ZM29.0545 503.559C29.1111 504.577 29.1964 505.492 29.3121 506.301L31.2919 506.018C31.1863 505.279 31.1056 504.423 31.0515 503.448L29.0545 503.559ZM30.302 507.16L64 507.16L64 505.16L30.302 505.16L30.302 507.16ZM63 506.16L63 518.527L65 518.527L65 506.16L63 506.16ZM64 517.527L21.836 517.527L21.836 519.527L64 519.527L64 517.527ZM9.469 470.066L8.48173 470.225L8.61719 471.066L9.469 471.066L9.469 470.066ZM7.477 457.699L7.477 456.699L6.30303 456.699L6.48972 457.858L7.477 457.699ZM20.342 457.699L20.342 458.699L21.342 458.699L21.342 457.699L20.342 457.699ZM20.342 442.842L20.342 441.842L19.342 441.842L19.342 442.842L20.342 442.842ZM30.634 442.842L31.634 442.842L31.634 441.842L30.634 441.842L30.634 442.842ZM30.634 457.699L29.634 457.699L29.634 458.699L30.634 458.699L30.634 457.699ZM52.214 456.371L52.7101 457.239L52.7217 457.233L52.733 457.226L52.214 456.371ZM54.206 446.743L55.1934 446.585L55.191 446.569L55.188 446.554L54.206 446.743ZM53.127 442.842L52.9489 441.858L51.7638 442.072L52.1925 443.198L53.127 442.842ZM62.755 441.099L63.6811 440.722L63.375 439.97L62.5769 440.115L62.755 441.099ZM64.332 446.079L63.3602 446.315L64.332 446.079ZM63.668 461.185L64.5883 461.576L64.5925 461.566L64.5965 461.556L63.668 461.185ZM59.85 466.497L60.4747 467.278L60.4812 467.273L60.4876 467.267L59.85 466.497ZM53.874 469.319L54.0835 470.297L54.0946 470.294L54.1056 470.292L53.874 469.319ZM10.4563 469.907L8.46427 457.54L6.48972 457.858L8.48173 470.225L10.4563 469.907ZM7.477 458.699L20.342 458.699L20.342 456.699L7.477 456.699L7.477 458.699ZM21.342 457.699L21.342 442.842L19.342 442.842L19.342 457.699L21.342 457.699ZM20.342 443.842L30.634 443.842L30.634 441.842L20.342 441.842L20.342 443.842ZM29.634 442.842L29.634 457.699L31.634 457.699L31.634 442.842L29.634 442.842ZM30.634 458.699L45.989 458.699L45.989 456.699L30.634 456.699L30.634 458.699ZM45.989 458.699C48.6893 458.699 50.9561 458.242 52.7101 457.239L51.7179 455.503C50.3733 456.271 48.4901 456.699 45.989 456.699L45.989 458.699ZM52.733 457.226C54.7175 456.021 55.538 453.729 55.538 450.81L53.538 450.81C53.538 453.424 52.8092 454.84 51.695 455.516L52.733 457.226ZM55.538 450.81C55.538 449.426 55.4227 448.018 55.1934 446.585L53.2186 446.901C53.432 448.235 53.538 449.538 53.538 450.81L55.538 450.81ZM55.188 446.554C54.9023 445.068 54.5281 443.711 54.0615 442.486L52.1925 443.198C52.6113 444.297 52.9564 445.54 53.224 446.932L55.188 446.554ZM53.3051 443.826L62.9331 442.083L62.5769 440.115L52.9489 441.858L53.3051 443.826ZM61.8289 441.476C62.4161 442.917 62.9273 444.529 63.3602 446.315L65.3039 445.843C64.8513 443.977 64.3113 442.268 63.6811 440.722L61.8289 441.476ZM63.3602 446.315C63.7782 448.039 63.996 450.195 63.996 452.802L65.996 452.802C65.996 450.096 65.7711 447.771 65.3039 445.843L63.3602 446.315ZM63.996 452.802C63.996 456.099 63.5623 458.757 62.7395 460.814L64.5965 461.556C65.5443 459.187 65.996 456.256 65.996 452.802L63.996 452.802ZM62.7477 460.794C61.8599 462.883 60.6761 464.515 59.2124 465.727L60.4876 467.267C62.2333 465.823 63.5948 463.914 64.5883 461.576L62.7477 460.794ZM59.2253 465.716C57.6941 466.941 55.8407 467.823 53.6424 468.346L54.1056 470.292C56.5553 469.708 58.6859 468.709 60.4747 467.278L59.2253 465.716ZM53.6645 468.341C51.4207 468.822 48.9193 469.066 46.155 469.066L46.155 471.066C49.0347 471.066 51.6793 470.812 54.0835 470.297L53.6645 468.341ZM46.155 469.066L9.469 469.066L9.469 471.066L46.155 471.066L46.155 469.066ZM10.382 374.984L11.2156 375.536L11.2202 375.529L10.382 374.984ZM40.179 375.067L41.0157 374.519L41.0111 374.512L40.179 375.067ZM44.744 399.054L43.744 399.054L43.744 400.054L44.744 400.054L44.744 399.054ZM64 399.054L65 399.054L65 398.054L64 398.054L64 399.054ZM64 412.002L64 413.002L65 413.002L65 412.002L64 412.002ZM7.311 412.002L6.32969 412.194L6.48804 413.002L7.311 413.002L7.311 412.002ZM16.939 396.73L15.9407 396.788L15.9409 396.792L16.939 396.73ZM17.105 399.054L16.1085 399.137L16.1849 400.054L17.105 400.054L17.105 399.054ZM33.705 399.054L33.705 400.054L34.705 400.054L34.705 399.054L33.705 399.054ZM31.879 384.861L30.9978 385.333L31.879 384.861ZM21.089 382.371L21.5547 383.256L21.5726 383.246L21.59 383.236L21.089 382.371ZM18.599 384.861L19.4445 385.395L19.4606 385.369L19.4752 385.343L18.599 384.861ZM17.271 388.762L18.2554 388.937L18.2585 388.92L18.261 388.903L17.271 388.762ZM6.817 394.738C6.817 386.256 8.32566 379.897 11.2156 375.536L9.54841 374.431C6.35167 379.255 4.817 386.066 4.817 394.738L6.817 394.738ZM11.2202 375.529C13.9764 371.293 18.5359 369.095 25.156 369.095L25.156 367.095C18.0535 367.095 12.7636 369.489 9.54379 374.438L11.2202 375.529ZM25.156 369.095C31.8289 369.095 36.4789 371.319 39.347 375.621L41.0111 374.512C37.6818 369.518 32.3165 367.095 25.156 367.095L25.156 369.095ZM39.3424 375.614C42.2353 380.033 43.744 386.45 43.744 394.987L45.744 394.987C45.744 386.26 44.2094 379.397 41.0156 374.519L39.3424 375.614ZM43.744 394.987L43.744 399.054L45.744 399.054L45.744 394.987L43.744 394.987ZM44.744 400.054L64 400.054L64 398.054L44.744 398.054L44.744 400.054ZM63 399.054L63 412.002L65 412.002L65 399.054L63 399.054ZM64 411.002L7.311 411.002L7.311 413.002L64 413.002L64 411.002ZM8.29231 411.809C7.74764 409.031 7.36528 406.085 7.14655 402.968L5.15145 403.108C5.37539 406.299 5.76769 409.328 6.32969 412.194L8.29231 411.809ZM7.14655 402.968C6.92635 399.83 6.817 397.087 6.817 394.738L4.817 394.738C4.817 397.146 4.92898 399.937 5.15145 403.108L7.14655 402.968ZM15.856 393.908C15.856 394.868 15.8842 395.828 15.9407 396.788L17.9373 396.671C17.8831 395.75 17.856 394.829 17.856 393.908L15.856 393.908ZM15.9409 396.792C15.9966 397.682 16.0524 398.464 16.1085 399.137L18.1016 398.971C18.0469 398.315 17.9921 397.548 17.9371 396.667L15.9409 396.792ZM17.105 400.054L33.705 400.054L33.705 398.054L17.105 398.054L17.105 400.054ZM34.705 399.054L34.705 394.987L32.705 394.987L32.705 399.054L34.705 399.054ZM34.705 394.987C34.705 390.445 34.0936 386.873 32.7602 384.388L30.9978 385.333C32.0991 387.386 32.705 390.564 32.705 394.987L34.705 394.987ZM32.7602 384.388C31.3167 381.698 28.6368 380.458 25.073 380.458L25.073 382.458C28.1492 382.458 30.0066 383.486 30.9978 385.333L32.7602 384.388ZM25.073 380.458C23.3472 380.458 21.8328 380.784 20.588 381.505L21.59 383.236C22.4478 382.739 23.5895 382.458 25.073 382.458L25.073 380.458ZM20.6233 381.486C19.3874 382.136 18.4196 383.112 17.7228 384.379L19.4752 385.343C19.9957 384.396 20.6879 383.712 21.5547 383.256L20.6233 381.486ZM17.7535 384.327C16.9974 385.524 16.5173 386.966 16.2811 388.62L18.261 388.903C18.4673 387.458 18.8726 386.3 19.4445 385.395L17.7535 384.327ZM16.2866 388.586C15.9978 390.203 15.856 391.978 15.856 393.908L17.856 393.908C17.856 392.074 17.9909 390.419 18.2554 388.937L16.2866 388.586ZM31.298 333.106L32.2681 333.348L32.5217 332.334L31.4972 332.126L31.298 333.106ZM30.468 337.007L31.4442 337.223L31.448 337.206L31.4513 337.189L30.468 337.007ZM30.219 344.643L31.2135 344.538L31.2112 344.516L31.2079 344.494L30.219 344.643ZM30.634 347.05L29.6762 347.337L29.89 348.05L30.634 348.05L30.634 347.05ZM64 347.05L65 347.05L65 346.05L64 346.05L64 347.05ZM64 359.417L64 360.417L65 360.417L65 359.417L64 359.417ZM22.666 359.417L21.7221 359.747L21.9565 360.417L22.666 360.417L22.666 359.417ZM20.508 351.615L21.4843 351.398L21.4812 351.385L20.508 351.615ZM19.595 339.082L20.5882 339.198L20.5916 339.169L20.5933 339.14L19.595 339.082ZM19.927 336.26L20.9118 336.433L20.9168 336.405L20.9202 336.376L19.927 336.26ZM20.425 333.438L21.3984 333.667L21.4049 333.639L21.4098 333.611L20.425 333.438ZM21.089 331.031L21.2882 330.051L20.4822 329.887L20.1659 330.646L21.089 331.031ZM30.3279 332.863C30.0449 333.995 29.764 335.316 29.4847 336.824L31.4513 337.189C31.7253 335.709 31.9978 334.429 32.2681 333.348L30.3279 332.863ZM29.4918 336.79C29.1422 338.363 28.97 340.041 28.97 341.821L30.97 341.821C30.97 340.17 31.1298 338.638 31.4442 337.223L29.4918 336.79ZM28.97 341.821C28.97 342.661 29.0596 343.655 29.2301 344.791L31.2079 344.494C31.0464 343.417 30.97 342.529 30.97 341.821L28.97 341.821ZM29.2245 344.747C29.3373 345.819 29.4833 346.694 29.6762 347.337L31.5918 346.762C31.4527 346.299 31.3221 345.569 31.2135 344.538L29.2245 344.747ZM30.634 348.05L64 348.05L64 346.05L30.634 346.05L30.634 348.05ZM63 347.05L63 359.417L65 359.417L65 347.05L63 347.05ZM64 358.417L22.666 358.417L22.666 360.417L64 360.417L64 358.417ZM23.6099 359.086C22.8514 356.919 22.1421 354.358 21.4842 351.398L19.5318 351.831C20.2019 354.847 20.9313 357.487 21.7221 359.747L23.6099 359.086ZM21.4812 351.385C20.7826 348.429 20.429 345.132 20.429 341.489L18.429 341.489C18.429 345.259 18.7947 348.714 19.5348 351.845L21.4812 351.385ZM20.429 341.489C20.429 340.876 20.4803 340.115 20.5882 339.198L18.6019 338.965C18.4884 339.929 18.429 340.773 18.429 341.489L20.429 341.489ZM20.5933 339.14C20.6463 338.239 20.7524 337.336 20.9118 336.433L18.9422 336.086C18.7696 337.064 18.6544 338.043 18.5967 339.023L20.5933 339.14ZM20.9202 336.376C21.0263 335.474 21.1856 334.571 21.3984 333.667L19.4516 333.209C19.2217 334.185 19.049 335.164 18.9339 336.143L20.9202 336.376ZM21.4098 333.611C21.5669 332.721 21.7711 331.993 22.0121 331.415L20.1659 330.646C19.8535 331.396 19.6151 332.273 19.4402 333.264L21.4098 333.611ZM20.8898 332.011L31.0988 334.086L31.4972 332.126L21.2882 330.051L20.8898 332.011ZM51.55 285.869L51.8828 284.926L51.8771 284.925L51.55 285.869ZM58.854 290.185L59.5407 289.458L59.5306 289.449L58.854 290.185ZM63.502 296.991L62.5789 297.376L62.5819 297.383L63.502 296.991ZM63.502 314.587L64.4222 314.979L64.4251 314.972L63.502 314.587ZM58.854 321.31L59.5307 322.047L59.5406 322.038L58.854 321.31ZM51.55 325.709L51.8932 326.649L51.8991 326.647L51.55 325.709ZM32.709 325.709L32.3439 326.64L32.3519 326.644L32.3599 326.647L32.709 325.709ZM25.488 321.227L24.7909 321.944L24.7961 321.95L24.8014 321.954L25.488 321.227ZM20.84 314.421L19.9169 314.806L19.9198 314.813L20.84 314.421ZM20.84 297.157L21.7602 297.549L21.7631 297.542L20.84 297.157ZM25.488 290.351L26.1746 291.078L25.488 290.351ZM32.709 285.952L33.0581 286.89L32.709 285.952ZM33.124 299.315L33.6835 300.144L33.6955 300.136L33.7072 300.128L33.124 299.315ZM33.124 312.346L33.7073 311.534L33.6975 311.527L33.124 312.346ZM51.218 312.346L51.782 313.172L51.7915 313.166L51.218 312.346ZM51.218 299.315L50.654 300.141L50.6585 300.144L51.218 299.315ZM42.088 285.375C45.4213 285.375 48.4632 285.859 51.2229 286.814L51.8771 284.925C48.8821 283.888 45.6161 283.375 42.088 283.375L42.088 285.375ZM51.2172 286.812C53.9216 287.767 56.2369 289.139 58.1774 290.922L59.5306 289.449C57.3764 287.47 54.8224 285.964 51.8828 284.926L51.2172 286.812ZM58.1674 290.913C60.0523 292.693 61.5234 294.843 62.5789 297.376L64.4251 296.607C63.2672 293.828 61.6397 291.441 59.5406 289.458L58.1674 290.913ZM62.5819 297.383C63.6283 299.842 64.162 302.639 64.162 305.789L66.162 305.789C66.162 302.411 65.589 299.342 64.4222 296.6L62.5819 297.383ZM64.162 305.789C64.162 308.882 63.6293 311.682 62.5789 314.203L64.4251 314.972C65.5881 312.181 66.162 309.116 66.162 305.789L64.162 305.789ZM62.5819 314.196C61.5274 316.674 60.0561 318.8 58.1674 320.583L59.5406 322.038C61.6359 320.059 63.2633 317.702 64.4222 314.979L62.5819 314.196ZM58.1774 320.574C56.2329 322.361 53.9119 323.762 51.2009 324.772L51.8991 326.647C54.8321 325.554 57.3805 324.023 59.5306 322.047L58.1774 320.574ZM51.2068 324.77C48.4518 325.777 45.4155 326.286 42.088 326.286L42.088 328.286C45.6218 328.286 48.8935 327.745 51.8932 326.649L51.2068 324.77ZM42.088 326.286C38.7601 326.286 35.754 325.777 33.0581 324.772L32.3599 326.647C35.308 327.745 38.5546 328.286 42.088 328.286L42.088 326.286ZM33.0741 324.779C30.3587 323.714 28.0641 322.285 26.1746 320.5L24.8014 321.954C26.8959 323.933 29.4153 325.492 32.3439 326.64L33.0741 324.779ZM26.1851 320.51C24.29 318.668 22.8157 316.511 21.7602 314.03L19.9198 314.813C21.0776 317.534 22.702 319.914 24.7909 321.944L26.1851 320.51ZM21.7631 314.037C20.711 311.512 20.18 308.766 20.18 305.789L18.18 305.789C18.18 309.01 18.7557 312.019 19.9169 314.806L21.7631 314.037ZM20.18 305.789C20.18 302.754 20.712 300.012 21.7602 297.549L19.9198 296.766C18.7547 299.504 18.18 302.517 18.18 305.789L20.18 305.789ZM21.7631 297.542C22.8186 295.009 24.2897 292.859 26.1746 291.078L24.8014 289.624C22.7023 291.607 21.0748 293.994 19.9169 296.773L21.7631 297.542ZM26.1746 291.078C28.0601 289.298 30.349 287.899 33.0581 286.89L32.3599 285.015C29.425 286.109 26.8999 287.642 24.8014 289.624L26.1746 291.078ZM33.0581 286.89C35.754 285.885 38.7601 285.375 42.088 285.375L42.088 283.375C38.5546 283.375 35.308 283.917 32.3599 285.015L33.0581 286.89ZM42.088 295.991C38.1487 295.991 34.9285 296.789 32.5408 298.503L33.7072 300.128C35.6355 298.743 38.3913 297.991 42.088 297.991L42.088 295.991ZM32.5645 298.487C30.0576 300.179 28.804 302.658 28.804 305.789L30.804 305.789C30.804 303.277 31.7637 301.44 33.6835 300.144L32.5645 298.487ZM28.804 305.789C28.804 308.921 30.0561 311.42 32.5505 313.166L33.6975 311.527C31.7653 310.175 30.804 308.302 30.804 305.789L28.804 305.789ZM32.5408 313.159C34.9285 314.873 38.1487 315.67 42.088 315.67L42.088 313.67C38.3913 313.67 35.6355 312.919 33.7072 311.534L32.5408 313.159ZM42.088 315.67C46.0313 315.67 49.2939 314.871 51.782 313.172L50.654 311.521C48.6048 312.92 45.7807 313.67 42.088 313.67L42.088 315.67ZM51.7915 313.166C54.2859 311.42 55.538 308.921 55.538 305.789L53.538 305.789C53.538 308.302 52.5767 310.175 50.6445 311.527L51.7915 313.166ZM55.538 305.789C55.538 302.658 54.2844 300.179 51.7775 298.487L50.6585 300.144C52.5783 301.44 53.538 303.277 53.538 305.789L55.538 305.789ZM51.782 298.49C49.2939 296.79 46.0313 295.991 42.088 295.991L42.088 297.991C45.7807 297.991 48.6048 298.742 50.654 300.141L51.782 298.49ZM9.469 275.21L8.48173 275.37L8.61719 276.21L9.469 276.21L9.469 275.21ZM7.477 262.843L7.477 261.843L6.30304 261.843L6.48973 263.003L7.477 262.843ZM20.342 262.843L20.342 263.843L21.342 263.843L21.342 262.843L20.342 262.843ZM20.342 247.986L20.342 246.986L19.342 246.986L19.342 247.986L20.342 247.986ZM30.634 247.986L31.634 247.986L31.634 246.986L30.634 246.986L30.634 247.986ZM30.634 262.843L29.634 262.843L29.634 263.843L30.634 263.843L30.634 262.843ZM52.214 261.515L52.7101 262.384L52.7217 262.377L52.733 262.37L52.214 261.515ZM54.206 251.887L55.1934 251.729L55.191 251.714L55.188 251.699L54.206 251.887ZM53.127 247.986L52.9489 247.002L51.7638 247.217L52.1925 248.342L53.127 247.986ZM62.755 246.243L63.6811 245.866L63.3751 245.115L62.5769 245.259L62.755 246.243ZM64.332 251.223L63.3602 251.459L64.332 251.223ZM63.668 266.329L64.5883 266.721L64.5925 266.711L64.5965 266.701L63.668 266.329ZM59.85 271.641L60.4747 272.422L60.4812 272.417L60.4876 272.412L59.85 271.641ZM53.874 274.463L54.0835 275.441L54.0946 275.439L54.1056 275.436L53.874 274.463ZM10.4563 275.051L8.46427 262.684L6.48973 263.003L8.48173 275.37L10.4563 275.051ZM7.477 263.843L20.342 263.843L20.342 261.843L7.477 261.843L7.477 263.843ZM21.342 262.843L21.342 247.986L19.342 247.986L19.342 262.843L21.342 262.843ZM20.342 248.986L30.634 248.986L30.634 246.986L20.342 246.986L20.342 248.986ZM29.634 247.986L29.634 262.843L31.634 262.843L31.634 247.986L29.634 247.986ZM30.634 263.843L45.989 263.843L45.989 261.843L30.634 261.843L30.634 263.843ZM45.989 263.843C48.6893 263.843 50.9561 263.386 52.7101 262.384L51.7179 260.647C50.3733 261.416 48.4901 261.843 45.989 261.843L45.989 263.843ZM52.733 262.37C54.7175 261.165 55.538 258.874 55.538 255.954L53.538 255.954C53.538 258.568 52.8092 259.984 51.695 260.661L52.733 262.37ZM55.538 255.954C55.538 254.571 55.4227 253.162 55.1934 251.729L53.2186 252.045C53.432 253.379 53.538 254.682 53.538 255.954L55.538 255.954ZM55.188 251.699C54.9023 250.213 54.5281 248.855 54.0615 247.63L52.1925 248.342C52.6113 249.442 52.9564 250.685 53.224 252.076L55.188 251.699ZM53.3051 248.97L62.9331 247.227L62.5769 245.259L52.9489 247.002L53.3051 248.97ZM61.8289 246.621C62.4161 248.062 62.9273 249.674 63.3602 251.459L65.3039 250.988C64.8513 249.121 64.3113 247.413 63.6811 245.866L61.8289 246.621ZM63.3602 251.459C63.7782 253.184 63.996 255.34 63.996 257.946L65.996 257.946C65.996 255.241 65.7711 252.915 65.3039 250.988L63.3602 251.459ZM63.996 257.946C63.996 261.243 63.5623 263.901 62.7395 265.958L64.5965 266.701C65.5443 264.331 65.996 261.4 65.996 257.946L63.996 257.946ZM62.7477 265.938C61.8599 268.027 60.6761 269.66 59.2124 270.871L60.4876 272.412C62.2333 270.967 63.5948 269.058 64.5883 266.721L62.7477 265.938ZM59.2253 270.861C57.6941 272.086 55.8407 272.967 53.6424 273.491L54.1056 275.436C56.5553 274.853 58.6859 273.853 60.4747 272.422L59.2253 270.861ZM53.6645 273.486C51.4207 273.966 48.9193 274.21 46.155 274.21L46.155 276.21C49.0347 276.21 51.6793 275.956 54.0835 275.441L53.6645 273.486ZM46.155 274.21L9.469 274.21L9.469 276.21L46.155 276.21L46.155 274.21ZM32.377 239.869L31.9936 240.792L32.0025 240.796L32.377 239.869ZM25.073 235.138L24.3659 235.845L25.073 235.138ZM20.674 228.498L19.7427 228.862L19.7455 228.869L20.674 228.498ZM24.907 206.005L25.5927 206.733L25.598 206.728L24.907 206.005ZM43.997 200.693L44.0635 199.695L44.0594 199.695L43.997 200.693ZM46.238 200.859L47.238 200.859L47.238 199.939L46.3211 199.862L46.238 200.859ZM46.238 228.913L45.238 228.913L45.238 230.027L46.3461 229.907L46.238 228.913ZM52.297 225.344L53.1122 225.923L52.297 225.344ZM53.957 210.238L54.9413 210.061L54.9395 210.051L54.9376 210.042L53.957 210.238ZM52.38 204.843L52.2169 203.856L50.9458 204.066L51.4647 205.245L52.38 204.843ZM62.423 203.183L63.3174 202.735L62.9876 202.076L62.2599 202.196L62.423 203.183ZM63.419 205.839L62.4612 206.126L63.419 205.839ZM64.249 209.574L63.2616 209.732L63.2653 209.755L63.27 209.778L64.249 209.574ZM64.913 213.89L65.9073 213.783L64.913 213.89ZM63.419 228.83L64.3463 229.204L64.3487 229.198L63.419 228.83ZM58.688 236.051L59.3646 236.787L59.375 236.777L59.3851 236.768L58.688 236.051ZM51.467 240.284L51.7718 241.236L51.7804 241.233L51.7889 241.23L51.467 240.284ZM37.772 212.562L38.772 212.562L38.772 211.508L37.7194 211.563L37.772 212.562ZM34.701 213.143L34.9686 214.106L34.9931 214.099L35.0172 214.091L34.701 213.143ZM32.045 214.554L32.6628 215.34L32.6796 215.327L32.6958 215.313L32.045 214.554ZM30.136 216.961L31.0198 217.429L31.0252 217.418L31.0304 217.408L30.136 216.961ZM30.136 224.099L31.0498 223.693L31.0406 223.672L31.0304 223.651L30.136 224.099ZM34.701 228.166L34.3553 229.104L34.37 229.109L34.3848 229.114L34.701 228.166ZM37.772 228.913L37.616 229.9L38.772 230.083L38.772 228.913L37.772 228.913ZM42.503 240.612C38.7273 240.612 35.4843 240.045 32.7515 238.941L32.0025 240.796C35.0244 242.016 38.5321 242.612 42.503 242.612L42.503 240.612ZM32.7604 238.945C29.9297 237.77 27.6105 236.261 25.7801 234.431L24.3659 235.845C26.4088 237.888 28.959 239.533 31.9936 240.792L32.7604 238.945ZM25.7801 234.431C23.9371 232.588 22.5471 230.488 21.6025 228.126L19.7455 228.869C20.7929 231.488 22.3356 233.814 24.3659 235.845L25.7801 234.431ZM21.6052 228.133C20.6533 225.701 20.18 223.223 20.18 220.696L18.18 220.696C18.18 223.48 18.7027 226.204 19.7428 228.862L21.6052 228.133ZM20.18 220.696C20.18 214.72 22.0117 210.106 25.5927 206.733L24.2213 205.277C20.1663 209.097 18.18 214.277 18.18 220.696L20.18 220.696ZM25.598 206.728C29.1094 203.371 34.3811 201.61 41.59 201.61L41.59 199.61C34.0802 199.61 28.2299 201.445 24.216 205.282L25.598 206.728ZM41.59 201.61C42.2844 201.61 43.0655 201.636 43.9346 201.691L44.0594 199.695C43.1578 199.638 42.3343 199.61 41.59 199.61L41.59 201.61ZM43.9305 201.69C44.7563 201.746 45.4976 201.8 46.155 201.855L46.3211 199.862C45.6504 199.806 44.8978 199.751 44.0635 199.695L43.9305 201.69ZM45.238 200.859L45.238 228.913L47.238 228.913L47.238 200.859L45.238 200.859ZM46.3461 229.907C49.178 229.599 51.454 228.257 53.1122 225.923L51.4818 224.764C50.152 226.636 48.3887 227.673 46.1299 227.919L46.3461 229.907ZM53.1122 225.923C54.7638 223.598 55.538 220.551 55.538 216.878L53.538 216.878C53.538 220.287 52.8182 222.884 51.4818 224.764L53.1122 225.923ZM55.538 216.878C55.538 214.552 55.3394 212.279 54.9413 210.061L52.9727 210.414C53.3492 212.512 53.538 214.666 53.538 216.878L55.538 216.878ZM54.9376 210.042C54.4869 207.788 53.9437 205.913 53.2953 204.44L51.4647 205.245C52.0337 206.539 52.5417 208.26 52.9764 210.434L54.9376 210.042ZM52.5431 205.829L62.5861 204.169L62.2599 202.196L52.2169 203.856L52.5431 205.829ZM61.5286 203.63C61.8249 204.222 62.1377 205.048 62.4612 206.126L64.3768 205.551C64.0363 204.416 63.6851 203.471 63.3174 202.735L61.5286 203.63ZM62.4612 206.126C62.7781 207.182 63.0458 208.383 63.2616 209.732L65.2364 209.416C65.0095 207.997 64.7239 206.708 64.3768 205.551L62.4612 206.126ZM63.27 209.778C63.5391 211.069 63.7557 212.475 63.9187 213.996L65.9073 213.783C65.7383 212.206 65.5123 210.734 65.228 209.37L63.27 209.778ZM63.9187 213.996C64.0809 215.51 64.162 217.024 64.162 218.538L66.162 218.538C66.162 216.953 66.0771 215.368 65.9073 213.783L63.9187 213.996ZM64.162 218.538C64.162 222.37 63.595 225.671 62.4893 228.461L64.3487 229.198C65.567 226.123 66.162 222.563 66.162 218.538L64.162 218.538ZM62.4918 228.455C61.3757 231.219 59.8722 233.505 57.9909 235.334L59.3851 236.768C61.4879 234.723 63.1383 232.195 64.3462 229.204L62.4918 228.455ZM58.0114 235.314C56.0716 237.097 53.787 238.439 51.1451 239.337L51.7889 241.23C54.6803 240.247 57.2098 238.767 59.3646 236.787L58.0114 235.314ZM51.1622 239.331C48.5038 240.182 45.6196 240.612 42.503 240.612L42.503 242.612C45.805 242.612 48.8969 242.156 51.7718 241.236L51.1622 239.331ZM37.7194 211.563C36.5786 211.623 35.4663 211.833 34.3848 212.194L35.0172 214.091C35.9277 213.788 36.8627 213.611 37.8246 213.56L37.7194 211.563ZM34.4334 212.179C33.2981 212.495 32.2816 213.034 31.3942 213.794L32.6958 215.313C33.3577 214.746 34.1119 214.344 34.9686 214.106L34.4334 212.179ZM31.4272 213.767C30.5221 214.478 29.797 215.403 29.2416 216.513L31.0304 217.408C31.471 216.527 32.0186 215.846 32.6628 215.34L31.4272 213.767ZM29.2522 216.493C28.6558 217.619 28.389 218.983 28.389 220.53L30.389 220.53C30.389 219.199 30.6202 218.183 31.0198 217.429L29.2522 216.493ZM28.389 220.53C28.389 222.031 28.6594 223.381 29.2416 224.546L31.0304 223.651C30.6166 222.824 30.389 221.795 30.389 220.53L28.389 220.53ZM29.2222 224.505C29.721 225.627 30.4161 226.581 31.3112 227.348L32.6128 225.829C31.9586 225.269 31.4363 224.562 31.0498 223.693L29.2222 224.505ZM31.3112 227.348C32.1846 228.097 33.2034 228.68 34.3553 229.104L35.0467 227.227C34.096 226.877 33.2888 226.409 32.6128 225.829L31.3112 227.348ZM34.3848 229.114C35.4337 229.464 36.5111 229.726 37.616 229.9L37.928 227.925C36.9303 227.767 35.9603 227.531 35.0172 227.217L34.3848 229.114ZM38.772 228.913L38.772 212.562L36.772 212.562L36.772 228.913L38.772 228.913ZM33.29 191.647L32.9409 192.584L32.9513 192.588L33.29 191.647ZM25.986 187.165L26.6733 186.438L26.6635 186.429L25.986 187.165ZM21.006 180.11L21.9213 179.707L21.006 180.11ZM19.844 164.257L20.8189 164.48L20.8219 164.466L20.8246 164.453L19.844 164.257ZM21.587 158.613L21.8391 157.645L21.0036 157.428L20.6664 158.222L21.587 158.613ZM31.464 161.186L32.3985 161.542L32.7956 160.499L31.7161 160.218L31.464 161.186ZM30.302 165.004L31.2744 165.237L30.302 165.004ZM33.207 177.869L32.58 178.648L32.5858 178.653L32.5917 178.657L33.207 177.869ZM51.301 178.035L51.9107 178.828L51.917 178.823L51.9232 178.818L51.301 178.035ZM54.123 164.34L55.1102 164.181L54.123 164.34ZM52.795 159.609L52.6254 158.623L51.3827 158.837L51.874 159.999L52.795 159.609ZM62.921 157.866L63.842 157.476L63.533 156.746L62.7514 156.88L62.921 157.866ZM64.498 163.261L63.5184 163.462L64.498 163.261ZM63.419 180.691L64.34 181.081L64.3432 181.073L64.3463 181.065L63.419 180.691ZM58.522 187.829L59.1876 188.575L59.1932 188.57L59.1986 188.565L58.522 187.829ZM51.301 191.896L51.5832 192.855L51.5945 192.852L51.6058 192.848L51.301 191.896ZM42.171 192.141C39.1241 192.141 36.2791 191.66 33.6287 190.706L32.9513 192.588C35.8342 193.626 38.91 194.141 42.171 194.141L42.171 192.141ZM33.6391 190.71C30.9341 189.702 28.6166 188.277 26.6732 186.439L25.2988 187.891C27.4501 189.926 30.0019 191.489 32.9409 192.584L33.6391 190.71ZM26.6635 186.429C24.6679 184.591 23.0864 182.355 21.9213 179.707L20.0907 180.513C21.3603 183.398 23.0987 185.865 25.3085 187.901L26.6635 186.429ZM21.9213 179.707C20.7686 177.087 20.18 174.074 20.18 170.648L18.18 170.648C18.18 174.304 18.8088 177.599 20.0907 180.513L21.9213 179.707ZM20.18 170.648C20.18 168.387 20.3954 166.332 20.8189 164.48L18.8691 164.034C18.4072 166.055 18.18 168.261 18.18 170.648L20.18 170.648ZM20.8246 164.453C21.1985 162.583 21.7594 160.767 22.5076 159.004L20.6664 158.222C19.8653 160.111 19.2642 162.057 18.8634 164.061L20.8246 164.453ZM21.3349 159.581L31.2119 162.154L31.7161 160.218L21.8391 157.645L21.3349 159.581ZM30.5295 160.83C30.0696 162.037 29.6702 163.351 29.3296 164.771L31.2744 165.237C31.5978 163.89 31.9731 162.659 32.3985 161.542L30.5295 160.83ZM29.3296 164.771C28.976 166.244 28.804 167.874 28.804 169.652L30.804 169.652C30.804 168 30.964 166.531 31.2744 165.237L29.3296 164.771ZM28.804 169.652C28.804 173.523 30.0169 176.585 32.58 178.648L33.834 177.09C31.8597 175.501 30.804 173.085 30.804 169.652L28.804 169.652ZM32.5917 178.657C35.0813 180.6 38.3056 181.525 42.171 181.525L42.171 179.525C38.6217 179.525 35.8701 178.679 33.8223 177.081L32.5917 178.657ZM42.171 181.525C46.2257 181.525 49.5154 180.67 51.9107 178.828L50.6913 177.242C48.7706 178.72 45.9737 179.525 42.171 179.525L42.171 181.525ZM51.9232 178.818C54.4237 176.83 55.538 173.501 55.538 169.154L53.538 169.154C53.538 173.218 52.4943 175.809 50.6788 177.252L51.9232 178.818ZM55.538 169.154C55.538 167.599 55.3941 165.94 55.1102 164.181L53.1358 164.499C53.4053 166.17 53.538 167.721 53.538 169.154L55.538 169.154ZM55.1102 164.181C54.8222 162.395 54.3592 160.74 53.716 159.219L51.874 159.999C52.4482 161.356 52.8705 162.854 53.1358 164.499L55.1102 164.181ZM52.9646 160.594L63.0906 158.851L62.7514 156.88L52.6254 158.623L52.9646 160.594ZM62 158.256C62.5749 159.614 63.0841 161.345 63.5184 163.462L65.4776 163.06C65.0266 160.861 64.4844 158.995 63.842 157.476L62 158.256ZM63.5184 163.462C63.9453 165.543 64.162 167.854 64.162 170.399L66.162 170.399C66.162 167.743 65.936 165.295 65.4776 163.06L63.5184 163.462ZM64.162 170.399C64.162 174.289 63.5942 177.587 62.4918 180.316L64.3463 181.065C65.5678 178.041 66.162 174.476 66.162 170.399L64.162 170.399ZM62.498 180.301C61.3295 183.063 59.7751 185.319 57.8454 187.093L59.1986 188.565C61.3636 186.576 63.0738 184.073 64.34 181.081L62.498 180.301ZM57.8564 187.083C55.9197 188.81 53.6375 190.098 50.9962 190.944L51.6058 192.848C54.4978 191.923 57.0297 190.5 59.1876 188.575L57.8564 187.083ZM51.0188 190.937C48.2979 191.737 45.3505 192.141 42.171 192.141L42.171 194.141C45.5208 194.141 48.6601 193.715 51.5832 192.855L51.0188 190.937ZM9.46901 149.981L8.48173 150.14L8.61719 150.981L9.46901 150.981L9.46901 149.981ZM7.477 137.614L7.477 136.614L6.30304 136.614L6.48973 137.773L7.477 137.614ZM20.342 137.614L20.342 138.614L21.342 138.614L21.342 137.614L20.342 137.614ZM20.342 122.757L20.342 121.757L19.342 121.757L19.342 122.757L20.342 122.757ZM30.634 122.757L31.634 122.757L31.634 121.757L30.634 121.757L30.634 122.757ZM30.634 137.614L29.634 137.614L29.634 138.614L30.634 138.614L30.634 137.614ZM52.214 136.286L52.7101 137.154L52.7217 137.148L52.733 137.141L52.214 136.286ZM54.206 126.658L55.1934 126.5L55.191 126.484L55.188 126.469L54.206 126.658ZM53.127 122.757L52.9489 121.773L51.7638 121.987L52.1925 123.113L53.127 122.757ZM62.755 121.014L63.6811 120.637L63.3751 119.885L62.5769 120.03L62.755 121.014ZM64.332 125.994L63.3602 126.23L64.332 125.994ZM63.668 141.1L64.5883 141.491L64.5925 141.481L64.5965 141.471L63.668 141.1ZM59.85 146.412L60.4747 147.193L60.4812 147.188L60.4876 147.182L59.85 146.412ZM53.874 149.234L54.0835 150.212L54.0946 150.209L54.1056 150.207L53.874 149.234ZM10.4563 149.822L8.46428 137.455L6.48973 137.773L8.48173 150.14L10.4563 149.822ZM7.477 138.614L20.342 138.614L20.342 136.614L7.477 136.614L7.477 138.614ZM21.342 137.614L21.342 122.757L19.342 122.757L19.342 137.614L21.342 137.614ZM20.342 123.757L30.634 123.757L30.634 121.757L20.342 121.757L20.342 123.757ZM29.634 122.757L29.634 137.614L31.634 137.614L31.634 122.757L29.634 122.757ZM30.634 138.614L45.989 138.614L45.989 136.614L30.634 136.614L30.634 138.614ZM45.989 138.614C48.6893 138.614 50.9561 138.157 52.7101 137.154L51.7179 135.418C50.3733 136.186 48.4901 136.614 45.989 136.614L45.989 138.614ZM52.733 137.141C54.7175 135.936 55.538 133.644 55.538 130.725L53.538 130.725C53.538 133.339 52.8092 134.755 51.695 135.431L52.733 137.141ZM55.538 130.725C55.538 129.341 55.4227 127.933 55.1934 126.5L53.2186 126.816C53.432 128.15 53.538 129.453 53.538 130.725L55.538 130.725ZM55.188 126.469C54.9023 124.983 54.5281 123.626 54.0615 122.401L52.1925 123.113C52.6113 124.212 52.9564 125.455 53.224 126.847L55.188 126.469ZM53.3051 123.741L62.9331 121.998L62.5769 120.03L52.9489 121.773L53.3051 123.741ZM61.8289 121.391C62.4161 122.832 62.9273 124.444 63.3602 126.23L65.3039 125.758C64.8513 123.892 64.3113 122.183 63.6811 120.637L61.8289 121.391ZM63.3602 126.23C63.7782 127.954 63.996 130.111 63.996 132.717L65.996 132.717C65.996 130.011 65.7711 127.686 65.3039 125.758L63.3602 126.23ZM63.996 132.717C63.996 136.014 63.5623 138.672 62.7395 140.729L64.5965 141.471C65.5443 139.102 65.996 136.171 65.996 132.717L63.996 132.717ZM62.7477 140.709C61.8599 142.798 60.6761 144.43 59.2124 145.642L60.4876 147.182C62.2333 145.738 63.5948 143.829 64.5883 141.491L62.7477 140.709ZM59.2253 145.631C57.6941 146.856 55.8407 147.738 53.6424 148.261L54.1056 150.207C56.5553 149.624 58.6859 148.624 60.4747 147.193L59.2253 145.631ZM53.6645 148.256C51.4207 148.737 48.9193 148.981 46.155 148.981L46.155 150.981C49.0348 150.981 51.6793 150.727 54.0835 150.212L53.6645 148.256ZM46.155 148.981L9.46901 148.981L9.46901 150.981L46.155 150.981L46.155 148.981ZM64 100.319L65 100.319L65 99.3191L64 99.3191L64 100.319ZM64 112.686L64 113.686L65 113.686L65 112.686L64 112.686ZM20.342 112.686L19.342 112.686L19.342 113.686L20.342 113.686L20.342 112.686ZM20.342 100.319L20.342 99.3191L19.342 99.3191L19.342 100.319L20.342 100.319ZM13.121 101.398L13.87 100.736L13.8684 100.734L13.121 101.398ZM13.121 111.773L13.8558 112.451L13.8693 112.437L13.8822 112.422L13.121 111.773ZM2.414 111.773L3.163 111.111L3.16141 111.109L2.414 111.773ZM2.414 101.398L3.14881 102.076L3.16232 102.062L3.17525 102.047L2.414 101.398ZM63 100.319L63 112.686L65 112.686L65 100.319L63 100.319ZM64 111.686L20.342 111.686L20.342 113.686L64 113.686L64 111.686ZM21.342 112.686L21.342 100.319L19.342 100.319L19.342 112.686L21.342 112.686ZM20.342 101.319L64 101.319L64 99.3191L20.342 99.3191L20.342 101.319ZM7.726 100.157C9.75182 100.157 11.262 100.812 12.3736 102.062L13.8684 100.734C12.324 98.9962 10.2375 98.1571 7.726 98.1571L7.726 100.157ZM12.372 102.061C13.4765 103.309 14.03 104.786 14.03 106.544L16.03 106.544C16.03 104.318 15.3108 102.364 13.87 100.736L12.372 102.061ZM14.03 106.544C14.03 108.302 13.4758 109.815 12.3598 111.125L13.8822 112.422C15.3115 110.744 16.03 108.77 16.03 106.544L14.03 106.544ZM12.3862 111.095C11.2781 112.295 9.76413 112.931 7.726 112.931L7.726 114.931C10.2252 114.931 12.3079 114.128 13.8558 112.451L12.3862 111.095ZM7.726 112.931C5.68687 112.931 4.21114 112.295 3.163 111.111L1.66501 112.436C3.1622 114.128 5.2278 114.931 7.726 114.931L7.726 112.931ZM3.16141 111.109C1.9955 109.797 1.422 108.29 1.422 106.544L-0.577996 106.544C-0.577997 108.782 0.176506 110.761 1.66659 112.437L3.16141 111.109ZM1.422 106.544C1.422 104.799 1.99458 103.327 3.14881 102.076L1.6792 100.72C0.177423 102.347 -0.577996 104.306 -0.577996 106.544L1.422 106.544ZM3.17525 102.047C4.22727 100.812 5.69952 100.157 7.726 100.157L7.726 98.1571C5.21515 98.1571 3.14607 98.9966 1.65276 100.75L3.17525 102.047ZM51.55 49.3519L51.8828 48.4089L51.8771 48.4069L51.55 49.3519ZM58.854 53.6679L59.5407 52.9408L59.5306 52.9316L58.854 53.6679ZM63.502 60.4739L62.5789 60.8585L62.5819 60.8655L63.502 60.4739ZM63.502 78.0699L64.4222 78.4615L64.4251 78.4545L63.502 78.0699ZM58.854 84.7929L59.5307 85.5293L59.5406 85.5199L58.854 84.7929ZM51.55 89.1919L51.8932 90.1312L51.8991 90.129L51.55 89.1919ZM32.709 89.1919L32.3439 90.1229L32.3519 90.126L32.3599 90.129L32.709 89.1919ZM25.488 84.7099L24.7909 85.4269L24.7961 85.4319L24.8014 85.4369L25.488 84.7099ZM20.84 77.9039L19.9169 78.2885L19.9198 78.2955L20.84 77.9039ZM20.84 60.6399L21.7602 61.0315L21.7631 61.0245L20.84 60.6399ZM25.488 53.8339L26.1746 54.5609L25.488 53.8339ZM32.709 49.4349L33.0581 50.372L32.709 49.4349ZM33.124 62.7979L33.6835 63.6268L33.6955 63.6187L33.7072 63.6102L33.124 62.7979ZM33.124 75.8289L33.7073 75.0165L33.6975 75.0096L33.124 75.8289ZM51.218 75.8289L51.782 76.6548L51.7915 76.6481L51.218 75.8289ZM51.218 62.7979L50.654 63.6237L50.6585 63.6268L51.218 62.7979ZM42.088 48.8579C45.4213 48.8579 48.4632 49.3416 51.2229 50.2969L51.8771 48.4069C48.8821 47.3702 45.6161 46.8579 42.088 46.8579L42.088 48.8579ZM51.2172 50.2949C53.9216 51.2494 56.2369 52.6211 58.1774 54.4042L59.5306 52.9316C57.3764 50.952 54.8224 49.4464 51.8828 48.4089L51.2172 50.2949ZM58.1674 54.3949C60.0523 56.1752 61.5234 58.3253 62.5789 60.8585L64.4251 60.0893C63.2672 57.3105 61.6397 54.9233 59.5406 52.9409L58.1674 54.3949ZM62.5819 60.8655C63.6283 63.3246 64.162 66.1211 64.162 69.2719L66.162 69.2719C66.162 65.8934 65.589 62.8245 64.4222 60.0823L62.5819 60.8655ZM64.162 69.2719C64.162 72.3644 63.6293 75.1645 62.5789 77.6853L64.4251 78.4545C65.5881 75.6633 66.162 72.598 66.162 69.2719L64.162 69.2719ZM62.5819 77.6783C61.5274 80.1564 60.0561 82.2821 58.1674 84.0659L59.5406 85.5199C61.6359 83.541 63.2633 81.1848 64.4222 78.4615L62.5819 77.6783ZM58.1774 84.0566C56.2329 85.8434 53.9119 87.2448 51.2009 88.2548L51.8991 90.129C54.8321 89.0363 57.3805 87.5051 59.5306 85.5292L58.1774 84.0566ZM51.2068 88.2526C48.4518 89.2593 45.4155 89.7689 42.088 89.7689L42.088 91.7689C45.6218 91.7689 48.8935 91.2272 51.8932 90.1312L51.2068 88.2526ZM42.088 89.7689C38.7601 89.7689 35.754 89.2592 33.0581 88.2548L32.3599 90.129C35.308 91.2273 38.5546 91.7689 42.088 91.7689L42.088 89.7689ZM33.0741 88.2609C30.3587 87.196 28.0641 85.7674 26.1746 83.9829L24.8014 85.4369C26.8959 87.4151 29.4154 88.9744 32.3439 90.1229L33.0741 88.2609ZM26.1851 83.9929C24.29 82.1505 22.8157 79.993 21.7602 77.5123L19.9198 78.2955C21.0776 81.0162 22.702 83.396 24.7909 85.4269L26.1851 83.9929ZM21.7631 77.5193C20.711 74.9943 20.18 72.2488 20.18 69.2719L18.18 69.2719C18.18 72.4923 18.7557 75.5015 19.9169 78.2885L21.7631 77.5193ZM20.18 69.2719C20.18 66.2368 20.712 63.4947 21.7602 61.0314L19.9198 60.2484C18.7547 62.9865 18.18 65.999 18.18 69.2719L20.18 69.2719ZM21.7631 61.0245C22.8186 58.4913 24.2897 56.3411 26.1746 54.5609L24.8014 53.1069C22.7023 55.0893 21.0748 57.4764 19.9169 60.2553L21.7631 61.0245ZM26.1746 54.5609C28.0601 52.7802 30.3491 51.3812 33.0581 50.372L32.3599 48.4978C29.425 49.5912 26.8999 51.1249 24.8014 53.1069L26.1746 54.5609ZM33.0581 50.372C35.754 49.3676 38.7601 48.8579 42.088 48.8579L42.088 46.8579C38.5546 46.8579 35.308 47.3995 32.3599 48.4978L33.0581 50.372ZM42.088 59.4739C38.1487 59.4739 34.9285 60.2714 32.5408 61.9856L33.7072 63.6102C35.6355 62.2258 38.3913 61.4739 42.088 61.4739L42.088 59.4739ZM32.5645 61.9691C30.0577 63.6612 28.804 66.1401 28.804 69.2719L30.804 69.2719C30.804 66.7598 31.7637 64.9226 33.6835 63.6268L32.5645 61.9691ZM28.804 69.2719C28.804 72.403 30.0561 74.902 32.5505 76.6481L33.6975 75.0096C31.7653 73.6571 30.804 71.7848 30.804 69.2719L28.804 69.2719ZM32.5408 76.6412C34.9285 78.3555 38.1487 79.1529 42.088 79.1529L42.088 77.1529C38.3913 77.1529 35.6355 76.401 33.7072 75.0166L32.5408 76.6412ZM42.088 79.1529C46.0313 79.1529 49.2939 78.3539 51.782 76.6547L50.654 75.0031C48.6048 76.4026 45.7807 77.1529 42.088 77.1529L42.088 79.1529ZM51.7915 76.6481C54.2859 74.902 55.538 72.403 55.538 69.2719L53.538 69.2719C53.538 71.7848 52.5767 73.6571 50.6445 75.0096L51.7915 76.6481ZM55.538 69.2719C55.538 66.1401 54.2844 63.6612 51.7775 61.9691L50.6585 63.6268C52.5783 64.9226 53.538 66.7598 53.538 69.2719L55.538 69.2719ZM51.782 61.9721C49.2939 60.2729 46.0313 59.4739 42.088 59.4739L42.088 61.4739C45.7807 61.4739 48.6048 62.2242 50.654 63.6237L51.782 61.9721ZM21.836 38.2779L20.8754 38.556L21.0844 39.2779L21.836 39.2779L21.836 38.2779ZM20.176 30.1439L21.1649 29.9955L21.1637 29.9875L21.1624 29.9795L20.176 30.1439ZM20.84 10.4729L21.7656 10.8515L21.7707 10.839L21.7755 10.8263L20.84 10.4729ZM24.907 4.5799L25.5376 5.35602L24.907 4.5799ZM31.215 1.50891L31.4575 2.479L31.215 1.50891ZM64 0.595887L65 0.595887L65 -0.404113L64 -0.404113L64 0.595887ZM64 12.9629L64 13.9629L65 13.9629L65 12.9629L64 12.9629ZM32.377 14.5399L32.9121 15.3847L32.377 14.5399ZM30.053 23.2549L31.0515 23.1994L31.0499 23.1719L31.0469 23.1445L30.053 23.2549ZM30.302 25.9109L29.3121 26.0523L29.4347 26.9109L30.302 26.9109L30.302 25.9109ZM64 25.9109L65 25.9109L65 24.9109L64 24.9109L64 25.9109ZM64 38.2779L64 39.2779L65 39.2779L65 38.2779L64 38.2779ZM22.7966 37.9998C22.2049 35.9558 21.6594 33.2922 21.1649 29.9955L19.1871 30.2922C19.6886 33.6356 20.2498 36.3947 20.8754 38.556L22.7966 37.9998ZM21.1624 29.9795C20.6188 26.7182 20.346 23.2874 20.346 19.6859L18.346 19.6859C18.346 23.3884 18.6265 26.9296 19.1896 30.3083L21.1624 29.9795ZM20.346 19.6859C20.346 16.0592 20.8344 13.1276 21.7656 10.8515L19.9145 10.0942C18.8536 12.6875 18.346 15.8979 18.346 19.6859L20.346 19.6859ZM21.7755 10.8263C22.6642 8.47382 23.9255 6.66583 25.5376 5.35602L24.2764 3.80377C22.3471 5.37128 20.8972 7.49194 19.9045 10.1195L21.7755 10.8263ZM25.5376 5.35602C27.1837 4.01856 29.1505 3.05579 31.4575 2.479L30.9725 0.538758C28.4102 1.17932 26.1716 2.26392 24.2764 3.80377L25.5376 5.35602ZM31.4575 2.479C33.7995 1.89356 36.4278 1.59589 39.349 1.59589L39.349 -0.404113C36.2943 -0.404113 33.4998 -0.093078 30.9725 0.538758L31.4575 2.479ZM39.349 1.59589L64 1.59589L64 -0.404113L39.349 -0.404113L39.349 1.59589ZM63 0.595887L63 12.9629L65 12.9629L65 0.595887L63 0.595887ZM64 11.9629L40.843 11.9629L40.843 13.9629L64 13.9629L64 11.9629ZM40.843 11.9629C36.8286 11.9629 33.7575 12.4819 31.842 13.6951L32.9121 15.3847C34.3166 14.4952 36.8894 13.9629 40.843 13.9629L40.843 11.9629ZM31.842 13.6951C29.7723 15.0059 28.887 17.3846 28.887 20.4329L30.887 20.4329C30.887 17.7265 31.6617 16.1766 32.9121 15.3847L31.842 13.6951ZM28.887 20.4329C28.887 21.3596 28.9449 22.3373 29.0591 23.3653L31.0469 23.1445C30.9398 22.1804 30.887 21.2769 30.887 20.4329L28.887 20.4329ZM29.0545 23.3104C29.1111 24.3278 29.1964 25.2427 29.3121 26.0523L31.292 25.7695C31.1863 25.0298 31.1056 24.174 31.0515 23.1994L29.0545 23.3104ZM30.302 26.9109L64 26.9109L64 24.9109L30.302 24.9109L30.302 26.9109ZM63 25.9109L63 38.2779L65 38.2779L65 25.9109L63 25.9109ZM64 37.2779L21.836 37.2779L21.836 39.2779L64 39.2779L64 37.2779Z" fill="white"/>
</svg>
