<svg width="27" height="27" viewBox="0 0 27 27" fill="none" xmlns="http://www.w3.org/2000/svg">
<g id="bxs:phone-call">
<path id="Vector" d="M22.0736 12.3954H24.2809C24.2809 6.73351 20.0064 2.46338 14.3368 2.46338V4.67074C18.8199 4.67074 22.0736 7.91886 22.0736 12.3954Z" fill="white"/>
<path id="Vector_2" d="M14.3479 9.08585C16.6689 9.08585 17.6589 10.0758 17.6589 12.3969H19.8663C19.8663 8.83752 17.9073 6.87849 14.3479 6.87849V9.08585ZM18.1247 15.0932C17.9126 14.9004 17.6339 14.7976 17.3475 14.8065C17.061 14.8153 16.7892 14.9351 16.5895 15.1406L13.9484 17.8568C13.3127 17.7354 12.0346 17.337 10.719 16.0247C9.40343 14.708 9.005 13.4266 8.8869 12.7953L11.6009 10.1531C11.8066 9.95348 11.9266 9.68164 11.9354 9.3951C11.9443 9.10857 11.8413 8.82984 11.6483 8.61789L7.57021 4.13364C7.37712 3.92102 7.10874 3.79206 6.82209 3.77413C6.53543 3.7562 6.25308 3.85072 6.035 4.03762L3.64001 6.09157C3.4492 6.28307 3.33531 6.53795 3.31995 6.80785C3.30339 7.08377 2.98774 13.6198 8.05583 18.6901C12.4772 23.1103 18.0154 23.4337 19.5407 23.4337C19.7637 23.4337 19.9005 23.4271 19.9369 23.4248C20.2068 23.4097 20.4615 23.2953 20.6521 23.1037L22.705 20.7076C22.892 20.4896 22.9867 20.2074 22.969 19.9207C22.9513 19.6341 22.8225 19.3656 22.61 19.1724L18.1247 15.0932Z" fill="white"/>
</g>
</svg>
