<svg width="37" height="38" viewBox="0 0 37 38" fill="none" xmlns="http://www.w3.org/2000/svg">
<path d="M30.6119 17.3529H33.648C33.648 9.56521 27.7685 3.6918 19.9702 3.6918V6.72794C26.1366 6.72794 30.6119 11.1956 30.6119 17.3529Z" fill="#F2C938"/>
<path d="M19.9855 12.8009C23.178 12.8009 24.5398 14.1626 24.5398 17.3551H27.5759C27.5759 12.4593 24.8813 9.76472 19.9855 9.76472V12.8009ZM25.1804 21.0637C24.8887 20.7986 24.5054 20.6572 24.1114 20.6694C23.7174 20.6815 23.3435 20.8463 23.0687 21.129L19.436 24.8649C18.5616 24.698 16.8037 24.1499 14.9941 22.3449C13.1846 20.5339 12.6366 18.7714 12.4741 17.9031L16.2071 14.2688C16.4901 13.9942 16.6551 13.6203 16.6673 13.2262C16.6795 12.8321 16.5378 12.4487 16.2724 12.1572L10.6631 5.98928C10.3975 5.69683 10.0284 5.51944 9.63407 5.49478C9.23979 5.47012 8.85142 5.60014 8.55146 5.85721L5.25725 8.68233C4.99479 8.94574 4.83814 9.29632 4.81701 9.66756C4.79424 10.0471 4.36007 19.0371 11.331 26.0111C17.4124 32.091 25.0301 32.5357 27.1281 32.5357C27.4347 32.5357 27.623 32.5266 27.673 32.5236C28.0442 32.5028 28.3946 32.3455 28.6568 32.0818L31.4804 28.7861C31.7376 28.4863 31.8679 28.0981 31.8435 27.7038C31.8191 27.3095 31.642 26.9403 31.3498 26.6745L25.1804 21.0637Z" fill="#F2C938"/>
</svg>
