<svg width="108" height="808" viewBox="0 0 108 808" fill="none" xmlns="http://www.w3.org/2000/svg">
<path opacity="0.1" d="M21.816 736.45L21.5351 735.491L20.816 735.701L20.816 736.45L21.816 736.45ZM34.464 732.914L34.724 733.88L34.7351 733.877L34.7462 733.874L34.464 732.914ZM48.88 728.698L49.1593 729.659L49.1673 729.656L49.1753 729.654L48.88 728.698ZM63.84 724.074L64.1353 725.03L63.84 724.074ZM77.712 719.586L78.0343 720.533L81.2199 719.448L77.959 718.617L77.712 719.586ZM62.616 716.05L62.3888 717.024L62.3965 717.026L62.4042 717.028L62.616 716.05ZM45.752 712.514L45.5677 713.497L45.752 712.514ZM28.48 709.386L28.2957 710.369L28.308 710.371L28.48 709.386ZM11.752 706.394L10.752 706.394L10.752 707.239L11.5849 707.38L11.752 706.394ZM11.752 684.362L11.9492 683.382L10.752 683.141L10.752 684.362L11.752 684.362ZM59.76 695.378L59.5111 696.347L59.5162 696.348L59.76 695.378ZM106 708.706L107 708.706L107 707.983L106.313 707.756L106 708.706ZM106 728.154L106.343 729.094L107 728.854L107 728.154L106 728.154ZM78.664 737.402L78.9613 738.357L78.9638 738.356L78.664 737.402ZM49.832 746.242L49.543 745.285L46.3718 746.242L49.543 747.2L49.832 746.242ZM78.664 754.946L78.9555 753.99L78.953 753.989L78.664 754.946ZM106 764.058L107 764.058L107 763.359L106.343 763.119L106 764.058ZM106 783.506L106.313 784.456L107 784.23L107 783.506L106 783.506ZM59.76 796.97L60.0038 797.94L60.0089 797.939L59.76 796.97ZM11.752 807.85L10.752 807.85L10.752 809.071L11.9492 808.831L11.752 807.85ZM11.752 784.866L11.5849 783.88L10.752 784.022L10.752 784.866L11.752 784.866ZM28.48 781.874L28.6643 782.857L28.6671 782.857L28.48 781.874ZM45.752 778.474L45.5529 777.494L45.752 778.474ZM62.616 774.938L62.8278 775.916L62.8355 775.914L62.8432 775.912L62.616 774.938ZM77.712 771.13L77.9767 772.095L80.9874 771.268L78.0568 770.192L77.712 771.13ZM34.192 757.938L33.9273 758.903L33.9361 758.905L33.945 758.907L34.192 757.938ZM21.816 754.538L20.816 754.538L20.816 755.3L21.5508 755.503L21.816 754.538ZM22.0969 737.41C25.8058 736.325 30.0146 735.148 34.724 733.88L34.204 731.949C29.4841 733.219 25.2609 734.4 21.5351 735.491L22.0969 737.41ZM34.7462 733.874C39.3691 732.514 44.1735 731.109 49.1593 729.659L48.6007 727.738C43.6131 729.189 38.8068 730.595 34.1818 731.955L34.7462 733.874ZM49.1753 729.654C54.162 728.112 59.1486 726.571 64.1353 725.03L63.5447 723.119C58.558 724.66 53.5714 726.202 48.5847 727.743L49.1753 729.654ZM64.1353 725.03C69.1296 723.486 73.7627 721.987 78.0343 720.533L77.3897 718.64C73.1386 720.087 68.5237 721.58 63.5447 723.119L64.1353 725.03ZM77.959 718.617C73.3216 717.435 68.2777 716.254 62.8278 715.073L62.4042 717.028C67.8343 718.204 72.8544 719.38 77.465 720.555L77.959 718.617ZM62.8432 715.076C57.3882 713.804 51.7525 712.622 45.9363 711.531L45.5677 713.497C51.3568 714.583 56.9638 715.758 62.3888 717.024L62.8432 715.076ZM45.9363 711.531C40.1296 710.443 34.3682 709.399 28.652 708.401L28.308 710.371C34.0158 711.368 39.7691 712.41 45.5677 713.497L45.9363 711.531ZM28.6643 708.403C22.8564 707.314 17.2747 706.316 11.9191 705.408L11.5849 707.38C16.928 708.286 22.4983 709.282 28.2957 710.369L28.6643 708.403ZM12.752 706.394L12.752 684.362L10.752 684.362L10.752 706.394L12.752 706.394ZM11.5548 685.343C27.3128 688.512 43.2982 692.18 59.5111 696.347L60.0089 694.41C43.7631 690.235 27.7432 686.559 11.9492 683.382L11.5548 685.343ZM59.5162 696.348C75.7244 700.423 91.1146 704.859 105.687 709.656L106.313 707.756C91.6907 702.943 76.2543 698.494 60.0038 694.408L59.5162 696.348ZM105 708.706L105 728.154L107 728.154L107 708.706L105 708.706ZM105.657 727.215C96.9686 730.383 87.8709 733.46 78.3642 736.448L78.9638 738.356C88.4971 735.36 97.6234 732.273 106.343 729.094L105.657 727.215ZM78.3668 736.448C68.7588 739.439 59.1509 742.384 49.543 745.285L50.121 747.2C59.7344 744.297 69.3478 741.35 78.9613 738.357L78.3668 736.448ZM49.543 747.2C49.5618 747.205 49.5805 747.211 49.5993 747.217C49.6181 747.222 49.6368 747.228 49.6556 747.234C49.6744 747.239 49.6932 747.245 49.7119 747.251C49.7307 747.256 49.7495 747.262 49.7682 747.268C49.787 747.273 49.8058 747.279 49.8246 747.285C49.8433 747.29 49.8621 747.296 49.8809 747.302C49.8996 747.307 49.9184 747.313 49.9372 747.319C49.9559 747.324 49.9747 747.33 49.9935 747.336C50.0123 747.341 50.031 747.347 50.0498 747.353C50.0686 747.358 50.0873 747.364 50.1061 747.37C50.1249 747.375 50.1437 747.381 50.1624 747.387C50.1812 747.392 50.2 747.398 50.2187 747.404C50.2375 747.409 50.2563 747.415 50.2751 747.421C50.2938 747.426 50.3126 747.432 50.3314 747.438C50.3501 747.443 50.3689 747.449 50.3877 747.455C50.4064 747.46 50.4252 747.466 50.444 747.472C50.4628 747.477 50.4815 747.483 50.5003 747.489C50.5191 747.494 50.5379 747.5 50.5566 747.506C50.5754 747.511 50.5942 747.517 50.6129 747.523C50.6317 747.528 50.6505 747.534 50.6692 747.54C50.688 747.545 50.7068 747.551 50.7256 747.557C50.7443 747.562 50.7631 747.568 50.7819 747.574C50.8006 747.579 50.8194 747.585 50.8382 747.591C50.8569 747.596 50.8757 747.602 50.8945 747.608C50.9133 747.613 50.932 747.619 50.9508 747.625C50.9696 747.63 50.9884 747.636 51.0071 747.642C51.0259 747.647 51.0447 747.653 51.0634 747.659C51.0822 747.664 51.101 747.67 51.1197 747.676C51.1385 747.681 51.1573 747.687 51.1761 747.693C51.1948 747.698 51.2136 747.704 51.2324 747.71C51.2511 747.715 51.2699 747.721 51.2887 747.727C51.3075 747.732 51.3262 747.738 51.345 747.744C51.3638 747.749 51.3825 747.755 51.4013 747.761C51.4201 747.766 51.4389 747.772 51.4576 747.778C51.4764 747.783 51.4952 747.789 51.5139 747.795C51.5327 747.8 51.5515 747.806 51.5702 747.812C51.589 747.817 51.6078 747.823 51.6266 747.829C51.6453 747.834 51.6641 747.84 51.6829 747.846C51.7016 747.851 51.7204 747.857 51.7392 747.863C51.758 747.868 51.7767 747.874 51.7955 747.88C51.8143 747.885 51.833 747.891 51.8518 747.897C51.8706 747.902 51.8894 747.908 51.9081 747.914C51.9269 747.919 51.9457 747.925 51.9644 747.931C51.9832 747.936 52.002 747.942 52.0207 747.948C52.0395 747.953 52.0583 747.959 52.0771 747.965C52.0958 747.97 52.1146 747.976 52.1334 747.982C52.1521 747.987 52.1709 747.993 52.1897 747.999C52.2085 748.004 52.2272 748.01 52.246 748.016C52.2648 748.021 52.2835 748.027 52.3023 748.033C52.3211 748.038 52.3398 748.044 52.3586 748.05C52.3774 748.055 52.3962 748.061 52.4149 748.067C52.4337 748.072 52.4525 748.078 52.4712 748.084C52.49 748.089 52.5088 748.095 52.5276 748.101C52.5463 748.106 52.5651 748.112 52.5839 748.118C52.6026 748.123 52.6214 748.129 52.6402 748.135C52.659 748.14 52.6777 748.146 52.6965 748.152C52.7153 748.157 52.734 748.163 52.7528 748.169C52.7716 748.174 52.7903 748.18 52.8091 748.186C52.8279 748.191 52.8467 748.197 52.8654 748.203C52.8842 748.208 52.903 748.214 52.9217 748.22C52.9405 748.225 52.9593 748.231 52.9781 748.237C52.9968 748.242 53.0156 748.248 53.0344 748.254C53.0531 748.259 53.0719 748.265 53.0907 748.271C53.1095 748.276 53.1282 748.282 53.147 748.288C53.1658 748.293 53.1845 748.299 53.2033 748.305C53.2221 748.31 53.2408 748.316 53.2596 748.322C53.2784 748.327 53.2972 748.333 53.3159 748.339C53.3347 748.344 53.3535 748.35 53.3722 748.356C53.391 748.361 53.4098 748.367 53.4286 748.373C53.4473 748.378 53.4661 748.384 53.4849 748.39C53.5036 748.395 53.5224 748.401 53.5412 748.407C53.56 748.412 53.5787 748.418 53.5975 748.424C53.6163 748.429 53.635 748.435 53.6538 748.441C53.6726 748.446 53.6913 748.452 53.7101 748.458C53.7289 748.463 53.7477 748.469 53.7664 748.475C53.7852 748.48 53.804 748.486 53.8227 748.492C53.8415 748.497 53.8603 748.503 53.8791 748.509C53.8978 748.514 53.9166 748.52 53.9354 748.526C53.9541 748.531 53.9729 748.537 53.9917 748.543C54.0105 748.548 54.0292 748.554 54.048 748.56C54.0668 748.565 54.0855 748.571 54.1043 748.577C54.1231 748.582 54.1418 748.588 54.1606 748.594C54.1794 748.599 54.1982 748.605 54.2169 748.611C54.2357 748.616 54.2545 748.622 54.2732 748.628C54.292 748.633 54.3108 748.639 54.3296 748.645C54.3483 748.65 54.3671 748.656 54.3859 748.662C54.4046 748.667 54.4234 748.673 54.4422 748.679C54.461 748.684 54.4797 748.69 54.4985 748.696C54.5173 748.701 54.536 748.707 54.5548 748.713C54.5736 748.718 54.5923 748.724 54.6111 748.73C54.6299 748.735 54.6487 748.741 54.6674 748.747C54.6862 748.752 54.705 748.758 54.7237 748.764C54.7425 748.769 54.7613 748.775 54.7801 748.781C54.7988 748.786 54.8176 748.792 54.8364 748.798C54.8551 748.803 54.8739 748.809 54.8927 748.815C54.9115 748.82 54.9302 748.826 54.949 748.832C54.9678 748.837 54.9865 748.843 55.0053 748.849C55.0241 748.854 55.0428 748.86 55.0616 748.866C55.0804 748.871 55.0992 748.877 55.1179 748.883C55.1367 748.888 55.1555 748.894 55.1742 748.9C55.193 748.905 55.2118 748.911 55.2306 748.917C55.2493 748.922 55.2681 748.928 55.2869 748.934C55.3056 748.939 55.3244 748.945 55.3432 748.951C55.362 748.956 55.3807 748.962 55.3995 748.968C55.4183 748.973 55.437 748.979 55.4558 748.985C55.4746 748.99 55.4933 748.996 55.5121 749.002C55.5309 749.007 55.5497 749.013 55.5684 749.019C55.5872 749.024 55.606 749.03 55.6247 749.036C55.6435 749.041 55.6623 749.047 55.6811 749.053C55.6998 749.058 55.7186 749.064 55.7374 749.07C55.7561 749.075 55.7749 749.081 55.7937 749.087C55.8125 749.092 55.8312 749.098 55.85 749.104C55.8688 749.109 55.8875 749.115 55.9063 749.121C55.9251 749.126 55.9438 749.132 55.9626 749.138C55.9814 749.143 56.0002 749.149 56.0189 749.155C56.0377 749.16 56.0565 749.166 56.0752 749.172C56.094 749.177 56.1128 749.183 56.1316 749.189C56.1503 749.194 56.1691 749.2 56.1879 749.206C56.2066 749.211 56.2254 749.217 56.2442 749.223C56.263 749.228 56.2817 749.234 56.3005 749.24C56.3193 749.245 56.338 749.251 56.3568 749.257C56.3756 749.262 56.3943 749.268 56.4131 749.274C56.4319 749.279 56.4507 749.285 56.4694 749.291C56.4882 749.296 56.507 749.302 56.5257 749.308C56.5445 749.313 56.5633 749.319 56.5821 749.325C56.6008 749.33 56.6196 749.336 56.6384 749.342C56.6571 749.347 56.6759 749.353 56.6947 749.359C56.7135 749.364 56.7322 749.37 56.751 749.376C56.7698 749.381 56.7885 749.387 56.8073 749.393C56.8261 749.398 56.8448 749.404 56.8636 749.41C56.8824 749.415 56.9012 749.421 56.9199 749.427C56.9387 749.432 56.9575 749.438 56.9762 749.444C56.995 749.449 57.0138 749.455 57.0326 749.461C57.0513 749.466 57.0701 749.472 57.0889 749.478C57.1076 749.483 57.1264 749.489 57.1452 749.495C57.1639 749.5 57.1827 749.506 57.2015 749.512C57.2203 749.517 57.239 749.523 57.2578 749.529C57.2766 749.534 57.2953 749.54 57.3141 749.546C57.3329 749.551 57.3517 749.557 57.3704 749.563C57.3892 749.568 57.408 749.574 57.4267 749.58C57.4455 749.585 57.4643 749.591 57.4831 749.597C57.5018 749.602 57.5206 749.608 57.5394 749.614C57.5581 749.619 57.5769 749.625 57.5957 749.631C57.6144 749.636 57.6332 749.642 57.652 749.648C57.6708 749.653 57.6895 749.659 57.7083 749.665C57.7271 749.67 57.7459 749.676 57.7646 749.682C57.7834 749.687 57.8022 749.693 57.8209 749.699C57.8397 749.704 57.8585 749.71 57.8772 749.716C57.896 749.721 57.9148 749.727 57.9336 749.733C57.9523 749.738 57.9711 749.744 57.9899 749.75C58.0086 749.755 58.0274 749.761 58.0462 749.767C58.0649 749.772 58.0837 749.778 58.1025 749.784C58.1213 749.789 58.14 749.795 58.1588 749.801C58.1776 749.806 58.1964 749.812 58.2151 749.818C58.2339 749.823 58.2527 749.829 58.2714 749.835C58.2902 749.84 58.309 749.846 58.3277 749.852C58.3465 749.857 58.3653 749.863 58.3841 749.869C58.4028 749.874 58.4216 749.88 58.4404 749.886C58.4591 749.891 58.4779 749.897 58.4967 749.903C58.5155 749.908 58.5342 749.914 58.553 749.92C58.5718 749.925 58.5905 749.931 58.6093 749.937C58.6281 749.942 58.6469 749.948 58.6656 749.954C58.6844 749.959 58.7032 749.965 58.7219 749.971C58.7407 749.976 58.7595 749.982 58.7782 749.988C58.797 749.993 58.8158 749.999 58.8346 750.005C58.8533 750.01 58.8721 750.016 58.8909 750.022C58.9096 750.027 58.9284 750.033 58.9472 750.039C58.966 750.044 58.9847 750.05 59.0035 750.056C59.0223 750.061 59.041 750.067 59.0598 750.073C59.0786 750.078 59.0974 750.084 59.1161 750.09C59.1349 750.095 59.1537 750.101 59.1724 750.107C59.1912 750.112 59.21 750.118 59.2287 750.124C59.2475 750.129 59.2663 750.135 59.2851 750.141C59.3038 750.146 59.3226 750.152 59.3414 750.158C59.3601 750.163 59.3789 750.169 59.3977 750.175C59.4165 750.18 59.4352 750.186 59.454 750.192C59.4728 750.197 59.4915 750.203 59.5103 750.209C59.5291 750.214 59.5479 750.22 59.5666 750.226C59.5854 750.231 59.6042 750.237 59.6229 750.243C59.6417 750.248 59.6605 750.254 59.6792 750.26C59.698 750.265 59.7168 750.271 59.7356 750.277C59.7543 750.282 59.7731 750.288 59.7919 750.294C59.8106 750.299 59.8294 750.305 59.8482 750.311C59.867 750.316 59.8857 750.322 59.9045 750.328C59.9233 750.333 59.942 750.339 59.9608 750.345C59.9796 750.35 59.9983 750.356 60.0171 750.362C60.0359 750.367 60.0547 750.373 60.0734 750.379C60.0922 750.384 60.111 750.39 60.1297 750.396C60.1485 750.401 60.1673 750.407 60.1861 750.413C60.2048 750.418 60.2236 750.424 60.2424 750.43C60.2611 750.435 60.2799 750.441 60.2987 750.447C60.3175 750.452 60.3362 750.458 60.355 750.464C60.3738 750.469 60.3925 750.475 60.4113 750.481C60.4301 750.486 60.4488 750.492 60.4676 750.498C60.4864 750.503 60.5052 750.509 60.5239 750.515C60.5427 750.52 60.5615 750.526 60.5802 750.532C60.599 750.537 60.6178 750.543 60.6366 750.549C60.6553 750.554 60.6741 750.56 60.6929 750.566C60.7116 750.571 60.7304 750.577 60.7492 750.583C60.768 750.588 60.7867 750.594 60.8055 750.6C60.8243 750.605 60.843 750.611 60.8618 750.617C60.8806 750.622 60.8993 750.628 60.9181 750.634C60.9369 750.639 60.9557 750.645 60.9744 750.651C60.9932 750.656 61.012 750.662 61.0307 750.668C61.0495 750.673 61.0683 750.679 61.0871 750.685C61.1058 750.69 61.1246 750.696 61.1434 750.702C61.1621 750.707 61.1809 750.713 61.1997 750.719C61.2185 750.724 61.2372 750.73 61.256 750.736C61.2748 750.741 61.2935 750.747 61.3123 750.753C61.3311 750.758 61.3498 750.764 61.3686 750.77C61.3874 750.775 61.4062 750.781 61.4249 750.787C61.4437 750.792 61.4625 750.798 61.4812 750.804C61.5 750.809 61.5188 750.815 61.5376 750.821C61.5563 750.826 61.5751 750.832 61.5939 750.838C61.6126 750.843 61.6314 750.849 61.6502 750.855C61.669 750.86 61.6877 750.866 61.7065 750.872C61.7253 750.877 61.744 750.883 61.7628 750.889C61.7816 750.894 61.8003 750.9 61.8191 750.906C61.8379 750.911 61.8567 750.917 61.8754 750.923C61.8942 750.928 61.913 750.934 61.9317 750.94C61.9505 750.945 61.9693 750.951 61.9881 750.957C62.0068 750.962 62.0256 750.968 62.0444 750.974C62.0631 750.979 62.0819 750.985 62.1007 750.991C62.1195 750.996 62.1382 751.002 62.157 751.008C62.1758 751.013 62.1945 751.019 62.2133 751.025C62.2321 751.03 62.2508 751.036 62.2696 751.042C62.2884 751.047 62.3072 751.053 62.3259 751.059C62.3447 751.064 62.3635 751.07 62.3822 751.076C62.401 751.081 62.4198 751.087 62.4386 751.093C62.4573 751.098 62.4761 751.104 62.4949 751.11C62.5136 751.115 62.5324 751.121 62.5512 751.127C62.57 751.132 62.5887 751.138 62.6075 751.144C62.6263 751.149 62.645 751.155 62.6638 751.161C62.6826 751.166 62.7013 751.172 62.7201 751.178C62.7389 751.183 62.7577 751.189 62.7764 751.195C62.7952 751.2 62.814 751.206 62.8327 751.212C62.8515 751.217 62.8703 751.223 62.8891 751.229C62.9078 751.234 62.9266 751.24 62.9454 751.246C62.9641 751.251 62.9829 751.257 63.0017 751.263C63.0205 751.268 63.0392 751.274 63.058 751.28C63.0768 751.285 63.0955 751.291 63.1143 751.297C63.1331 751.302 63.1518 751.308 63.1706 751.314C63.1894 751.319 63.2082 751.325 63.2269 751.331C63.2457 751.336 63.2645 751.342 63.2832 751.348C63.302 751.353 63.3208 751.359 63.3396 751.365C63.3583 751.37 63.3771 751.376 63.3959 751.382C63.4146 751.387 63.4334 751.393 63.4522 751.399C63.471 751.404 63.4897 751.41 63.5085 751.416C63.5273 751.421 63.546 751.427 63.5648 751.433C63.5836 751.438 63.6023 751.444 63.6211 751.45C63.6399 751.455 63.6587 751.461 63.6774 751.467C63.6962 751.472 63.715 751.478 63.7337 751.484C63.7525 751.489 63.7713 751.495 63.7901 751.501C63.8088 751.506 63.8276 751.512 63.8464 751.518C63.8651 751.523 63.8839 751.529 63.9027 751.535C63.9215 751.54 63.9402 751.546 63.959 751.552C63.9778 751.557 63.9965 751.563 64.0153 751.569C64.0341 751.574 64.0528 751.58 64.0716 751.586C64.0904 751.591 64.1092 751.597 64.1279 751.603C64.1467 751.608 64.1655 751.614 64.1842 751.62C64.203 751.625 64.2218 751.631 64.2406 751.637C64.2593 751.642 64.2781 751.648 64.2969 751.654C64.3156 751.659 64.3344 751.665 64.3532 751.671C64.372 751.676 64.3907 751.682 64.4095 751.688C64.4283 751.693 64.447 751.699 64.4658 751.705C64.4846 751.71 64.5034 751.716 64.5221 751.722C64.5409 751.727 64.5597 751.733 64.5784 751.739C64.5972 751.744 64.616 751.75 64.6347 751.756C64.6535 751.761 64.6723 751.767 64.6911 751.773C64.7098 751.778 64.7286 751.784 64.7474 751.79C64.7661 751.795 64.7849 751.801 64.8037 751.807C64.8224 751.812 64.8412 751.818 64.86 751.824C64.8788 751.829 64.8975 751.835 64.9163 751.841C64.9351 751.846 64.9539 751.852 64.9726 751.858C64.9914 751.863 65.0102 751.869 65.0289 751.875C65.0477 751.88 65.0665 751.886 65.0852 751.892C65.104 751.897 65.1228 751.903 65.1416 751.909C65.1603 751.914 65.1791 751.92 65.1979 751.926C65.2166 751.931 65.2354 751.937 65.2542 751.943C65.2729 751.948 65.2917 751.954 65.3105 751.96C65.3293 751.965 65.348 751.971 65.3668 751.977C65.3856 751.982 65.4044 751.988 65.4231 751.994C65.4419 751.999 65.4607 752.005 65.4794 752.011C65.4982 752.016 65.517 752.022 65.5357 752.028C65.5545 752.033 65.5733 752.039 65.5921 752.045C65.6108 752.05 65.6296 752.056 65.6484 752.062C65.6671 752.067 65.6859 752.073 65.7047 752.079C65.7235 752.084 65.7422 752.09 65.761 752.096C65.7798 752.101 65.7985 752.107 65.8173 752.113C65.8361 752.118 65.8549 752.124 65.8736 752.13C65.8924 752.135 65.9112 752.141 65.9299 752.147C65.9487 752.152 65.9675 752.158 65.9862 752.164C66.005 752.169 66.0238 752.175 66.0426 752.181C66.0613 752.186 66.0801 752.192 66.0989 752.198C66.1176 752.203 66.1364 752.209 66.1552 752.215C66.174 752.22 66.1927 752.226 66.2115 752.232C66.2303 752.237 66.249 752.243 66.2678 752.249C66.2866 752.254 66.3054 752.26 66.3241 752.266C66.3429 752.271 66.3617 752.277 66.3804 752.283C66.3992 752.288 66.418 752.294 66.4367 752.3C66.4555 752.305 66.4743 752.311 66.4931 752.317C66.5118 752.322 66.5306 752.328 66.5494 752.334C66.5681 752.339 66.5869 752.345 66.6057 752.351C66.6245 752.356 66.6432 752.362 66.662 752.368C66.6808 752.373 66.6995 752.379 66.7183 752.385C66.7371 752.39 66.7559 752.396 66.7746 752.402C66.7934 752.407 66.8122 752.413 66.8309 752.419C66.8497 752.424 66.8685 752.43 66.8872 752.436C66.906 752.441 66.9248 752.447 66.9436 752.453C66.9623 752.458 66.9811 752.464 66.9999 752.47C67.0186 752.475 67.0374 752.481 67.0562 752.487C67.075 752.492 67.0937 752.498 67.1125 752.504C67.1313 752.509 67.15 752.515 67.1688 752.521C67.1876 752.526 67.2063 752.532 67.2251 752.538C67.2439 752.543 67.2627 752.549 67.2814 752.555C67.3002 752.56 67.319 752.566 67.3377 752.572C67.3565 752.577 67.3753 752.583 67.3941 752.589C67.4128 752.594 67.4316 752.6 67.4504 752.606C67.4691 752.611 67.4879 752.617 67.5067 752.623C67.5255 752.628 67.5442 752.634 67.563 752.64C67.5818 752.645 67.6005 752.651 67.6193 752.657C67.6381 752.662 67.6568 752.668 67.6756 752.674C67.6944 752.679 67.7132 752.685 67.7319 752.691C67.7507 752.696 67.7695 752.702 67.7882 752.708C67.807 752.713 67.8258 752.719 67.8446 752.725C67.8633 752.73 67.8821 752.736 67.9009 752.742C67.9196 752.747 67.9384 752.753 67.9572 752.759C67.976 752.764 67.9947 752.77 68.0135 752.776C68.0323 752.781 68.051 752.787 68.0698 752.793C68.0886 752.798 68.1073 752.804 68.1261 752.81C68.1449 752.815 68.1637 752.821 68.1824 752.827C68.2012 752.832 68.22 752.838 68.2387 752.844C68.2575 752.849 68.2763 752.855 68.2951 752.861C68.3138 752.866 68.3326 752.872 68.3514 752.878C68.3701 752.883 68.3889 752.889 68.4077 752.895C68.4265 752.9 68.4452 752.906 68.464 752.912C68.4828 752.917 68.5015 752.923 68.5203 752.929C68.5391 752.934 68.5578 752.94 68.5766 752.946C68.5954 752.951 68.6142 752.957 68.6329 752.963C68.6517 752.968 68.6705 752.974 68.6892 752.98C68.708 752.985 68.7268 752.991 68.7456 752.997C68.7643 753.002 68.7831 753.008 68.8019 753.014C68.8206 753.019 68.8394 753.025 68.8582 753.031C68.877 753.036 68.8957 753.042 68.9145 753.048C68.9333 753.053 68.952 753.059 68.9708 753.065C68.9896 753.07 69.0083 753.076 69.0271 753.082C69.0459 753.087 69.0647 753.093 69.0834 753.099C69.1022 753.104 69.121 753.11 69.1397 753.116C69.1585 753.121 69.1773 753.127 69.1961 753.133C69.2148 753.138 69.2336 753.144 69.2524 753.15C69.2711 753.155 69.2899 753.161 69.3087 753.167C69.3275 753.172 69.3462 753.178 69.365 753.184C69.3838 753.189 69.4025 753.195 69.4213 753.201C69.4401 753.206 69.4588 753.212 69.4776 753.218C69.4964 753.223 69.5152 753.229 69.5339 753.235C69.5527 753.24 69.5715 753.246 69.5902 753.252C69.609 753.257 69.6278 753.263 69.6466 753.269C69.6653 753.274 69.6841 753.28 69.7029 753.286C69.7216 753.291 69.7404 753.297 69.7592 753.303C69.778 753.308 69.7967 753.314 69.8155 753.32C69.8343 753.325 69.853 753.331 69.8718 753.337C69.8906 753.342 69.9093 753.348 69.9281 753.354C69.9469 753.359 69.9657 753.365 69.9844 753.371C70.0032 753.376 70.022 753.382 70.0407 753.388C70.0595 753.393 70.0783 753.399 70.0971 753.405C70.1158 753.41 70.1346 753.416 70.1534 753.422C70.1721 753.427 70.1909 753.433 70.2097 753.439C70.2285 753.444 70.2472 753.45 70.266 753.456C70.2848 753.461 70.3035 753.467 70.3223 753.473C70.3411 753.478 70.3598 753.484 70.3786 753.49C70.3974 753.495 70.4162 753.501 70.4349 753.507C70.4537 753.512 70.4725 753.518 70.4912 753.524C70.51 753.529 70.5288 753.535 70.5476 753.541C70.5663 753.546 70.5851 753.552 70.6039 753.558C70.6226 753.563 70.6414 753.569 70.6602 753.575C70.679 753.58 70.6977 753.586 70.7165 753.592C70.7353 753.597 70.754 753.603 70.7728 753.609C70.7916 753.614 70.8103 753.62 70.8291 753.626C70.8479 753.631 70.8667 753.637 70.8854 753.643C70.9042 753.648 70.923 753.654 70.9417 753.66C70.9605 753.665 70.9793 753.671 70.9981 753.677C71.0168 753.682 71.0356 753.688 71.0544 753.694C71.0731 753.699 71.0919 753.705 71.1107 753.711C71.1295 753.716 71.1482 753.722 71.167 753.728C71.1858 753.733 71.2045 753.739 71.2233 753.745C71.2421 753.75 71.2608 753.756 71.2796 753.762C71.2984 753.767 71.3172 753.773 71.3359 753.779C71.3547 753.784 71.3735 753.79 71.3922 753.796C71.411 753.801 71.4298 753.807 71.4486 753.813C71.4673 753.818 71.4861 753.824 71.5049 753.83C71.5236 753.835 71.5424 753.841 71.5612 753.847C71.58 753.852 71.5987 753.858 71.6175 753.864C71.6363 753.869 71.655 753.875 71.6738 753.881C71.6926 753.886 71.7114 753.892 71.7301 753.898C71.7489 753.903 71.7677 753.909 71.7864 753.915C71.8052 753.92 71.824 753.926 71.8427 753.932C71.8615 753.937 71.8803 753.943 71.8991 753.949C71.9178 753.954 71.9366 753.96 71.9554 753.966C71.9741 753.971 71.9929 753.977 72.0117 753.983C72.0304 753.988 72.0492 753.994 72.068 754C72.0868 754.005 72.1055 754.011 72.1243 754.017C72.1431 754.022 72.1619 754.028 72.1806 754.034C72.1994 754.039 72.2182 754.045 72.2369 754.051C72.2557 754.056 72.2745 754.062 72.2932 754.068C72.312 754.073 72.3308 754.079 72.3496 754.085C72.3683 754.09 72.3871 754.096 72.4059 754.102C72.4246 754.107 72.4434 754.113 72.4622 754.119C72.481 754.124 72.4997 754.13 72.5185 754.136C72.5373 754.141 72.556 754.147 72.5748 754.153C72.5936 754.158 72.6124 754.164 72.6311 754.17C72.6499 754.175 72.6687 754.181 72.6874 754.187C72.7062 754.192 72.725 754.198 72.7437 754.204C72.7625 754.209 72.7813 754.215 72.8001 754.221C72.8188 754.226 72.8376 754.232 72.8564 754.238C72.8751 754.243 72.8939 754.249 72.9127 754.255C72.9315 754.26 72.9502 754.266 72.969 754.272C72.9878 754.277 73.0065 754.283 73.0253 754.289C73.0441 754.294 73.0629 754.3 73.0816 754.306C73.1004 754.311 73.1192 754.317 73.1379 754.323C73.1567 754.328 73.1755 754.334 73.1942 754.34C73.213 754.345 73.2318 754.351 73.2506 754.357C73.2693 754.362 73.2881 754.368 73.3069 754.374C73.3256 754.379 73.3444 754.385 73.3632 754.391C73.382 754.396 73.4007 754.402 73.4195 754.408C73.4383 754.413 73.457 754.419 73.4758 754.425C73.4946 754.43 73.5134 754.436 73.5321 754.442C73.5509 754.447 73.5697 754.453 73.5884 754.459C73.6072 754.464 73.626 754.47 73.6447 754.476C73.6635 754.481 73.6823 754.487 73.7011 754.493C73.7198 754.498 73.7386 754.504 73.7574 754.51C73.7761 754.515 73.7949 754.521 73.8137 754.527C73.8325 754.532 73.8512 754.538 73.87 754.544C73.8888 754.549 73.9075 754.555 73.9263 754.561C73.9451 754.566 73.9639 754.572 73.9826 754.578C74.0014 754.583 74.0202 754.589 74.0389 754.595C74.0577 754.6 74.0765 754.606 74.0952 754.612C74.114 754.617 74.1328 754.623 74.1516 754.629C74.1703 754.634 74.1891 754.64 74.2079 754.646C74.2266 754.651 74.2454 754.657 74.2642 754.663C74.283 754.668 74.3017 754.674 74.3205 754.68C74.3393 754.685 74.358 754.691 74.3768 754.697C74.3956 754.702 74.4144 754.708 74.4331 754.714C74.4519 754.719 74.4707 754.725 74.4894 754.731C74.5082 754.736 74.527 754.742 74.5457 754.748C74.5645 754.753 74.5833 754.759 74.6021 754.765C74.6208 754.77 74.6396 754.776 74.6584 754.782C74.6771 754.787 74.6959 754.793 74.7147 754.799C74.7335 754.804 74.7522 754.81 74.771 754.816C74.7898 754.821 74.8085 754.827 74.8273 754.833C74.8461 754.838 74.8648 754.844 74.8836 754.85C74.9024 754.855 74.9212 754.861 74.9399 754.867C74.9587 754.872 74.9775 754.878 74.9962 754.884C75.015 754.889 75.0338 754.895 75.0526 754.901C75.0713 754.906 75.0901 754.912 75.1089 754.918C75.1276 754.923 75.1464 754.929 75.1652 754.935C75.184 754.94 75.2027 754.946 75.2215 754.952C75.2403 754.957 75.259 754.963 75.2778 754.969C75.2966 754.974 75.3153 754.98 75.3341 754.986C75.3529 754.991 75.3717 754.997 75.3904 755.003C75.4092 755.008 75.428 755.014 75.4467 755.02C75.4655 755.025 75.4843 755.031 75.5031 755.037C75.5218 755.042 75.5406 755.048 75.5594 755.054C75.5781 755.059 75.5969 755.065 75.6157 755.071C75.6345 755.076 75.6532 755.082 75.672 755.088C75.6908 755.093 75.7095 755.099 75.7283 755.105C75.7471 755.11 75.7658 755.116 75.7846 755.122C75.8034 755.127 75.8222 755.133 75.8409 755.139C75.8597 755.144 75.8785 755.15 75.8972 755.156C75.916 755.161 75.9348 755.167 75.9536 755.173C75.9723 755.178 75.9911 755.184 76.0099 755.19C76.0286 755.195 76.0474 755.201 76.0662 755.207C76.085 755.212 76.1037 755.218 76.1225 755.224C76.1413 755.229 76.16 755.235 76.1788 755.241C76.1976 755.246 76.2163 755.252 76.2351 755.258C76.2539 755.263 76.2727 755.269 76.2914 755.275C76.3102 755.28 76.329 755.286 76.3477 755.292C76.3665 755.297 76.3853 755.303 76.4041 755.309C76.4228 755.314 76.4416 755.32 76.4604 755.326C76.4791 755.331 76.4979 755.337 76.5167 755.343C76.5355 755.348 76.5542 755.354 76.573 755.36C76.5918 755.365 76.6105 755.371 76.6293 755.377C76.6481 755.382 76.6668 755.388 76.6856 755.394C76.7044 755.399 76.7232 755.405 76.7419 755.411C76.7607 755.416 76.7795 755.422 76.7982 755.428C76.817 755.433 76.8358 755.439 76.8546 755.445C76.8733 755.45 76.8921 755.456 76.9109 755.462C76.9296 755.467 76.9484 755.473 76.9672 755.479C76.986 755.484 77.0047 755.49 77.0235 755.496C77.0423 755.501 77.061 755.507 77.0798 755.513C77.0986 755.518 77.1173 755.524 77.1361 755.53C77.1549 755.535 77.1737 755.541 77.1924 755.547C77.2112 755.552 77.23 755.558 77.2487 755.564C77.2675 755.569 77.2863 755.575 77.3051 755.581C77.3238 755.586 77.3426 755.592 77.3614 755.598C77.3801 755.603 77.3989 755.609 77.4177 755.615C77.4365 755.62 77.4552 755.626 77.474 755.632C77.4928 755.637 77.5115 755.643 77.5303 755.649C77.5491 755.654 77.5678 755.66 77.5866 755.666C77.6054 755.671 77.6242 755.677 77.6429 755.683C77.6617 755.688 77.6805 755.694 77.6992 755.7C77.718 755.705 77.7368 755.711 77.7556 755.717C77.7743 755.722 77.7931 755.728 77.8119 755.734C77.8306 755.739 77.8494 755.745 77.8682 755.751C77.887 755.756 77.9057 755.762 77.9245 755.768C77.9433 755.773 77.962 755.779 77.9808 755.785C77.9996 755.79 78.0183 755.796 78.0371 755.802C78.0559 755.807 78.0747 755.813 78.0934 755.819C78.1122 755.824 78.131 755.83 78.1497 755.836C78.1685 755.841 78.1873 755.847 78.2061 755.853C78.2248 755.858 78.2436 755.864 78.2624 755.87C78.2811 755.875 78.2999 755.881 78.3187 755.887C78.3375 755.892 78.3562 755.898 78.375 755.904L78.953 753.989C78.9342 753.983 78.9155 753.978 78.8967 753.972C78.8779 753.966 78.8591 753.961 78.8404 753.955C78.8216 753.949 78.8028 753.944 78.7841 753.938C78.7653 753.932 78.7465 753.927 78.7278 753.921C78.709 753.915 78.6902 753.91 78.6714 753.904C78.6527 753.898 78.6339 753.893 78.6151 753.887C78.5964 753.881 78.5776 753.876 78.5588 753.87C78.54 753.864 78.5213 753.859 78.5025 753.853C78.4837 753.847 78.465 753.842 78.4462 753.836C78.4274 753.83 78.4087 753.825 78.3899 753.819C78.3711 753.813 78.3523 753.808 78.3336 753.802C78.3148 753.796 78.296 753.791 78.2773 753.785C78.2585 753.779 78.2397 753.774 78.2209 753.768C78.2022 753.762 78.1834 753.757 78.1646 753.751C78.1459 753.745 78.1271 753.74 78.1083 753.734C78.0895 753.728 78.0708 753.723 78.052 753.717C78.0332 753.711 78.0145 753.706 77.9957 753.7C77.9769 753.694 77.9582 753.689 77.9394 753.683C77.9206 753.677 77.9018 753.672 77.8831 753.666C77.8643 753.66 77.8455 753.655 77.8268 753.649C77.808 753.643 77.7892 753.638 77.7704 753.632C77.7517 753.626 77.7329 753.621 77.7141 753.615C77.6954 753.609 77.6766 753.604 77.6578 753.598C77.639 753.592 77.6203 753.587 77.6015 753.581C77.5827 753.575 77.564 753.57 77.5452 753.564C77.5264 753.558 77.5077 753.553 77.4889 753.547C77.4701 753.541 77.4513 753.536 77.4326 753.53C77.4138 753.524 77.395 753.519 77.3763 753.513C77.3575 753.507 77.3387 753.502 77.3199 753.496C77.3012 753.49 77.2824 753.485 77.2636 753.479C77.2449 753.473 77.2261 753.468 77.2073 753.462C77.1885 753.456 77.1698 753.451 77.151 753.445C77.1322 753.439 77.1135 753.434 77.0947 753.428C77.0759 753.422 77.0572 753.417 77.0384 753.411C77.0196 753.405 77.0008 753.4 76.9821 753.394C76.9633 753.388 76.9445 753.383 76.9258 753.377C76.907 753.371 76.8882 753.366 76.8694 753.36C76.8507 753.354 76.8319 753.349 76.8131 753.343C76.7944 753.337 76.7756 753.332 76.7568 753.326C76.738 753.32 76.7193 753.315 76.7005 753.309C76.6817 753.303 76.663 753.298 76.6442 753.292C76.6254 753.286 76.6067 753.281 76.5879 753.275C76.5691 753.269 76.5503 753.264 76.5316 753.258C76.5128 753.252 76.494 753.247 76.4753 753.241C76.4565 753.235 76.4377 753.23 76.4189 753.224C76.4002 753.218 76.3814 753.213 76.3626 753.207C76.3439 753.201 76.3251 753.196 76.3063 753.19C76.2875 753.184 76.2688 753.179 76.25 753.173C76.2312 753.167 76.2125 753.162 76.1937 753.156C76.1749 753.15 76.1562 753.145 76.1374 753.139C76.1186 753.133 76.0998 753.128 76.0811 753.122C76.0623 753.116 76.0435 753.111 76.0248 753.105C76.006 753.099 75.9872 753.094 75.9684 753.088C75.9497 753.082 75.9309 753.077 75.9121 753.071C75.8934 753.065 75.8746 753.06 75.8558 753.054C75.837 753.048 75.8183 753.043 75.7995 753.037C75.7807 753.031 75.762 753.026 75.7432 753.02C75.7244 753.014 75.7057 753.009 75.6869 753.003C75.6681 752.997 75.6493 752.992 75.6306 752.986C75.6118 752.98 75.593 752.975 75.5743 752.969C75.5555 752.963 75.5367 752.958 75.5179 752.952C75.4992 752.946 75.4804 752.941 75.4616 752.935C75.4429 752.929 75.4241 752.924 75.4053 752.918C75.3865 752.912 75.3678 752.907 75.349 752.901C75.3302 752.895 75.3115 752.89 75.2927 752.884C75.2739 752.878 75.2552 752.873 75.2364 752.867C75.2176 752.861 75.1988 752.856 75.1801 752.85C75.1613 752.844 75.1425 752.839 75.1238 752.833C75.105 752.827 75.0862 752.822 75.0674 752.816C75.0487 752.81 75.0299 752.805 75.0111 752.799C74.9924 752.793 74.9736 752.788 74.9548 752.782C74.936 752.776 74.9173 752.771 74.8985 752.765C74.8797 752.759 74.861 752.754 74.8422 752.748C74.8234 752.742 74.8047 752.737 74.7859 752.731C74.7671 752.725 74.7483 752.72 74.7296 752.714C74.7108 752.708 74.692 752.703 74.6733 752.697C74.6545 752.691 74.6357 752.686 74.6169 752.68C74.5982 752.674 74.5794 752.669 74.5606 752.663C74.5419 752.657 74.5231 752.652 74.5043 752.646C74.4855 752.64 74.4668 752.635 74.448 752.629C74.4292 752.623 74.4105 752.618 74.3917 752.612C74.3729 752.606 74.3541 752.601 74.3354 752.595C74.3166 752.589 74.2978 752.584 74.2791 752.578C74.2603 752.572 74.2415 752.567 74.2228 752.561C74.204 752.555 74.1852 752.55 74.1664 752.544C74.1477 752.538 74.1289 752.533 74.1101 752.527C74.0914 752.521 74.0726 752.516 74.0538 752.51C74.035 752.504 74.0163 752.499 73.9975 752.493C73.9787 752.487 73.96 752.482 73.9412 752.476C73.9224 752.47 73.9036 752.465 73.8849 752.459C73.8661 752.453 73.8473 752.448 73.8286 752.442C73.8098 752.436 73.791 752.431 73.7723 752.425C73.7535 752.419 73.7347 752.414 73.7159 752.408C73.6972 752.402 73.6784 752.397 73.6596 752.391C73.6409 752.385 73.6221 752.38 73.6033 752.374C73.5845 752.368 73.5658 752.363 73.547 752.357C73.5282 752.351 73.5095 752.346 73.4907 752.34C73.4719 752.334 73.4531 752.329 73.4344 752.323C73.4156 752.317 73.3968 752.312 73.3781 752.306C73.3593 752.3 73.3405 752.295 73.3218 752.289C73.303 752.283 73.2842 752.278 73.2654 752.272C73.2467 752.266 73.2279 752.261 73.2091 752.255C73.1904 752.249 73.1716 752.244 73.1528 752.238C73.134 752.232 73.1153 752.227 73.0965 752.221C73.0777 752.215 73.059 752.21 73.0402 752.204C73.0214 752.198 73.0026 752.193 72.9839 752.187C72.9651 752.181 72.9463 752.176 72.9276 752.17C72.9088 752.164 72.89 752.159 72.8713 752.153C72.8525 752.147 72.8337 752.142 72.8149 752.136C72.7962 752.13 72.7774 752.125 72.7586 752.119C72.7399 752.113 72.7211 752.108 72.7023 752.102C72.6835 752.096 72.6648 752.091 72.646 752.085C72.6272 752.079 72.6085 752.074 72.5897 752.068C72.5709 752.062 72.5521 752.057 72.5334 752.051C72.5146 752.045 72.4958 752.04 72.4771 752.034C72.4583 752.028 72.4395 752.023 72.4208 752.017C72.402 752.011 72.3832 752.006 72.3644 752C72.3457 751.994 72.3269 751.989 72.3081 751.983C72.2894 751.977 72.2706 751.972 72.2518 751.966C72.233 751.96 72.2143 751.955 72.1955 751.949C72.1767 751.943 72.158 751.938 72.1392 751.932C72.1204 751.926 72.1016 751.921 72.0829 751.915C72.0641 751.909 72.0453 751.904 72.0266 751.898C72.0078 751.892 71.989 751.887 71.9703 751.881C71.9515 751.875 71.9327 751.87 71.9139 751.864C71.8952 751.858 71.8764 751.853 71.8576 751.847C71.8389 751.841 71.8201 751.836 71.8013 751.83C71.7825 751.824 71.7638 751.819 71.745 751.813C71.7262 751.807 71.7075 751.802 71.6887 751.796C71.6699 751.79 71.6511 751.785 71.6324 751.779C71.6136 751.773 71.5948 751.768 71.5761 751.762C71.5573 751.756 71.5385 751.751 71.5198 751.745C71.501 751.739 71.4822 751.734 71.4634 751.728C71.4447 751.722 71.4259 751.717 71.4071 751.711C71.3884 751.705 71.3696 751.7 71.3508 751.694C71.332 751.688 71.3133 751.683 71.2945 751.677C71.2757 751.671 71.257 751.666 71.2382 751.66C71.2194 751.654 71.2007 751.649 71.1819 751.643C71.1631 751.637 71.1443 751.632 71.1256 751.626C71.1068 751.62 71.088 751.615 71.0693 751.609C71.0505 751.603 71.0317 751.598 71.0129 751.592C70.9942 751.586 70.9754 751.581 70.9566 751.575C70.9379 751.569 70.9191 751.564 70.9003 751.558C70.8815 751.552 70.8628 751.547 70.844 751.541C70.8252 751.535 70.8065 751.53 70.7877 751.524C70.7689 751.518 70.7502 751.513 70.7314 751.507C70.7126 751.501 70.6938 751.496 70.6751 751.49C70.6563 751.484 70.6375 751.479 70.6188 751.473C70.6 751.467 70.5812 751.462 70.5624 751.456C70.5437 751.45 70.5249 751.445 70.5061 751.439C70.4874 751.433 70.4686 751.428 70.4498 751.422C70.431 751.416 70.4123 751.411 70.3935 751.405C70.3747 751.399 70.356 751.394 70.3372 751.388C70.3184 751.382 70.2997 751.377 70.2809 751.371C70.2621 751.365 70.2433 751.36 70.2246 751.354C70.2058 751.348 70.187 751.343 70.1683 751.337C70.1495 751.331 70.1307 751.326 70.1119 751.32C70.0932 751.314 70.0744 751.309 70.0556 751.303C70.0369 751.297 70.0181 751.292 69.9993 751.286C69.9805 751.28 69.9618 751.275 69.943 751.269C69.9242 751.263 69.9055 751.258 69.8867 751.252C69.8679 751.246 69.8492 751.241 69.8304 751.235C69.8116 751.229 69.7928 751.224 69.7741 751.218C69.7553 751.212 69.7365 751.207 69.7178 751.201C69.699 751.195 69.6802 751.19 69.6614 751.184C69.6427 751.178 69.6239 751.173 69.6051 751.167C69.5864 751.161 69.5676 751.156 69.5488 751.15C69.53 751.144 69.5113 751.139 69.4925 751.133C69.4737 751.127 69.455 751.122 69.4362 751.116C69.4174 751.11 69.3987 751.105 69.3799 751.099C69.3611 751.093 69.3423 751.088 69.3236 751.082C69.3048 751.076 69.286 751.071 69.2673 751.065C69.2485 751.059 69.2297 751.054 69.2109 751.048C69.1922 751.042 69.1734 751.037 69.1546 751.031C69.1359 751.025 69.1171 751.02 69.0983 751.014C69.0795 751.008 69.0608 751.003 69.042 750.997C69.0232 750.991 69.0045 750.986 68.9857 750.98C68.9669 750.974 68.9482 750.969 68.9294 750.963C68.9106 750.957 68.8918 750.952 68.8731 750.946C68.8543 750.94 68.8355 750.935 68.8168 750.929C68.798 750.923 68.7792 750.918 68.7604 750.912C68.7417 750.906 68.7229 750.901 68.7041 750.895C68.6854 750.889 68.6666 750.884 68.6478 750.878C68.629 750.872 68.6103 750.867 68.5915 750.861C68.5727 750.855 68.554 750.85 68.5352 750.844C68.5164 750.838 68.4977 750.833 68.4789 750.827C68.4601 750.821 68.4413 750.816 68.4226 750.81C68.4038 750.804 68.385 750.799 68.3663 750.793C68.3475 750.787 68.3287 750.782 68.3099 750.776C68.2912 750.77 68.2724 750.765 68.2536 750.759C68.2349 750.753 68.2161 750.748 68.1973 750.742C68.1785 750.736 68.1598 750.731 68.141 750.725C68.1222 750.719 68.1035 750.714 68.0847 750.708C68.0659 750.702 68.0472 750.697 68.0284 750.691C68.0096 750.685 67.9908 750.68 67.9721 750.674C67.9533 750.668 67.9345 750.663 67.9158 750.657C67.897 750.651 67.8782 750.646 67.8594 750.64C67.8407 750.634 67.8219 750.629 67.8031 750.623C67.7844 750.617 67.7656 750.612 67.7468 750.606C67.728 750.6 67.7093 750.595 67.6905 750.589C67.6717 750.583 67.653 750.578 67.6342 750.572C67.6154 750.566 67.5966 750.561 67.5779 750.555C67.5591 750.549 67.5403 750.544 67.5216 750.538C67.5028 750.532 67.484 750.527 67.4653 750.521C67.4465 750.515 67.4277 750.51 67.4089 750.504C67.3902 750.498 67.3714 750.493 67.3526 750.487C67.3339 750.481 67.3151 750.476 67.2963 750.47C67.2775 750.464 67.2588 750.459 67.24 750.453C67.2212 750.447 67.2025 750.442 67.1837 750.436C67.1649 750.43 67.1461 750.425 67.1274 750.419C67.1086 750.413 67.0898 750.408 67.0711 750.402C67.0523 750.396 67.0335 750.391 67.0148 750.385C66.996 750.379 66.9772 750.374 66.9584 750.368C66.9397 750.362 66.9209 750.357 66.9021 750.351C66.8834 750.345 66.8646 750.34 66.8458 750.334C66.827 750.328 66.8083 750.323 66.7895 750.317C66.7707 750.311 66.752 750.306 66.7332 750.3C66.7144 750.294 66.6956 750.289 66.6769 750.283C66.6581 750.277 66.6393 750.272 66.6206 750.266C66.6018 750.26 66.583 750.255 66.5643 750.249C66.5455 750.243 66.5267 750.238 66.5079 750.232C66.4892 750.226 66.4704 750.221 66.4516 750.215C66.4329 750.209 66.4141 750.204 66.3953 750.198C66.3765 750.192 66.3578 750.187 66.339 750.181C66.3202 750.175 66.3015 750.17 66.2827 750.164C66.2639 750.158 66.2451 750.153 66.2264 750.147C66.2076 750.141 66.1888 750.136 66.1701 750.13C66.1513 750.124 66.1325 750.119 66.1138 750.113C66.095 750.107 66.0762 750.102 66.0574 750.096C66.0387 750.09 66.0199 750.085 66.0011 750.079C65.9824 750.073 65.9636 750.068 65.9448 750.062C65.926 750.056 65.9073 750.051 65.8885 750.045C65.8697 750.039 65.851 750.034 65.8322 750.028C65.8134 750.022 65.7946 750.017 65.7759 750.011C65.7571 750.005 65.7383 750 65.7196 749.994C65.7008 749.988 65.682 749.983 65.6633 749.977C65.6445 749.971 65.6257 749.966 65.6069 749.96C65.5882 749.954 65.5694 749.949 65.5506 749.943C65.5319 749.937 65.5131 749.932 65.4943 749.926C65.4755 749.92 65.4568 749.915 65.438 749.909C65.4192 749.903 65.4005 749.898 65.3817 749.892C65.3629 749.886 65.3441 749.881 65.3254 749.875C65.3066 749.869 65.2878 749.864 65.2691 749.858C65.2503 749.852 65.2315 749.847 65.2128 749.841C65.194 749.835 65.1752 749.83 65.1564 749.824C65.1377 749.818 65.1189 749.813 65.1001 749.807C65.0814 749.801 65.0626 749.796 65.0438 749.79C65.025 749.784 65.0063 749.779 64.9875 749.773C64.9687 749.767 64.95 749.762 64.9312 749.756C64.9124 749.75 64.8936 749.745 64.8749 749.739C64.8561 749.733 64.8373 749.728 64.8186 749.722C64.7998 749.716 64.781 749.711 64.7623 749.705C64.7435 749.699 64.7247 749.694 64.7059 749.688C64.6872 749.682 64.6684 749.677 64.6496 749.671C64.6309 749.665 64.6121 749.66 64.5933 749.654C64.5745 749.648 64.5558 749.643 64.537 749.637C64.5182 749.631 64.4995 749.626 64.4807 749.62C64.4619 749.614 64.4431 749.609 64.4244 749.603C64.4056 749.597 64.3868 749.592 64.3681 749.586C64.3493 749.58 64.3305 749.575 64.3118 749.569C64.293 749.563 64.2742 749.558 64.2554 749.552C64.2367 749.546 64.2179 749.541 64.1991 749.535C64.1804 749.529 64.1616 749.524 64.1428 749.518C64.124 749.512 64.1053 749.507 64.0865 749.501C64.0677 749.495 64.049 749.49 64.0302 749.484C64.0114 749.478 63.9926 749.473 63.9739 749.467C63.9551 749.461 63.9363 749.456 63.9176 749.45C63.8988 749.444 63.88 749.439 63.8613 749.433C63.8425 749.427 63.8237 749.422 63.8049 749.416C63.7862 749.41 63.7674 749.405 63.7486 749.399C63.7299 749.393 63.7111 749.388 63.6923 749.382C63.6735 749.376 63.6548 749.371 63.636 749.365C63.6172 749.359 63.5985 749.354 63.5797 749.348C63.5609 749.342 63.5422 749.337 63.5234 749.331C63.5046 749.325 63.4858 749.32 63.4671 749.314C63.4483 749.308 63.4295 749.303 63.4108 749.297C63.392 749.291 63.3732 749.286 63.3544 749.28C63.3357 749.274 63.3169 749.269 63.2981 749.263C63.2794 749.257 63.2606 749.252 63.2418 749.246C63.223 749.24 63.2043 749.235 63.1855 749.229C63.1667 749.223 63.148 749.218 63.1292 749.212C63.1104 749.206 63.0917 749.201 63.0729 749.195C63.0541 749.189 63.0353 749.184 63.0166 749.178C62.9978 749.172 62.979 749.167 62.9603 749.161C62.9415 749.155 62.9227 749.15 62.9039 749.144C62.8852 749.138 62.8664 749.133 62.8476 749.127C62.8289 749.121 62.8101 749.116 62.7913 749.11C62.7725 749.104 62.7538 749.099 62.735 749.093C62.7162 749.087 62.6975 749.082 62.6787 749.076C62.6599 749.07 62.6412 749.065 62.6224 749.059C62.6036 749.053 62.5848 749.048 62.5661 749.042C62.5473 749.036 62.5285 749.031 62.5098 749.025C62.491 749.019 62.4722 749.014 62.4534 749.008C62.4347 749.002 62.4159 748.997 62.3971 748.991C62.3784 748.985 62.3596 748.98 62.3408 748.974C62.322 748.968 62.3033 748.963 62.2845 748.957C62.2657 748.951 62.247 748.946 62.2282 748.94C62.2094 748.934 62.1907 748.929 62.1719 748.923C62.1531 748.917 62.1343 748.912 62.1156 748.906C62.0968 748.9 62.078 748.895 62.0593 748.889C62.0405 748.883 62.0217 748.878 62.0029 748.872C61.9842 748.866 61.9654 748.861 61.9466 748.855C61.9279 748.849 61.9091 748.844 61.8903 748.838C61.8715 748.832 61.8528 748.827 61.834 748.821C61.8152 748.815 61.7965 748.81 61.7777 748.804C61.7589 748.798 61.7402 748.793 61.7214 748.787C61.7026 748.781 61.6838 748.776 61.6651 748.77C61.6463 748.764 61.6275 748.759 61.6088 748.753C61.59 748.747 61.5712 748.742 61.5524 748.736C61.5337 748.73 61.5149 748.725 61.4961 748.719C61.4774 748.713 61.4586 748.708 61.4398 748.702C61.421 748.696 61.4023 748.691 61.3835 748.685C61.3647 748.679 61.346 748.674 61.3272 748.668C61.3084 748.662 61.2897 748.657 61.2709 748.651C61.2521 748.645 61.2333 748.64 61.2146 748.634C61.1958 748.628 61.177 748.623 61.1583 748.617C61.1395 748.611 61.1207 748.606 61.1019 748.6C61.0832 748.594 61.0644 748.589 61.0456 748.583C61.0269 748.577 61.0081 748.572 60.9893 748.566C60.9705 748.56 60.9518 748.555 60.933 748.549C60.9142 748.543 60.8955 748.538 60.8767 748.532C60.8579 748.526 60.8392 748.521 60.8204 748.515C60.8016 748.509 60.7828 748.504 60.7641 748.498C60.7453 748.492 60.7265 748.487 60.7078 748.481C60.689 748.475 60.6702 748.47 60.6514 748.464C60.6327 748.458 60.6139 748.453 60.5951 748.447C60.5764 748.441 60.5576 748.436 60.5388 748.43C60.52 748.424 60.5013 748.419 60.4825 748.413C60.4637 748.407 60.445 748.402 60.4262 748.396C60.4074 748.39 60.3886 748.385 60.3699 748.379C60.3511 748.373 60.3323 748.368 60.3136 748.362C60.2948 748.356 60.276 748.351 60.2573 748.345C60.2385 748.339 60.2197 748.334 60.2009 748.328C60.1822 748.322 60.1634 748.317 60.1446 748.311C60.1259 748.305 60.1071 748.3 60.0883 748.294C60.0695 748.288 60.0508 748.283 60.032 748.277C60.0132 748.271 59.9945 748.266 59.9757 748.26C59.9569 748.254 59.9381 748.249 59.9194 748.243C59.9006 748.237 59.8818 748.232 59.8631 748.226C59.8443 748.22 59.8255 748.215 59.8068 748.209C59.788 748.203 59.7692 748.198 59.7504 748.192C59.7317 748.186 59.7129 748.181 59.6941 748.175C59.6754 748.169 59.6566 748.164 59.6378 748.158C59.619 748.152 59.6003 748.147 59.5815 748.141C59.5627 748.135 59.544 748.13 59.5252 748.124C59.5064 748.118 59.4876 748.113 59.4689 748.107C59.4501 748.101 59.4313 748.096 59.4126 748.09C59.3938 748.084 59.375 748.079 59.3563 748.073C59.3375 748.067 59.3187 748.062 59.2999 748.056C59.2812 748.05 59.2624 748.045 59.2436 748.039C59.2249 748.033 59.2061 748.028 59.1873 748.022C59.1685 748.016 59.1498 748.011 59.131 748.005C59.1122 747.999 59.0935 747.994 59.0747 747.988C59.0559 747.982 59.0371 747.977 59.0184 747.971C58.9996 747.965 58.9808 747.96 58.9621 747.954C58.9433 747.948 58.9245 747.943 58.9058 747.937C58.887 747.931 58.8682 747.926 58.8494 747.92C58.8307 747.914 58.8119 747.909 58.7931 747.903C58.7744 747.897 58.7556 747.892 58.7368 747.886C58.718 747.88 58.6993 747.875 58.6805 747.869C58.6617 747.863 58.643 747.858 58.6242 747.852C58.6054 747.846 58.5866 747.841 58.5679 747.835C58.5491 747.829 58.5303 747.824 58.5116 747.818C58.4928 747.812 58.474 747.807 58.4553 747.801C58.4365 747.795 58.4177 747.79 58.3989 747.784C58.3802 747.778 58.3614 747.773 58.3426 747.767C58.3239 747.761 58.3051 747.756 58.2863 747.75C58.2675 747.744 58.2488 747.739 58.23 747.733C58.2112 747.727 58.1925 747.722 58.1737 747.716C58.1549 747.71 58.1361 747.705 58.1174 747.699C58.0986 747.693 58.0798 747.688 58.0611 747.682C58.0423 747.676 58.0235 747.671 58.0048 747.665C57.986 747.659 57.9672 747.654 57.9484 747.648C57.9297 747.642 57.9109 747.637 57.8921 747.631C57.8734 747.625 57.8546 747.62 57.8358 747.614C57.817 747.608 57.7983 747.603 57.7795 747.597C57.7607 747.591 57.742 747.586 57.7232 747.58C57.7044 747.574 57.6856 747.569 57.6669 747.563C57.6481 747.557 57.6293 747.552 57.6106 747.546C57.5918 747.54 57.573 747.535 57.5543 747.529C57.5355 747.523 57.5167 747.518 57.4979 747.512C57.4792 747.506 57.4604 747.501 57.4416 747.495C57.4229 747.489 57.4041 747.484 57.3853 747.478C57.3665 747.472 57.3478 747.467 57.329 747.461C57.3102 747.455 57.2915 747.45 57.2727 747.444C57.2539 747.438 57.2351 747.433 57.2164 747.427C57.1976 747.421 57.1788 747.416 57.1601 747.41C57.1413 747.404 57.1225 747.399 57.1038 747.393C57.085 747.387 57.0662 747.382 57.0474 747.376C57.0287 747.37 57.0099 747.365 56.9911 747.359C56.9724 747.353 56.9536 747.348 56.9348 747.342C56.916 747.336 56.8973 747.331 56.8785 747.325C56.8597 747.319 56.841 747.314 56.8222 747.308C56.8034 747.302 56.7846 747.297 56.7659 747.291C56.7471 747.285 56.7283 747.28 56.7096 747.274C56.6908 747.268 56.672 747.263 56.6533 747.257C56.6345 747.251 56.6157 747.246 56.5969 747.24C56.5782 747.234 56.5594 747.229 56.5406 747.223C56.5219 747.217 56.5031 747.212 56.4843 747.206C56.4655 747.2 56.4468 747.195 56.428 747.189C56.4092 747.183 56.3905 747.178 56.3717 747.172C56.3529 747.166 56.3342 747.161 56.3154 747.155C56.2966 747.149 56.2778 747.144 56.2591 747.138C56.2403 747.132 56.2215 747.127 56.2028 747.121C56.184 747.115 56.1652 747.11 56.1464 747.104C56.1277 747.098 56.1089 747.093 56.0901 747.087C56.0714 747.081 56.0526 747.076 56.0338 747.07C56.015 747.064 55.9963 747.059 55.9775 747.053C55.9587 747.047 55.94 747.042 55.9212 747.036C55.9024 747.03 55.8837 747.025 55.8649 747.019C55.8461 747.013 55.8273 747.008 55.8086 747.002C55.7898 746.996 55.771 746.991 55.7523 746.985C55.7335 746.979 55.7147 746.974 55.6959 746.968C55.6772 746.962 55.6584 746.957 55.6396 746.951C55.6209 746.945 55.6021 746.94 55.5833 746.934C55.5645 746.928 55.5458 746.923 55.527 746.917C55.5082 746.911 55.4895 746.906 55.4707 746.9C55.4519 746.894 55.4332 746.889 55.4144 746.883C55.3956 746.877 55.3768 746.872 55.3581 746.866C55.3393 746.86 55.3205 746.855 55.3018 746.849C55.283 746.843 55.2642 746.838 55.2454 746.832C55.2267 746.826 55.2079 746.821 55.1891 746.815C55.1704 746.809 55.1516 746.804 55.1328 746.798C55.114 746.792 55.0953 746.787 55.0765 746.781C55.0577 746.775 55.039 746.77 55.0202 746.764C55.0014 746.758 54.9827 746.753 54.9639 746.747C54.9451 746.741 54.9263 746.736 54.9076 746.73C54.8888 746.724 54.87 746.719 54.8513 746.713C54.8325 746.707 54.8137 746.702 54.7949 746.696C54.7762 746.69 54.7574 746.685 54.7386 746.679C54.7199 746.673 54.7011 746.668 54.6823 746.662C54.6635 746.656 54.6448 746.651 54.626 746.645C54.6072 746.639 54.5885 746.634 54.5697 746.628C54.5509 746.622 54.5322 746.617 54.5134 746.611C54.4946 746.605 54.4758 746.6 54.4571 746.594C54.4383 746.588 54.4195 746.583 54.4007 746.577C54.382 746.571 54.3632 746.566 54.3444 746.56C54.3257 746.554 54.3069 746.549 54.2881 746.543C54.2694 746.537 54.2506 746.532 54.2318 746.526C54.213 746.52 54.1943 746.515 54.1755 746.509C54.1567 746.503 54.138 746.498 54.1192 746.492C54.1004 746.486 54.0817 746.481 54.0629 746.475C54.0441 746.469 54.0253 746.464 54.0066 746.458C53.9878 746.452 53.969 746.447 53.9502 746.441C53.9315 746.435 53.9127 746.43 53.8939 746.424C53.8752 746.418 53.8564 746.413 53.8376 746.407C53.8189 746.401 53.8001 746.396 53.7813 746.39C53.7625 746.384 53.7438 746.379 53.725 746.373C53.7062 746.367 53.6875 746.362 53.6687 746.356C53.6499 746.35 53.6312 746.345 53.6124 746.339C53.5936 746.333 53.5748 746.328 53.5561 746.322C53.5373 746.316 53.5185 746.311 53.4998 746.305C53.481 746.299 53.4622 746.294 53.4434 746.288C53.4247 746.282 53.4059 746.277 53.3871 746.271C53.3684 746.265 53.3496 746.26 53.3308 746.254C53.312 746.248 53.2933 746.243 53.2745 746.237C53.2557 746.231 53.237 746.226 53.2182 746.22C53.1994 746.214 53.1806 746.209 53.1619 746.203C53.1431 746.197 53.1243 746.192 53.1056 746.186C53.0868 746.18 53.068 746.175 53.0493 746.169C53.0305 746.163 53.0117 746.158 52.9929 746.152C52.9742 746.146 52.9554 746.141 52.9366 746.135C52.9179 746.129 52.8991 746.124 52.8803 746.118C52.8615 746.112 52.8428 746.107 52.824 746.101C52.8052 746.095 52.7865 746.09 52.7677 746.084C52.7489 746.078 52.7301 746.073 52.7114 746.067C52.6926 746.061 52.6738 746.056 52.6551 746.05C52.6363 746.044 52.6175 746.039 52.5988 746.033C52.58 746.027 52.5612 746.022 52.5424 746.016C52.5237 746.01 52.5049 746.005 52.4861 745.999C52.4674 745.993 52.4486 745.988 52.4298 745.982C52.411 745.976 52.3923 745.971 52.3735 745.965C52.3547 745.959 52.336 745.954 52.3172 745.948C52.2984 745.942 52.2796 745.937 52.2609 745.931C52.2421 745.925 52.2233 745.92 52.2046 745.914C52.1858 745.908 52.167 745.903 52.1483 745.897C52.1295 745.891 52.1107 745.886 52.0919 745.88C52.0732 745.874 52.0544 745.869 52.0356 745.863C52.0169 745.857 51.9981 745.852 51.9793 745.846C51.9605 745.84 51.9418 745.835 51.923 745.829C51.9042 745.823 51.8855 745.818 51.8667 745.812C51.8479 745.806 51.8291 745.801 51.8104 745.795C51.7916 745.789 51.7728 745.784 51.7541 745.778C51.7353 745.772 51.7165 745.767 51.6978 745.761C51.679 745.755 51.6602 745.75 51.6414 745.744C51.6227 745.738 51.6039 745.733 51.5851 745.727C51.5664 745.721 51.5476 745.716 51.5288 745.71C51.51 745.704 51.4913 745.699 51.4725 745.693C51.4537 745.687 51.435 745.682 51.4162 745.676C51.3974 745.67 51.3786 745.665 51.3599 745.659C51.3411 745.653 51.3223 745.648 51.3036 745.642C51.2848 745.636 51.266 745.631 51.2473 745.625C51.2285 745.619 51.2097 745.614 51.1909 745.608C51.1722 745.602 51.1534 745.597 51.1346 745.591C51.1159 745.585 51.0971 745.58 51.0783 745.574C51.0595 745.568 51.0408 745.563 51.022 745.557C51.0032 745.551 50.9845 745.546 50.9657 745.54C50.9469 745.534 50.9281 745.529 50.9094 745.523C50.8906 745.517 50.8718 745.512 50.8531 745.506C50.8343 745.5 50.8155 745.495 50.7968 745.489C50.778 745.483 50.7592 745.478 50.7404 745.472C50.7217 745.466 50.7029 745.461 50.6841 745.455C50.6654 745.449 50.6466 745.444 50.6278 745.438C50.609 745.432 50.5903 745.427 50.5715 745.421C50.5527 745.415 50.534 745.41 50.5152 745.404C50.4964 745.398 50.4776 745.393 50.4589 745.387C50.4401 745.381 50.4213 745.376 50.4026 745.37C50.3838 745.364 50.365 745.359 50.3463 745.353C50.3275 745.347 50.3087 745.342 50.2899 745.336C50.2712 745.33 50.2524 745.325 50.2336 745.319C50.2149 745.313 50.1961 745.308 50.1773 745.302C50.1585 745.296 50.1398 745.291 50.121 745.285L49.543 747.2ZM78.3725 755.903C87.8766 758.799 96.9715 761.831 105.657 764.998L106.343 763.119C97.6205 759.939 88.4914 756.896 78.9555 753.99L78.3725 755.903ZM105 764.058L105 783.506L107 783.506L107 764.058L105 764.058ZM105.687 782.556C91.1128 787.354 75.7209 791.836 59.5111 796.002L60.0089 797.939C76.2578 793.763 91.6925 789.269 106.313 784.456L105.687 782.556ZM59.5162 796C43.3017 800.077 27.3146 803.7 11.5548 806.87L11.9492 808.831C27.7414 805.654 43.7596 802.024 60.0038 797.94L59.5162 796ZM12.752 807.85L12.752 784.866L10.752 784.866L10.752 807.85L12.752 807.85ZM11.9191 785.852C17.2747 784.945 22.8564 783.946 28.6643 782.857L28.2957 780.891C22.4983 781.978 16.928 782.975 11.5849 783.88L11.9191 785.852ZM28.6671 782.857C34.3832 781.768 40.1445 780.634 45.9511 779.454L45.5529 777.494C39.7542 778.672 34.0008 779.805 28.2929 780.892L28.6671 782.857ZM45.9511 779.454C51.7577 778.275 57.3833 777.095 62.8278 775.916L62.4042 773.961C56.9687 775.139 51.3516 776.316 45.5529 777.494L45.9511 779.454ZM62.8432 775.912C68.2938 774.64 73.3385 773.368 77.9767 772.095L77.4473 770.166C72.8375 771.431 67.8182 772.698 62.3888 773.964L62.8432 775.912ZM78.0568 770.192C73.5962 768.553 68.865 766.961 63.8633 765.415L63.2727 767.326C68.2444 768.862 72.9424 770.444 77.3672 772.069L78.0568 770.192ZM63.8633 765.415C58.8714 763.872 53.8794 762.374 48.8873 760.922L48.3287 762.843C53.31 764.292 58.2913 765.786 63.2727 767.326L63.8633 765.415ZM48.8873 760.922C43.8909 759.469 39.0747 758.151 34.439 756.969L33.945 758.907C38.5573 760.083 43.3518 761.395 48.3287 762.843L48.8873 760.922ZM34.4567 756.974C29.8328 755.705 25.7076 754.571 22.0812 753.574L21.5508 755.503C25.1777 756.5 29.3032 757.633 33.9273 758.903L34.4567 756.974ZM22.816 754.538L22.816 736.45L20.816 736.45L20.816 754.538L22.816 754.538ZM106 651.825L107 651.825L107 650.825L106 650.825L106 651.825ZM106 672.089L106 673.089L107 673.089L107 672.089L106 672.089ZM34.464 672.089L33.464 672.089L33.464 673.089L34.464 673.089L34.464 672.089ZM34.464 651.825L34.464 650.825L33.464 650.825L33.464 651.825L34.464 651.825ZM22.632 653.593L23.381 652.931L23.3794 652.929L22.632 653.593ZM22.632 670.593L23.3668 671.272L23.3803 671.257L23.3932 671.242L22.632 670.593ZM5.088 670.593L5.83699 669.931L5.83541 669.929L5.088 670.593ZM5.088 653.593L5.8228 654.272L5.83632 654.257L5.84924 654.242L5.088 653.593ZM105 651.825L105 672.089L107 672.089L107 651.825L105 651.825ZM106 671.089L34.464 671.089L34.464 673.089L106 673.089L106 671.089ZM35.464 672.089L35.464 651.825L33.464 651.825L33.464 672.089L35.464 672.089ZM34.464 652.825L106 652.825L106 650.825L34.464 650.825L34.464 652.825ZM13.792 650.921C17.2665 650.921 19.925 652.053 21.8846 654.258L23.3794 652.929C20.987 650.238 17.7522 648.921 13.792 648.921L13.792 650.921ZM21.883 654.256C23.8002 656.423 24.76 658.996 24.76 662.025L26.76 662.025C26.76 658.527 25.6345 655.478 23.381 652.931L21.883 654.256ZM24.76 662.025C24.76 665.056 23.7995 667.681 21.8708 669.945L23.3932 671.242C25.6352 668.61 26.76 665.523 26.76 662.025L24.76 662.025ZM21.8972 669.915C19.9411 672.034 17.2788 673.129 13.792 673.129L13.792 675.129C17.7399 675.129 20.9709 673.867 23.3668 671.272L21.8972 669.915ZM13.792 673.129C10.3042 673.129 7.6978 672.034 5.83699 669.931L4.339 671.256C6.64886 673.867 9.84512 675.129 13.792 675.129L13.792 673.129ZM5.83541 669.929C3.82149 667.663 2.824 665.044 2.824 662.025L0.823997 662.025C0.823997 665.535 2.0025 668.627 4.34059 671.258L5.83541 669.929ZM2.824 662.025C2.824 659.008 3.82058 656.441 5.8228 654.272L4.35319 652.915C2.00342 655.461 0.823997 658.515 0.823997 662.025L2.824 662.025ZM5.84924 654.242C7.71393 652.053 10.3169 650.921 13.792 650.921L13.792 648.921C9.83248 648.921 6.63273 650.238 4.32675 652.945L5.84924 654.242ZM36.912 632.777L35.9514 633.055L36.1604 633.777L36.912 633.777L36.912 632.777ZM34.192 619.449L35.1809 619.301L35.1797 619.292L35.1784 619.284L34.192 619.449ZM35.28 587.217L36.2055 587.596L36.2107 587.583L36.2155 587.57L35.28 587.217ZM41.944 577.561L42.5746 578.337L41.944 577.561ZM52.28 572.529L52.5225 573.499L52.5225 573.499L52.28 572.529ZM106 571.033L107 571.033L107 570.033L106 570.033L106 571.033ZM106 591.297L106 592.297L107 592.297L107 591.297L106 591.297ZM54.184 593.881L54.7191 594.726L54.184 593.881ZM50.376 608.161L51.3745 608.105L51.3729 608.078L51.3699 608.05L50.376 608.161ZM50.784 612.513L49.794 612.654L49.9167 613.513L50.784 613.513L50.784 612.513ZM106 612.513L107 612.513L107 611.513L106 611.513L106 612.513ZM106 632.777L106 633.777L107 633.777L107 632.777L106 632.777ZM37.8726 632.499C36.8922 629.112 35.9934 624.717 35.1809 619.301L33.2031 619.597C34.0226 625.061 34.9371 629.551 35.9514 633.055L37.8726 632.499ZM35.1784 619.284C34.2815 613.903 33.832 608.246 33.832 602.313L31.832 602.313C31.832 608.347 32.2892 614.115 33.2056 619.613L35.1784 619.284ZM33.832 602.313C33.832 596.319 34.6384 591.426 36.2055 587.596L34.3544 586.838C32.6576 590.986 31.832 596.158 31.832 602.313L33.832 602.313ZM36.2155 587.57C37.7049 583.628 39.8319 580.565 42.5746 578.337L41.3134 576.785C38.2535 579.271 35.9378 582.646 34.3445 586.863L36.2155 587.57ZM42.5746 578.337C45.3514 576.081 48.6608 574.464 52.5225 573.499L52.0375 571.559C47.9205 572.588 44.3393 574.326 41.3134 576.785L42.5746 578.337ZM52.5225 573.499C56.4192 572.525 60.7787 572.033 65.608 572.033L65.608 570.033C60.6453 570.033 56.1195 570.538 52.0375 571.559L52.5225 573.499ZM65.608 572.033L106 572.033L106 570.033L65.608 570.033L65.608 572.033ZM105 571.033L105 591.297L107 591.297L107 571.033L105 571.033ZM106 590.297L68.056 590.297L68.056 592.297L106 592.297L106 590.297ZM68.056 590.297C61.4976 590.297 56.6244 591.152 53.649 593.036L54.7191 594.726C57.1836 593.165 61.5584 592.297 68.056 592.297L68.056 590.297ZM53.649 593.036C50.5193 595.018 49.104 598.651 49.104 603.537L51.104 603.537C51.104 598.993 52.4087 596.189 54.7191 594.726L53.649 593.036ZM49.104 603.537C49.104 605.029 49.1972 606.607 49.3821 608.271L51.3699 608.05C51.1921 606.45 51.104 604.946 51.104 603.537L49.104 603.537ZM49.3775 608.216C49.4694 609.87 49.6077 611.35 49.794 612.654L51.774 612.371C51.5976 611.137 51.4639 609.716 51.3745 608.105L49.3775 608.216ZM50.784 613.513L106 613.513L106 611.513L50.784 611.513L50.784 613.513ZM105 612.513L105 632.777L107 632.777L107 612.513L105 612.513ZM106 631.777L36.912 631.777L36.912 633.777L106 633.777L106 631.777ZM84.784 531.203L84.1902 530.398L84.784 531.203ZM90.36 513.659L91.3583 513.6L91.3566 513.571L91.3532 513.542L90.36 513.659ZM89.816 509.851L90.7999 509.672L90.6506 508.851L89.816 508.851L89.816 509.851ZM52.96 509.851L52.96 508.851L52.4141 508.851L52.1188 509.31L52.96 509.851ZM50.92 514.883L51.8848 515.146L51.8876 515.135L50.92 514.883ZM103.688 489.587L104.646 489.3L104.432 488.587L103.688 488.587L103.688 489.587ZM105.32 495.843L106.302 495.654L106.299 495.636L106.294 495.618L105.32 495.843ZM106.544 503.323L105.553 503.46L105.554 503.464L106.544 503.323ZM107.36 511.211L106.362 511.277L106.363 511.296L106.365 511.314L107.36 511.211ZM97.84 546.299L98.5372 547.016L98.5471 547.006L97.84 546.299ZM86.144 553.643L86.4768 554.586L86.4881 554.582L86.4992 554.578L86.144 553.643ZM55 553.915L55.2993 552.961L55.2941 552.959L55 553.915ZM43.032 547.659L42.3918 548.427L43.032 547.659ZM35.552 537.731L34.6339 538.127L34.6373 538.135L35.552 537.731ZM33.784 516.651L34.7542 516.893L34.7564 516.884L33.784 516.651ZM36.096 509.851L37.0113 510.254L37.6285 508.851L36.096 508.851L36.096 509.851ZM3.728 509.851L2.74072 510.01L2.87618 510.851L3.728 510.851L3.728 509.851ZM0.464001 489.587L0.464001 488.587L-0.709963 488.587L-0.523273 489.746L0.464001 489.587ZM69.688 536.419C76.0894 536.419 81.35 534.98 85.3779 532.008L84.1902 530.398C80.602 533.047 75.7986 534.419 69.688 534.419L69.688 536.419ZM85.3779 532.008C89.4866 528.975 91.496 524.478 91.496 518.691L89.496 518.691C89.496 523.965 87.6975 527.81 84.1902 530.398L85.3779 532.008ZM91.496 518.691C91.496 516.861 91.4503 515.164 91.3583 513.6L89.3617 513.718C89.4511 515.236 89.496 516.894 89.496 518.691L91.496 518.691ZM91.3532 513.542C91.1705 511.99 90.9864 510.698 90.7999 509.672L88.8321 510.03C89.0083 510.999 89.1868 512.246 89.3669 513.776L91.3532 513.542ZM89.816 508.851L52.96 508.851L52.96 510.851L89.816 510.851L89.816 508.851ZM52.1188 509.31C51.227 510.697 50.5126 512.483 49.9524 514.631L51.8876 515.135C52.4154 513.112 53.061 511.543 53.8012 510.392L52.1188 509.31ZM49.9552 514.62C49.3876 516.701 49.104 518.829 49.104 521.003L51.104 521.003C51.104 519.006 51.3644 517.054 51.8848 515.146L49.9552 514.62ZM49.104 521.003C49.104 526.059 50.8377 529.993 54.4072 532.62C57.9194 535.206 63.0667 536.419 69.688 536.419L69.688 534.419C63.2533 534.419 58.6086 533.23 55.5928 531.01C52.6343 528.832 51.104 525.557 51.104 521.003L49.104 521.003ZM102.73 489.874C103.267 491.662 103.805 493.726 104.346 496.068L106.294 495.618C105.747 493.245 105.197 491.138 104.646 489.3L102.73 489.874ZM104.338 496.032C104.788 498.37 105.193 500.846 105.553 503.46L107.535 503.186C107.17 500.541 106.759 498.03 106.302 495.654L104.338 496.032ZM105.554 503.464C105.913 505.977 106.182 508.581 106.362 511.277L108.358 511.144C108.175 508.401 107.9 505.747 107.534 503.182L105.554 503.464ZM106.365 511.314C106.634 513.912 106.768 516.416 106.768 518.827L108.768 518.827C108.768 516.342 108.63 513.769 108.355 511.108L106.365 511.314ZM106.768 518.827C106.768 524.624 105.921 529.761 104.247 534.254L106.121 534.952C107.893 530.197 108.768 524.817 108.768 518.827L106.768 518.827ZM104.247 534.254C102.569 538.757 100.195 542.53 97.1329 545.592L98.5471 547.006C101.832 543.722 104.353 539.697 106.121 534.952L104.247 534.254ZM97.1429 545.582C93.9831 548.654 90.203 551.031 85.7888 552.708L86.4992 554.578C91.1517 552.81 95.1689 550.291 98.5371 547.016L97.1429 545.582ZM85.8112 552.7C81.3101 554.289 76.2569 555.091 70.64 555.091L70.64 557.091C76.4471 557.091 81.7299 556.261 86.4768 554.586L85.8112 552.7ZM70.64 555.091C64.9195 555.091 59.8096 554.376 55.2993 552.961L54.7007 554.869C59.4384 556.355 64.7552 557.091 70.64 557.091L70.64 555.091ZM55.2941 552.959C50.6859 551.541 46.8193 549.513 43.6722 546.891L42.3918 548.427C45.7727 551.245 49.8848 553.387 54.7059 554.871L55.2941 552.959ZM43.6722 546.891C40.5269 544.27 38.1273 541.085 36.4667 537.327L34.6373 538.135C36.422 542.174 39.0091 545.608 42.3918 548.427L43.6722 546.891ZM36.4701 537.335C34.8098 533.49 33.968 529.095 33.968 524.131L31.968 524.131C31.968 529.322 32.8489 533.994 34.6339 538.127L36.4701 537.335ZM33.968 524.131C33.968 521.382 34.2342 518.973 34.7541 516.893L32.8139 516.408C32.2458 518.681 31.968 521.258 31.968 524.131L33.968 524.131ZM34.7564 516.884C35.2856 514.679 36.0365 512.469 37.0113 510.254L35.1807 509.448C34.1608 511.766 33.3704 514.089 32.8116 516.418L34.7564 516.884ZM36.096 508.851L3.728 508.851L3.728 510.851L36.096 510.851L36.096 508.851ZM4.71527 509.692L1.45127 489.428L-0.523273 489.746L2.74072 510.01L4.71527 509.692ZM0.464001 490.587L103.688 490.587L103.688 488.587L0.464001 488.587L0.464001 490.587ZM85.6 406.149L85.9328 405.206L85.9271 405.204L85.6 406.149ZM97.568 413.221L98.2547 412.494L98.2446 412.484L97.568 413.221ZM105.184 424.373L104.261 424.757L104.264 424.764L105.184 424.373ZM105.184 453.205L106.104 453.596L106.107 453.589L105.184 453.205ZM97.568 464.221L98.2447 464.957L98.2546 464.948L97.568 464.221ZM85.6 471.429L85.9432 472.368L85.9491 472.366L85.6 471.429ZM54.728 471.429L54.3629 472.36L54.3709 472.363L54.3789 472.366L54.728 471.429ZM42.896 464.085L42.1989 464.802L42.2041 464.807L42.2094 464.812L42.896 464.085ZM35.28 452.933L34.3569 453.317L34.3598 453.324L35.28 452.933ZM35.28 424.645L36.2002 425.036L36.2031 425.029L35.28 424.645ZM42.896 413.493L43.5826 414.22L42.896 413.493ZM54.728 406.285L55.0771 407.222L54.728 406.285ZM55.408 428.181L55.9675 429.01L55.9795 429.002L55.9912 428.993L55.408 428.181ZM55.408 449.533L55.9913 448.72L55.9815 448.714L55.408 449.533ZM85.056 449.533L85.62 450.359L85.6295 450.352L85.056 449.533ZM85.056 428.181L84.492 429.007L84.4965 429.01L85.056 428.181ZM70.096 404.701C75.6199 404.701 80.6759 405.503 85.2729 407.094L85.9271 405.204C81.0948 403.531 75.8147 402.701 70.096 402.701L70.096 404.701ZM85.2672 407.092C89.7736 408.682 93.6436 410.973 96.8914 413.957L98.2446 412.484C94.7831 409.304 90.6744 406.879 85.9328 405.206L85.2672 407.092ZM96.8814 413.948C100.038 416.929 102.499 420.528 104.261 424.757L106.107 423.988C104.243 419.513 101.626 415.678 98.2546 412.494L96.8814 413.948ZM104.264 424.764C106.017 428.884 106.904 433.553 106.904 438.789L108.904 438.789C108.904 433.326 107.978 428.384 106.104 423.981L104.264 424.764ZM106.904 438.789C106.904 443.931 106.018 448.603 104.261 452.82L106.107 453.589C107.977 449.102 108.904 444.164 108.904 438.789L106.904 438.789ZM104.264 452.813C102.503 456.952 100.042 460.509 96.8814 463.494L98.2546 464.948C101.622 461.768 104.239 457.98 106.104 453.596L104.264 452.813ZM96.8914 463.484C93.6395 466.473 89.7639 468.81 85.2509 470.492L85.9491 472.366C90.6841 470.602 94.7871 468.134 98.2446 464.957L96.8914 463.484ZM85.2568 470.49C80.6645 472.168 75.6142 473.013 70.096 473.013L70.096 475.013C75.8205 475.013 81.1062 474.135 85.9432 472.368L85.2568 470.49ZM70.096 473.013C64.5775 473.013 59.575 472.167 55.0771 470.492L54.3789 472.366C59.129 474.136 64.3719 475.013 70.096 475.013L70.096 473.013ZM55.0931 470.498C50.5757 468.726 46.7441 466.344 43.5826 463.358L42.2094 464.812C45.5759 467.991 49.6324 470.505 54.3629 472.36L55.0931 470.498ZM43.5931 463.368C40.426 460.289 37.9624 456.683 36.2002 452.541L34.3598 453.324C36.2243 457.706 38.838 461.534 42.1989 464.802L43.5931 463.368ZM36.2031 452.548C34.4443 448.327 33.56 443.744 33.56 438.789L31.56 438.789C31.56 443.988 32.489 448.834 34.3569 453.317L36.2031 452.548ZM33.56 438.789C33.56 433.74 34.4453 429.16 36.2002 425.036L34.3598 424.253C32.488 428.652 31.56 433.502 31.56 438.789L33.56 438.789ZM36.2031 425.029C37.9652 420.8 40.4257 417.201 43.5826 414.22L42.2094 412.766C38.8383 415.95 36.2214 419.785 34.3569 424.26L36.2031 425.029ZM43.5826 414.22C46.7401 411.238 50.566 408.902 55.0771 407.222L54.3789 405.348C49.642 407.112 45.5799 409.582 42.2094 412.766L43.5826 414.22ZM55.0771 407.222C59.575 405.546 64.5775 404.701 70.096 404.701L70.096 402.701C64.3719 402.701 59.129 403.578 54.3789 405.348L55.0771 407.222ZM70.096 423.373C63.7187 423.373 58.5905 424.665 54.8248 427.369L55.9912 428.993C59.2975 426.619 63.9613 425.373 70.096 425.373L70.096 423.373ZM54.8485 427.352C50.9283 429.998 48.968 433.855 48.968 438.789L50.968 438.789C50.968 434.475 52.6344 431.26 55.9675 429.01L54.8485 427.352ZM48.968 438.789C48.968 443.722 50.9267 447.617 54.8345 450.352L55.9815 448.714C52.6359 446.372 50.968 443.104 50.968 438.789L48.968 438.789ZM54.8248 450.345C58.5905 453.049 63.7187 454.341 70.096 454.341L70.096 452.341C63.9613 452.341 59.2975 451.094 55.9912 448.72L54.8248 450.345ZM70.096 454.341C76.4773 454.341 81.6832 453.047 85.62 450.359L84.492 448.707C80.9941 451.096 76.2267 452.341 70.096 452.341L70.096 454.341ZM85.6295 450.352C89.5373 447.617 91.496 443.722 91.496 438.789L89.496 438.789C89.496 443.104 87.8281 446.372 84.4825 448.714L85.6295 450.352ZM91.496 438.789C91.496 433.855 89.5357 429.998 85.6155 427.352L84.4965 429.01C87.8296 431.26 89.496 434.475 89.496 438.789L91.496 438.789ZM85.62 427.355C81.6832 424.666 76.4773 423.373 70.096 423.373L70.096 425.373C76.2267 425.373 80.9941 426.618 84.492 429.007L85.62 427.355ZM64.928 346.077L64.6735 345.11L60.9986 346.077L64.6735 347.044L64.928 346.077ZM85.464 351.925L85.1708 352.881L85.1825 352.885L85.464 351.925ZM106 358.317L107 358.317L107 357.593L106.312 357.367L106 358.317ZM106 374.093L106.394 375.012L107 374.753L107 374.093L106 374.093ZM92.4 379.397L92.0596 378.457L92.4 379.397ZM75.264 385.381L75.5678 386.334L75.5761 386.331L75.5844 386.328L75.264 385.381ZM55.544 391.637L55.8302 392.595L55.8377 392.593L55.8451 392.591L55.544 391.637ZM34.464 397.757L33.464 397.757L33.464 399.078L34.7355 398.72L34.464 397.757ZM34.464 376.405L34.2471 375.429L33.464 375.603L33.464 376.405L34.464 376.405ZM45.208 374.093L45.4129 375.072L45.4263 375.069L45.4396 375.066L45.208 374.093ZM57.04 371.373L57.2569 372.349L57.2672 372.347L57.2775 372.345L57.04 371.373ZM69.416 368.381L69.6486 369.354L69.6612 369.351L69.6737 369.347L69.416 368.381ZM81.248 365.117L81.5227 366.079L84.8317 365.133L81.5313 364.158L81.248 365.117ZM69.008 361.717L68.736 362.68L68.7458 362.682L68.7556 362.685L69.008 361.717ZM56.768 358.453L56.5103 359.419L56.5179 359.421L56.5255 359.423L56.768 358.453ZM45.072 355.461L44.8186 356.429L44.8268 356.431L44.8351 356.433L45.072 355.461ZM34.464 352.877L33.464 352.877L33.464 353.679L34.2471 353.853L34.464 352.877ZM34.464 338.189L34.2471 337.213L33.464 337.387L33.464 338.189L34.464 338.189ZM45.072 335.741L45.3036 336.714L45.309 336.713L45.072 335.741ZM56.768 332.885L57.0055 333.857L57.0105 333.855L56.768 332.885ZM69.008 329.757L68.7556 328.79L69.008 329.757ZM81.248 326.357L81.5313 327.316L84.8317 326.341L81.5227 325.396L81.248 326.357ZM69.416 323.093L69.6737 322.127L69.6684 322.126L69.416 323.093ZM57.04 320.101L56.8025 321.073L56.8128 321.075L56.8231 321.077L57.04 320.101ZM45.208 317.381L44.9815 318.355L44.99 318.357L44.9985 318.359L45.208 317.381ZM34.464 314.933L33.464 314.933L33.464 315.735L34.2471 315.909L34.464 314.933ZM34.464 293.853L34.7355 292.891L33.464 292.532L33.464 293.853L34.464 293.853ZM55.544 300.109L55.2464 301.064L55.2543 301.066L55.544 300.109ZM75.264 306.365L74.9478 307.314L74.9562 307.317L75.264 306.365ZM92.4 312.349L92.0454 313.284L92.0524 313.287L92.0596 313.289L92.4 312.349ZM106 317.653L107 317.653L107 316.994L106.394 316.734L106 317.653ZM106 333.429L106.312 334.379L107 334.153L107 333.429L106 333.429ZM85.464 340.093L85.7688 341.046L85.464 340.093ZM64.6735 347.044C71.5512 348.854 78.3837 350.8 85.1708 352.881L85.7572 350.969C78.9443 348.88 72.0861 346.927 65.1825 345.11L64.6735 347.044ZM85.1825 352.885C91.9719 354.876 98.8069 357.004 105.688 359.267L106.312 357.367C99.4118 355.097 92.5561 352.963 85.7455 350.966L85.1825 352.885ZM105 358.317L105 374.093L107 374.093L107 358.317L105 358.317ZM105.606 373.174C101.821 374.796 97.306 376.557 92.0596 378.457L92.7404 380.337C98.0114 378.429 102.563 376.654 106.394 375.012L105.606 373.174ZM92.0596 378.457C86.8085 380.358 81.1033 382.35 74.9436 384.434L75.5844 386.328C81.7554 384.241 87.4742 382.244 92.7404 380.337L92.0596 378.457ZM74.9602 384.428C68.7052 386.423 62.1327 388.508 55.2429 390.684L55.8451 392.591C62.7366 390.415 69.3108 388.329 75.5678 386.334L74.9602 384.428ZM55.2578 390.679C48.2814 392.763 41.2597 394.801 34.1925 396.795L34.7355 398.72C41.8123 396.724 48.8439 394.682 55.8302 392.595L55.2578 390.679ZM35.464 397.757L35.464 376.405L33.464 376.405L33.464 397.757L35.464 397.757ZM34.6809 377.381C37.9402 376.657 41.5175 375.887 45.4129 375.072L45.0031 373.114C41.1012 373.931 37.5158 374.703 34.2471 375.429L34.6809 377.381ZM45.4396 375.066C49.2424 374.161 53.1815 373.255 57.2569 372.349L56.8231 370.397C52.7385 371.305 48.7896 372.212 44.9764 373.12L45.4396 375.066ZM57.2775 372.345C61.3558 371.348 65.4795 370.351 69.6486 369.354L69.1834 367.409C65.0112 368.406 60.8842 369.404 56.8025 370.402L57.2775 372.345ZM69.6737 369.347C73.759 368.258 77.7087 367.168 81.5227 366.079L80.9733 364.156C77.1713 365.242 73.233 366.328 69.1583 367.415L69.6737 369.347ZM81.5313 364.158C77.5314 362.976 73.4411 361.84 69.2604 360.75L68.7556 362.685C72.9163 363.77 76.9859 364.901 80.9647 366.076L81.5313 364.158ZM69.28 360.755C65.1 359.574 61.0102 358.483 57.0105 357.483L56.5255 359.423C60.5044 360.418 64.5746 361.503 68.736 362.68L69.28 360.755ZM57.0257 357.487C52.9395 356.397 49.0339 355.398 45.309 354.49L44.8351 356.433C48.5448 357.338 52.4365 358.333 56.5103 359.419L57.0257 357.487ZM45.3254 354.494C41.5073 353.494 37.959 352.629 34.6809 351.901L34.2471 353.853C37.497 354.576 41.0207 355.434 44.8186 356.429L45.3254 354.494ZM35.464 352.877L35.464 338.189L33.464 338.189L33.464 352.877L35.464 352.877ZM34.6809 339.165C37.9506 338.439 41.4915 337.622 45.3036 336.714L44.8404 334.768C41.0365 335.674 37.5054 336.489 34.2471 337.213L34.6809 339.165ZM45.309 336.713C49.0265 335.806 52.9253 334.854 57.0055 333.857L56.5305 331.914C52.4507 332.911 48.5522 333.863 44.8351 334.77L45.309 336.713ZM57.0105 333.855C61.0033 332.857 65.0866 331.814 69.2604 330.725L68.7556 328.79C64.588 329.877 60.5114 330.919 56.5255 331.915L57.0105 333.855ZM69.2604 330.725C73.4411 329.634 77.5314 328.498 81.5313 327.316L80.9647 325.398C76.9859 326.574 72.9163 327.704 68.7556 328.79L69.2604 330.725ZM81.5227 325.396C77.7087 324.306 73.759 323.216 69.6737 322.127L69.1583 324.059C73.233 325.146 77.1713 326.232 80.9733 327.319L81.5227 325.396ZM69.6684 322.126C65.4863 321.035 61.3492 320.034 57.2569 319.125L56.8231 321.077C60.8908 321.981 65.0043 322.976 69.1636 324.061L69.6684 322.126ZM57.2775 319.13C53.1889 318.13 49.2356 317.222 45.4175 316.403L44.9985 318.359C48.7964 319.173 52.7311 320.077 56.8025 321.073L57.2775 319.13ZM45.4345 316.407C41.5333 315.5 37.9487 314.683 34.6809 313.957L34.2471 315.909C37.5073 316.634 41.0854 317.449 44.9815 318.355L45.4345 316.407ZM35.464 314.933L35.464 293.853L33.464 293.853L33.464 314.933L35.464 314.933ZM34.1925 294.816C41.2559 296.808 48.2738 298.891 55.2464 301.064L55.8416 299.154C48.8515 296.976 41.8162 294.888 34.7355 292.891L34.1925 294.816ZM55.2543 301.066C62.1369 303.149 68.7014 305.232 74.9478 307.314L75.5802 305.417C69.3147 303.328 62.7324 301.24 55.8337 299.152L55.2543 301.066ZM74.9562 307.317C81.1081 309.307 86.8043 311.296 92.0454 313.284L92.7547 311.414C87.4784 309.413 81.7506 307.413 75.5718 305.414L74.9562 307.317ZM92.0596 313.289C97.306 315.189 101.821 316.95 105.606 318.572L106.394 316.734C102.563 315.092 98.0114 313.317 92.7404 311.409L92.0596 313.289ZM105 317.653L105 333.429L107 333.429L107 317.653L105 317.653ZM105.688 332.479C98.7994 334.745 91.9566 336.966 85.1592 339.141L85.7688 341.046C92.5714 338.869 99.4193 336.647 106.312 334.379L105.688 332.479ZM85.1592 339.141C78.3758 341.311 71.5473 343.301 64.6735 345.11L65.1825 347.044C72.0901 345.226 78.9522 343.227 85.7688 341.046L85.1592 339.141ZM11.752 179.013L11.752 178.013L10.752 178.013L10.752 179.013L11.752 179.013ZM29.84 179.013L30.84 179.013L30.84 178.013L29.84 178.013L29.84 179.013ZM29.84 207.437L28.84 207.437L28.84 208.437L29.84 208.437L29.84 207.437ZM106 207.437L107 207.437L107 206.437L106 206.437L106 207.437ZM106 228.653L106 229.653L107 229.653L107 228.653L106 228.653ZM29.84 228.653L29.84 227.653L28.84 227.653L28.84 228.653L29.84 228.653ZM29.84 257.077L29.84 258.077L30.84 258.077L30.84 257.077L29.84 257.077ZM11.752 257.077L10.752 257.077L10.752 258.077L11.752 258.077L11.752 257.077ZM11.752 180.013L29.84 180.013L29.84 178.013L11.752 178.013L11.752 180.013ZM28.84 179.013L28.84 207.437L30.84 207.437L30.84 179.013L28.84 179.013ZM29.84 208.437L106 208.437L106 206.437L29.84 206.437L29.84 208.437ZM105 207.437L105 228.653L107 228.653L107 207.437L105 207.437ZM106 227.653L29.84 227.653L29.84 229.653L106 229.653L106 227.653ZM28.84 228.653L28.84 257.077L30.84 257.077L30.84 228.653L28.84 228.653ZM29.84 256.077L11.752 256.077L11.752 258.077L29.84 258.077L29.84 256.077ZM12.752 257.077L12.752 179.013L10.752 179.013L10.752 257.077L12.752 257.077ZM106 146.474L107 146.474L107 145.474L106 145.474L106 146.474ZM106 166.738L106 167.738L107 167.738L107 166.738L106 166.738ZM34.464 166.738L33.464 166.738L33.464 167.738L34.464 167.738L34.464 166.738ZM34.464 146.474L34.464 145.474L33.464 145.474L33.464 146.474L34.464 146.474ZM22.632 148.242L23.381 147.579L23.3794 147.577L22.632 148.242ZM22.632 165.242L23.3668 165.92L23.3803 165.905L23.3932 165.89L22.632 165.242ZM5.088 165.242L5.837 164.579L5.83541 164.577L5.088 165.242ZM5.088 148.242L5.82281 148.92L5.83632 148.905L5.84925 148.89L5.088 148.242ZM105 146.474L105 166.738L107 166.738L107 146.474L105 146.474ZM106 165.738L34.464 165.738L34.464 167.738L106 167.738L106 165.738ZM35.464 166.738L35.464 146.474L33.464 146.474L33.464 166.738L35.464 166.738ZM34.464 147.474L106 147.474L106 145.474L34.464 145.474L34.464 147.474ZM13.792 145.57C17.2665 145.57 19.925 146.702 21.8846 148.906L23.3794 147.577C20.987 144.886 17.7522 143.57 13.792 143.57L13.792 145.57ZM21.883 148.904C23.8002 151.072 24.76 153.644 24.76 156.674L26.76 156.674C26.76 153.176 25.6345 150.127 23.381 147.579L21.883 148.904ZM24.76 156.674C24.76 159.704 23.7995 162.329 21.8708 164.593L23.3932 165.89C25.6352 163.258 26.76 160.172 26.76 156.674L24.76 156.674ZM21.8972 164.564C19.9411 166.683 17.2788 167.778 13.792 167.778L13.792 169.778C17.7399 169.778 20.9709 168.516 23.3668 165.92L21.8972 164.564ZM13.792 167.778C10.3042 167.778 7.69781 166.683 5.837 164.579L4.339 165.904C6.64886 168.516 9.84513 169.778 13.792 169.778L13.792 167.778ZM5.83541 164.577C3.8215 162.312 2.824 159.692 2.824 156.674L0.824003 156.674C0.824003 160.184 2.0025 163.276 4.34059 165.906L5.83541 164.577ZM2.824 156.674C2.824 153.656 3.82058 151.089 5.82281 148.92L4.3532 147.564C2.00342 150.109 0.824003 153.163 0.824003 156.674L2.824 156.674ZM5.84925 148.89C7.71394 146.701 10.3169 145.57 13.792 145.57L13.792 143.57C9.83248 143.57 6.63273 144.886 4.32676 147.593L5.84925 148.89ZM36.912 127.425L35.9514 127.703L36.1604 128.425L36.912 128.425L36.912 127.425ZM34.192 114.097L35.1809 113.949L35.1797 113.941L35.1784 113.933L34.192 114.097ZM35.28 81.8653L36.2055 82.244L36.2107 82.2314L36.2155 82.2187L35.28 81.8653ZM41.944 72.2093L42.5746 72.9854L41.944 72.2093ZM52.28 67.1773L52.5225 68.1475L52.28 67.1773ZM106 65.6813L107 65.6813L107 64.6813L106 64.6813L106 65.6813ZM106 85.9453L106 86.9453L107 86.9453L107 85.9453L106 85.9453ZM54.184 88.5293L54.7191 89.3741L54.184 88.5293ZM50.376 102.809L51.3745 102.754L51.3729 102.726L51.3699 102.699L50.376 102.809ZM50.784 107.161L49.7941 107.303L49.9167 108.161L50.784 108.161L50.784 107.161ZM106 107.161L107 107.161L107 106.161L106 106.161L106 107.161ZM106 127.425L106 128.425L107 128.425L107 127.425L106 127.425ZM37.8726 127.147C36.8922 123.761 35.9934 119.366 35.1809 113.949L33.2031 114.246C34.0226 119.709 34.9371 124.199 35.9514 127.703L37.8726 127.147ZM35.1784 113.933C34.2815 108.552 33.832 102.895 33.832 96.9613L31.832 96.9613C31.832 102.996 32.2892 108.763 33.2056 114.262L35.1784 113.933ZM33.832 96.9613C33.832 90.9673 34.6384 86.0746 36.2055 82.244L34.3545 81.4867C32.6576 85.6346 31.832 90.806 31.832 96.9613L33.832 96.9613ZM36.2155 82.2187C37.7049 78.2762 39.8319 75.2139 42.5746 72.9854L41.3134 71.4332C38.2535 73.9194 35.9378 77.2944 34.3445 81.5119L36.2155 82.2187ZM42.5746 72.9854C45.3514 70.7293 48.6608 69.1129 52.5225 68.1475L52.0375 66.2072C47.9205 67.2364 44.3393 68.9747 41.3134 71.4332L42.5746 72.9854ZM52.5225 68.1475C56.4192 67.1733 60.7787 66.6813 65.608 66.6813L65.608 64.6813C60.6453 64.6813 56.1195 65.1866 52.0375 66.2072L52.5225 68.1475ZM65.608 66.6813L106 66.6813L106 64.6813L65.608 64.6813L65.608 66.6813ZM105 65.6813L105 85.9453L107 85.9453L107 65.6813L105 65.6813ZM106 84.9453L68.056 84.9453L68.056 86.9453L106 86.9453L106 84.9453ZM68.056 84.9453C61.4976 84.9453 56.6245 85.8 53.649 87.6845L54.7191 89.3741C57.1836 87.8133 61.5584 86.9453 68.056 86.9453L68.056 84.9453ZM53.649 87.6845C50.5193 89.6666 49.104 93.2997 49.104 98.1853L51.104 98.1853C51.104 93.6416 52.4087 90.8373 54.7191 89.3741L53.649 87.6845ZM49.104 98.1853C49.104 99.6773 49.1972 101.256 49.3821 102.92L51.3699 102.699C51.1921 101.099 51.104 99.5947 51.104 98.1853L49.104 98.1853ZM49.3775 102.865C49.4694 104.518 49.6077 105.998 49.7941 107.303L51.774 107.02C51.5976 105.786 51.4639 104.364 51.3745 102.754L49.3775 102.865ZM50.784 108.161L106 108.161L106 106.161L50.784 106.161L50.784 108.161ZM105 107.161L105 127.425L107 127.425L107 107.161L105 107.161ZM106 126.425L36.912 126.425L36.912 128.425L106 128.425L106 126.425ZM16.648 48.0193L15.6607 48.1784L15.7962 49.0193L16.648 49.0193L16.648 48.0193ZM13.384 27.7554L13.384 26.7554L12.21 26.7554L12.3967 27.9144L13.384 27.7554ZM34.464 27.7554L34.464 28.7554L35.464 28.7554L35.464 27.7554L34.464 27.7554ZM34.464 3.41138L34.464 2.41138L33.464 2.41138L33.464 3.41138L34.464 3.41138ZM51.328 3.41138L52.328 3.41138L52.328 2.41138L51.328 2.41138L51.328 3.41138ZM51.328 27.7554L50.328 27.7554L50.328 28.7554L51.328 28.7554L51.328 27.7554ZM86.688 25.5793L87.1841 26.4476L87.1957 26.441L87.207 26.4341L86.688 25.5793ZM89.952 9.80335L90.9394 9.64539L90.937 9.62988L90.934 9.6145L89.952 9.80335ZM88.184 3.41138L88.0059 2.42737L86.8208 2.64191L87.2495 3.7674L88.184 3.41138ZM103.96 0.55536L104.886 0.178102L104.58 -0.573119L103.782 -0.428648L103.96 0.55536ZM106.544 8.71539L105.572 8.95099L106.544 8.71539ZM105.456 33.4673L106.376 33.8585L106.381 33.8487L106.384 33.8387L105.456 33.4673ZM99.2 42.1714L99.8247 42.9523L99.8312 42.9471L99.8376 42.9418L99.2 42.1714ZM89.408 46.7954L89.6175 47.7732L89.6286 47.7708L89.6396 47.7682L89.408 46.7954ZM17.6353 47.8604L14.3713 27.5964L12.3967 27.9144L15.6607 48.1784L17.6353 47.8604ZM13.384 28.7554L34.464 28.7554L34.464 26.7554L13.384 26.7554L13.384 28.7554ZM35.464 27.7554L35.464 3.41138L33.464 3.41138L33.464 27.7554L35.464 27.7554ZM34.464 4.41138L51.328 4.41138L51.328 2.41138L34.464 2.41138L34.464 4.41138ZM50.328 3.41138L50.328 27.7554L52.328 27.7554L52.328 3.41138L50.328 3.41138ZM51.328 28.7554L76.488 28.7554L76.488 26.7554L51.328 26.7554L51.328 28.7554ZM76.488 28.7554C80.8489 28.7554 84.4408 28.0153 87.1841 26.4476L86.1919 24.7111C83.8579 26.0448 80.6498 26.7554 76.488 26.7554L76.488 28.7554ZM87.207 26.4341C90.1808 24.6287 91.496 21.1534 91.496 16.4673L89.496 16.4673C89.496 20.848 88.2726 23.4475 86.169 24.7246L87.207 26.4341ZM91.496 16.4673C91.496 14.2357 91.31 11.9614 90.9394 9.64539L88.9646 9.96137C89.3193 12.1787 89.496 14.3471 89.496 16.4673L91.496 16.4673ZM90.934 9.6145C90.4716 7.20996 89.8677 5.02216 89.1185 3.05536L87.2495 3.7674C87.9509 5.60858 88.5258 7.68213 88.97 9.99225L90.934 9.6145ZM88.3621 4.39539L104.138 1.53937L103.782 -0.428648L88.0059 2.42737L88.3621 4.39539ZM103.034 0.93268C104.01 3.32788 104.857 5.99964 105.572 8.95099L107.516 8.4798C106.781 5.44715 105.905 2.6789 104.886 0.178102L103.034 0.93268ZM105.572 8.95099C106.273 11.8414 106.632 15.4289 106.632 19.7314L108.632 19.7314C108.632 15.3298 108.266 11.5734 107.516 8.4798L105.572 8.95099ZM106.632 19.7314C106.632 25.1837 105.916 29.6256 104.528 33.096L106.384 33.8387C107.898 30.0558 108.632 25.3404 108.632 19.7314L106.632 19.7314ZM104.536 33.0762C103.047 36.5786 101.051 39.3417 98.5624 41.401L99.8376 42.9418C102.608 40.649 104.782 37.6096 106.376 33.8585L104.536 33.0762ZM98.5753 41.3905C95.9841 43.4635 92.8587 44.9459 89.1764 45.8226L89.6396 47.7682C93.5733 46.8316 96.9759 45.2313 99.8247 42.9523L98.5753 41.3905ZM89.1985 45.8176C85.4707 46.6164 81.3263 47.0193 76.76 47.0193L76.76 49.0193C81.4418 49.0193 85.7293 48.6064 89.6175 47.7732L89.1985 45.8176ZM76.76 47.0193L16.648 47.0193L16.648 49.0193L76.76 49.0193L76.76 47.0193Z" fill="white"/>
</svg>
